<svg width="934" height="188" viewBox="0 0 934 188" fill="none" xmlns="http://www.w3.org/2000/svg">
<g filter="url(#filter0_d_3184_839)">
<rect x="0.5" y="26" width="933" height="146" rx="8" fill="white" shape-rendering="crispEdges"/>
<rect x="1.5" y="27" width="931" height="144" rx="7" stroke="#FC6B00" stroke-width="2" stroke-dasharray="6 4" shape-rendering="crispEdges"/>
<path d="M524.518 77.88C524.651 77.88 524.751 78.02 524.818 78.3C524.885 78.5667 524.918 78.94 524.918 79.42C524.918 79.9133 524.885 80.3 524.818 80.58C524.751 80.86 524.651 81 524.518 81H524.278C523.025 81 521.945 80.7267 521.038 80.18C520.225 80.4467 519.391 80.6533 518.538 80.8C517.685 80.9333 516.918 81 516.238 81C514.585 81 512.965 80.5333 511.378 79.6C510.991 79.6933 510.691 79.96 510.478 80.4C510.265 80.8267 510.158 81.32 510.158 81.88C510.158 82.6133 510.358 83.4667 510.758 84.44C511.171 85.4133 511.691 86.2533 512.318 86.96L509.478 88.4C508.785 87.56 508.231 86.56 507.818 85.4C507.418 84.24 507.218 83.0733 507.218 81.9C507.218 80.6467 507.445 79.5467 507.898 78.6C508.365 77.64 509.038 76.9733 509.918 76.6C510.145 75.48 510.385 74.5267 510.638 73.74C510.891 72.9533 511.385 72.1867 512.118 71.44C512.865 70.6933 513.885 70.32 515.178 70.32C516.285 70.32 517.318 70.6133 518.278 71.2C519.238 71.7733 520.045 72.5733 520.698 73.6C521.365 74.6267 521.825 75.78 522.078 77.06C522.251 77.3667 522.458 77.58 522.698 77.7C522.951 77.82 523.325 77.88 523.818 77.88H524.518ZM516.278 77.88C516.905 77.88 517.651 77.78 518.518 77.58C518.371 76.8333 518.131 76.1467 517.798 75.52C517.465 74.88 517.078 74.3733 516.638 74C516.198 73.6267 515.765 73.44 515.338 73.44C514.805 73.44 514.418 73.7067 514.178 74.24C513.938 74.76 513.731 75.48 513.558 76.4C513.531 76.5467 513.505 76.6733 513.478 76.78C513.451 76.8867 513.431 76.98 513.418 77.06C513.978 77.3533 514.471 77.5667 514.898 77.7C515.338 77.82 515.798 77.88 516.278 77.88ZM547.383 77.88C547.517 77.88 547.617 78.02 547.683 78.3C547.75 78.5667 547.783 78.94 547.783 79.42C547.783 79.9133 547.75 80.3 547.683 80.58C547.617 80.86 547.517 81 547.383 81H545.883C544.657 81 543.67 80.6667 542.923 80C542.11 80.6667 540.943 81 539.423 81C537.917 81 536.783 80.6733 536.023 80.02C535.237 80.6733 534.07 81 532.523 81C530.99 81 529.85 80.6667 529.103 80C528.29 80.6667 527.117 81 525.583 81H524.523C524.39 81 524.29 80.86 524.223 80.58C524.157 80.3 524.123 79.9133 524.123 79.42C524.123 78.94 524.157 78.5667 524.223 78.3C524.29 78.02 524.39 77.88 524.523 77.88H525.183C525.863 77.88 526.323 77.76 526.563 77.52C526.803 77.28 526.923 76.8467 526.923 76.22V72.7H530.483V76.24C530.483 76.6533 530.45 77.0733 530.383 77.5C530.543 77.6333 530.75 77.7333 531.003 77.8C531.257 77.8533 531.59 77.88 532.003 77.88C532.51 77.88 532.897 77.8333 533.163 77.74C533.43 77.6467 533.61 77.4867 533.703 77.26C533.81 77.02 533.863 76.6733 533.863 76.22V71.7H537.423V76.24C537.423 76.6667 537.39 77.1 537.323 77.54C537.63 77.7667 538.157 77.88 538.903 77.88C539.41 77.88 539.797 77.8333 540.063 77.74C540.33 77.6467 540.51 77.4867 540.603 77.26C540.71 77.02 540.763 76.6733 540.763 76.22V70.7H544.323V76.24C544.323 76.6533 544.29 77.08 544.223 77.52C544.49 77.76 544.857 77.88 545.323 77.88H547.383ZM561.935 77.88C562.068 77.88 562.168 78.02 562.235 78.3C562.302 78.5667 562.335 78.94 562.335 79.42C562.335 79.9133 562.302 80.3 562.235 80.58C562.168 80.86 562.068 81 561.935 81H547.375C547.242 81 547.142 80.86 547.075 80.58C547.008 80.3 546.975 79.9133 546.975 79.42C546.975 78.94 547.008 78.5667 547.075 78.3C547.142 78.02 547.242 77.88 547.375 77.88H549.435C549.142 77.2133 548.995 76.5133 548.995 75.78C548.995 74.7533 549.255 73.8267 549.775 73C550.295 72.1733 551.002 71.52 551.895 71.04C552.788 70.56 553.768 70.32 554.835 70.32C556.288 70.32 557.902 70.7867 559.675 71.72V77.88H561.935ZM552.555 75.76C552.555 76.2933 552.702 76.7533 552.995 77.14C553.288 77.5133 553.682 77.7533 554.175 77.86H556.135V73.62C555.762 73.5 555.348 73.44 554.895 73.44C554.202 73.44 553.635 73.66 553.195 74.1C552.768 74.5267 552.555 75.08 552.555 75.76ZM556.595 68.76C556.182 68.76 555.835 68.62 555.555 68.34C555.275 68.06 555.135 67.7067 555.135 67.28C555.135 66.8533 555.275 66.5 555.555 66.22C555.835 65.94 556.182 65.8 556.595 65.8C557.022 65.8 557.368 65.94 557.635 66.22C557.915 66.5 558.055 66.8533 558.055 67.28C558.055 67.7067 557.915 68.06 557.635 68.34C557.368 68.62 557.022 68.76 556.595 68.76ZM553.155 68.76C552.742 68.76 552.395 68.62 552.115 68.34C551.835 68.06 551.695 67.7067 551.695 67.28C551.695 66.8533 551.835 66.5 552.115 66.22C552.395 65.94 552.742 65.8 553.155 65.8C553.582 65.8 553.928 65.94 554.195 66.22C554.475 66.5 554.615 66.8533 554.615 67.28C554.615 67.7067 554.475 68.06 554.195 68.34C553.928 68.62 553.582 68.76 553.155 68.76ZM567.086 65.94V81H561.926C561.792 81 561.692 80.86 561.626 80.58C561.559 80.3 561.526 79.9133 561.526 79.42C561.526 78.94 561.559 78.5667 561.626 78.3C561.692 78.02 561.792 77.88 561.926 77.88H563.526V65.94H567.086ZM570.046 65.94H573.606V81H570.046V65.94ZM601.181 65.94V81H596.021C595.888 81 595.788 80.86 595.721 80.58C595.654 80.3 595.621 79.9133 595.621 79.42C595.621 78.94 595.654 78.5667 595.721 78.3C595.788 78.02 595.888 77.88 596.021 77.88H597.621V65.94H601.181ZM600.181 77.88C600.314 77.88 600.414 78.02 600.481 78.3C600.548 78.5667 600.581 78.94 600.581 79.42C600.581 79.9133 600.548 80.3 600.481 80.58C600.414 80.86 600.314 81 600.181 81H598.981C598.888 82.6133 598.148 83.8 596.761 84.56C595.374 85.3333 593.161 85.72 590.121 85.72C587.268 85.72 585.074 85.2533 583.541 84.32C582.021 83.4 581.261 81.9333 581.261 79.92C581.261 79.48 581.294 78.96 581.361 78.36C581.428 77.7467 581.528 77.1733 581.661 76.64L585.121 77.38C585.028 77.7267 584.954 78.14 584.901 78.62C584.848 79.1 584.821 79.54 584.821 79.94C584.821 80.5667 584.954 81.0667 585.221 81.44C585.488 81.8133 586.001 82.0933 586.761 82.28C587.521 82.48 588.614 82.58 590.041 82.58C591.948 82.58 593.261 82.44 593.981 82.16C594.714 81.8933 595.101 81.5 595.141 80.98C593.248 80.8333 591.808 80.2667 590.821 79.28L593.321 77.06C593.628 77.3667 593.968 77.58 594.341 77.7C594.714 77.82 595.261 77.88 595.981 77.88H600.181ZM604.147 65.94H607.707V81H604.147V65.94ZM608.507 85.32V87.12H603.347V85.32H603.727C603.661 85.0533 603.627 84.8067 603.627 84.58C603.627 83.82 603.894 83.2 604.427 82.72C604.961 82.24 605.641 82 606.467 82C607.107 82 607.727 82.1333 608.327 82.4L607.527 84.14C607.407 84.0733 607.247 84.02 607.047 83.98C606.861 83.94 606.674 83.92 606.487 83.92C606.154 83.92 605.887 83.9867 605.687 84.12C605.501 84.2533 605.407 84.4267 605.407 84.64C605.407 84.8 605.454 84.94 605.547 85.06C605.641 85.1933 605.767 85.28 605.927 85.32H608.507ZM620.682 81C619.682 81 618.776 80.78 617.962 80.34C617.149 79.8867 616.509 79.28 616.042 78.52C615.589 77.7467 615.362 76.9 615.362 75.98C615.362 74.9933 615.616 74.0667 616.122 73.2C616.642 72.32 617.309 71.6133 618.122 71.08C618.949 70.5467 619.802 70.28 620.682 70.28C621.562 70.28 622.409 70.5467 623.222 71.08C624.049 71.6133 624.716 72.32 625.222 73.2C625.742 74.0667 626.002 74.9933 626.002 75.98C626.002 76.9 625.769 77.7467 625.302 78.52C624.849 79.28 624.216 79.8867 623.402 80.34C622.589 80.78 621.682 81 620.682 81ZM620.682 77.88C621.216 77.88 621.642 77.7133 621.962 77.38C622.282 77.0467 622.442 76.58 622.442 75.98C622.442 75.5933 622.342 75.2 622.142 74.8C621.956 74.4 621.722 74.0667 621.442 73.8C621.162 73.5333 620.909 73.4 620.682 73.4C620.456 73.4 620.202 73.5333 619.922 73.8C619.642 74.0667 619.402 74.4 619.202 74.8C619.016 75.2 618.922 75.5933 618.922 75.98C618.922 76.58 619.082 77.0467 619.402 77.38C619.722 77.7133 620.149 77.88 620.682 77.88ZM622.422 68.84C622.009 68.84 621.662 68.7 621.382 68.42C621.102 68.14 620.962 67.7867 620.962 67.36C620.962 66.9333 621.102 66.58 621.382 66.3C621.662 66.02 622.009 65.88 622.422 65.88C622.849 65.88 623.196 66.02 623.462 66.3C623.742 66.58 623.882 66.9333 623.882 67.36C623.882 67.7867 623.742 68.14 623.462 68.42C623.196 68.7 622.849 68.84 622.422 68.84ZM618.982 68.84C618.569 68.84 618.222 68.7 617.942 68.42C617.662 68.14 617.522 67.7867 617.522 67.36C617.522 66.9333 617.662 66.58 617.942 66.3C618.222 66.02 618.569 65.88 618.982 65.88C619.409 65.88 619.756 66.02 620.022 66.3C620.302 66.58 620.442 66.9333 620.442 67.36C620.442 67.7867 620.302 68.14 620.022 68.42C619.756 68.7 619.409 68.84 618.982 68.84ZM642.682 77.88C642.815 77.88 642.915 78.02 642.982 78.3C643.049 78.5667 643.082 78.94 643.082 79.42C643.082 79.9133 643.049 80.3 642.982 80.58C642.915 80.86 642.815 81 642.682 81H641.142C639.782 81 638.675 80.7533 637.822 80.26C636.035 80.7533 634.109 81 632.042 81C630.615 81 629.229 80.8733 627.882 80.62V77.42C629.202 77.7267 630.575 77.88 632.002 77.88C633.309 77.88 634.522 77.76 635.642 77.52C635.482 77.0933 635.349 76.72 635.242 76.4L632.982 69.86L636.342 68.88L638.602 75.4C638.882 76.2267 639.102 76.7933 639.262 77.1C639.422 77.4067 639.629 77.6133 639.882 77.72C640.135 77.8133 640.555 77.86 641.142 77.86H642.682V77.88ZM648.367 70.7V81H642.687C642.554 81 642.454 80.86 642.387 80.58C642.321 80.3 642.287 79.9133 642.287 79.42C642.287 78.94 642.321 78.5667 642.387 78.3C642.454 78.02 642.554 77.88 642.687 77.88H644.827V70.7H648.367ZM648.327 85.52C647.914 85.52 647.567 85.38 647.287 85.1C647.007 84.82 646.867 84.4667 646.867 84.04C646.867 83.6133 647.007 83.26 647.287 82.98C647.567 82.7 647.914 82.56 648.327 82.56C648.754 82.56 649.101 82.7 649.367 82.98C649.647 83.26 649.787 83.6133 649.787 84.04C649.787 84.4667 649.647 84.82 649.367 85.1C649.101 85.38 648.754 85.52 648.327 85.52ZM644.887 85.52C644.474 85.52 644.127 85.38 643.847 85.1C643.567 84.82 643.427 84.4667 643.427 84.04C643.427 83.6133 643.567 83.26 643.847 82.98C644.127 82.7 644.474 82.56 644.887 82.56C645.314 82.56 645.661 82.7 645.927 82.98C646.207 83.26 646.347 83.6133 646.347 84.04C646.347 84.4667 646.207 84.82 645.927 85.1C645.661 85.38 645.314 85.52 644.887 85.52ZM665.26 77.88C665.393 77.88 665.493 78.02 665.56 78.3C665.627 78.5667 665.66 78.94 665.66 79.42C665.66 79.9133 665.627 80.3 665.56 80.58C665.493 80.86 665.393 81 665.26 81H663.72C662.36 81 661.253 80.7533 660.4 80.26C658.613 80.7533 656.687 81 654.62 81C653.193 81 651.807 80.8733 650.46 80.62V77.42C651.78 77.7267 653.153 77.88 654.58 77.88C655.887 77.88 657.1 77.76 658.22 77.52C658.06 77.0933 657.927 76.72 657.82 76.4L655.56 69.86L658.92 68.88L661.18 75.4C661.46 76.2267 661.68 76.7933 661.84 77.1C662 77.4067 662.207 77.6133 662.46 77.72C662.713 77.8133 663.133 77.86 663.72 77.86H665.26V77.88ZM677.606 77.88L677.046 81H665.266C665.132 81 665.032 80.86 664.966 80.58C664.899 80.3 664.866 79.9133 664.866 79.42C664.866 78.94 664.899 78.5667 664.966 78.3C665.032 78.02 665.132 77.88 665.266 77.88H673.386V76.26C673.386 75.3533 673.099 74.64 672.526 74.12C671.952 73.5867 671.192 73.32 670.246 73.32C669.206 73.32 668.239 73.64 667.346 74.28L665.786 71.38C666.452 70.9933 667.166 70.7 667.926 70.5C668.686 70.2867 669.459 70.18 670.246 70.18C671.512 70.18 672.652 70.44 673.666 70.96C674.679 71.48 675.472 72.2067 676.046 73.14C676.632 74.06 676.926 75.1 676.926 76.26V77.88H677.606ZM670.226 86.16C669.719 86.16 669.299 85.9933 668.966 85.66C668.632 85.3267 668.466 84.9 668.466 84.38C668.466 83.86 668.632 83.4333 668.966 83.1C669.299 82.7667 669.719 82.6 670.226 82.6C670.732 82.6 671.152 82.7667 671.486 83.1C671.819 83.4333 671.986 83.86 671.986 84.38C671.986 84.9 671.819 85.3267 671.486 85.66C671.152 85.9933 670.732 86.16 670.226 86.16ZM698.336 77.88C698.469 77.88 698.569 78.02 698.636 78.3C698.703 78.5667 698.736 78.94 698.736 79.42C698.736 79.9133 698.703 80.3 698.636 80.58C698.569 80.86 698.469 81 698.336 81H697.276C695.703 81 694.529 80.5333 693.756 79.6C692.476 80.1467 691.296 80.42 690.216 80.42C689.176 80.42 688.223 80.1867 687.356 79.72C686.489 79.24 685.803 78.5867 685.296 77.76C684.789 76.9333 684.536 76.0267 684.536 75.04C684.536 74.0533 684.789 73.1533 685.296 72.34C685.803 71.5133 686.489 70.8667 687.356 70.4C688.236 69.9333 689.196 69.7 690.236 69.7H692.736V69.14H696.296V76.22C696.296 76.8067 696.409 77.2333 696.636 77.5C696.863 77.7533 697.243 77.88 697.776 77.88H698.336ZM690.516 77.3C691.183 77.3 691.923 77.06 692.736 76.58V76.24V72.82H690.476C689.809 72.82 689.243 73.04 688.776 73.48C688.323 73.9067 688.096 74.4267 688.096 75.04C688.096 75.68 688.323 76.22 688.776 76.66C689.243 77.0867 689.823 77.3 690.516 77.3ZM691.996 68.16C691.583 68.16 691.236 68.02 690.956 67.74C690.676 67.46 690.536 67.1067 690.536 66.68C690.536 66.2533 690.676 65.9 690.956 65.62C691.236 65.34 691.583 65.2 691.996 65.2C692.423 65.2 692.769 65.34 693.036 65.62C693.316 65.9 693.456 66.2533 693.456 66.68C693.456 67.1067 693.316 67.46 693.036 67.74C692.769 68.02 692.423 68.16 691.996 68.16ZM688.556 68.16C688.143 68.16 687.796 68.02 687.516 67.74C687.236 67.46 687.096 67.1067 687.096 66.68C687.096 66.2533 687.236 65.9 687.516 65.62C687.796 65.34 688.143 65.2 688.556 65.2C688.983 65.2 689.329 65.34 689.596 65.62C689.876 65.9 690.016 66.2533 690.016 66.68C690.016 67.1067 689.876 67.46 689.596 67.74C689.329 68.02 688.983 68.16 688.556 68.16ZM707.052 77.88C707.185 77.88 707.285 78.02 707.352 78.3C707.419 78.5667 707.452 78.94 707.452 79.42C707.452 79.9133 707.419 80.3 707.352 80.58C707.285 80.86 707.185 81 707.052 81H706.012C704.772 81 703.779 80.66 703.032 79.98C702.272 80.66 701.219 81 699.872 81H698.332C698.199 81 698.099 80.86 698.032 80.58C697.965 80.3 697.932 79.9133 697.932 79.42C697.932 78.94 697.965 78.5667 698.032 78.3C698.099 78.02 698.199 77.88 698.332 77.88H699.372C699.919 77.88 700.299 77.7533 700.512 77.5C700.739 77.2333 700.852 76.8067 700.852 76.22V70.7H704.412V76.24C704.412 76.64 704.379 77.0533 704.312 77.48C704.579 77.7467 704.959 77.88 705.452 77.88H707.052ZM704.372 85.52C703.959 85.52 703.612 85.38 703.332 85.1C703.052 84.82 702.912 84.4667 702.912 84.04C702.912 83.6133 703.052 83.26 703.332 82.98C703.612 82.7 703.959 82.56 704.372 82.56C704.799 82.56 705.145 82.7 705.412 82.98C705.692 83.26 705.832 83.6133 705.832 84.04C705.832 84.4667 705.692 84.82 705.412 85.1C705.145 85.38 704.799 85.52 704.372 85.52ZM700.932 85.52C700.519 85.52 700.172 85.38 699.892 85.1C699.612 84.82 699.472 84.4667 699.472 84.04C699.472 83.6133 699.612 83.26 699.892 82.98C700.172 82.7 700.519 82.56 700.932 82.56C701.359 82.56 701.705 82.7 701.972 82.98C702.252 83.26 702.392 83.6133 702.392 84.04C702.392 84.4667 702.252 84.82 701.972 85.1C701.705 85.38 701.359 85.52 700.932 85.52ZM723.243 77.88C723.376 77.88 723.476 78.02 723.543 78.3C723.61 78.5667 723.643 78.94 723.643 79.42C723.643 79.9133 723.61 80.3 723.543 80.58C723.476 80.86 723.376 81 723.243 81H723.003C721.75 81 720.663 80.7267 719.743 80.18C718.943 80.4467 718.116 80.6533 717.263 80.8C716.41 80.9333 715.636 81 714.943 81C713.636 81 712.336 80.7067 711.043 80.12C710.416 80.7067 709.59 81 708.563 81H707.043C706.91 81 706.81 80.86 706.743 80.58C706.676 80.3 706.643 79.9133 706.643 79.42C706.643 78.94 706.676 78.5667 706.743 78.3C706.81 78.02 706.91 77.88 707.043 77.88H707.323C707.696 77.88 707.983 77.7933 708.183 77.62C708.396 77.4333 708.536 77.16 708.603 76.8L708.683 76.38C708.843 75.4333 709.07 74.5267 709.363 73.66C709.656 72.7933 710.17 72 710.903 71.28C711.65 70.5467 712.656 70.18 713.923 70.18C715.03 70.18 716.056 70.4733 717.003 71.06C717.963 71.6467 718.77 72.46 719.423 73.5C720.09 74.54 720.55 75.72 720.803 77.04C720.976 77.3467 721.183 77.5667 721.423 77.7C721.676 77.82 722.043 77.88 722.523 77.88H723.243ZM712.163 77.08C712.71 77.3733 713.196 77.58 713.623 77.7C714.063 77.82 714.523 77.88 715.003 77.88C715.723 77.88 716.49 77.78 717.303 77.58C717.143 76.7933 716.89 76.08 716.543 75.44C716.196 74.7867 715.803 74.2733 715.363 73.9C714.936 73.5133 714.51 73.32 714.083 73.32C713.47 73.32 713.023 73.68 712.743 74.4C712.463 75.12 712.27 76.0133 712.163 77.08ZM731.954 77.88C732.088 77.88 732.188 78.02 732.254 78.3C732.321 78.5667 732.354 78.94 732.354 79.42C732.354 79.9133 732.321 80.3 732.254 80.58C732.188 80.86 732.088 81 731.954 81H730.914C729.674 81 728.681 80.66 727.934 79.98C727.174 80.66 726.121 81 724.774 81H723.234C723.101 81 723.001 80.86 722.934 80.58C722.868 80.3 722.834 79.9133 722.834 79.42C722.834 78.94 722.868 78.5667 722.934 78.3C723.001 78.02 723.101 77.88 723.234 77.88H724.274C724.821 77.88 725.201 77.7533 725.414 77.5C725.641 77.2333 725.754 76.8067 725.754 76.22V70.7H729.314V76.24C729.314 76.64 729.281 77.0533 729.214 77.48C729.481 77.7467 729.861 77.88 730.354 77.88H731.954ZM729.274 85.52C728.861 85.52 728.514 85.38 728.234 85.1C727.954 84.82 727.814 84.4667 727.814 84.04C727.814 83.6133 727.954 83.26 728.234 82.98C728.514 82.7 728.861 82.56 729.274 82.56C729.701 82.56 730.048 82.7 730.314 82.98C730.594 83.26 730.734 83.6133 730.734 84.04C730.734 84.4667 730.594 84.82 730.314 85.1C730.048 85.38 729.701 85.52 729.274 85.52ZM725.834 85.52C725.421 85.52 725.074 85.38 724.794 85.1C724.514 84.82 724.374 84.4667 724.374 84.04C724.374 83.6133 724.514 83.26 724.794 82.98C725.074 82.7 725.421 82.56 725.834 82.56C726.261 82.56 726.608 82.7 726.874 82.98C727.154 83.26 727.294 83.6133 727.294 84.04C727.294 84.4667 727.154 84.82 726.874 85.1C726.608 85.38 726.261 85.52 725.834 85.52ZM739.205 77.88C739.339 77.88 739.439 78.02 739.505 78.3C739.572 78.5667 739.605 78.94 739.605 79.42C739.605 79.9133 739.572 80.3 739.505 80.58C739.439 80.86 739.339 81 739.205 81H731.945C731.812 81 731.712 80.86 731.645 80.58C731.579 80.3 731.545 79.9133 731.545 79.42C731.545 78.94 731.579 78.5667 731.645 78.3C731.712 78.02 731.812 77.88 731.945 77.88H733.545V65.94H737.105V77.88H739.205ZM753.711 77.88C753.844 77.88 753.944 78.02 754.011 78.3C754.078 78.5667 754.111 78.94 754.111 79.42C754.111 79.9133 754.078 80.3 754.011 80.58C753.944 80.86 753.844 81 753.711 81H749.511C748.031 81 746.684 80.7667 745.471 80.3C744.111 80.7667 742.871 81 741.751 81H739.211C739.078 81 738.978 80.86 738.911 80.58C738.844 80.3 738.811 79.9133 738.811 79.42C738.811 78.94 738.844 78.5667 738.911 78.3C738.978 78.02 739.078 77.88 739.211 77.88H741.751H741.911C741.191 77.0533 740.644 76.12 740.271 75.08L743.191 70.36C744.084 70.16 744.958 70.06 745.811 70.06C747.024 70.06 748.098 70.2267 749.031 70.56C749.978 70.8933 750.711 71.36 751.231 71.96C751.764 72.56 752.031 73.24 752.031 74C752.031 74.6667 751.831 75.3333 751.431 76C751.031 76.6533 750.484 77.28 749.791 77.88H753.711ZM743.451 73.52C743.851 74.92 744.584 76 745.651 76.76C746.464 76.3467 747.138 75.8933 747.671 75.4C748.204 74.9067 748.471 74.4667 748.471 74.08C748.471 73.8533 748.224 73.6467 747.731 73.46C747.251 73.2733 746.591 73.18 745.751 73.18C744.951 73.18 744.184 73.2933 743.451 73.52ZM759.383 70.7V81H753.703C753.57 81 753.47 80.86 753.403 80.58C753.336 80.3 753.303 79.9133 753.303 79.42C753.303 78.94 753.336 78.5667 753.403 78.3C753.47 78.02 753.57 77.88 753.703 77.88H755.843V70.7H759.383ZM759.363 69.3C758.95 69.3 758.603 69.16 758.323 68.88C758.043 68.6 757.903 68.2467 757.903 67.82C757.903 67.3933 758.043 67.04 758.323 66.76C758.603 66.48 758.95 66.34 759.363 66.34C759.79 66.34 760.136 66.48 760.403 66.76C760.683 67.04 760.823 67.3933 760.823 67.82C760.823 68.2467 760.683 68.6 760.403 68.88C760.136 69.16 759.79 69.3 759.363 69.3ZM755.923 69.3C755.51 69.3 755.163 69.16 754.883 68.88C754.603 68.6 754.463 68.2467 754.463 67.82C754.463 67.3933 754.603 67.04 754.883 66.76C755.163 66.48 755.51 66.34 755.923 66.34C756.35 66.34 756.696 66.48 756.963 66.76C757.243 67.04 757.383 67.3933 757.383 67.82C757.383 68.2467 757.243 68.6 756.963 68.88C756.696 69.16 756.35 69.3 755.923 69.3ZM769.506 68.86C771.266 69.2067 772.813 69.8733 774.146 70.86C775.493 71.8333 776.56 73.0667 777.346 74.56C778.133 76.0533 778.6 77.7267 778.746 79.58C776.426 80.5267 773.853 81 771.026 81C769.6 81 768.213 80.8733 766.866 80.62V77.42C768.186 77.7267 769.56 77.88 770.986 77.88C772.373 77.88 773.633 77.7533 774.766 77.5C774.326 76.0467 773.6 74.8333 772.586 73.86C771.573 72.8733 770.32 72.2267 768.826 71.92L769.506 68.86ZM781.081 65.94H784.641V81H781.081V65.94ZM800.025 77.88C800.159 77.88 800.259 78.02 800.325 78.3C800.392 78.5667 800.425 78.94 800.425 79.42C800.425 79.9133 800.392 80.3 800.325 80.58C800.259 80.86 800.159 81 800.025 81H798.125C797.992 82.5067 797.399 83.6733 796.345 84.5C795.292 85.3267 793.932 85.7067 792.265 85.64L791.805 82.48C792.179 82.5067 792.439 82.52 792.585 82.52C793.212 82.52 793.679 82.4 793.985 82.16C794.292 81.9333 794.479 81.5467 794.545 81H792.745C791.692 81 790.719 80.7733 789.825 80.32C788.932 79.8667 788.219 79.24 787.685 78.44C787.165 77.64 786.905 76.7467 786.905 75.76C786.905 74.76 787.165 73.8467 787.685 73.02C788.219 72.1933 788.932 71.54 789.825 71.06C790.719 70.5667 791.692 70.32 792.745 70.32C793.639 70.32 794.572 70.4933 795.545 70.84C796.519 71.1867 797.339 71.6467 798.005 72.22L798.145 72.28V77.88H800.025ZM790.465 75.76C790.465 76.4133 790.679 76.9333 791.105 77.32C791.532 77.6933 792.085 77.88 792.765 77.88H794.585V73.88C793.959 73.5867 793.352 73.44 792.765 73.44C792.099 73.44 791.545 73.66 791.105 74.1C790.679 74.54 790.465 75.0933 790.465 75.76ZM806.911 70.18C808.258 70.18 809.478 70.6067 810.571 71.46C811.678 72.3133 812.538 73.4667 813.151 74.92C813.765 76.3733 814.051 77.96 814.011 79.68C813.065 80.1067 812.038 80.4333 810.931 80.66C809.825 80.8867 808.825 81 807.931 81C806.625 81 805.325 80.7067 804.031 80.12C803.405 80.7067 802.578 81 801.551 81H800.031C799.898 81 799.798 80.86 799.731 80.58C799.665 80.3 799.631 79.9133 799.631 79.42C799.631 78.94 799.665 78.5667 799.731 78.3C799.798 78.02 799.898 77.88 800.031 77.88H800.311C800.685 77.88 800.971 77.7933 801.171 77.62C801.385 77.4333 801.525 77.16 801.591 76.8L801.671 76.38C801.831 75.4333 802.058 74.5267 802.351 73.66C802.645 72.7933 803.158 72 803.891 71.28C804.638 70.5467 805.645 70.18 806.911 70.18ZM805.151 77.08C805.698 77.3733 806.185 77.58 806.611 77.7C807.051 77.82 807.511 77.88 807.991 77.88C808.711 77.88 809.478 77.78 810.291 77.58C810.131 76.7933 809.878 76.08 809.531 75.44C809.185 74.7867 808.791 74.2733 808.351 73.9C807.925 73.5133 807.498 73.32 807.071 73.32C806.458 73.32 806.011 73.68 805.731 74.4C805.451 75.12 805.258 76.0133 805.151 77.08ZM843.786 77.88C843.919 77.88 844.019 78.02 844.086 78.3C844.152 78.5667 844.186 78.94 844.186 79.42C844.186 79.9133 844.152 80.3 844.086 80.58C844.019 80.86 843.919 81 843.786 81H825.766C824.286 81 823.132 80.5667 822.306 79.7C821.479 78.8333 821.066 77.6333 821.066 76.1C821.066 74.2467 821.726 72.68 823.046 71.4L825.786 73.3C825.012 74.1667 824.626 75.0933 824.626 76.08C824.626 76.6533 824.766 77.1 825.046 77.42C825.326 77.7267 825.732 77.88 826.266 77.88H831.246C830.952 77.2133 830.806 76.5133 830.806 75.78C830.806 74.7533 831.066 73.8267 831.586 73C832.106 72.1733 832.812 71.52 833.706 71.04C834.599 70.56 835.579 70.32 836.646 70.32C838.099 70.32 839.712 70.7867 841.486 71.72V77.88H843.786ZM834.366 75.76C834.366 76.2933 834.506 76.7467 834.786 77.12C835.066 77.4933 835.446 77.74 835.926 77.86H837.946V73.62C837.572 73.5 837.159 73.44 836.706 73.44C836.012 73.44 835.446 73.66 835.006 74.1C834.579 74.5267 834.366 75.08 834.366 75.76ZM836.646 68.76C836.139 68.76 835.719 68.5933 835.386 68.26C835.052 67.9267 834.886 67.5 834.886 66.98C834.886 66.46 835.052 66.0333 835.386 65.7C835.719 65.3667 836.139 65.2 836.646 65.2C837.152 65.2 837.572 65.3667 837.906 65.7C838.239 66.0333 838.406 66.46 838.406 66.98C838.406 67.5 838.239 67.9267 837.906 68.26C837.572 68.5933 837.152 68.76 836.646 68.76ZM868.041 80.52H867.621V81H852.121C850.588 81 849.448 80.6667 848.701 80C847.888 80.6667 846.721 81 845.201 81H843.781C843.648 81 843.548 80.86 843.481 80.58C843.415 80.3 843.381 79.9133 843.381 79.42C843.381 78.94 843.415 78.5667 843.481 78.3C843.548 78.02 843.648 77.88 843.781 77.88H844.781C845.475 77.88 845.935 77.76 846.161 77.52C846.401 77.28 846.521 76.8467 846.521 76.22V71.7H850.081V76.24C850.081 76.6533 850.048 77.0733 849.981 77.5C850.141 77.6333 850.348 77.7333 850.601 77.8C850.855 77.8533 851.181 77.88 851.581 77.88C851.888 76.5467 852.415 75.28 853.161 74.08C853.908 72.88 854.928 71.8867 856.221 71.1C857.515 70.3133 859.068 69.92 860.881 69.92C862.455 69.92 863.775 70.2267 864.841 70.84C865.921 71.4533 866.721 72.28 867.241 73.32C867.775 74.3467 868.041 75.4933 868.041 76.76V80.52ZM861.041 73.04C859.641 73.04 858.415 73.4933 857.361 74.4C856.308 75.2933 855.581 76.4533 855.181 77.88H864.501V76.76C864.501 75.5467 864.201 74.6267 863.601 74C863.015 73.36 862.161 73.04 861.041 73.04ZM860.921 68C860.415 68 859.995 67.8333 859.661 67.5C859.328 67.1667 859.161 66.74 859.161 66.22C859.161 65.7 859.328 65.2733 859.661 64.94C859.995 64.6067 860.415 64.44 860.921 64.44C861.428 64.44 861.848 64.6067 862.181 64.94C862.515 65.2733 862.681 65.7 862.681 66.22C862.681 66.74 862.515 67.1667 862.181 67.5C861.848 67.8333 861.428 68 860.921 68ZM870.476 65.94H874.036V81H870.476V65.94ZM874.836 62.84V64.62H869.676V62.84H870.056C869.989 62.5733 869.956 62.32 869.956 62.08C869.956 61.32 870.222 60.7 870.756 60.22C871.289 59.74 871.969 59.5 872.796 59.5C873.449 59.5 874.069 59.64 874.656 59.92L873.856 61.66C873.736 61.5933 873.576 61.54 873.376 61.5C873.189 61.4467 873.002 61.42 872.816 61.42C872.482 61.42 872.216 61.4867 872.016 61.62C871.829 61.7533 871.736 61.9333 871.736 62.16C871.736 62.3067 871.782 62.4467 871.876 62.58C871.969 62.7 872.096 62.7867 872.256 62.84H874.836Z" fill="black"/>
<rect x="891.5" y="64" width="20" height="20" rx="10" fill="#FC6B00"/>
<path d="M901.472 69.731V78.5311M905.872 74.131H897.072" stroke="white" stroke-width="0.880007" stroke-linecap="round" stroke-linejoin="round"/>
<rect x="737" y="107.5" width="142" height="43" rx="5.5" fill="white"/>
<rect x="737" y="107.5" width="142" height="43" rx="5.5" stroke="#E7E5E4"/>
<path d="M779.516 132.306C779.703 132.306 779.796 132.586 779.796 133.146C779.796 133.715 779.703 134 779.516 134H777.976C777.957 134.999 777.654 135.778 777.066 136.338C776.487 136.907 775.699 137.197 774.7 137.206L774.434 135.484C774.509 135.493 774.611 135.498 774.742 135.498C775.218 135.498 775.568 135.381 775.792 135.148C776.016 134.915 776.133 134.532 776.142 134H774.658C773.949 134 773.291 133.841 772.684 133.524C772.087 133.207 771.611 132.773 771.256 132.222C770.901 131.662 770.724 131.046 770.724 130.374C770.724 129.702 770.901 129.086 771.256 128.526C771.611 127.966 772.087 127.523 772.684 127.196C773.291 126.869 773.949 126.706 774.658 126.706C775.181 126.706 775.727 126.804 776.296 127C776.865 127.187 777.379 127.439 777.836 127.756L777.976 127.812V132.306H779.516ZM772.558 130.374C772.558 130.738 772.647 131.069 772.824 131.368C773.011 131.657 773.263 131.886 773.58 132.054C773.907 132.222 774.275 132.306 774.686 132.306H776.142V128.764C775.638 128.521 775.153 128.4 774.686 128.4C774.275 128.4 773.907 128.489 773.58 128.666C773.263 128.843 773.011 129.081 772.824 129.38C772.647 129.679 772.558 130.01 772.558 130.374ZM782.834 127.084V134H779.516C779.329 134 779.236 133.715 779.236 133.146C779.236 132.586 779.329 132.306 779.516 132.306H781V127.084H782.834ZM783.058 136.94C782.806 136.94 782.596 136.851 782.428 136.674C782.26 136.497 782.176 136.277 782.176 136.016C782.176 135.736 782.26 135.507 782.428 135.33C782.596 135.162 782.806 135.078 783.058 135.078C783.328 135.078 783.548 135.162 783.716 135.33C783.884 135.507 783.968 135.736 783.968 136.016C783.968 136.277 783.879 136.497 783.702 136.674C783.534 136.851 783.319 136.94 783.058 136.94ZM780.804 136.94C780.552 136.94 780.342 136.851 780.174 136.674C780.006 136.497 779.922 136.277 779.922 136.016C779.922 135.736 780.006 135.507 780.174 135.33C780.342 135.162 780.552 135.078 780.804 135.078C781.074 135.078 781.294 135.162 781.462 135.33C781.63 135.507 781.714 135.736 781.714 136.016C781.714 136.277 781.625 136.497 781.448 136.674C781.28 136.851 781.065 136.94 780.804 136.94ZM794.267 132.306C794.454 132.306 794.547 132.586 794.547 133.146C794.547 133.715 794.454 134 794.267 134H793.175C792.261 134 791.547 133.804 791.033 133.412C789.811 133.804 788.485 134 787.057 134C786.115 134 785.209 133.911 784.341 133.734V131.984C785.2 132.199 786.11 132.306 787.071 132.306C788.135 132.306 789.12 132.18 790.025 131.928C789.941 131.732 789.853 131.489 789.759 131.2L788.051 126.258L789.773 125.712L791.481 130.668C791.668 131.219 791.817 131.597 791.929 131.802C792.041 132.007 792.181 132.143 792.349 132.208C792.517 132.264 792.793 132.292 793.175 132.292H794.267V132.306ZM799.896 132.306C800.082 132.306 800.176 132.586 800.176 133.146C800.176 133.715 800.082 134 799.896 134H799.14C798.328 134 797.665 133.785 797.152 133.356C796.694 133.785 796.004 134 795.08 134H794.268C794.081 134 793.988 133.715 793.988 133.146C793.988 132.586 794.081 132.306 794.268 132.306H794.898C795.374 132.306 795.7 132.208 795.878 132.012C796.055 131.816 796.144 131.485 796.144 131.018V127.084H797.964V131.032C797.964 131.405 797.926 131.755 797.852 132.082C798.085 132.231 798.374 132.306 798.72 132.306H799.896ZM798.188 136.94C797.936 136.94 797.726 136.851 797.558 136.674C797.39 136.497 797.306 136.277 797.306 136.016C797.306 135.736 797.39 135.507 797.558 135.33C797.726 135.162 797.936 135.078 798.188 135.078C798.458 135.078 798.678 135.162 798.846 135.33C799.014 135.507 799.098 135.736 799.098 136.016C799.098 136.277 799.009 136.497 798.832 136.674C798.664 136.851 798.449 136.94 798.188 136.94ZM795.934 136.94C795.682 136.94 795.472 136.851 795.304 136.674C795.136 136.497 795.052 136.277 795.052 136.016C795.052 135.736 795.136 135.507 795.304 135.33C795.472 135.162 795.682 135.078 795.934 135.078C796.204 135.078 796.424 135.162 796.592 135.33C796.76 135.507 796.844 135.736 796.844 136.016C796.844 136.277 796.755 136.497 796.578 136.674C796.41 136.851 796.195 136.94 795.934 136.94ZM804.926 126.706C805.85 126.706 806.854 126.981 807.936 127.532V134H799.9C799.714 134 799.62 133.715 799.62 133.146C799.62 132.586 799.714 132.306 799.9 132.306H801.51C801.156 131.746 800.978 131.125 800.978 130.444C800.978 129.744 801.156 129.109 801.51 128.54C801.865 127.971 802.341 127.523 802.938 127.196C803.545 126.869 804.208 126.706 804.926 126.706ZM802.812 130.43C802.812 130.897 802.948 131.303 803.218 131.648C803.498 131.984 803.872 132.203 804.338 132.306H806.102V128.61C805.72 128.47 805.332 128.4 804.94 128.4C804.324 128.4 803.816 128.591 803.414 128.974C803.013 129.357 802.812 129.842 802.812 130.43ZM804.94 125.53C804.651 125.53 804.408 125.432 804.212 125.236C804.026 125.031 803.932 124.779 803.932 124.48C803.932 124.172 804.026 123.92 804.212 123.724C804.408 123.528 804.651 123.43 804.94 123.43C805.239 123.43 805.482 123.528 805.668 123.724C805.864 123.92 805.962 124.172 805.962 124.48C805.962 124.779 805.864 125.031 805.668 125.236C805.472 125.432 805.23 125.53 804.94 125.53Z" fill="black"/>
<path d="M834.011 128.321L837.112 125.219C837.181 125.151 837.269 125.104 837.364 125.085C837.46 125.066 837.559 125.075 837.649 125.113C837.739 125.15 837.816 125.213 837.87 125.294C837.924 125.375 837.953 125.47 837.953 125.568V133.045C837.953 133.143 837.924 133.238 837.87 133.319C837.816 133.4 837.739 133.463 837.649 133.5C837.559 133.537 837.46 133.547 837.364 133.528C837.269 133.509 837.181 133.462 837.112 133.393L834.011 130.292M826.619 133.742H832.532C832.924 133.742 833.3 133.586 833.578 133.309C833.855 133.031 834.011 132.655 834.011 132.263V126.35C834.011 125.957 833.855 125.581 833.578 125.304C833.3 125.027 832.924 124.871 832.532 124.871H826.619C826.226 124.871 825.85 125.027 825.573 125.304C825.296 125.581 825.14 125.957 825.14 126.35V132.263C825.14 132.655 825.296 133.031 825.573 133.309C825.85 133.586 826.226 133.742 826.619 133.742Z" stroke="#FC6B00" stroke-width="0.985611" stroke-linecap="round"/>
<rect opacity="0.155" x="816.5" y="114" width="30" height="30" rx="15" fill="#FC6B00"/>
<rect x="580" y="107.5" width="132" height="43" rx="5.5" fill="white"/>
<rect x="580" y="107.5" width="132" height="43" rx="5.5" stroke="#E7E5E4"/>
<path d="M618.285 124.2C619.517 124.2 620.469 124.494 621.141 125.082C621.822 125.67 622.163 126.501 622.163 127.574C622.163 128.694 621.822 129.567 621.141 130.192C620.469 130.808 619.517 131.116 618.285 131.116H616.143V134H614.267V124.2H618.285ZM618.187 129.464C618.896 129.464 619.437 129.31 619.811 129.002C620.193 128.694 620.385 128.237 620.385 127.63C620.385 127.033 620.193 126.585 619.811 126.286C619.437 125.987 618.896 125.838 618.187 125.838H616.143V129.464H618.187ZM627.788 124.2C628.768 124.2 629.645 124.41 630.42 124.83C631.194 125.241 631.801 125.819 632.24 126.566C632.678 127.313 632.898 128.157 632.898 129.1C632.898 130.043 632.674 130.887 632.226 131.634C631.787 132.371 631.176 132.95 630.392 133.37C629.608 133.79 628.716 134 627.718 134H623.714V124.2H627.788ZM627.83 132.348C628.427 132.348 628.964 132.213 629.44 131.942C629.925 131.662 630.303 131.279 630.574 130.794C630.844 130.299 630.98 129.739 630.98 129.114C630.98 128.489 630.84 127.929 630.56 127.434C630.28 126.93 629.892 126.543 629.398 126.272C628.912 125.992 628.366 125.852 627.76 125.852H625.59V132.348H627.83ZM641.304 124.2L641.29 125.838H636.418V128.484H640.856V130.122H636.418V134H634.542V124.2H641.304Z" fill="black"/>
<path d="M669.409 130.784V129.059C669.409 128.471 669.175 127.907 668.759 127.491C668.343 127.076 667.779 126.842 667.191 126.842H666.206C666.01 126.842 665.822 126.764 665.683 126.625C665.544 126.487 665.466 126.299 665.466 126.103V125.117C665.466 124.529 665.233 123.965 664.817 123.549C664.401 123.133 663.837 122.899 663.249 122.899H662.017M662.017 131.277H666.945M662.017 133.248H664.481M663.495 122.899H660.292C659.884 122.899 659.553 123.231 659.553 123.639V134.973C659.553 135.381 659.884 135.712 660.292 135.712H668.67C669.078 135.712 669.409 135.381 669.409 134.973V128.813C669.409 127.245 668.786 125.741 667.677 124.631C666.568 123.522 665.064 122.899 663.495 122.899Z" stroke="#FC6B00" stroke-width="0.985611" stroke-linecap="round" stroke-linejoin="round"/>
<rect opacity="0.155" x="649.5" y="114" width="30" height="30" rx="15" fill="#FC6B00"/>
<rect x="413" y="107.5" width="142" height="43" rx="5.5" fill="white"/>
<rect x="413" y="107.5" width="142" height="43" rx="5.5" stroke="#E7E5E4"/>
<path d="M458.214 127.084V134L450.178 134.014C449.188 134.014 448.418 133.729 447.868 133.16C447.317 132.591 447.042 131.811 447.042 130.822C447.042 130.178 447.158 129.609 447.392 129.114C447.634 128.619 447.984 128.167 448.442 127.756L449.87 128.764C449.524 129.091 449.272 129.422 449.114 129.758C448.955 130.085 448.876 130.435 448.876 130.808C448.876 131.275 449.002 131.643 449.254 131.914C449.515 132.175 449.884 132.306 450.36 132.306H456.38V127.084H458.214ZM453.958 126.09C453.706 126.09 453.496 126.001 453.328 125.824C453.16 125.647 453.076 125.427 453.076 125.166C453.076 124.886 453.16 124.662 453.328 124.494C453.496 124.317 453.706 124.228 453.958 124.228C454.228 124.228 454.448 124.317 454.616 124.494C454.784 124.662 454.868 124.886 454.868 125.166C454.868 125.427 454.779 125.647 454.602 125.824C454.434 126.001 454.219 126.09 453.958 126.09ZM451.704 126.09C451.452 126.09 451.242 126.001 451.074 125.824C450.906 125.647 450.822 125.427 450.822 125.166C450.822 124.886 450.906 124.662 451.074 124.494C451.242 124.317 451.452 124.228 451.704 124.228C451.974 124.228 452.194 124.317 452.362 124.494C452.53 124.662 452.614 124.886 452.614 125.166C452.614 125.427 452.525 125.647 452.348 125.824C452.18 126.001 451.965 126.09 451.704 126.09ZM468.518 132.306C468.705 132.306 468.798 132.586 468.798 133.146C468.798 133.715 468.705 134 468.518 134H466.978C466.959 134.999 466.656 135.778 466.068 136.338C465.489 136.907 464.701 137.197 463.702 137.206L463.436 135.484C463.511 135.493 463.613 135.498 463.744 135.498C464.22 135.498 464.57 135.381 464.794 135.148C465.018 134.915 465.135 134.532 465.144 134H463.66C462.951 134 462.293 133.841 461.686 133.524C461.089 133.207 460.613 132.773 460.258 132.222C459.903 131.662 459.726 131.046 459.726 130.374C459.726 129.702 459.903 129.086 460.258 128.526C460.613 127.966 461.089 127.523 461.686 127.196C462.293 126.869 462.951 126.706 463.66 126.706C464.183 126.706 464.729 126.804 465.298 127C465.867 127.187 466.381 127.439 466.838 127.756L466.978 127.812V132.306H468.518ZM461.56 130.374C461.56 130.738 461.649 131.069 461.826 131.368C462.013 131.657 462.265 131.886 462.582 132.054C462.909 132.222 463.277 132.306 463.688 132.306H465.144V128.764C464.64 128.521 464.155 128.4 463.688 128.4C463.277 128.4 462.909 128.489 462.582 128.666C462.265 128.843 462.013 129.081 461.826 129.38C461.649 129.679 461.56 130.01 461.56 130.374ZM483.708 133.874H483.106V134H473.544C472.657 134 471.952 133.79 471.43 133.37C470.954 133.79 470.24 134 469.288 134H468.518C468.331 134 468.238 133.715 468.238 133.146C468.238 132.586 468.331 132.306 468.518 132.306H469.12C469.624 132.306 469.964 132.213 470.142 132.026C470.328 131.83 470.422 131.494 470.422 131.018V127.77H472.242V131.032C472.242 131.443 472.209 131.793 472.144 132.082C472.405 132.231 472.774 132.306 473.25 132.306H473.264C473.45 131.401 473.791 130.523 474.286 129.674C474.78 128.825 475.448 128.12 476.288 127.56C477.137 127 478.136 126.72 479.284 126.72C480.254 126.72 481.071 126.925 481.734 127.336C482.396 127.747 482.891 128.302 483.218 129.002C483.544 129.702 483.708 130.481 483.708 131.34V133.874ZM479.354 128.414C478.691 128.414 478.066 128.587 477.478 128.932C476.89 129.277 476.39 129.744 475.98 130.332C475.569 130.92 475.28 131.578 475.112 132.306H481.874V131.34C481.874 130.397 481.65 129.674 481.202 129.17C480.763 128.666 480.147 128.414 479.354 128.414Z" fill="black"/>
<mask id="mask0_3184_839" style="mask-type:luminance" maskUnits="userSpaceOnUse" x="499" y="121" width="17" height="17">
<path d="M515.432 121.422H499.662V137.192H515.432V121.422Z" fill="white"/>
</mask>
<g mask="url(#mask0_3184_839)">
<path d="M507.547 133.742C508.593 133.742 509.595 133.326 510.335 132.587C511.074 131.848 511.489 130.845 511.489 129.799V128.814M507.547 133.742C506.501 133.742 505.499 133.326 504.759 132.587C504.02 131.848 503.604 130.845 503.604 129.799V128.814M507.547 133.742V136.206M505.083 136.206H510.011M507.547 131.77C507.024 131.77 506.523 131.563 506.153 131.193C505.783 130.823 505.576 130.322 505.576 129.799V124.378C505.576 123.856 505.783 123.354 506.153 122.985C506.523 122.615 507.024 122.407 507.547 122.407C508.07 122.407 508.571 122.615 508.941 122.985C509.311 123.354 509.518 123.856 509.518 124.378V129.799C509.518 130.322 509.311 130.823 508.941 131.193C508.571 131.563 508.07 131.77 507.547 131.77Z" stroke="#FC6B00" stroke-width="0.985611" stroke-linecap="round" stroke-linejoin="round"/>
</g>
<rect opacity="0.155" x="492.5" y="114" width="30" height="30" rx="15" fill="#FC6B00"/>
<rect x="191" y="107.5" width="197" height="43" rx="5.5" fill="white"/>
<rect x="191" y="107.5" width="197" height="43" rx="5.5" stroke="#E7E5E4"/>
<path d="M245.399 126.72C246.369 126.72 247.186 126.925 247.849 127.336C248.511 127.747 249.006 128.302 249.333 129.002C249.659 129.702 249.823 130.481 249.823 131.34V134H239.855C239.323 134 238.828 133.893 238.371 133.678C237.913 133.463 237.526 133.174 237.209 132.81C236.891 132.437 236.667 132.026 236.537 131.578C236.322 130.934 236.107 130.421 235.893 130.038C235.687 129.655 235.342 129.329 234.857 129.058C234.371 128.787 233.704 128.652 232.855 128.652C231.38 128.652 230.643 129.007 230.643 129.716C230.643 129.977 230.736 130.197 230.923 130.374C231.109 130.542 231.343 130.682 231.623 130.794C231.903 130.897 232.29 131.023 232.785 131.172C233.475 131.368 234.04 131.564 234.479 131.76C234.927 131.956 235.309 132.245 235.627 132.628C235.944 133.011 236.103 133.505 236.103 134.112C236.103 136.193 234.129 137.234 230.181 137.234C228.258 137.234 226.779 136.935 225.743 136.338C224.716 135.75 224.203 134.77 224.203 133.398C224.203 133.09 224.226 132.726 224.273 132.306C224.319 131.877 224.389 131.475 224.483 131.102L226.261 131.494C226.195 131.765 226.139 132.082 226.093 132.446C226.055 132.801 226.037 133.109 226.037 133.37C226.037 133.902 226.158 134.322 226.401 134.63C226.653 134.947 227.077 135.176 227.675 135.316C228.272 135.465 229.103 135.54 230.167 135.54C231.604 135.54 232.645 135.423 233.289 135.19C233.933 134.957 234.255 134.611 234.255 134.154C234.255 133.902 234.161 133.697 233.975 133.538C233.797 133.37 233.573 133.235 233.303 133.132C233.032 133.029 232.649 132.913 232.155 132.782C231.445 132.586 230.867 132.395 230.419 132.208C229.98 132.021 229.597 131.741 229.271 131.368C228.953 130.985 228.795 130.481 228.795 129.856C228.795 128.951 229.135 128.241 229.817 127.728C230.507 127.215 231.534 126.958 232.897 126.958C234.11 126.958 235.067 127.145 235.767 127.518C236.467 127.882 236.961 128.302 237.251 128.778C237.549 129.254 237.806 129.814 238.021 130.458C238.021 130.458 238.067 130.598 238.161 130.878C238.273 131.214 238.436 131.499 238.651 131.732C238.865 131.956 239.117 132.119 239.407 132.222C239.593 131.326 239.934 130.463 240.429 129.632C240.933 128.792 241.6 128.097 242.431 127.546C243.271 126.995 244.26 126.72 245.399 126.72ZM247.989 132.306V131.34C247.989 130.397 247.765 129.674 247.317 129.17C246.878 128.666 246.262 128.414 245.469 128.414C244.806 128.414 244.181 128.587 243.593 128.932C243.005 129.277 242.505 129.744 242.095 130.332C241.684 130.92 241.395 131.578 241.227 132.306H247.989ZM245.399 125.558C245.109 125.558 244.867 125.46 244.671 125.264C244.484 125.059 244.391 124.807 244.391 124.508C244.391 124.2 244.484 123.948 244.671 123.752C244.867 123.556 245.109 123.458 245.399 123.458C245.697 123.458 245.94 123.556 246.127 123.752C246.323 123.948 246.421 124.2 246.421 124.508C246.421 124.807 246.323 125.059 246.127 125.264C245.931 125.46 245.688 125.558 245.399 125.558ZM231.427 139.992C231.175 139.992 230.965 139.903 230.797 139.726C230.629 139.549 230.545 139.329 230.545 139.068C230.545 138.788 230.629 138.559 230.797 138.382C230.965 138.214 231.175 138.13 231.427 138.13C231.697 138.13 231.917 138.214 232.085 138.382C232.253 138.559 232.337 138.788 232.337 139.068C232.337 139.329 232.248 139.549 232.071 139.726C231.903 139.903 231.688 139.992 231.427 139.992ZM229.173 139.992C228.921 139.992 228.711 139.903 228.543 139.726C228.375 139.549 228.291 139.329 228.291 139.068C228.291 138.788 228.375 138.559 228.543 138.382C228.711 138.214 228.921 138.13 229.173 138.13C229.443 138.13 229.663 138.214 229.831 138.382C229.999 138.559 230.083 138.788 230.083 139.068C230.083 139.329 229.994 139.549 229.817 139.726C229.649 139.903 229.434 139.992 229.173 139.992ZM251.821 123.57H253.641V134H251.821V123.57ZM263.852 132.306C264.038 132.306 264.132 132.586 264.132 133.146C264.132 133.715 264.038 134 263.852 134H263.04C262.06 134 261.336 133.757 260.87 133.272C260.403 132.787 260.165 132.059 260.156 131.088C259.764 131.191 259.353 131.242 258.924 131.242C258.466 131.242 258.042 131.186 257.65 131.074V133.888C257.65 134.905 257.37 135.703 256.81 136.282C256.25 136.87 255.48 137.173 254.5 137.192L254.234 135.498C254.794 135.526 255.195 135.414 255.438 135.162C255.69 134.919 255.816 134.495 255.816 133.888V127.084H257.65V129.38C258.042 129.492 258.466 129.548 258.924 129.548C259.353 129.548 259.764 129.497 260.156 129.394V127.084H261.976V131.018C261.976 131.485 262.064 131.816 262.242 132.012C262.419 132.208 262.746 132.306 263.222 132.306H263.852ZM262.2 126.09C261.948 126.09 261.738 126.001 261.57 125.824C261.402 125.647 261.318 125.427 261.318 125.166C261.318 124.886 261.402 124.662 261.57 124.494C261.738 124.317 261.948 124.228 262.2 124.228C262.47 124.228 262.69 124.317 262.858 124.494C263.026 124.662 263.11 124.886 263.11 125.166C263.11 125.427 263.021 125.647 262.844 125.824C262.676 126.001 262.461 126.09 262.2 126.09ZM259.946 126.09C259.694 126.09 259.484 126.001 259.316 125.824C259.148 125.647 259.064 125.427 259.064 125.166C259.064 124.886 259.148 124.662 259.316 124.494C259.484 124.317 259.694 124.228 259.946 124.228C260.216 124.228 260.436 124.317 260.604 124.494C260.772 124.662 260.856 124.886 260.856 125.166C260.856 125.427 260.767 125.647 260.59 125.824C260.422 126.001 260.207 126.09 259.946 126.09ZM268.878 126.706C269.802 126.706 270.805 126.981 271.888 127.532V134H263.852C263.665 134 263.572 133.715 263.572 133.146C263.572 132.586 263.665 132.306 263.852 132.306H265.462C265.107 131.746 264.93 131.125 264.93 130.444C264.93 129.744 265.107 129.109 265.462 128.54C265.816 127.971 266.292 127.523 266.89 127.196C267.496 126.869 268.159 126.706 268.878 126.706ZM266.764 130.43C266.764 130.897 266.899 131.303 267.17 131.648C267.45 131.984 267.823 132.203 268.29 132.306H270.054V128.61C269.671 128.47 269.284 128.4 268.892 128.4C268.276 128.4 267.767 128.591 267.366 128.974C266.964 129.357 266.764 129.842 266.764 130.43ZM268.892 125.53C268.602 125.53 268.36 125.432 268.164 125.236C267.977 125.031 267.884 124.779 267.884 124.48C267.884 124.172 267.977 123.92 268.164 123.724C268.36 123.528 268.602 123.43 268.892 123.43C269.19 123.43 269.433 123.528 269.62 123.724C269.816 123.92 269.914 124.172 269.914 124.48C269.914 124.779 269.816 125.031 269.62 125.236C269.424 125.432 269.181 125.53 268.892 125.53ZM273.655 123.57H275.475V134H273.655V123.57ZM291.649 132.306C291.836 132.306 291.929 132.586 291.929 133.146C291.929 133.715 291.836 134 291.649 134H291.565C290.893 134 290.324 133.851 289.857 133.552C289.577 134.56 289.059 135.367 288.303 135.974C287.557 136.59 286.637 136.898 285.545 136.898C284.621 136.898 283.814 136.674 283.123 136.226C282.442 135.778 281.919 135.176 281.555 134.42C281.191 133.664 281.009 132.824 281.009 131.9C281.009 131.396 281.065 130.887 281.177 130.374L282.983 130.64C282.89 131.153 282.843 131.587 282.843 131.942C282.843 132.586 282.955 133.155 283.179 133.65C283.403 134.145 283.716 134.527 284.117 134.798C284.528 135.069 285.004 135.204 285.545 135.204C286.087 135.204 286.558 135.069 286.959 134.798C287.37 134.527 287.687 134.145 287.911 133.65C288.135 133.155 288.247 132.581 288.247 131.928V123.57H290.081V131.872V131.928C290.324 132.18 290.674 132.306 291.131 132.306H291.649ZM308.894 132.306C309.081 132.306 309.174 132.586 309.174 133.146C309.174 133.715 309.081 134 308.894 134H296.672C295.786 134 295.081 133.79 294.558 133.37C294.082 133.79 293.368 134 292.416 134H291.646C291.46 134 291.366 133.715 291.366 133.146C291.366 132.586 291.46 132.306 291.646 132.306H292.248C292.752 132.306 293.093 132.213 293.27 132.026C293.457 131.83 293.55 131.494 293.55 131.018V127.77H295.37V131.032C295.37 131.443 295.338 131.793 295.272 132.082C295.534 132.231 295.902 132.306 296.378 132.306H296.392C296.579 131.401 296.92 130.523 297.414 129.674C297.909 128.825 298.576 128.12 299.416 127.56C300.266 127 301.264 126.72 302.412 126.72C303.383 126.72 304.2 126.925 304.862 127.336C305.525 127.747 306.02 128.302 306.346 129.002C306.673 129.702 306.836 130.481 306.836 131.34V132.306H308.894ZM302.482 128.414C301.82 128.414 301.194 128.587 300.606 128.932C300.018 129.277 299.519 129.744 299.108 130.332C298.698 130.92 298.408 131.578 298.24 132.306H305.002V131.34C305.002 130.397 304.778 129.674 304.33 129.17C303.892 128.666 303.276 128.414 302.482 128.414ZM313.926 126.706C314.85 126.706 315.854 126.981 316.936 127.532V134H308.9C308.714 134 308.62 133.715 308.62 133.146C308.62 132.586 308.714 132.306 308.9 132.306H310.51C310.156 131.746 309.978 131.125 309.978 130.444C309.978 129.744 310.156 129.109 310.51 128.54C310.865 127.971 311.341 127.523 311.938 127.196C312.545 126.869 313.208 126.706 313.926 126.706ZM311.812 130.43C311.812 130.897 311.948 131.303 312.218 131.648C312.498 131.984 312.872 132.203 313.338 132.306H315.102V128.61C314.72 128.47 314.332 128.4 313.94 128.4C313.324 128.4 312.816 128.591 312.414 128.974C312.013 129.357 311.812 129.842 311.812 130.43ZM313.94 125.53C313.651 125.53 313.408 125.432 313.212 125.236C313.026 125.031 312.932 124.779 312.932 124.48C312.932 124.172 313.026 123.92 313.212 123.724C313.408 123.528 313.651 123.43 313.94 123.43C314.239 123.43 314.482 123.528 314.668 123.724C314.864 123.92 314.962 124.172 314.962 124.48C314.962 124.779 314.864 125.031 314.668 125.236C314.472 125.432 314.23 125.53 313.94 125.53Z" fill="black"/>
<path d="M337.324 123.393V124.871M344.224 123.393V124.871M334.86 133.741V126.349C334.86 125.957 335.016 125.581 335.293 125.304C335.571 125.027 335.947 124.871 336.339 124.871H345.209C345.601 124.871 345.977 125.027 346.255 125.304C346.532 125.581 346.688 125.957 346.688 126.349V133.741M334.86 133.741C334.86 134.134 335.016 134.51 335.293 134.787C335.571 135.064 335.947 135.22 336.339 135.22H345.209C345.601 135.22 345.977 135.064 346.255 134.787C346.532 134.51 346.688 134.134 346.688 133.741M334.86 133.741V128.813C334.86 128.421 335.016 128.045 335.293 127.768C335.571 127.491 335.947 127.335 336.339 127.335H345.209C345.601 127.335 345.977 127.491 346.255 127.768C346.532 128.045 346.688 128.421 346.688 128.813V133.741" stroke="#FC6B00" stroke-width="0.985611" stroke-linecap="round" stroke-linejoin="round"/>
<rect opacity="0.155" x="325.5" y="114" width="30" height="30" rx="15" fill="#FC6B00"/>
<rect x="35" y="107.5" width="131" height="43" rx="5.5" fill="white"/>
<rect x="35" y="107.5" width="131" height="43" rx="5.5" stroke="#E7E5E4"/>
<path d="M91.2371 132.306C91.4238 132.306 91.5171 132.586 91.5171 133.146C91.5171 133.715 91.4238 134 91.2371 134H79.0151C78.4458 134 77.9464 133.911 77.5171 133.734C77.2278 134.789 76.6958 135.629 75.9211 136.254C75.1558 136.879 74.1944 137.192 73.0371 137.192C72.0571 137.192 71.2124 136.963 70.5031 136.506C69.8031 136.049 69.2664 135.419 68.8931 134.616C68.5291 133.823 68.3471 132.931 68.3471 131.942C68.3471 131.223 68.4544 130.481 68.6691 129.716L70.3771 130.43C70.2464 130.971 70.1811 131.485 70.1811 131.97C70.1811 133.062 70.4331 133.921 70.9371 134.546C71.4411 135.181 72.1411 135.498 73.0371 135.498C73.9331 135.498 74.6331 135.181 75.1371 134.546C75.6504 133.921 75.9071 133.067 75.9071 131.984C75.9071 131.545 75.8558 131.083 75.7531 130.598C75.6598 130.103 75.5291 129.655 75.3611 129.254L77.0131 128.47C77.2371 128.965 77.4144 129.52 77.5451 130.136C77.6758 130.743 77.7411 131.345 77.7411 131.942V132.152C77.9744 132.255 78.3058 132.306 78.7351 132.306C78.9218 131.401 79.2624 130.523 79.7571 129.674C80.2518 128.825 80.9238 128.12 81.7731 127.56C82.6224 127 83.6211 126.72 84.7691 126.72C85.7398 126.72 86.5564 126.925 87.2191 127.336C87.8818 127.747 88.3718 128.302 88.6891 129.002C89.0158 129.702 89.1791 130.481 89.1791 131.34V132.306H91.2371ZM84.8251 128.414C84.1624 128.414 83.5371 128.587 82.9491 128.932C82.3611 129.277 81.8618 129.744 81.4511 130.332C81.0404 130.92 80.7511 131.578 80.5831 132.306H87.3451V131.34C87.3451 130.397 87.1211 129.674 86.6731 129.17C86.2344 128.666 85.6184 128.414 84.8251 128.414ZM94.5524 127.084V134H91.2344C91.0477 134 90.9544 133.715 90.9544 133.146C90.9544 132.586 91.0477 132.306 91.2344 132.306H92.7184V127.084H94.5524ZM93.6424 126.104C93.353 126.104 93.1104 126.006 92.9144 125.81C92.7277 125.605 92.6344 125.353 92.6344 125.054C92.6344 124.746 92.7277 124.494 92.9144 124.298C93.1104 124.102 93.353 124.004 93.6424 124.004C93.941 124.004 94.1837 124.102 94.3704 124.298C94.5664 124.494 94.6644 124.746 94.6644 125.054C94.6644 125.353 94.5664 125.605 94.3704 125.81C94.1744 126.006 93.9317 126.104 93.6424 126.104Z" fill="black"/>
<path d="M113.159 125.856H124.001M113.159 129.306H124.001M118.58 132.756H124.001" stroke="#FC6B00" stroke-width="0.985611" stroke-linecap="round" stroke-linejoin="round"/>
<rect opacity="0.155" x="103.5" y="114" width="30" height="30" rx="15" fill="#FC6B00"/>
</g>
<defs>
<filter id="filter0_d_3184_839" x="-11.5" y="24" width="957" height="170" filterUnits="userSpaceOnUse" color-interpolation-filters="sRGB">
<feFlood flood-opacity="0" result="BackgroundImageFix"/>
<feColorMatrix in="SourceAlpha" type="matrix" values="0 0 0 0 0 0 0 0 0 0 0 0 0 0 0 0 0 0 127 0" result="hardAlpha"/>
<feMorphology radius="3" operator="erode" in="SourceAlpha" result="effect1_dropShadow_3184_839"/>
<feOffset dy="10"/>
<feGaussianBlur stdDeviation="7.5"/>
<feComposite in2="hardAlpha" operator="out"/>
<feColorMatrix type="matrix" values="0 0 0 0 0 0 0 0 0 0 0 0 0 0 0 0 0 0 0.1 0"/>
<feBlend mode="normal" in2="BackgroundImageFix" result="effect1_dropShadow_3184_839"/>
<feBlend mode="normal" in="SourceGraphic" in2="effect1_dropShadow_3184_839" result="shape"/>
</filter>
</defs>
</svg>
