<svg width="905" height="307" viewBox="0 0 905 307" fill="none" xmlns="http://www.w3.org/2000/svg">
<g filter="url(#filter0_d_3185_4320)">
<rect x="12" y="2" width="881" height="283" rx="20" fill="white" shape-rendering="crispEdges"/>
<path d="M309.772 51.88C309.906 51.88 310.006 52.02 310.072 52.3C310.139 52.5667 310.172 52.94 310.172 53.42C310.172 53.9133 310.139 54.3 310.072 54.58C310.006 54.86 309.906 55 309.772 55H295.492C294.012 55 292.859 54.5667 292.032 53.7C291.206 52.8333 290.792 51.6333 290.792 50.1C290.792 48.2467 291.452 46.68 292.772 45.4L295.512 47.3C294.739 48.1667 294.352 49.0933 294.352 50.08C294.352 50.6533 294.492 51.1 294.772 51.42C295.052 51.7267 295.459 51.88 295.992 51.88L303.552 51.86V39.94H307.112V51.88H309.772ZM301.712 45.9V47.58H296.892V45.9H297.252C297.186 45.66 297.152 45.4267 297.152 45.2C297.152 44.4933 297.399 43.9133 297.892 43.46C298.399 43.0067 299.039 42.78 299.812 42.78C300.426 42.78 301.006 42.9133 301.552 43.18L300.812 44.8C300.692 44.7467 300.539 44.7 300.352 44.66C300.179 44.6067 300.006 44.58 299.832 44.58C299.526 44.58 299.279 44.6467 299.092 44.78C298.906 44.9 298.812 45.0667 298.812 45.28C298.812 45.4133 298.852 45.54 298.932 45.66C299.026 45.78 299.152 45.86 299.312 45.9H301.712ZM315.457 44.7V55H309.777C309.644 55 309.544 54.86 309.477 54.58C309.411 54.3 309.377 53.9133 309.377 53.42C309.377 52.94 309.411 52.5667 309.477 52.3C309.544 52.02 309.644 51.88 309.777 51.88H311.917V44.7H315.457ZM313.597 60.16C313.091 60.16 312.671 59.9933 312.337 59.66C312.004 59.3267 311.837 58.9 311.837 58.38C311.837 57.86 312.004 57.4333 312.337 57.1C312.671 56.7667 313.091 56.6 313.597 56.6C314.104 56.6 314.524 56.7667 314.857 57.1C315.191 57.4333 315.357 57.86 315.357 58.38C315.357 58.9 315.191 59.3267 314.857 59.66C314.524 59.9933 314.104 60.16 313.597 60.16ZM336.481 51.88C336.614 51.88 336.714 52.02 336.781 52.3C336.847 52.5667 336.881 52.94 336.881 53.42C336.881 53.9133 336.847 54.3 336.781 54.58C336.714 54.86 336.614 55 336.481 55H335.421C333.847 55 332.674 54.5333 331.901 53.6C330.621 54.1467 329.441 54.42 328.361 54.42C327.321 54.42 326.367 54.1867 325.501 53.72C324.634 53.24 323.947 52.5867 323.441 51.76C322.934 50.9333 322.681 50.0267 322.681 49.04C322.681 48.0533 322.934 47.1533 323.441 46.34C323.947 45.5133 324.634 44.8667 325.501 44.4C326.381 43.9333 327.341 43.7 328.381 43.7H330.881V43.14H334.441V50.22C334.441 50.8067 334.554 51.2333 334.781 51.5C335.007 51.7533 335.387 51.88 335.921 51.88H336.481ZM328.661 51.3C329.327 51.3 330.067 51.06 330.881 50.58V50.24V46.82H328.621C327.954 46.82 327.387 47.04 326.921 47.48C326.467 47.9067 326.241 48.4267 326.241 49.04C326.241 49.68 326.467 50.22 326.921 50.66C327.387 51.0867 327.967 51.3 328.661 51.3ZM330.141 42.16C329.727 42.16 329.381 42.02 329.101 41.74C328.821 41.46 328.681 41.1067 328.681 40.68C328.681 40.2533 328.821 39.9 329.101 39.62C329.381 39.34 329.727 39.2 330.141 39.2C330.567 39.2 330.914 39.34 331.181 39.62C331.461 39.9 331.601 40.2533 331.601 40.68C331.601 41.1067 331.461 41.46 331.181 41.74C330.914 42.02 330.567 42.16 330.141 42.16ZM326.701 42.16C326.287 42.16 325.941 42.02 325.661 41.74C325.381 41.46 325.241 41.1067 325.241 40.68C325.241 40.2533 325.381 39.9 325.661 39.62C325.941 39.34 326.287 39.2 326.701 39.2C327.127 39.2 327.474 39.34 327.741 39.62C328.021 39.9 328.161 40.2533 328.161 40.68C328.161 41.1067 328.021 41.46 327.741 41.74C327.474 42.02 327.127 42.16 326.701 42.16ZM360.737 54.52H360.317V55H344.817C343.283 55 342.143 54.6667 341.397 54C340.583 54.6667 339.417 55 337.897 55H336.477C336.343 55 336.243 54.86 336.177 54.58C336.11 54.3 336.077 53.9133 336.077 53.42C336.077 52.94 336.11 52.5667 336.177 52.3C336.243 52.02 336.343 51.88 336.477 51.88H337.477C338.17 51.88 338.63 51.76 338.857 51.52C339.097 51.28 339.217 50.8467 339.217 50.22V45.7H342.777V50.24C342.777 50.6533 342.743 51.0733 342.677 51.5C342.837 51.6333 343.043 51.7333 343.297 51.8C343.55 51.8533 343.877 51.88 344.277 51.88C344.583 50.5467 345.11 49.28 345.857 48.08C346.603 46.88 347.623 45.8867 348.917 45.1C350.21 44.3133 351.763 43.92 353.577 43.92C355.15 43.92 356.47 44.2267 357.537 44.84C358.617 45.4533 359.417 46.28 359.937 47.32C360.47 48.3467 360.737 49.4933 360.737 50.76V54.52ZM353.737 47.04C352.337 47.04 351.11 47.4933 350.057 48.4C349.003 49.2933 348.277 50.4533 347.877 51.88H357.197V50.76C357.197 49.5467 356.897 48.6267 356.297 48C355.71 47.36 354.857 47.04 353.737 47.04ZM368.931 51.88C369.064 51.88 369.164 52.02 369.231 52.3C369.298 52.5667 369.331 52.94 369.331 53.42C369.331 53.9133 369.298 54.3 369.231 54.58C369.164 54.86 369.064 55 368.931 55H363.171V39.94H366.731V51.88H368.931ZM382.918 51.88C383.051 51.88 383.151 52.02 383.218 52.3C383.284 52.5667 383.318 52.94 383.318 53.42C383.318 53.9133 383.284 54.3 383.218 54.58C383.151 54.86 383.051 55 382.918 55H368.938C368.804 55 368.704 54.86 368.637 54.58C368.571 54.3 368.537 53.9133 368.537 53.42C368.537 52.94 368.571 52.5667 368.637 52.3C368.704 52.02 368.804 51.88 368.938 51.88H377.058V50.26C377.058 49.3533 376.771 48.64 376.198 48.12C375.624 47.5867 374.864 47.32 373.918 47.32C372.878 47.32 371.911 47.64 371.018 48.28L369.458 45.38C370.124 44.9933 370.838 44.7 371.598 44.5C372.358 44.2867 373.131 44.18 373.918 44.18C375.184 44.18 376.324 44.44 377.338 44.96C378.351 45.48 379.144 46.2067 379.718 47.14C380.304 48.06 380.598 49.1 380.598 50.26V51.88H382.918ZM373.978 42.24C373.471 42.24 373.051 42.0733 372.718 41.74C372.384 41.4067 372.218 40.98 372.218 40.46C372.218 39.94 372.384 39.5133 372.718 39.18C373.051 38.8467 373.471 38.68 373.978 38.68C374.484 38.68 374.904 38.8467 375.238 39.18C375.571 39.5133 375.738 39.94 375.738 40.46C375.738 40.98 375.571 41.4067 375.238 41.74C374.904 42.0733 374.484 42.24 373.978 42.24ZM388.082 39.94V55H382.922C382.789 55 382.689 54.86 382.622 54.58C382.555 54.3 382.522 53.9133 382.522 53.42C382.522 52.94 382.555 52.5667 382.622 52.3C382.689 52.02 382.789 51.88 382.922 51.88H384.522V39.94H388.082ZM391.042 39.94H394.602V55H391.042V39.94ZM415.797 51.88C415.93 51.88 416.03 52.02 416.097 52.3C416.164 52.5667 416.197 52.94 416.197 53.42C416.197 53.9133 416.164 54.3 416.097 54.58C416.03 54.86 415.93 55 415.797 55H414.737C413.164 55 411.99 54.5333 411.217 53.6C409.937 54.1467 408.757 54.42 407.677 54.42C406.637 54.42 405.684 54.1867 404.817 53.72C403.95 53.24 403.264 52.5867 402.757 51.76C402.25 50.9333 401.997 50.0267 401.997 49.04C401.997 48.0533 402.25 47.1533 402.757 46.34C403.264 45.5133 403.95 44.8667 404.817 44.4C405.697 43.9333 406.657 43.7 407.697 43.7H410.197V43.14H413.757V50.22C413.757 50.8067 413.87 51.2333 414.097 51.5C414.324 51.7533 414.704 51.88 415.237 51.88H415.797ZM407.977 51.3C408.644 51.3 409.384 51.06 410.197 50.58V50.24V46.82H407.937C407.27 46.82 406.704 47.04 406.237 47.48C405.784 47.9067 405.557 48.4267 405.557 49.04C405.557 49.68 405.784 50.22 406.237 50.66C406.704 51.0867 407.284 51.3 407.977 51.3ZM409.457 42.16C409.044 42.16 408.697 42.02 408.417 41.74C408.137 41.46 407.997 41.1067 407.997 40.68C407.997 40.2533 408.137 39.9 408.417 39.62C408.697 39.34 409.044 39.2 409.457 39.2C409.884 39.2 410.23 39.34 410.497 39.62C410.777 39.9 410.917 40.2533 410.917 40.68C410.917 41.1067 410.777 41.46 410.497 41.74C410.23 42.02 409.884 42.16 409.457 42.16ZM406.017 42.16C405.604 42.16 405.257 42.02 404.977 41.74C404.697 41.46 404.557 41.1067 404.557 40.68C404.557 40.2533 404.697 39.9 404.977 39.62C405.257 39.34 405.604 39.2 406.017 39.2C406.444 39.2 406.79 39.34 407.057 39.62C407.337 39.9 407.477 40.2533 407.477 40.68C407.477 41.1067 407.337 41.46 407.057 41.74C406.79 42.02 406.444 42.16 406.017 42.16ZM424.513 51.88C424.646 51.88 424.746 52.02 424.813 52.3C424.88 52.5667 424.913 52.94 424.913 53.42C424.913 53.9133 424.88 54.3 424.813 54.58C424.746 54.86 424.646 55 424.513 55H423.473C422.233 55 421.24 54.66 420.493 53.98C419.733 54.66 418.68 55 417.333 55H415.793C415.66 55 415.56 54.86 415.493 54.58C415.426 54.3 415.393 53.9133 415.393 53.42C415.393 52.94 415.426 52.5667 415.493 52.3C415.56 52.02 415.66 51.88 415.793 51.88H416.833C417.38 51.88 417.76 51.7533 417.973 51.5C418.2 51.2333 418.313 50.8067 418.313 50.22V44.7H421.873V50.24C421.873 50.64 421.84 51.0533 421.773 51.48C422.04 51.7467 422.42 51.88 422.913 51.88H424.513ZM421.833 59.52C421.42 59.52 421.073 59.38 420.793 59.1C420.513 58.82 420.373 58.4667 420.373 58.04C420.373 57.6133 420.513 57.26 420.793 56.98C421.073 56.7 421.42 56.56 421.833 56.56C422.26 56.56 422.606 56.7 422.873 56.98C423.153 57.26 423.293 57.6133 423.293 58.04C423.293 58.4667 423.153 58.82 422.873 59.1C422.606 59.38 422.26 59.52 421.833 59.52ZM418.393 59.52C417.98 59.52 417.633 59.38 417.353 59.1C417.073 58.82 416.933 58.4667 416.933 58.04C416.933 57.6133 417.073 57.26 417.353 56.98C417.633 56.7 417.98 56.56 418.393 56.56C418.82 56.56 419.166 56.7 419.433 56.98C419.713 57.26 419.853 57.6133 419.853 58.04C419.853 58.4667 419.713 58.82 419.433 59.1C419.166 59.38 418.82 59.52 418.393 59.52ZM433.224 51.88C433.357 51.88 433.457 52.02 433.524 52.3C433.591 52.5667 433.624 52.94 433.624 53.42C433.624 53.9133 433.591 54.3 433.524 54.58C433.457 54.86 433.357 55 433.224 55H432.184C430.944 55 429.951 54.66 429.204 53.98C428.444 54.66 427.391 55 426.044 55H424.504C424.371 55 424.271 54.86 424.204 54.58C424.137 54.3 424.104 53.9133 424.104 53.42C424.104 52.94 424.137 52.5667 424.204 52.3C424.271 52.02 424.371 51.88 424.504 51.88H425.544C426.091 51.88 426.471 51.7533 426.684 51.5C426.911 51.2333 427.024 50.8067 427.024 50.22V44.7H430.584V50.24C430.584 50.64 430.551 51.0533 430.484 51.48C430.751 51.7467 431.131 51.88 431.624 51.88H433.224ZM428.724 60.16C428.217 60.16 427.797 59.9933 427.464 59.66C427.131 59.3267 426.964 58.9 426.964 58.38C426.964 57.86 427.131 57.4333 427.464 57.1C427.797 56.7667 428.217 56.6 428.724 56.6C429.231 56.6 429.651 56.7667 429.984 57.1C430.317 57.4333 430.484 57.86 430.484 58.38C430.484 58.9 430.317 59.3267 429.984 59.66C429.651 59.9933 429.231 60.16 428.724 60.16ZM438.895 44.7V55H433.215C433.082 55 432.982 54.86 432.915 54.58C432.848 54.3 432.815 53.9133 432.815 53.42C432.815 52.94 432.848 52.5667 432.915 52.3C432.982 52.02 433.082 51.88 433.215 51.88H435.355V44.7H438.895ZM438.855 59.52C438.442 59.52 438.095 59.38 437.815 59.1C437.535 58.82 437.395 58.4667 437.395 58.04C437.395 57.6133 437.535 57.26 437.815 56.98C438.095 56.7 438.442 56.56 438.855 56.56C439.282 56.56 439.628 56.7 439.895 56.98C440.175 57.26 440.315 57.6133 440.315 58.04C440.315 58.4667 440.175 58.82 439.895 59.1C439.628 59.38 439.282 59.52 438.855 59.52ZM435.415 59.52C435.002 59.52 434.655 59.38 434.375 59.1C434.095 58.82 433.955 58.4667 433.955 58.04C433.955 57.6133 434.095 57.26 434.375 56.98C434.655 56.7 435.002 56.56 435.415 56.56C435.842 56.56 436.188 56.7 436.455 56.98C436.735 57.26 436.875 57.6133 436.875 58.04C436.875 58.4667 436.735 58.82 436.455 59.1C436.188 59.38 435.842 59.52 435.415 59.52ZM440.666 56.52C441.413 56.5333 441.94 56.3733 442.246 56.04C442.553 55.72 442.706 55.16 442.706 54.36V44.7H446.266V54.36C446.266 55.9333 445.806 57.1867 444.886 58.12C443.98 59.0533 442.733 59.56 441.146 59.64L440.666 56.52ZM462.955 51.88C463.089 51.88 463.189 52.02 463.255 52.3C463.322 52.5667 463.355 52.94 463.355 53.42C463.355 53.9133 463.322 54.3 463.255 54.58C463.189 54.86 463.089 55 462.955 55H461.415C460.055 55 458.949 54.7533 458.095 54.26C456.309 54.7533 454.382 55 452.315 55C450.889 55 449.502 54.8733 448.155 54.62V51.42C449.475 51.7267 450.849 51.88 452.275 51.88C453.582 51.88 454.795 51.76 455.915 51.52C455.755 51.0933 455.622 50.72 455.515 50.4L453.255 43.86L456.615 42.88L458.875 49.4C459.155 50.2267 459.375 50.7933 459.535 51.1C459.695 51.4067 459.902 51.6133 460.155 51.72C460.409 51.8133 460.829 51.86 461.415 51.86H462.955V51.88ZM471.681 51.88C471.814 51.88 471.914 52.02 471.981 52.3C472.048 52.5667 472.081 52.94 472.081 53.42C472.081 53.9133 472.048 54.3 471.981 54.58C471.914 54.86 471.814 55 471.681 55H470.641C469.401 55 468.408 54.66 467.661 53.98C466.901 54.66 465.848 55 464.501 55H462.961C462.828 55 462.728 54.86 462.661 54.58C462.594 54.3 462.561 53.9133 462.561 53.42C462.561 52.94 462.594 52.5667 462.661 52.3C462.728 52.02 462.828 51.88 462.961 51.88H464.001C464.548 51.88 464.928 51.7533 465.141 51.5C465.368 51.2333 465.481 50.8067 465.481 50.22V44.7H469.041V50.24C469.041 50.64 469.008 51.0533 468.941 51.48C469.208 51.7467 469.588 51.88 470.081 51.88H471.681ZM469.021 43.3C468.608 43.3 468.261 43.16 467.981 42.88C467.701 42.6 467.561 42.2467 467.561 41.82C467.561 41.3933 467.701 41.04 467.981 40.76C468.261 40.48 468.608 40.34 469.021 40.34C469.448 40.34 469.794 40.48 470.061 40.76C470.341 41.04 470.481 41.3933 470.481 41.82C470.481 42.2467 470.341 42.6 470.061 42.88C469.794 43.16 469.448 43.3 469.021 43.3ZM465.581 43.3C465.168 43.3 464.821 43.16 464.541 42.88C464.261 42.6 464.121 42.2467 464.121 41.82C464.121 41.3933 464.261 41.04 464.541 40.76C464.821 40.48 465.168 40.34 465.581 40.34C466.008 40.34 466.354 40.48 466.621 40.76C466.901 41.04 467.041 41.3933 467.041 41.82C467.041 42.2467 466.901 42.6 466.621 42.88C466.354 43.16 466.008 43.3 465.581 43.3ZM476.832 39.94V55H471.672C471.539 55 471.439 54.86 471.372 54.58C471.305 54.3 471.272 53.9133 471.272 53.42C471.272 52.94 471.305 52.5667 471.372 52.3C471.439 52.02 471.539 51.88 471.672 51.88H473.272V39.94H476.832ZM479.792 39.94H483.352V55H479.792V39.94ZM496.327 55C495.327 55 494.42 54.78 493.607 54.34C492.794 53.8867 492.154 53.28 491.687 52.52C491.234 51.7467 491.007 50.9 491.007 49.98C491.007 48.9933 491.26 48.0667 491.767 47.2C492.287 46.32 492.954 45.6133 493.767 45.08C494.594 44.5467 495.447 44.28 496.327 44.28C497.207 44.28 498.054 44.5467 498.867 45.08C499.694 45.6133 500.36 46.32 500.867 47.2C501.387 48.0667 501.647 48.9933 501.647 49.98C501.647 50.9 501.414 51.7467 500.947 52.52C500.494 53.28 499.86 53.8867 499.047 54.34C498.234 54.78 497.327 55 496.327 55ZM496.327 51.88C496.86 51.88 497.287 51.7133 497.607 51.38C497.927 51.0467 498.087 50.58 498.087 49.98C498.087 49.5933 497.987 49.2 497.787 48.8C497.6 48.4 497.367 48.0667 497.087 47.8C496.807 47.5333 496.554 47.4 496.327 47.4C496.1 47.4 495.847 47.5333 495.567 47.8C495.287 48.0667 495.047 48.4 494.847 48.8C494.66 49.2 494.567 49.5933 494.567 49.98C494.567 50.58 494.727 51.0467 495.047 51.38C495.367 51.7133 495.794 51.88 496.327 51.88ZM498.067 42.84C497.654 42.84 497.307 42.7 497.027 42.42C496.747 42.14 496.607 41.7867 496.607 41.36C496.607 40.9333 496.747 40.58 497.027 40.3C497.307 40.02 497.654 39.88 498.067 39.88C498.494 39.88 498.84 40.02 499.107 40.3C499.387 40.58 499.527 40.9333 499.527 41.36C499.527 41.7867 499.387 42.14 499.107 42.42C498.84 42.7 498.494 42.84 498.067 42.84ZM494.627 42.84C494.214 42.84 493.867 42.7 493.587 42.42C493.307 42.14 493.167 41.7867 493.167 41.36C493.167 40.9333 493.307 40.58 493.587 40.3C493.867 40.02 494.214 39.88 494.627 39.88C495.054 39.88 495.4 40.02 495.667 40.3C495.947 40.58 496.087 40.9333 496.087 41.36C496.087 41.7867 495.947 42.14 495.667 42.42C495.4 42.7 495.054 42.84 494.627 42.84ZM502.327 56.52C503.073 56.5333 503.6 56.3733 503.907 56.04C504.213 55.72 504.367 55.16 504.367 54.36V44.7H507.927V54.36C507.927 55.9333 507.467 57.1867 506.547 58.12C505.64 59.0533 504.393 59.56 502.807 59.64L502.327 56.52ZM521.056 46.28V54.36C521.056 55.48 520.816 56.4467 520.336 57.26C519.856 58.0733 519.169 58.68 518.276 59.08C517.396 59.4933 516.362 59.68 515.176 59.64L514.716 56.48C515.089 56.5067 515.342 56.52 515.476 56.52C516.156 56.52 516.649 56.3867 516.956 56.12C517.262 55.8533 517.436 55.4 517.476 54.76C516.849 54.92 516.242 55 515.656 55C514.602 55 513.629 54.7667 512.736 54.3C511.842 53.82 511.129 53.18 510.596 52.38C510.076 51.5667 509.816 50.6733 509.816 49.7C509.816 48.7267 510.076 47.8333 510.596 47.02C511.129 46.1933 511.842 45.54 512.736 45.06C513.629 44.5667 514.602 44.32 515.656 44.32C516.549 44.32 517.482 44.4933 518.456 44.84C519.429 45.1867 520.249 45.6467 520.916 46.22L521.056 46.28ZM513.376 49.72C513.376 50.3333 513.596 50.8467 514.036 51.26C514.476 51.6733 515.036 51.88 515.716 51.88C516.196 51.88 516.789 51.74 517.496 51.46V47.88C516.869 47.5867 516.282 47.44 515.736 47.44C515.016 47.44 514.442 47.6667 514.016 48.12C513.589 48.5733 513.376 49.1067 513.376 49.72ZM537.741 51.88C537.874 51.88 537.974 52.02 538.041 52.3C538.107 52.5667 538.141 52.94 538.141 53.42C538.141 53.9133 538.107 54.3 538.041 54.58C537.974 54.86 537.874 55 537.741 55H536.201C534.841 55 533.734 54.7533 532.881 54.26C531.094 54.7533 529.167 55 527.101 55C525.674 55 524.287 54.8733 522.941 54.62V51.42C524.261 51.7267 525.634 51.88 527.061 51.88C528.367 51.88 529.581 51.76 530.701 51.52C530.541 51.0933 530.407 50.72 530.301 50.4L528.041 43.86L531.401 42.88L533.661 49.4C533.941 50.2267 534.161 50.7933 534.321 51.1C534.481 51.4067 534.687 51.6133 534.941 51.72C535.194 51.8133 535.614 51.86 536.201 51.86H537.741V51.88ZM542.906 39.94V55H537.746C537.613 55 537.513 54.86 537.446 54.58C537.379 54.3 537.346 53.9133 537.346 53.42C537.346 52.94 537.379 52.5667 537.446 52.3C537.513 52.02 537.613 51.88 537.746 51.88H539.346V39.94H542.906ZM545.866 39.94H549.426V55H545.866V39.94ZM577.021 51.88C577.155 51.88 577.255 52.02 577.321 52.3C577.388 52.5667 577.421 52.94 577.421 53.42C577.421 53.9133 577.388 54.3 577.321 54.58C577.255 54.86 577.155 55 577.021 55H576.201C574.921 55 573.875 54.6467 573.061 53.94C572.315 54.6467 571.248 55 569.861 55H561.981C560.501 55 559.348 54.5667 558.521 53.7C557.695 52.82 557.281 51.6133 557.281 50.08C557.281 48.2133 557.948 46.6467 559.281 45.38L562.021 47.32C561.235 48.1867 560.841 49.1 560.841 50.06C560.841 50.6467 560.981 51.1 561.261 51.42C561.541 51.7267 561.948 51.88 562.481 51.88H569.361C569.908 51.88 570.288 51.7533 570.501 51.5C570.728 51.2333 570.841 50.8067 570.841 50.22V44.7H574.401V50.24C574.401 50.6533 574.368 51.0733 574.301 51.5C574.555 51.7533 574.921 51.88 575.401 51.88H577.021ZM566.041 60.16C565.535 60.16 565.115 59.9933 564.781 59.66C564.448 59.3267 564.281 58.9 564.281 58.38C564.281 57.86 564.448 57.4333 564.781 57.1C565.115 56.7667 565.535 56.6 566.041 56.6C566.548 56.6 566.968 56.7667 567.301 57.1C567.635 57.4333 567.801 57.86 567.801 58.38C567.801 58.9 567.635 59.3267 567.301 59.66C566.968 59.9933 566.548 60.16 566.041 60.16ZM596.823 44.7V50.24C596.823 51.84 596.423 53.0333 595.623 53.82C594.837 54.6067 593.603 55 591.923 55C590.417 55 589.283 54.6733 588.523 54.02C587.737 54.6733 586.57 55 585.023 55C583.49 55 582.35 54.6667 581.603 54C580.79 54.6667 579.617 55 578.083 55H577.023C576.89 55 576.79 54.86 576.723 54.58C576.657 54.3 576.623 53.9133 576.623 53.42C576.623 52.94 576.657 52.5667 576.723 52.3C576.79 52.02 576.89 51.88 577.023 51.88H577.683C578.363 51.88 578.823 51.76 579.063 51.52C579.303 51.28 579.423 50.8467 579.423 50.22V46.7H582.983V50.24C582.983 50.6533 582.95 51.0733 582.883 51.5C583.043 51.6333 583.25 51.7333 583.503 51.8C583.757 51.8533 584.09 51.88 584.503 51.88C585.01 51.88 585.397 51.8333 585.663 51.74C585.93 51.6467 586.11 51.4867 586.203 51.26C586.31 51.02 586.363 50.6733 586.363 50.22V45.7H589.923V50.24C589.923 50.6667 589.89 51.1 589.823 51.54C590.13 51.7667 590.657 51.88 591.403 51.88C591.91 51.88 592.297 51.8333 592.563 51.74C592.83 51.6467 593.01 51.4867 593.103 51.26C593.21 51.02 593.263 50.6733 593.263 50.22V44.7H596.823ZM605.122 51.88C605.256 51.88 605.356 52.02 605.422 52.3C605.489 52.5667 605.522 52.94 605.522 53.42C605.522 53.9133 605.489 54.3 605.422 54.58C605.356 54.86 605.256 55 605.122 55H599.362V39.94H602.922V51.88H605.122ZM613.849 51.88C613.982 51.88 614.082 52.02 614.149 52.3C614.216 52.5667 614.249 52.94 614.249 53.42C614.249 53.9133 614.216 54.3 614.149 54.58C614.082 54.86 613.982 55 613.849 55H612.809C611.569 55 610.576 54.66 609.829 53.98C609.069 54.66 608.016 55 606.669 55H605.129C604.996 55 604.896 54.86 604.829 54.58C604.762 54.3 604.729 53.9133 604.729 53.42C604.729 52.94 604.762 52.5667 604.829 52.3C604.896 52.02 604.996 51.88 605.129 51.88H606.169C606.716 51.88 607.096 51.7533 607.309 51.5C607.536 51.2333 607.649 50.8067 607.649 50.22V44.7H611.209V50.24C611.209 50.64 611.176 51.0533 611.109 51.48C611.376 51.7467 611.756 51.88 612.249 51.88H613.849ZM609.449 43.28C608.942 43.28 608.522 43.1133 608.189 42.78C607.856 42.4467 607.689 42.02 607.689 41.5C607.689 40.98 607.856 40.5533 608.189 40.22C608.522 39.8867 608.942 39.72 609.449 39.72C609.956 39.72 610.376 39.8867 610.709 40.22C611.042 40.5533 611.209 40.98 611.209 41.5C611.209 42.02 611.042 42.4467 610.709 42.78C610.376 43.1133 609.956 43.28 609.449 43.28ZM619.52 44.7V55H613.84C613.707 55 613.607 54.86 613.54 54.58C613.473 54.3 613.44 53.9133 613.44 53.42C613.44 52.94 613.473 52.5667 613.54 52.3C613.607 52.02 613.707 51.88 613.84 51.88H615.98V44.7H619.52ZM619.5 43.3C619.087 43.3 618.74 43.16 618.46 42.88C618.18 42.6 618.04 42.2467 618.04 41.82C618.04 41.3933 618.18 41.04 618.46 40.76C618.74 40.48 619.087 40.34 619.5 40.34C619.927 40.34 620.273 40.48 620.54 40.76C620.82 41.04 620.96 41.3933 620.96 41.82C620.96 42.2467 620.82 42.6 620.54 42.88C620.273 43.16 619.927 43.3 619.5 43.3ZM616.06 43.3C615.647 43.3 615.3 43.16 615.02 42.88C614.74 42.6 614.6 42.2467 614.6 41.82C614.6 41.3933 614.74 41.04 615.02 40.76C615.3 40.48 615.647 40.34 616.06 40.34C616.487 40.34 616.833 40.48 617.1 40.76C617.38 41.04 617.52 41.3933 617.52 41.82C617.52 42.2467 617.38 42.6 617.1 42.88C616.833 43.16 616.487 43.3 616.06 43.3ZM637.763 42.96C637.336 42.96 636.983 42.82 636.703 42.54C636.436 42.26 636.303 41.9067 636.303 41.48C636.303 41.0533 636.436 40.7 636.703 40.42C636.983 40.14 637.336 40 637.763 40C638.19 40 638.536 40.14 638.803 40.42C639.083 40.7 639.223 41.0533 639.223 41.48C639.223 41.9067 639.083 42.26 638.803 42.54C638.536 42.82 638.19 42.96 637.763 42.96ZM641.203 42.96C640.776 42.96 640.423 42.82 640.143 42.54C639.876 42.26 639.743 41.9067 639.743 41.48C639.743 41.0533 639.876 40.7 640.143 40.42C640.423 40.14 640.776 40 641.203 40C641.63 40 641.976 40.14 642.243 40.42C642.523 40.7 642.663 41.0533 642.663 41.48C642.663 41.9067 642.523 42.26 642.243 42.54C641.976 42.82 641.63 42.96 641.203 42.96ZM650.943 51.88C651.076 51.88 651.176 52.02 651.243 52.3C651.31 52.5667 651.343 52.94 651.343 53.42C651.343 53.9133 651.31 54.3 651.243 54.58C651.176 54.86 651.076 55 650.943 55H650.003C648.976 55 648.083 54.68 647.323 54.04C646.576 53.3867 646.023 52.62 645.663 51.74C644.956 50.3267 644.03 49.2667 642.883 48.56C641.736 47.84 640.536 47.48 639.283 47.48C637.896 47.48 637.203 47.8533 637.203 48.6C637.203 48.88 637.31 49.12 637.523 49.32C637.75 49.5067 638.023 49.66 638.343 49.78C638.676 49.9 639.156 50.0467 639.783 50.22C640.783 50.4867 641.616 50.7667 642.283 51.06C642.95 51.3533 643.523 51.8067 644.003 52.42C644.483 53.02 644.723 53.8267 644.723 54.84C644.723 56.4667 644.016 57.6867 642.603 58.5C641.19 59.3133 638.95 59.72 635.883 59.72C633.016 59.72 630.816 59.2533 629.283 58.32C627.763 57.4 627.003 55.9333 627.003 53.92C627.003 53.48 627.036 52.96 627.103 52.36C627.17 51.7467 627.27 51.1733 627.403 50.64L630.863 51.38C630.77 51.7267 630.696 52.14 630.643 52.62C630.59 53.1 630.563 53.54 630.563 53.94C630.563 54.5667 630.696 55.0667 630.963 55.44C631.23 55.8133 631.743 56.0933 632.503 56.28C633.263 56.48 634.356 56.58 635.783 56.58C637.17 56.58 638.243 56.5067 639.003 56.36C639.776 56.2133 640.303 56.0133 640.583 55.76C640.876 55.5067 641.023 55.1933 641.023 54.82C641.023 54.3933 640.803 54.0733 640.363 53.86C639.936 53.6333 639.256 53.3933 638.323 53.14C637.336 52.8867 636.516 52.6267 635.863 52.36C635.223 52.08 634.67 51.66 634.203 51.1C633.736 50.54 633.503 49.8 633.503 48.88C633.503 47.9733 633.73 47.18 634.183 46.5C634.65 45.82 635.33 45.2933 636.223 44.92C637.13 44.5467 638.223 44.36 639.503 44.36C641.076 44.36 642.416 44.6267 643.523 45.16C644.63 45.6933 645.523 46.3467 646.203 47.12C646.883 47.88 647.583 48.82 648.303 49.94C648.65 50.5933 649.003 51.08 649.363 51.4C649.736 51.72 650.156 51.88 650.623 51.88H650.943ZM637.823 63.98C637.41 63.98 637.063 63.84 636.783 63.56C636.503 63.28 636.363 62.9267 636.363 62.5C636.363 62.0733 636.503 61.72 636.783 61.44C637.063 61.16 637.41 61.02 637.823 61.02C638.25 61.02 638.596 61.16 638.863 61.44C639.143 61.72 639.283 62.0733 639.283 62.5C639.283 62.9267 639.143 63.28 638.863 63.56C638.596 63.84 638.25 63.98 637.823 63.98ZM634.383 63.98C633.97 63.98 633.623 63.84 633.343 63.56C633.063 63.28 632.923 62.9267 632.923 62.5C632.923 62.0733 633.063 61.72 633.343 61.44C633.623 61.16 633.97 61.02 634.383 61.02C634.81 61.02 635.156 61.16 635.423 61.44C635.703 61.72 635.843 62.0733 635.843 62.5C635.843 62.9267 635.703 63.28 635.423 63.56C635.156 63.84 634.81 63.98 634.383 63.98ZM656.109 39.94V55H650.949C650.816 55 650.716 54.86 650.649 54.58C650.583 54.3 650.549 53.9133 650.549 53.42C650.549 52.94 650.583 52.5667 650.649 52.3C650.716 52.02 650.816 51.88 650.949 51.88H652.549V39.94H656.109ZM659.069 39.94H662.629V55H659.069V39.94ZM669.084 56.52C669.831 56.5333 670.358 56.3733 670.664 56.04C670.971 55.72 671.124 55.16 671.124 54.36V44.7H674.684V54.36C674.684 55.9333 674.224 57.1867 673.304 58.12C672.398 59.0533 671.151 59.56 669.564 59.64L669.084 56.52ZM682.993 51.88C683.127 51.88 683.227 52.02 683.293 52.3C683.36 52.5667 683.393 52.94 683.393 53.42C683.393 53.9133 683.36 54.3 683.293 54.58C683.227 54.86 683.127 55 682.993 55H677.233V39.94H680.793V51.88H682.993ZM697.5 51.88C697.633 51.88 697.733 52.02 697.8 52.3C697.867 52.5667 697.9 52.94 697.9 53.42C697.9 53.9133 697.867 54.3 697.8 54.58C697.733 54.86 697.633 55 697.5 55H693.3C691.82 55 690.473 54.7667 689.26 54.3C687.9 54.7667 686.66 55 685.54 55H683C682.867 55 682.767 54.86 682.7 54.58C682.633 54.3 682.6 53.9133 682.6 53.42C682.6 52.94 682.633 52.5667 682.7 52.3C682.767 52.02 682.867 51.88 683 51.88H685.54H685.7C684.98 51.0533 684.433 50.12 684.06 49.08L686.98 44.36C687.873 44.16 688.747 44.06 689.6 44.06C690.813 44.06 691.887 44.2267 692.82 44.56C693.767 44.8933 694.5 45.36 695.02 45.96C695.553 46.56 695.82 47.24 695.82 48C695.82 48.6667 695.62 49.3333 695.22 50C694.82 50.6533 694.273 51.28 693.58 51.88H697.5ZM687.24 47.52C687.64 48.92 688.373 50 689.44 50.76C690.253 50.3467 690.927 49.8933 691.46 49.4C691.993 48.9067 692.26 48.4667 692.26 48.08C692.26 47.8533 692.013 47.6467 691.52 47.46C691.04 47.2733 690.38 47.18 689.54 47.18C688.74 47.18 687.973 47.2933 687.24 47.52ZM717.292 44.7V50.24C717.292 51.84 716.892 53.0333 716.092 53.82C715.306 54.6067 714.072 55 712.392 55C710.886 55 709.752 54.6733 708.992 54.02C708.206 54.6733 707.039 55 705.492 55C703.959 55 702.819 54.6667 702.072 54C701.259 54.6667 700.086 55 698.552 55H697.492C697.359 55 697.259 54.86 697.192 54.58C697.126 54.3 697.092 53.9133 697.092 53.42C697.092 52.94 697.126 52.5667 697.192 52.3C697.259 52.02 697.359 51.88 697.492 51.88H698.152C698.832 51.88 699.292 51.76 699.532 51.52C699.772 51.28 699.892 50.8467 699.892 50.22V46.7H703.452V50.24C703.452 50.6533 703.419 51.0733 703.352 51.5C703.512 51.6333 703.719 51.7333 703.972 51.8C704.226 51.8533 704.559 51.88 704.972 51.88C705.479 51.88 705.866 51.8333 706.132 51.74C706.399 51.6467 706.579 51.4867 706.672 51.26C706.779 51.02 706.832 50.6733 706.832 50.22V45.7H710.392V50.24C710.392 50.6667 710.359 51.1 710.292 51.54C710.599 51.7667 711.126 51.88 711.872 51.88C712.379 51.88 712.766 51.8333 713.032 51.74C713.299 51.6467 713.479 51.4867 713.572 51.26C713.679 51.02 713.732 50.6733 713.732 50.22V44.7H717.292ZM732.131 39.94V55H719.171V51.88H721.631V42.76H725.191V51.88H728.591V39.94H732.131ZM725.931 39.76V41.54H720.771V39.76H721.151C721.084 39.4933 721.051 39.24 721.051 39C721.051 38.24 721.318 37.62 721.851 37.14C722.384 36.66 723.064 36.42 723.891 36.42C724.544 36.42 725.164 36.56 725.751 36.84L724.951 38.58C724.831 38.5133 724.671 38.46 724.471 38.42C724.284 38.3667 724.098 38.34 723.911 38.34C723.578 38.34 723.311 38.4067 723.111 38.54C722.924 38.6733 722.831 38.8533 722.831 39.08C722.831 39.2267 722.878 39.3667 722.971 39.5C723.064 39.62 723.191 39.7067 723.351 39.76H725.931ZM734.89 39.94H738.45V55H734.89V39.94ZM762.785 51.88C762.918 51.88 763.018 52.02 763.085 52.3C763.151 52.5667 763.185 52.94 763.185 53.42C763.185 53.9133 763.151 54.3 763.085 54.58C763.018 54.86 762.918 55 762.785 55H762.405C761.525 55 760.745 54.82 760.065 54.46C759.558 55.8867 758.725 57.0267 757.565 57.88C756.405 58.7333 754.998 59.16 753.345 59.16C751.865 59.16 750.578 58.8067 749.485 58.1C748.391 57.4067 747.551 56.46 746.965 55.26C746.391 54.06 746.105 52.74 746.105 51.3C746.105 50.8333 746.151 50.26 746.245 49.58L749.765 50.04C749.698 50.5467 749.665 50.9733 749.665 51.32C749.665 52.28 749.818 53.1133 750.125 53.82C750.431 54.5267 750.858 55.0733 751.405 55.46C751.965 55.8467 752.611 56.04 753.345 56.04C754.478 56.04 755.378 55.6133 756.045 54.76C756.711 53.9067 757.045 52.7467 757.045 51.28V39.94H760.605V51.24V51.36C760.871 51.7067 761.285 51.88 761.845 51.88H762.785ZM789.985 51.88C790.118 51.88 790.218 52.02 790.285 52.3C790.352 52.5667 790.385 52.94 790.385 53.42C790.385 53.9133 790.352 54.3 790.285 54.58C790.218 54.86 790.118 55 789.985 55H771.125C769.592 55 768.452 54.6667 767.705 54C766.892 54.6667 765.725 55 764.205 55H762.785C762.652 55 762.552 54.86 762.485 54.58C762.418 54.3 762.385 53.9133 762.385 53.42C762.385 52.94 762.418 52.5667 762.485 52.3C762.552 52.02 762.652 51.88 762.785 51.88H763.785C764.478 51.88 764.938 51.76 765.165 51.52C765.405 51.28 765.525 50.8467 765.525 50.22V45.7H769.085V50.24C769.085 50.6533 769.052 51.0733 768.985 51.5C769.145 51.6333 769.352 51.7333 769.605 51.8C769.858 51.8533 770.185 51.88 770.585 51.88C770.892 50.5467 771.418 49.28 772.165 48.08C772.912 46.88 773.932 45.8867 775.225 45.1C776.518 44.3133 778.072 43.92 779.885 43.92C781.458 43.92 782.778 44.2267 783.845 44.84C784.925 45.4533 785.725 46.28 786.245 47.32C786.778 48.3467 787.045 49.4933 787.045 50.76V51.88H789.985ZM780.045 47.04C778.645 47.04 777.418 47.4933 776.365 48.4C775.312 49.2933 774.585 50.4533 774.185 51.88H783.505V50.76C783.505 49.5467 783.205 48.6267 782.605 48C782.018 47.36 781.165 47.04 780.045 47.04ZM779.925 42C779.418 42 778.998 41.8333 778.665 41.5C778.332 41.1667 778.165 40.74 778.165 40.22C778.165 39.7 778.332 39.2733 778.665 38.94C778.998 38.6067 779.418 38.44 779.925 38.44C780.432 38.44 780.852 38.6067 781.185 38.94C781.518 39.2733 781.685 39.7 781.685 40.22C781.685 40.74 781.518 41.1667 781.185 41.5C780.852 41.8333 780.432 42 779.925 42ZM797.452 44.32C798.906 44.32 800.519 44.7867 802.292 45.72V55H789.992C789.859 55 789.759 54.86 789.692 54.58C789.626 54.3 789.592 53.9133 789.592 53.42C789.592 52.94 789.626 52.5667 789.692 52.3C789.759 52.02 789.859 51.88 789.992 51.88H792.052C791.759 51.2133 791.612 50.5133 791.612 49.78C791.612 48.7533 791.872 47.8267 792.392 47C792.912 46.1733 793.619 45.52 794.512 45.04C795.406 44.56 796.386 44.32 797.452 44.32ZM795.172 49.76C795.172 50.2933 795.319 50.7533 795.612 51.14C795.906 51.5133 796.299 51.7533 796.792 51.86H798.752V47.62C798.379 47.5 797.966 47.44 797.512 47.44C796.819 47.44 796.252 47.66 795.812 48.1C795.386 48.5267 795.172 49.08 795.172 49.76ZM797.452 42.76C796.946 42.76 796.526 42.5933 796.192 42.26C795.859 41.9267 795.692 41.5 795.692 40.98C795.692 40.46 795.859 40.0333 796.192 39.7C796.526 39.3667 796.946 39.2 797.452 39.2C797.959 39.2 798.379 39.3667 798.712 39.7C799.046 40.0333 799.212 40.46 799.212 40.98C799.212 41.5 799.046 41.9267 798.712 42.26C798.379 42.5933 797.959 42.76 797.452 42.76ZM804.558 39.94H808.118V55H804.558V39.94ZM808.918 36.84V38.62H803.758V36.84H804.138C804.071 36.5733 804.038 36.32 804.038 36.08C804.038 35.32 804.304 34.7 804.838 34.22C805.371 33.74 806.051 33.5 806.878 33.5C807.531 33.5 808.151 33.64 808.738 33.92L807.938 35.66C807.818 35.5933 807.658 35.54 807.458 35.5C807.271 35.4467 807.084 35.42 806.898 35.42C806.564 35.42 806.298 35.4867 806.098 35.62C805.911 35.7533 805.818 35.9333 805.818 36.16C805.818 36.3067 805.864 36.4467 805.958 36.58C806.051 36.7 806.178 36.7867 806.338 36.84H808.918ZM830.053 51.88C830.186 51.88 830.286 52.02 830.353 52.3C830.419 52.5667 830.453 52.94 830.453 53.42C830.453 53.9133 830.419 54.3 830.353 54.58C830.286 54.86 830.186 55 830.053 55H828.513C827.153 55 826.093 54.66 825.333 53.98C824.573 53.3 824.133 52.3133 824.013 51.02C823.453 51.1933 822.826 51.28 822.133 51.28C821.453 51.28 820.799 51.1867 820.173 51V54.36C820.173 55.9333 819.713 57.1867 818.793 58.12C817.886 59.0533 816.639 59.56 815.053 59.64L814.573 56.52C815.319 56.5333 815.846 56.3733 816.153 56.04C816.459 55.72 816.613 55.16 816.613 54.36V44.7H820.173V47.88C820.799 48.0667 821.453 48.16 822.133 48.16C822.799 48.16 823.413 48.08 823.973 47.92V44.7H827.533V50.22C827.533 50.8067 827.639 51.2333 827.853 51.5C828.079 51.7533 828.466 51.88 829.013 51.88H830.053ZM827.513 43.3C827.099 43.3 826.753 43.16 826.473 42.88C826.193 42.6 826.053 42.2467 826.053 41.82C826.053 41.3933 826.193 41.04 826.473 40.76C826.753 40.48 827.099 40.34 827.513 40.34C827.939 40.34 828.286 40.48 828.553 40.76C828.833 41.04 828.973 41.3933 828.973 41.82C828.973 42.2467 828.833 42.6 828.553 42.88C828.286 43.16 827.939 43.3 827.513 43.3ZM824.073 43.3C823.659 43.3 823.313 43.16 823.033 42.88C822.753 42.6 822.613 42.2467 822.613 41.82C822.613 41.3933 822.753 41.04 823.033 40.76C823.313 40.48 823.659 40.34 824.073 40.34C824.499 40.34 824.846 40.48 825.113 40.76C825.393 41.04 825.533 41.3933 825.533 41.82C825.533 42.2467 825.393 42.6 825.113 42.88C824.846 43.16 824.499 43.3 824.073 43.3ZM842.391 51.88L841.831 55H830.051C829.917 55 829.817 54.86 829.751 54.58C829.684 54.3 829.651 53.9133 829.651 53.42C829.651 52.94 829.684 52.5667 829.751 52.3C829.817 52.02 829.917 51.88 830.051 51.88H838.171V50.26C838.171 49.3533 837.884 48.64 837.311 48.12C836.737 47.5867 835.977 47.32 835.031 47.32C833.991 47.32 833.024 47.64 832.131 48.28L830.571 45.38C831.237 44.9933 831.951 44.7 832.711 44.5C833.471 44.2867 834.244 44.18 835.031 44.18C836.297 44.18 837.437 44.44 838.451 44.96C839.464 45.48 840.257 46.2067 840.831 47.14C841.417 48.06 841.711 49.1 841.711 50.26V51.88H842.391ZM835.091 42.24C834.584 42.24 834.164 42.0733 833.831 41.74C833.497 41.4067 833.331 40.98 833.331 40.46C833.331 39.94 833.497 39.5133 833.831 39.18C834.164 38.8467 834.584 38.68 835.091 38.68C835.597 38.68 836.017 38.8467 836.351 39.18C836.684 39.5133 836.851 39.94 836.851 40.46C836.851 40.98 836.684 41.4067 836.351 41.74C836.017 42.0733 835.597 42.24 835.091 42.24ZM844.851 39.94H848.411V55H844.851V39.94Z" fill="black"/>
<path d="M825.983 105.306C826.17 105.306 826.263 105.586 826.263 106.146C826.263 106.715 826.17 107 825.983 107H824.471C824.452 107.98 824.163 108.75 823.603 109.31C823.043 109.879 822.282 110.173 821.321 110.192L821.055 108.498C821.615 108.526 822.016 108.414 822.259 108.162C822.511 107.919 822.637 107.495 822.637 106.888V100.084H824.471V105.306H825.983ZM835.769 105.306C835.956 105.306 836.049 105.586 836.049 106.146C836.049 106.715 835.956 107 835.769 107H833.193C832.148 107 831.191 106.823 830.323 106.468C829.362 106.823 828.508 107 827.761 107H825.983C825.797 107 825.703 106.715 825.703 106.146C825.703 105.586 825.797 105.306 825.983 105.306H827.761C827.995 105.306 828.219 105.287 828.433 105.25C827.668 104.531 827.122 103.631 826.795 102.548L828.335 99.944C829.063 99.7387 829.815 99.636 830.589 99.636C831.401 99.636 832.12 99.7433 832.745 99.958C833.371 100.173 833.856 100.481 834.201 100.882C834.547 101.274 834.719 101.727 834.719 102.24C834.719 102.781 834.528 103.313 834.145 103.836C833.772 104.349 833.263 104.83 832.619 105.278C832.881 105.297 833.072 105.306 833.193 105.306H835.769ZM828.489 101.708C828.639 102.343 828.881 102.907 829.217 103.402C829.553 103.887 829.969 104.284 830.463 104.592C831.154 104.256 831.733 103.878 832.199 103.458C832.666 103.029 832.899 102.641 832.899 102.296C832.899 102.016 832.694 101.787 832.283 101.61C831.873 101.423 831.308 101.33 830.589 101.33C829.861 101.33 829.161 101.456 828.489 101.708ZM847.84 100.07V104.032C847.84 105.031 847.602 105.777 847.126 106.272C846.66 106.757 845.932 107 844.942 107C844.056 107 843.351 106.79 842.828 106.37C842.352 106.79 841.657 107 840.742 107C839.856 107 839.151 106.79 838.628 106.37C838.152 106.79 837.438 107 836.486 107H835.772C835.586 107 835.492 106.715 835.492 106.146C835.492 105.586 835.586 105.306 835.772 105.306H836.318C836.813 105.306 837.149 105.213 837.326 105.026C837.513 104.83 837.606 104.494 837.606 104.018V101.47H839.44V104.032C839.44 104.443 839.408 104.793 839.342 105.082C839.604 105.231 839.972 105.306 840.448 105.306C840.812 105.306 841.092 105.269 841.288 105.194C841.484 105.11 841.62 104.979 841.694 104.802C841.778 104.615 841.82 104.354 841.82 104.018V100.77H843.64V104.032C843.64 104.461 843.603 104.811 843.528 105.082C843.799 105.231 844.172 105.306 844.648 105.306C845.012 105.306 845.292 105.269 845.488 105.194C845.684 105.11 845.82 104.979 845.894 104.802C845.978 104.615 846.02 104.354 846.02 104.018V100.07H847.84Z" fill="#0C0A09"/>
<path d="M800.665 108.667C804.347 108.667 807.332 105.682 807.332 102C807.332 98.3183 804.347 95.3335 800.665 95.3335C796.983 95.3335 793.998 98.3183 793.998 102C793.998 105.682 796.983 108.667 800.665 108.667Z" stroke="black" stroke-width="1.33333" stroke-linecap="round" stroke-linejoin="round"/>
<path d="M798.725 99.9999C798.882 99.5543 799.191 99.1786 799.598 98.9393C800.006 98.7 800.484 98.6125 800.95 98.6924C801.415 98.7722 801.838 99.0142 802.142 99.3756C802.446 99.7369 802.612 100.194 802.612 100.667C802.612 102 800.612 102.667 800.612 102.667" stroke="black" stroke-width="1.33333" stroke-linecap="round" stroke-linejoin="round"/>
<path d="M800.665 105.333H800.672" stroke="black" stroke-width="1.33333" stroke-linecap="round" stroke-linejoin="round"/>
<rect x="457.005" y="118.5" width="389.66" height="47" rx="7.5" fill="white"/>
<rect x="457.005" y="118.5" width="389.66" height="47" rx="7.5" stroke="#E6E6E6"/>
<g clip-path="url(#clip0_3185_4320)">
<path d="M493.136 145.106H491.68V147.5H490.14V145.106H485.366V143.86L488.698 137.7H490.294L487.144 143.636H490.14V141.298H491.68V143.636H493.136V145.106ZM498.06 141.816C498.993 141.891 499.735 142.161 500.286 142.628C500.846 143.085 501.126 143.697 501.126 144.462C501.126 145.069 500.967 145.61 500.65 146.086C500.342 146.553 499.894 146.917 499.306 147.178C498.727 147.439 498.05 147.57 497.276 147.57C496.632 147.57 495.988 147.477 495.344 147.29C494.709 147.094 494.168 146.833 493.72 146.506L494.406 145.19C494.788 145.507 495.218 145.755 495.694 145.932C496.179 146.1 496.669 146.184 497.164 146.184C497.901 146.184 498.475 146.03 498.886 145.722C499.306 145.414 499.516 145.003 499.516 144.49C499.516 143.967 499.306 143.571 498.886 143.3C498.475 143.02 497.892 142.88 497.136 142.88H495.708V141.858L498.48 139.156H494.21L494.196 137.7H500.636V138.736L497.514 141.774L498.06 141.816ZM506.78 137.63C508.114 137.63 509.141 138.059 509.86 138.918C510.578 139.777 510.938 141.004 510.938 142.6C510.938 144.196 510.578 145.423 509.86 146.282C509.141 147.141 508.114 147.57 506.78 147.57C505.436 147.57 504.404 147.141 503.686 146.282C502.967 145.423 502.608 144.196 502.608 142.6C502.608 141.004 502.967 139.777 503.686 138.918C504.404 138.059 505.436 137.63 506.78 137.63ZM506.78 138.932C505.949 138.932 505.328 139.235 504.918 139.842C504.507 140.439 504.302 141.359 504.302 142.6C504.302 143.832 504.507 144.751 504.918 145.358C505.328 145.965 505.949 146.268 506.78 146.268C507.601 146.268 508.217 145.965 508.628 145.358C509.038 144.751 509.244 143.832 509.244 142.6C509.244 141.359 509.038 140.439 508.628 139.842C508.217 139.235 507.601 138.932 506.78 138.932ZM516.678 137.63C518.013 137.63 519.039 138.059 519.758 138.918C520.477 139.777 520.836 141.004 520.836 142.6C520.836 144.196 520.477 145.423 519.758 146.282C519.039 147.141 518.013 147.57 516.678 147.57C515.334 147.57 514.303 147.141 513.584 146.282C512.865 145.423 512.506 144.196 512.506 142.6C512.506 141.004 512.865 139.777 513.584 138.918C514.303 138.059 515.334 137.63 516.678 137.63ZM516.678 138.932C515.847 138.932 515.227 139.235 514.816 139.842C514.405 140.439 514.2 141.359 514.2 142.6C514.2 143.832 514.405 144.751 514.816 145.358C515.227 145.965 515.847 146.268 516.678 146.268C517.499 146.268 518.115 145.965 518.526 145.358C518.937 144.751 519.142 143.832 519.142 142.6C519.142 141.359 518.937 140.439 518.526 139.842C518.115 139.235 517.499 138.932 516.678 138.932ZM526.577 137.63C527.911 137.63 528.938 138.059 529.657 138.918C530.375 139.777 530.735 141.004 530.735 142.6C530.735 144.196 530.375 145.423 529.657 146.282C528.938 147.141 527.911 147.57 526.577 147.57C525.233 147.57 524.201 147.141 523.483 146.282C522.764 145.423 522.405 144.196 522.405 142.6C522.405 141.004 522.764 139.777 523.483 138.918C524.201 138.059 525.233 137.63 526.577 137.63ZM526.577 138.932C525.746 138.932 525.125 139.235 524.715 139.842C524.304 140.439 524.099 141.359 524.099 142.6C524.099 143.832 524.304 144.751 524.715 145.358C525.125 145.965 525.746 146.268 526.577 146.268C527.398 146.268 528.014 145.965 528.425 145.358C528.835 144.751 529.041 143.832 529.041 142.6C529.041 141.359 528.835 140.439 528.425 139.842C528.014 139.235 527.398 138.932 526.577 138.932Z" fill="#0C0A09"/>
</g>
<path d="M370.742 105.306C370.929 105.306 371.022 105.586 371.022 106.146C371.022 106.715 370.929 107 370.742 107H369.23C369.212 107.98 368.922 108.75 368.362 109.31C367.802 109.879 367.042 110.173 366.08 110.192L365.814 108.498C366.374 108.526 366.776 108.414 367.018 108.162C367.27 107.919 367.396 107.495 367.396 106.888V100.084H369.23V105.306H370.742ZM380.529 105.306C380.715 105.306 380.809 105.586 380.809 106.146C380.809 106.715 380.715 107 380.529 107H377.953C376.907 107 375.951 106.823 375.083 106.468C374.121 106.823 373.267 107 372.521 107H370.743C370.556 107 370.463 106.715 370.463 106.146C370.463 105.586 370.556 105.306 370.743 105.306H372.521C372.754 105.306 372.978 105.287 373.193 105.25C372.427 104.531 371.881 103.631 371.555 102.548L373.095 99.944C373.823 99.7387 374.574 99.636 375.349 99.636C376.161 99.636 376.879 99.7433 377.505 99.958C378.13 100.173 378.615 100.481 378.961 100.882C379.306 101.274 379.479 101.727 379.479 102.24C379.479 102.781 379.287 103.313 378.905 103.836C378.531 104.349 378.023 104.83 377.379 105.278C377.64 105.297 377.831 105.306 377.953 105.306H380.529ZM373.249 101.708C373.398 102.343 373.641 102.907 373.977 103.402C374.313 103.887 374.728 104.284 375.223 104.592C375.913 104.256 376.492 103.878 376.959 103.458C377.425 103.029 377.659 102.641 377.659 102.296C377.659 102.016 377.453 101.787 377.043 101.61C376.632 101.423 376.067 101.33 375.349 101.33C374.621 101.33 373.921 101.456 373.249 101.708ZM394.616 105.306C394.802 105.306 394.896 105.586 394.896 106.146C394.896 106.715 394.802 107 394.616 107H393.776C392.964 107 392.306 106.785 391.802 106.356C391.335 106.785 390.635 107 389.702 107C388.815 107 388.11 106.79 387.588 106.37C387.112 106.79 386.416 107 385.502 107C384.615 107 383.91 106.79 383.388 106.37C382.912 106.79 382.198 107 381.246 107H380.532C380.345 107 380.252 106.715 380.252 106.146C380.252 105.586 380.345 105.306 380.532 105.306H381.078C381.572 105.306 381.908 105.213 382.086 105.026C382.272 104.83 382.366 104.494 382.366 104.018V101.47H384.2V104.032C384.2 104.443 384.167 104.793 384.102 105.082C384.363 105.231 384.732 105.306 385.208 105.306C385.572 105.306 385.852 105.269 386.048 105.194C386.244 105.11 386.379 104.979 386.454 104.802C386.538 104.615 386.58 104.354 386.58 104.018V100.77H388.4V104.032C388.4 104.461 388.362 104.811 388.288 105.082C388.558 105.231 388.932 105.306 389.408 105.306C389.772 105.306 390.052 105.269 390.248 105.194C390.444 105.11 390.579 104.979 390.654 104.802C390.738 104.615 390.78 104.354 390.78 104.018V100.07H392.6V104.032C392.6 104.461 392.562 104.811 392.488 105.082C392.721 105.231 393.006 105.306 393.342 105.306H394.616ZM397.54 96.57V107H394.614C394.427 107 394.334 106.715 394.334 106.146C394.334 105.586 394.427 105.306 394.614 105.306H395.706V96.57H397.54ZM403.295 105.306C403.482 105.306 403.575 105.586 403.575 106.146C403.575 106.715 403.482 107 403.295 107H399.837V96.57H401.657V105.306H403.295ZM406.613 100.084V107H403.295C403.109 107 403.015 106.715 403.015 106.146C403.015 105.586 403.109 105.306 403.295 105.306H404.779V100.084H406.613ZM405.591 110.22C405.302 110.22 405.059 110.117 404.863 109.912C404.677 109.716 404.583 109.469 404.583 109.17C404.583 108.862 404.677 108.61 404.863 108.414C405.059 108.218 405.302 108.12 405.591 108.12C405.89 108.12 406.133 108.218 406.319 108.414C406.515 108.61 406.613 108.862 406.613 109.17C406.613 109.469 406.515 109.716 406.319 109.912C406.123 110.117 405.881 110.22 405.591 110.22ZM420.686 105.306C420.873 105.306 420.966 105.586 420.966 106.146C420.966 106.715 420.873 107 420.686 107H420.28C419.151 107 418.353 106.669 417.886 106.006C417.102 106.37 416.337 106.552 415.59 106.552C414.909 106.552 414.284 106.398 413.714 106.09C413.145 105.773 412.692 105.348 412.356 104.816C412.02 104.275 411.852 103.677 411.852 103.024C411.852 102.38 412.02 101.787 412.356 101.246C412.692 100.705 413.145 100.28 413.714 99.972C414.293 99.6547 414.918 99.496 415.59 99.496H417.382V99.132H419.216V104.018C419.216 104.485 419.305 104.816 419.482 105.012C419.66 105.208 419.986 105.306 420.462 105.306H420.686ZM415.674 104.858C416.225 104.858 416.799 104.685 417.396 104.34C417.387 104.275 417.382 104.172 417.382 104.032V101.19H415.632C415.278 101.19 414.951 101.274 414.652 101.442C414.354 101.601 414.116 101.82 413.938 102.1C413.77 102.38 413.686 102.688 413.686 103.024C413.686 103.537 413.873 103.971 414.246 104.326C414.62 104.681 415.096 104.858 415.674 104.858ZM416.724 98.46C416.472 98.46 416.262 98.3713 416.094 98.194C415.926 98.0167 415.842 97.7973 415.842 97.536C415.842 97.256 415.926 97.032 416.094 96.864C416.262 96.6867 416.472 96.598 416.724 96.598C416.995 96.598 417.214 96.6867 417.382 96.864C417.55 97.032 417.634 97.256 417.634 97.536C417.634 97.7973 417.546 98.0167 417.368 98.194C417.2 98.3713 416.986 98.46 416.724 98.46ZM414.47 98.46C414.218 98.46 414.008 98.3713 413.84 98.194C413.672 98.0167 413.588 97.7973 413.588 97.536C413.588 97.256 413.672 97.032 413.84 96.864C414.008 96.6867 414.218 96.598 414.47 96.598C414.741 96.598 414.96 96.6867 415.128 96.864C415.296 97.032 415.38 97.256 415.38 97.536C415.38 97.7973 415.292 98.0167 415.114 98.194C414.946 98.3713 414.732 98.46 414.47 98.46ZM424.004 100.084V107H420.686C420.499 107 420.406 106.715 420.406 106.146C420.406 105.586 420.499 105.306 420.686 105.306H422.17V100.084H424.004ZM423.094 99.104C422.805 99.104 422.562 99.006 422.366 98.81C422.179 98.6047 422.086 98.3527 422.086 98.054C422.086 97.746 422.179 97.494 422.366 97.298C422.562 97.102 422.805 97.004 423.094 97.004C423.393 97.004 423.635 97.102 423.822 97.298C424.018 97.494 424.116 97.746 424.116 98.054C424.116 98.3527 424.018 98.6047 423.822 98.81C423.626 99.006 423.383 99.104 423.094 99.104ZM424.166 108.498C424.726 108.526 425.127 108.414 425.37 108.162C425.622 107.919 425.748 107.495 425.748 106.888V100.084H427.582V106.888C427.582 107.905 427.302 108.703 426.742 109.282C426.182 109.87 425.412 110.173 424.432 110.192L424.166 108.498ZM433.073 105.306C433.259 105.306 433.353 105.586 433.353 106.146C433.353 106.715 433.259 107 433.073 107H429.615V96.57H431.435V105.306H433.073ZM442.705 105.306C442.891 105.306 442.985 105.586 442.985 106.146C442.985 106.715 442.891 107 442.705 107H433.073C432.886 107 432.793 106.715 432.793 106.146C432.793 105.586 432.886 105.306 433.073 105.306H434.683C434.328 104.746 434.151 104.125 434.151 103.444C434.151 102.744 434.328 102.109 434.683 101.54C435.037 100.971 435.513 100.523 436.111 100.196C436.717 99.8693 437.38 99.706 438.099 99.706C439.023 99.706 440.026 99.9813 441.109 100.532V105.306H442.705ZM435.985 103.43C435.985 103.897 436.12 104.303 436.391 104.648C436.671 104.984 437.044 105.203 437.511 105.306H439.275V101.61C438.892 101.47 438.505 101.4 438.113 101.4C437.497 101.4 436.988 101.591 436.587 101.974C436.185 102.357 435.985 102.842 435.985 103.43ZM439.233 98.516C438.981 98.516 438.771 98.4273 438.603 98.25C438.435 98.0727 438.351 97.8533 438.351 97.592C438.351 97.312 438.435 97.088 438.603 96.92C438.771 96.7427 438.981 96.654 439.233 96.654C439.503 96.654 439.723 96.7427 439.891 96.92C440.059 97.088 440.143 97.312 440.143 97.592C440.143 97.8533 440.054 98.0727 439.877 98.25C439.709 98.4273 439.494 98.516 439.233 98.516ZM436.979 98.516C436.727 98.516 436.517 98.4273 436.349 98.25C436.181 98.0727 436.097 97.8533 436.097 97.592C436.097 97.312 436.181 97.088 436.349 96.92C436.517 96.7427 436.727 96.654 436.979 96.654C437.249 96.654 437.469 96.7427 437.637 96.92C437.805 97.088 437.889 97.312 437.889 97.592C437.889 97.8533 437.8 98.0727 437.623 98.25C437.455 98.4273 437.24 98.516 436.979 98.516ZM447.191 99.51C448.022 99.51 448.787 99.804 449.487 100.392C450.197 100.98 450.747 101.778 451.139 102.786C451.541 103.794 451.718 104.895 451.671 106.09C451.027 106.389 450.327 106.617 449.571 106.776C448.825 106.925 448.148 107 447.541 107C446.636 107 445.754 106.804 444.895 106.412C444.429 106.804 443.841 107 443.131 107H442.711C442.525 107 442.431 106.715 442.431 106.146C442.431 105.586 442.525 105.306 442.711 105.306H442.907C443.197 105.306 443.421 105.236 443.579 105.096C443.747 104.956 443.855 104.737 443.901 104.438L443.943 104.074C444.037 103.346 444.167 102.669 444.335 102.044C444.513 101.419 444.83 100.84 445.287 100.308C445.745 99.776 446.379 99.51 447.191 99.51ZM445.721 104.872C446.039 105.021 446.342 105.133 446.631 105.208C446.921 105.273 447.229 105.306 447.555 105.306C448.246 105.306 448.993 105.189 449.795 104.956C449.721 104.293 449.553 103.677 449.291 103.108C449.03 102.529 448.717 102.072 448.353 101.736C447.999 101.391 447.639 101.218 447.275 101.218C446.911 101.218 446.627 101.386 446.421 101.722C446.216 102.049 446.071 102.422 445.987 102.842C445.913 103.262 445.843 103.766 445.777 104.354C445.768 104.475 445.759 104.578 445.749 104.662C445.74 104.746 445.731 104.816 445.721 104.872Z" fill="#0C0A09"/>
<path d="M345.145 108.667C348.827 108.667 351.812 105.682 351.812 102C351.812 98.3183 348.827 95.3335 345.145 95.3335C341.463 95.3335 338.478 98.3183 338.478 102C338.478 105.682 341.463 108.667 345.145 108.667Z" stroke="black" stroke-width="1.33333" stroke-linecap="round" stroke-linejoin="round"/>
<path d="M343.205 99.9999C343.362 99.5543 343.671 99.1786 344.078 98.9393C344.486 98.7 344.964 98.6125 345.43 98.6924C345.895 98.7722 346.318 99.0142 346.622 99.3756C346.926 99.7369 347.092 100.194 347.092 100.667C347.092 102 345.092 102.667 345.092 102.667" stroke="black" stroke-width="1.33333" stroke-linecap="round" stroke-linejoin="round"/>
<path d="M345.145 105.333H345.152" stroke="black" stroke-width="1.33333" stroke-linecap="round" stroke-linejoin="round"/>
<rect x="58.335" y="118.5" width="389.67" height="47" rx="7.5" fill="white"/>
<rect x="58.335" y="118.5" width="389.67" height="47" rx="7.5" stroke="#E6E6E6"/>
<g clip-path="url(#clip1_3185_4320)">
<path d="M90.9969 141.298C91.7249 141.298 92.3643 141.429 92.9149 141.69C93.4749 141.942 93.9043 142.292 94.2029 142.74C94.5016 143.188 94.6509 143.697 94.6509 144.266C94.6509 144.929 94.4923 145.512 94.1749 146.016C93.8669 146.511 93.4283 146.893 92.8589 147.164C92.2896 147.435 91.6269 147.57 90.8709 147.57C90.2736 147.57 89.6436 147.467 88.9809 147.262C88.3276 147.057 87.7489 146.786 87.2449 146.45L87.9169 145.12C88.3369 145.447 88.7896 145.699 89.2749 145.876C89.7603 146.053 90.2409 146.142 90.7169 146.142C91.3796 146.142 91.9069 145.983 92.2989 145.666C92.6909 145.349 92.8869 144.924 92.8869 144.392C92.8869 143.869 92.6909 143.468 92.2989 143.188C91.9163 142.899 91.3469 142.754 90.5909 142.754C90.2643 142.754 89.8303 142.768 89.2889 142.796C88.7569 142.824 88.3323 142.857 88.0149 142.894V137.7H94.2309V139.17H89.5549V141.298H90.9969ZM100.211 137.63C101.546 137.63 102.573 138.059 103.291 138.918C104.01 139.777 104.369 141.004 104.369 142.6C104.369 144.196 104.01 145.423 103.291 146.282C102.573 147.141 101.546 147.57 100.211 147.57C98.8672 147.57 97.8359 147.141 97.1172 146.282C96.3986 145.423 96.0392 144.196 96.0392 142.6C96.0392 141.004 96.3986 139.777 97.1172 138.918C97.8359 138.059 98.8672 137.63 100.211 137.63ZM100.211 138.932C99.3806 138.932 98.7599 139.235 98.3492 139.842C97.9386 140.439 97.7332 141.359 97.7332 142.6C97.7332 143.832 97.9386 144.751 98.3492 145.358C98.7599 145.965 99.3806 146.268 100.211 146.268C101.033 146.268 101.649 145.965 102.059 145.358C102.47 144.751 102.675 143.832 102.675 142.6C102.675 141.359 102.47 140.439 102.059 139.842C101.649 139.235 101.033 138.932 100.211 138.932ZM110.11 137.63C111.444 137.63 112.471 138.059 113.19 138.918C113.908 139.777 114.268 141.004 114.268 142.6C114.268 144.196 113.908 145.423 113.19 146.282C112.471 147.141 111.444 147.57 110.11 147.57C108.766 147.57 107.734 147.141 107.016 146.282C106.297 145.423 105.938 144.196 105.938 142.6C105.938 141.004 106.297 139.777 107.016 138.918C107.734 138.059 108.766 137.63 110.11 137.63ZM110.11 138.932C109.279 138.932 108.658 139.235 108.248 139.842C107.837 140.439 107.632 141.359 107.632 142.6C107.632 143.832 107.837 144.751 108.248 145.358C108.658 145.965 109.279 146.268 110.11 146.268C110.931 146.268 111.547 145.965 111.958 145.358C112.368 144.751 112.574 143.832 112.574 142.6C112.574 141.359 112.368 140.439 111.958 139.842C111.547 139.235 110.931 138.932 110.11 138.932ZM120.008 137.63C121.343 137.63 122.369 138.059 123.088 138.918C123.807 139.777 124.166 141.004 124.166 142.6C124.166 144.196 123.807 145.423 123.088 146.282C122.369 147.141 121.343 147.57 120.008 147.57C118.664 147.57 117.633 147.141 116.914 146.282C116.195 145.423 115.836 144.196 115.836 142.6C115.836 141.004 116.195 139.777 116.914 138.918C117.633 138.059 118.664 137.63 120.008 137.63ZM120.008 138.932C119.177 138.932 118.557 139.235 118.146 139.842C117.735 140.439 117.53 141.359 117.53 142.6C117.53 143.832 117.735 144.751 118.146 145.358C118.557 145.965 119.177 146.268 120.008 146.268C120.829 146.268 121.445 145.965 121.856 145.358C122.267 144.751 122.472 143.832 122.472 142.6C122.472 141.359 122.267 140.439 121.856 139.842C121.445 139.235 120.829 138.932 120.008 138.932ZM129.907 137.63C131.241 137.63 132.268 138.059 132.987 138.918C133.705 139.777 134.065 141.004 134.065 142.6C134.065 144.196 133.705 145.423 132.987 146.282C132.268 147.141 131.241 147.57 129.907 147.57C128.563 147.57 127.531 147.141 126.813 146.282C126.094 145.423 125.735 144.196 125.735 142.6C125.735 141.004 126.094 139.777 126.813 138.918C127.531 138.059 128.563 137.63 129.907 137.63ZM129.907 138.932C129.076 138.932 128.455 139.235 128.045 139.842C127.634 140.439 127.429 141.359 127.429 142.6C127.429 143.832 127.634 144.751 128.045 145.358C128.455 145.965 129.076 146.268 129.907 146.268C130.728 146.268 131.344 145.965 131.755 145.358C132.165 144.751 132.371 143.832 132.371 142.6C132.371 141.359 132.165 140.439 131.755 139.842C131.344 139.235 130.728 138.932 129.907 138.932Z" fill="#0C0A09"/>
</g>
<g filter="url(#filter1_d_3185_4320)">
<rect x="58" y="198" width="789" height="55" rx="8" fill="white" shape-rendering="crispEdges"/>
<rect x="58.5" y="198.5" width="788" height="54" rx="7.5" stroke="#E7E5E4" shape-rendering="crispEdges"/>
<rect x="69.155" y="211" width="44" height="24" rx="12" fill="#E7E5E4"/>
<g filter="url(#filter2_dd_3185_4320)">
<rect x="71.155" y="213" width="20" height="20" rx="10" fill="white"/>
</g>
<path d="M691.211 228.806C691.397 228.806 691.491 229.086 691.491 229.646C691.491 230.215 691.397 230.5 691.211 230.5H690.805C689.675 230.5 688.877 230.169 688.411 229.506C687.627 229.87 686.861 230.052 686.115 230.052C685.433 230.052 684.808 229.898 684.239 229.59C683.669 229.273 683.217 228.848 682.881 228.316C682.545 227.775 682.377 227.177 682.377 226.524C682.377 225.88 682.545 225.287 682.881 224.746C683.217 224.205 683.669 223.78 684.239 223.472C684.817 223.155 685.443 222.996 686.115 222.996H687.907V222.632H689.741V227.518C689.741 227.985 689.829 228.316 690.007 228.512C690.184 228.708 690.511 228.806 690.987 228.806H691.211ZM686.199 228.358C686.749 228.358 687.323 228.185 687.921 227.84C687.911 227.775 687.907 227.672 687.907 227.532V224.69H686.157C685.802 224.69 685.475 224.774 685.177 224.942C684.878 225.101 684.64 225.32 684.463 225.6C684.295 225.88 684.211 226.188 684.211 226.524C684.211 227.037 684.397 227.471 684.771 227.826C685.144 228.181 685.62 228.358 686.199 228.358ZM687.249 221.96C686.997 221.96 686.787 221.871 686.619 221.694C686.451 221.517 686.367 221.297 686.367 221.036C686.367 220.756 686.451 220.532 686.619 220.364C686.787 220.187 686.997 220.098 687.249 220.098C687.519 220.098 687.739 220.187 687.907 220.364C688.075 220.532 688.159 220.756 688.159 221.036C688.159 221.297 688.07 221.517 687.893 221.694C687.725 221.871 687.51 221.96 687.249 221.96ZM684.995 221.96C684.743 221.96 684.533 221.871 684.365 221.694C684.197 221.517 684.113 221.297 684.113 221.036C684.113 220.756 684.197 220.532 684.365 220.364C684.533 220.187 684.743 220.098 684.995 220.098C685.265 220.098 685.485 220.187 685.653 220.364C685.821 220.532 685.905 220.756 685.905 221.036C685.905 221.297 685.816 221.517 685.639 221.694C685.471 221.871 685.256 221.96 684.995 221.96ZM696.838 228.806C697.025 228.806 697.118 229.086 697.118 229.646C697.118 230.215 697.025 230.5 696.838 230.5H696.082C695.27 230.5 694.608 230.285 694.094 229.856C693.637 230.285 692.946 230.5 692.022 230.5H691.21C691.024 230.5 690.93 230.215 690.93 229.646C690.93 229.086 691.024 228.806 691.21 228.806H691.84C692.316 228.806 692.643 228.708 692.82 228.512C692.998 228.316 693.086 227.985 693.086 227.518V223.584H694.906V227.532C694.906 227.905 694.869 228.255 694.794 228.582C695.028 228.731 695.317 228.806 695.662 228.806H696.838ZM695.13 233.44C694.878 233.44 694.668 233.351 694.5 233.174C694.332 232.997 694.248 232.777 694.248 232.516C694.248 232.236 694.332 232.007 694.5 231.83C694.668 231.662 694.878 231.578 695.13 231.578C695.401 231.578 695.62 231.662 695.788 231.83C695.956 232.007 696.04 232.236 696.04 232.516C696.04 232.777 695.952 232.997 695.774 233.174C695.606 233.351 695.392 233.44 695.13 233.44ZM692.876 233.44C692.624 233.44 692.414 233.351 692.246 233.174C692.078 232.997 691.994 232.777 691.994 232.516C691.994 232.236 692.078 232.007 692.246 231.83C692.414 231.662 692.624 231.578 692.876 231.578C693.147 231.578 693.366 231.662 693.534 231.83C693.702 232.007 693.786 232.236 693.786 232.516C693.786 232.777 693.698 232.997 693.52 233.174C693.352 233.351 693.138 233.44 692.876 233.44ZM700.161 223.584V230.5H696.843C696.656 230.5 696.563 230.215 696.563 229.646C696.563 229.086 696.656 228.806 696.843 228.806H698.327V223.584H700.161ZM699.251 222.604C698.962 222.604 698.719 222.506 698.523 222.31C698.336 222.105 698.243 221.853 698.243 221.554C698.243 221.246 698.336 220.994 698.523 220.798C698.719 220.602 698.962 220.504 699.251 220.504C699.55 220.504 699.792 220.602 699.979 220.798C700.175 220.994 700.273 221.246 700.273 221.554C700.273 221.853 700.175 222.105 699.979 222.31C699.783 222.506 699.54 222.604 699.251 222.604ZM705.771 228.806C705.957 228.806 706.051 229.086 706.051 229.646C706.051 230.215 705.957 230.5 705.771 230.5H702.313V220.07H704.133V228.806H705.771ZM715.193 228.806C715.379 228.806 715.473 229.086 715.473 229.646C715.473 230.215 715.379 230.5 715.193 230.5H705.771C705.584 230.5 705.491 230.215 705.491 229.646C705.491 229.086 705.584 228.806 705.771 228.806H711.357V226.958C711.357 226.277 711.137 225.735 710.699 225.334C710.26 224.923 709.677 224.718 708.949 224.718C708.137 224.718 707.385 224.97 706.695 225.474L705.897 223.906C706.821 223.309 707.838 223.01 708.949 223.01C709.761 223.01 710.489 223.178 711.133 223.514C711.777 223.85 712.281 224.321 712.645 224.928C713.009 225.525 713.191 226.202 713.191 226.958V228.806H715.193ZM708.865 233.72C708.575 233.72 708.333 233.617 708.137 233.412C707.95 233.216 707.857 232.969 707.857 232.67C707.857 232.362 707.95 232.11 708.137 231.914C708.333 231.718 708.575 231.62 708.865 231.62C709.163 231.62 709.406 231.718 709.593 231.914C709.789 232.11 709.887 232.362 709.887 232.67C709.887 232.969 709.789 233.216 709.593 233.412C709.397 233.617 709.154 233.72 708.865 233.72ZM719.671 223.01C720.501 223.01 721.267 223.304 721.967 223.892C722.676 224.48 723.227 225.278 723.619 226.286C724.02 227.294 724.197 228.395 724.151 229.59C723.507 229.889 722.807 230.117 722.051 230.276C721.304 230.425 720.627 230.5 720.021 230.5C719.115 230.5 718.233 230.304 717.375 229.912C716.908 230.304 716.32 230.5 715.611 230.5H715.191C715.004 230.5 714.911 230.215 714.911 229.646C714.911 229.086 715.004 228.806 715.191 228.806H715.387C715.676 228.806 715.9 228.736 716.059 228.596C716.227 228.456 716.334 228.237 716.381 227.938L716.423 227.574C716.516 226.846 716.647 226.169 716.815 225.544C716.992 224.919 717.309 224.34 717.767 223.808C718.224 223.276 718.859 223.01 719.671 223.01ZM718.201 228.372C718.518 228.521 718.821 228.633 719.111 228.708C719.4 228.773 719.708 228.806 720.035 228.806C720.725 228.806 721.472 228.689 722.275 228.456C722.2 227.793 722.032 227.177 721.771 226.608C721.509 226.029 721.197 225.572 720.833 225.236C720.478 224.891 720.119 224.718 719.755 224.718C719.391 224.718 719.106 224.886 718.901 225.222C718.695 225.549 718.551 225.922 718.467 226.342C718.392 226.762 718.322 227.266 718.257 227.854C718.247 227.975 718.238 228.078 718.229 228.162C718.219 228.246 718.21 228.316 718.201 228.372ZM732.598 230.5C731.916 230.5 731.296 230.351 730.736 230.052C730.185 229.744 729.751 229.329 729.434 228.806C729.116 228.274 728.958 227.691 728.958 227.056C728.958 226.384 729.13 225.749 729.476 225.152C729.83 224.545 730.288 224.06 730.848 223.696C731.408 223.332 731.991 223.15 732.598 223.15C733.204 223.15 733.788 223.332 734.348 223.696C734.908 224.06 735.36 224.545 735.706 225.152C736.06 225.749 736.238 226.384 736.238 227.056C736.238 227.691 736.079 228.274 735.762 228.806C735.444 229.329 735.006 229.744 734.446 230.052C733.895 230.351 733.279 230.5 732.598 230.5ZM732.598 228.806C733.13 228.806 733.564 228.643 733.9 228.316C734.236 227.989 734.404 227.569 734.404 227.056C734.404 226.711 734.31 226.365 734.124 226.02C733.937 225.675 733.704 225.395 733.424 225.18C733.144 224.956 732.868 224.844 732.598 224.844C732.327 224.844 732.052 224.956 731.772 225.18C731.492 225.395 731.258 225.675 731.072 226.02C730.885 226.365 730.792 226.711 730.792 227.056C730.792 227.569 730.96 227.989 731.296 228.316C731.632 228.643 732.066 228.806 732.598 228.806ZM733.718 222.128C733.466 222.128 733.256 222.039 733.088 221.862C732.92 221.685 732.836 221.465 732.836 221.204C732.836 220.924 732.92 220.7 733.088 220.532C733.256 220.355 733.466 220.266 733.718 220.266C733.988 220.266 734.208 220.355 734.376 220.532C734.544 220.7 734.628 220.924 734.628 221.204C734.628 221.465 734.539 221.685 734.362 221.862C734.194 222.039 733.979 222.128 733.718 222.128ZM731.464 222.128C731.212 222.128 731.002 222.039 730.834 221.862C730.666 221.685 730.582 221.465 730.582 221.204C730.582 220.924 730.666 220.7 730.834 220.532C731.002 220.355 731.212 220.266 731.464 220.266C731.734 220.266 731.954 220.355 732.122 220.532C732.29 220.7 732.374 220.924 732.374 221.204C732.374 221.465 732.285 221.685 732.108 221.862C731.94 222.039 731.725 222.128 731.464 222.128ZM736.786 231.998C737.346 232.026 737.747 231.914 737.99 231.662C738.242 231.419 738.368 230.995 738.368 230.388V223.584H740.202V230.388C740.202 231.405 739.922 232.203 739.362 232.782C738.802 233.37 738.032 233.673 737.052 233.692L736.786 231.998ZM748.843 224.312V230.388C748.843 231.424 748.549 232.231 747.961 232.81C747.382 233.398 746.584 233.697 745.567 233.706L745.301 231.984C745.375 231.993 745.478 231.998 745.609 231.998C746.103 231.998 746.458 231.872 746.673 231.62C746.897 231.368 747.009 230.957 747.009 230.388V230.29C746.523 230.43 746.029 230.5 745.525 230.5C744.815 230.5 744.157 230.341 743.551 230.024C742.953 229.697 742.477 229.254 742.123 228.694C741.768 228.134 741.591 227.523 741.591 226.86C741.591 226.197 741.768 225.586 742.123 225.026C742.477 224.466 742.953 224.023 743.551 223.696C744.157 223.369 744.815 223.206 745.525 223.206C746.047 223.206 746.593 223.304 747.163 223.5C747.732 223.687 748.245 223.939 748.703 224.256L748.843 224.312ZM745.567 228.806C745.987 228.806 746.467 228.694 747.009 228.47V225.264C746.477 225.021 745.996 224.9 745.567 224.9C745.147 224.9 744.773 224.993 744.447 225.18C744.129 225.357 743.877 225.595 743.691 225.894C743.513 226.193 743.425 226.515 743.425 226.86C743.425 227.215 743.513 227.541 743.691 227.84C743.877 228.139 744.134 228.377 744.461 228.554C744.787 228.722 745.156 228.806 745.567 228.806ZM760.143 228.806C760.33 228.806 760.423 229.086 760.423 229.646C760.423 230.215 760.33 230.5 760.143 230.5H759.051C758.137 230.5 757.423 230.304 756.909 229.912C755.687 230.304 754.361 230.5 752.933 230.5C751.991 230.5 751.085 230.411 750.217 230.234V228.484C751.076 228.699 751.986 228.806 752.947 228.806C754.011 228.806 754.996 228.68 755.901 228.428C755.817 228.232 755.729 227.989 755.635 227.7L753.927 222.758L755.649 222.212L757.357 227.168C757.544 227.719 757.693 228.097 757.805 228.302C757.917 228.507 758.057 228.643 758.225 228.708C758.393 228.764 758.669 228.792 759.051 228.792H760.143V228.806ZM763.07 220.07V230.5H760.144C759.957 230.5 759.864 230.215 759.864 229.646C759.864 229.086 759.957 228.806 760.144 228.806H761.236V220.07H763.07ZM765.367 220.07H767.187V230.5H765.367V220.07ZM776.361 230.5C775.68 230.5 775.059 230.351 774.499 230.052C773.949 229.744 773.515 229.329 773.197 228.806C772.88 228.274 772.721 227.691 772.721 227.056C772.721 226.384 772.894 225.749 773.239 225.152C773.594 224.545 774.051 224.06 774.611 223.696C775.171 223.332 775.755 223.15 776.361 223.15C776.968 223.15 777.551 223.332 778.111 223.696C778.671 224.06 779.124 224.545 779.469 225.152C779.824 225.749 780.001 226.384 780.001 227.056C780.001 227.691 779.843 228.274 779.525 228.806C779.208 229.329 778.769 229.744 778.209 230.052C777.659 230.351 777.043 230.5 776.361 230.5ZM776.361 228.806C776.893 228.806 777.327 228.643 777.663 228.316C777.999 227.989 778.167 227.569 778.167 227.056C778.167 226.711 778.074 226.365 777.887 226.02C777.701 225.675 777.467 225.395 777.187 225.18C776.907 224.956 776.632 224.844 776.361 224.844C776.091 224.844 775.815 224.956 775.535 225.18C775.255 225.395 775.022 225.675 774.835 226.02C774.649 226.365 774.555 226.711 774.555 227.056C774.555 227.569 774.723 227.989 775.059 228.316C775.395 228.643 775.829 228.806 776.361 228.806ZM791.315 228.806C791.502 228.806 791.595 229.086 791.595 229.646C791.595 230.215 791.502 230.5 791.315 230.5H790.223C789.309 230.5 788.595 230.304 788.081 229.912C786.859 230.304 785.533 230.5 784.105 230.5C783.163 230.5 782.257 230.411 781.389 230.234V228.484C782.248 228.699 783.158 228.806 784.119 228.806C785.183 228.806 786.168 228.68 787.073 228.428C786.989 228.232 786.901 227.989 786.807 227.7L785.099 222.758L786.821 222.212L788.529 227.168C788.716 227.719 788.865 228.097 788.977 228.302C789.089 228.507 789.229 228.643 789.397 228.708C789.565 228.764 789.841 228.792 790.223 228.792H791.315V228.806ZM785.463 221.526C785.174 221.526 784.931 221.428 784.735 221.232C784.549 221.027 784.455 220.775 784.455 220.476C784.455 220.168 784.549 219.916 784.735 219.72C784.931 219.524 785.174 219.426 785.463 219.426C785.762 219.426 786.005 219.524 786.191 219.72C786.387 219.916 786.485 220.168 786.485 220.476C786.485 220.775 786.387 221.027 786.191 221.232C785.995 221.428 785.753 221.526 785.463 221.526ZM798.4 223.626C799.165 223.981 799.781 224.368 800.248 224.788C800.714 225.199 801.06 225.698 801.284 226.286C801.508 226.874 801.606 227.593 801.578 228.442L801.48 230.5H791.316C791.129 230.5 791.036 230.215 791.036 229.646C791.036 229.086 791.129 228.806 791.316 228.806H792.94C792.734 228.059 792.632 227.359 792.632 226.706C792.632 226.099 792.725 225.553 792.912 225.068C793.098 224.583 793.364 224.181 793.71 223.864C793.43 223.799 793.056 223.701 792.59 223.57L793.052 221.932C794.592 222.333 795.716 222.646 796.426 222.87C797.144 223.094 797.802 223.346 798.4 223.626ZM794.34 226.706C794.34 227.378 794.466 228.078 794.718 228.806H796.902V226.426C796.902 225.913 796.794 225.493 796.58 225.166C796.374 224.83 796.08 224.662 795.698 224.662C795.296 224.662 794.97 224.849 794.718 225.222C794.466 225.586 794.34 226.081 794.34 226.706ZM799.744 228.33C799.772 227.677 799.697 227.145 799.52 226.734C799.342 226.323 799.02 225.964 798.554 225.656C798.6 225.917 798.624 226.174 798.624 226.426V228.806H799.716L799.744 228.33ZM817.377 228.806C817.564 228.806 817.657 229.086 817.657 229.646C817.657 230.215 817.564 230.5 817.377 230.5H817.293C816.621 230.5 816.052 230.351 815.585 230.052C815.305 231.06 814.787 231.867 814.031 232.474C813.284 233.09 812.365 233.398 811.273 233.398C810.349 233.398 809.542 233.174 808.851 232.726C808.17 232.278 807.647 231.676 807.283 230.92C806.919 230.164 806.737 229.324 806.737 228.4C806.737 227.896 806.793 227.387 806.905 226.874L808.711 227.14C808.618 227.653 808.571 228.087 808.571 228.442C808.571 229.086 808.683 229.655 808.907 230.15C809.131 230.645 809.444 231.027 809.845 231.298C810.256 231.569 810.732 231.704 811.273 231.704C811.814 231.704 812.286 231.569 812.687 231.298C813.098 231.027 813.415 230.645 813.639 230.15C813.863 229.655 813.975 229.081 813.975 228.428V220.07H815.809V228.372V228.428C816.052 228.68 816.402 228.806 816.859 228.806H817.377ZM827.16 228.806C827.347 228.806 827.44 229.086 827.44 229.646C827.44 230.215 827.347 230.5 827.16 230.5H824.584C823.539 230.5 822.582 230.323 821.714 229.968C820.753 230.323 819.899 230.5 819.152 230.5H817.374C817.188 230.5 817.094 230.215 817.094 229.646C817.094 229.086 817.188 228.806 817.374 228.806H819.152C819.386 228.806 819.61 228.787 819.824 228.75C819.059 228.031 818.513 227.131 818.186 226.048L819.726 223.444C820.454 223.239 821.206 223.136 821.98 223.136C822.792 223.136 823.511 223.243 824.136 223.458C824.762 223.673 825.247 223.981 825.592 224.382C825.938 224.774 826.11 225.227 826.11 225.74C826.11 226.281 825.919 226.813 825.536 227.336C825.163 227.849 824.654 228.33 824.01 228.778C824.272 228.797 824.463 228.806 824.584 228.806H827.16ZM819.88 225.208C820.03 225.843 820.272 226.407 820.608 226.902C820.944 227.387 821.36 227.784 821.854 228.092C822.545 227.756 823.124 227.378 823.59 226.958C824.057 226.529 824.29 226.141 824.29 225.796C824.29 225.516 824.085 225.287 823.674 225.11C823.264 224.923 822.699 224.83 821.98 224.83C821.252 224.83 820.552 224.956 819.88 225.208ZM835.143 228.806L834.877 230.5H827.163C826.977 230.5 826.883 230.215 826.883 229.646C826.883 229.086 826.977 228.806 827.163 228.806H832.749V226.958C832.749 226.277 832.53 225.735 832.091 225.334C831.653 224.923 831.069 224.718 830.341 224.718C829.529 224.718 828.778 224.97 828.087 225.474L827.289 223.906C828.213 223.309 829.231 223.01 830.341 223.01C831.153 223.01 831.881 223.178 832.525 223.514C833.169 223.85 833.673 224.321 834.037 224.928C834.401 225.525 834.583 226.202 834.583 226.958V228.806H835.143ZM830.257 233.72C829.968 233.72 829.725 233.617 829.529 233.412C829.343 233.216 829.249 232.969 829.249 232.67C829.249 232.362 829.343 232.11 829.529 231.914C829.725 231.718 829.968 231.62 830.257 231.62C830.556 231.62 830.799 231.718 830.985 231.914C831.181 232.11 831.279 232.362 831.279 232.67C831.279 232.969 831.181 233.216 830.985 233.412C830.789 233.617 830.547 233.72 830.257 233.72Z" fill="#0C0A09"/>
</g>
</g>
<defs>
<filter id="filter0_d_3185_4320" x="0" y="0" width="905" height="307" filterUnits="userSpaceOnUse" color-interpolation-filters="sRGB">
<feFlood flood-opacity="0" result="BackgroundImageFix"/>
<feColorMatrix in="SourceAlpha" type="matrix" values="0 0 0 0 0 0 0 0 0 0 0 0 0 0 0 0 0 0 127 0" result="hardAlpha"/>
<feMorphology radius="3" operator="erode" in="SourceAlpha" result="effect1_dropShadow_3185_4320"/>
<feOffset dy="10"/>
<feGaussianBlur stdDeviation="7.5"/>
<feComposite in2="hardAlpha" operator="out"/>
<feColorMatrix type="matrix" values="0 0 0 0 0 0 0 0 0 0 0 0 0 0 0 0 0 0 0.1 0"/>
<feBlend mode="normal" in2="BackgroundImageFix" result="effect1_dropShadow_3185_4320"/>
<feBlend mode="normal" in="SourceGraphic" in2="effect1_dropShadow_3185_4320" result="shape"/>
</filter>
<filter id="filter1_d_3185_4320" x="56" y="197" width="793" height="59" filterUnits="userSpaceOnUse" color-interpolation-filters="sRGB">
<feFlood flood-opacity="0" result="BackgroundImageFix"/>
<feColorMatrix in="SourceAlpha" type="matrix" values="0 0 0 0 0 0 0 0 0 0 0 0 0 0 0 0 0 0 127 0" result="hardAlpha"/>
<feOffset dy="1"/>
<feGaussianBlur stdDeviation="1"/>
<feComposite in2="hardAlpha" operator="out"/>
<feColorMatrix type="matrix" values="0 0 0 0 0 0 0 0 0 0 0 0 0 0 0 0 0 0 0.05 0"/>
<feBlend mode="normal" in2="BackgroundImageFix" result="effect1_dropShadow_3185_4320"/>
<feBlend mode="normal" in="SourceGraphic" in2="effect1_dropShadow_3185_4320" result="shape"/>
</filter>
<filter id="filter2_dd_3185_4320" x="59.155" y="211" width="44" height="44" filterUnits="userSpaceOnUse" color-interpolation-filters="sRGB">
<feFlood flood-opacity="0" result="BackgroundImageFix"/>
<feColorMatrix in="SourceAlpha" type="matrix" values="0 0 0 0 0 0 0 0 0 0 0 0 0 0 0 0 0 0 127 0" result="hardAlpha"/>
<feMorphology radius="4" operator="erode" in="SourceAlpha" result="effect1_dropShadow_3185_4320"/>
<feOffset dy="4"/>
<feGaussianBlur stdDeviation="3"/>
<feComposite in2="hardAlpha" operator="out"/>
<feColorMatrix type="matrix" values="0 0 0 0 0 0 0 0 0 0 0 0 0 0 0 0 0 0 0.1 0"/>
<feBlend mode="normal" in2="BackgroundImageFix" result="effect1_dropShadow_3185_4320"/>
<feColorMatrix in="SourceAlpha" type="matrix" values="0 0 0 0 0 0 0 0 0 0 0 0 0 0 0 0 0 0 127 0" result="hardAlpha"/>
<feMorphology radius="3" operator="erode" in="SourceAlpha" result="effect2_dropShadow_3185_4320"/>
<feOffset dy="10"/>
<feGaussianBlur stdDeviation="7.5"/>
<feComposite in2="hardAlpha" operator="out"/>
<feColorMatrix type="matrix" values="0 0 0 0 0 0 0 0 0 0 0 0 0 0 0 0 0 0 0.1 0"/>
<feBlend mode="normal" in2="effect1_dropShadow_3185_4320" result="effect2_dropShadow_3185_4320"/>
<feBlend mode="normal" in="SourceGraphic" in2="effect2_dropShadow_3185_4320" result="shape"/>
</filter>
<clipPath id="clip0_3185_4320">
<rect width="47" height="17" fill="white" transform="translate(484.505 133.5)"/>
</clipPath>
<clipPath id="clip1_3185_4320">
<rect width="49" height="17" fill="white" transform="translate(85.835 133.5)"/>
</clipPath>
</defs>
</svg>
