<svg width="555" height="84" viewBox="0 0 555 84" fill="none" xmlns="http://www.w3.org/2000/svg">
<g filter="url(#filter0_d_3185_6674)">
<rect x="12" y="2" width="531" height="60" rx="8" fill="white" shape-rendering="crispEdges"/>
<rect x="12.5" y="2.5" width="530" height="59" rx="7.5" stroke="#E7E5E4" shape-rendering="crispEdges"/>
<g clip-path="url(#clip0_3185_6674)">
<mask id="path-3-inside-1_3185_6674" fill="white">
<path d="M12 2H119V62H12V2Z"/>
</mask>
<path d="M119 60H12V64H119V60Z" fill="#FC6B00" mask="url(#path-3-inside-1_3185_6674)"/>
<path d="M41.1264 28.79V36H32.4324C31.3964 36 30.589 35.6967 30.0104 35.09C29.4317 34.4833 29.1424 33.6433 29.1424 32.57C29.1424 31.2727 29.6044 30.176 30.5284 29.28L32.4464 30.61C31.905 31.2167 31.6344 31.8653 31.6344 32.556C31.6344 32.9573 31.7324 33.27 31.9284 33.494C32.1244 33.7087 32.409 33.816 32.7824 33.816L38.6344 33.802V28.79H41.1264ZM36.5624 27.81C36.273 27.81 36.0304 27.712 35.8344 27.516C35.6384 27.32 35.5404 27.0727 35.5404 26.774C35.5404 26.4753 35.6384 26.228 35.8344 26.032C36.0304 25.836 36.273 25.738 36.5624 25.738C36.8611 25.738 37.1037 25.836 37.2904 26.032C37.4864 26.228 37.5844 26.4753 37.5844 26.774C37.5844 27.0727 37.4864 27.32 37.2904 27.516C37.1037 27.712 36.8611 27.81 36.5624 27.81ZM34.1544 27.81C33.865 27.81 33.6224 27.712 33.4264 27.516C33.2304 27.32 33.1324 27.0727 33.1324 26.774C33.1324 26.4753 33.2304 26.228 33.4264 26.032C33.6224 25.836 33.865 25.738 34.1544 25.738C34.453 25.738 34.6957 25.836 34.8824 26.032C35.0784 26.228 35.1764 26.4753 35.1764 26.774C35.1764 27.0727 35.0784 27.32 34.8824 27.516C34.6957 27.712 34.453 27.81 34.1544 27.81ZM47.0862 33.816C47.1796 33.816 47.2496 33.914 47.2962 34.11C47.3429 34.2967 47.3662 34.558 47.3662 34.894C47.3662 35.2393 47.3429 35.51 47.2962 35.706C47.2496 35.902 47.1796 36 47.0862 36H43.0542V25.458H45.5462V33.816H47.0862ZM53.1948 33.816C53.2882 33.816 53.3582 33.914 53.4048 34.11C53.4515 34.2967 53.4748 34.558 53.4748 34.894C53.4748 35.2393 53.4515 35.51 53.4048 35.706C53.3582 35.902 53.2882 36 53.1948 36H52.4668C51.5988 36 50.9035 35.762 50.3808 35.286C49.8488 35.762 49.1115 36 48.1688 36H47.0908C46.9975 36 46.9275 35.902 46.8808 35.706C46.8342 35.51 46.8108 35.2393 46.8108 34.894C46.8108 34.558 46.8342 34.2967 46.8808 34.11C46.9275 33.914 46.9975 33.816 47.0908 33.816H47.8188C48.2015 33.816 48.4675 33.7273 48.6168 33.55C48.7755 33.3633 48.8548 33.0647 48.8548 32.654V28.79H51.3468V32.668C51.3468 32.948 51.3235 33.2373 51.2768 33.536C51.4635 33.7227 51.7295 33.816 52.0748 33.816H53.1948ZM51.3188 39.164C51.0295 39.164 50.7868 39.066 50.5908 38.87C50.3948 38.674 50.2968 38.4267 50.2968 38.128C50.2968 37.8293 50.3948 37.582 50.5908 37.386C50.7868 37.19 51.0295 37.092 51.3188 37.092C51.6175 37.092 51.8602 37.19 52.0468 37.386C52.2428 37.582 52.3408 37.8293 52.3408 38.128C52.3408 38.4267 52.2428 38.674 52.0468 38.87C51.8602 39.066 51.6175 39.164 51.3188 39.164ZM48.9108 39.164C48.6215 39.164 48.3788 39.066 48.1828 38.87C47.9868 38.674 47.8888 38.4267 47.8888 38.128C47.8888 37.8293 47.9868 37.582 48.1828 37.386C48.3788 37.19 48.6215 37.092 48.9108 37.092C49.2095 37.092 49.4522 37.19 49.6388 37.386C49.8348 37.582 49.9328 37.8293 49.9328 38.128C49.9328 38.4267 49.8348 38.674 49.6388 38.87C49.4522 39.066 49.2095 39.164 48.9108 39.164ZM61.8265 33.816L61.4345 36H53.1885C53.0951 36 53.0251 35.902 52.9785 35.706C52.9318 35.51 52.9085 35.2393 52.9085 34.894C52.9085 34.558 52.9318 34.2967 52.9785 34.11C53.0251 33.914 53.0951 33.816 53.1885 33.816H58.8725V32.682C58.8725 32.0473 58.6718 31.548 58.2705 31.184C57.8691 30.8107 57.3371 30.624 56.6745 30.624C55.9465 30.624 55.2698 30.848 54.6445 31.296L53.5525 29.266C54.0191 28.9953 54.5185 28.79 55.0505 28.65C55.5825 28.5007 56.1238 28.426 56.6745 28.426C57.5611 28.426 58.3591 28.608 59.0685 28.972C59.7778 29.336 60.3331 29.8447 60.7345 30.498C61.1451 31.142 61.3505 31.87 61.3505 32.682V33.816H61.8265ZM74.3144 33.816C74.4077 33.816 74.4777 33.914 74.5244 34.11C74.571 34.2967 74.5944 34.558 74.5944 34.894C74.5944 35.2393 74.571 35.51 74.5244 35.706C74.4777 35.902 74.4077 36 74.3144 36H73.2644C72.3964 36 71.7057 35.7667 71.1924 35.3C70.651 35.7667 69.9184 36 68.9944 36H63.0864V33.816H64.8084V27.432H67.3004V33.816H68.6444C69.0177 33.816 69.2837 33.7273 69.4424 33.55C69.601 33.3633 69.6804 33.0647 69.6804 32.654V25.458H72.1584V32.668C72.1584 32.9573 72.135 33.2513 72.0884 33.55C72.2657 33.7273 72.5224 33.816 72.8584 33.816H74.3144ZM93.3515 33.816C93.4449 33.816 93.5149 33.914 93.5615 34.11C93.6082 34.2967 93.6315 34.558 93.6315 34.894C93.6315 35.2393 93.6082 35.51 93.5615 35.706C93.5149 35.902 93.4449 36 93.3515 36H80.1495C79.0762 36 78.2782 35.7667 77.7555 35.3C77.1862 35.7667 76.3695 36 75.3055 36H74.3115C74.2182 36 74.1482 35.902 74.1015 35.706C74.0549 35.51 74.0315 35.2393 74.0315 34.894C74.0315 34.558 74.0549 34.2967 74.1015 34.11C74.1482 33.914 74.2182 33.816 74.3115 33.816H75.0115C75.4969 33.816 75.8189 33.732 75.9775 33.564C76.1455 33.396 76.2295 33.0927 76.2295 32.654V29.49H78.7215V32.668C78.7215 32.9573 78.6982 33.2513 78.6515 33.55C78.7635 33.6433 78.9082 33.7133 79.0855 33.76C79.2629 33.7973 79.4915 33.816 79.7715 33.816C79.9862 32.8827 80.3549 31.996 80.8775 31.156C81.4002 30.316 82.1142 29.6207 83.0195 29.07C83.9249 28.5193 85.0122 28.244 86.2815 28.244C87.3829 28.244 88.3069 28.4587 89.0535 28.888C89.8095 29.3173 90.3695 29.896 90.7335 30.624C91.1069 31.3427 91.2935 32.1453 91.2935 33.032V33.816H93.3515ZM86.3935 30.428C85.4135 30.428 84.5549 30.7453 83.8175 31.38C83.0802 32.0053 82.5715 32.8173 82.2915 33.816H88.8155V33.032C88.8155 32.1827 88.6055 31.5387 88.1855 31.1C87.7749 30.652 87.1775 30.428 86.3935 30.428ZM96.9684 25.458V36H93.3564C93.2631 36 93.1931 35.902 93.1464 35.706C93.0998 35.51 93.0764 35.2393 93.0764 34.894C93.0764 34.558 93.0998 34.2967 93.1464 34.11C93.1931 33.914 93.2631 33.816 93.3564 33.816H94.4764V25.458H96.9684ZM99.0406 25.458H101.533V36H99.0406V25.458Z" fill="black"/>
<a href="https://www.figma.com/design/RktVSf3vCMZh7oE1itrIi5/Yousri?node-id=3185-4597">
<rect fill="black" fill-opacity="0" x="0.442383" y="1.467" width="74.1122" height="17.066"/>
</a>
</g>
<g clip-path="url(#clip1_3185_6674)">
<mask id="path-6-inside-2_3185_6674" fill="white">
<path d="M119 2H257V62H119V2Z"/>
</mask>
<path d="M257 61H119V63H257V61Z" fill="#E7E5E4" mask="url(#path-6-inside-2_3185_6674)"/>
<path d="M147.818 28.73C147.547 28.73 147.323 28.6367 147.146 28.45C146.968 28.2633 146.88 28.03 146.88 27.75C146.88 27.47 146.968 27.2413 147.146 27.064C147.323 26.8773 147.547 26.784 147.818 26.784C148.088 26.784 148.312 26.8773 148.49 27.064C148.667 27.2413 148.756 27.47 148.756 27.75C148.756 28.03 148.667 28.2633 148.49 28.45C148.312 28.6367 148.088 28.73 147.818 28.73ZM147.006 29.71H148.616V36.514H147.3V36.668C147.3 38.7027 145.354 39.72 141.462 39.72C139.576 39.72 138.12 39.4307 137.094 38.852C136.076 38.2827 135.568 37.3167 135.568 35.954C135.568 35.646 135.591 35.282 135.638 34.862C135.684 34.4327 135.754 34.0313 135.848 33.658L137.416 34.022C137.35 34.2833 137.294 34.6007 137.248 34.974C137.201 35.338 137.178 35.6553 137.178 35.926C137.178 36.4953 137.313 36.9433 137.584 37.27C137.854 37.606 138.298 37.8487 138.914 37.998C139.539 38.1473 140.393 38.222 141.476 38.222C142.894 38.222 143.912 38.1007 144.528 37.858C145.153 37.6247 145.466 37.27 145.466 36.794C145.466 36.6913 145.452 36.598 145.424 36.514H145.382V36.5H145.242C144.14 36.5 143.314 36.2153 142.764 35.646L143.884 34.582C144.033 34.7313 144.21 34.8387 144.416 34.904C144.621 34.9693 144.896 35.002 145.242 35.002H147.006V29.71ZM142.68 42.38C142.437 42.38 142.232 42.296 142.064 42.128C141.905 41.96 141.826 41.75 141.826 41.498C141.826 41.2367 141.905 41.022 142.064 40.854C142.232 40.6953 142.437 40.616 142.68 40.616C142.922 40.616 143.123 40.6953 143.282 40.854C143.45 41.022 143.534 41.2367 143.534 41.498C143.534 41.75 143.45 41.96 143.282 42.128C143.123 42.296 142.922 42.38 142.68 42.38ZM140.468 42.38C140.225 42.38 140.02 42.296 139.852 42.128C139.693 41.96 139.614 41.75 139.614 41.498C139.614 41.2367 139.693 41.022 139.852 40.854C140.02 40.6953 140.225 40.616 140.468 40.616C140.71 40.616 140.911 40.6953 141.07 40.854C141.238 41.022 141.322 41.2367 141.322 41.498C141.322 41.75 141.238 41.96 141.07 42.128C140.911 42.296 140.71 42.38 140.468 42.38ZM158.822 35.002C159.008 35.002 159.102 35.2493 159.102 35.744C159.102 36.248 159.008 36.5 158.822 36.5H157.198V36.528C157.198 37.508 156.932 38.2733 156.4 38.824C155.868 39.3747 155.135 39.6593 154.202 39.678L153.95 38.166C154.528 38.2033 154.944 38.0913 155.196 37.83C155.457 37.578 155.588 37.144 155.588 36.528V36.5H154.034C153.334 36.5 152.685 36.3413 152.088 36.024C151.5 35.6973 151.028 35.2587 150.674 34.708C150.328 34.1573 150.156 33.5507 150.156 32.888C150.156 32.2253 150.328 31.6187 150.674 31.068C151.028 30.5173 151.5 30.0833 152.088 29.766C152.685 29.4393 153.334 29.276 154.034 29.276C154.519 29.276 155.037 29.3647 155.588 29.542C156.148 29.71 156.656 29.9433 157.114 30.242L157.198 30.27V35.002H158.822ZM155.588 35.002V31.138C155.056 30.8953 154.552 30.774 154.076 30.774C153.637 30.774 153.24 30.872 152.886 31.068C152.531 31.2547 152.256 31.5113 152.06 31.838C151.864 32.1553 151.766 32.5053 151.766 32.888C151.766 33.2707 151.864 33.6253 152.06 33.952C152.256 34.2693 152.531 34.526 152.886 34.722C153.24 34.9087 153.637 35.002 154.076 35.002H155.588ZM161.918 29.696V36.5H158.824C158.638 36.5 158.544 36.248 158.544 35.744C158.544 35.2493 158.638 35.002 158.824 35.002H160.308V29.696H161.918ZM161.12 28.73C160.85 28.73 160.626 28.6367 160.448 28.45C160.271 28.2633 160.182 28.03 160.182 27.75C160.182 27.47 160.271 27.2413 160.448 27.064C160.626 26.8773 160.85 26.784 161.12 26.784C161.391 26.784 161.615 26.8773 161.792 27.064C161.97 27.2413 162.058 27.47 162.058 27.75C162.058 28.03 161.97 28.2633 161.792 28.45C161.615 28.6367 161.391 28.73 161.12 28.73ZM167.434 35.002C167.621 35.002 167.714 35.2493 167.714 35.744C167.714 36.248 167.621 36.5 167.434 36.5H164.158V26.126H165.768V35.002H167.434ZM176.888 35.002C177.074 35.002 177.168 35.2493 177.168 35.744C177.168 36.248 177.074 36.5 176.888 36.5H167.438C167.251 36.5 167.157 36.248 167.157 35.744C167.157 35.2493 167.251 35.002 167.438 35.002H169.132C168.712 34.4047 168.502 33.7327 168.502 32.986C168.502 32.286 168.674 31.656 169.02 31.096C169.365 30.5267 169.836 30.0833 170.434 29.766C171.031 29.4393 171.684 29.276 172.394 29.276C173.29 29.276 174.251 29.5327 175.278 30.046V35.002H176.888ZM170.112 32.972C170.112 33.4853 170.256 33.924 170.546 34.288C170.844 34.6427 171.246 34.8807 171.75 35.002H173.668V30.998C173.192 30.8487 172.772 30.774 172.408 30.774C171.969 30.774 171.572 30.872 171.218 31.068C170.872 31.2547 170.602 31.516 170.406 31.852C170.21 32.188 170.112 32.5613 170.112 32.972ZM173.514 28.072C173.271 28.072 173.066 27.988 172.898 27.82C172.739 27.652 172.66 27.442 172.66 27.19C172.66 26.9287 172.739 26.7187 172.898 26.56C173.066 26.392 173.271 26.308 173.514 26.308C173.756 26.308 173.957 26.392 174.116 26.56C174.284 26.7187 174.368 26.9287 174.368 27.19C174.368 27.442 174.284 27.652 174.116 27.82C173.957 27.988 173.756 28.072 173.514 28.072ZM171.302 28.072C171.059 28.072 170.854 27.988 170.686 27.82C170.527 27.652 170.448 27.442 170.448 27.19C170.448 26.9287 170.527 26.7187 170.686 26.56C170.854 26.392 171.059 26.308 171.302 26.308C171.544 26.308 171.745 26.392 171.904 26.56C172.072 26.7187 172.156 26.9287 172.156 27.19C172.156 27.442 172.072 27.652 171.904 27.82C171.745 27.988 171.544 28.072 171.302 28.072ZM179.573 26.126V36.5H176.885C176.698 36.5 176.605 36.248 176.605 35.744C176.605 35.2493 176.698 35.002 176.885 35.002H177.963V26.126H179.573ZM181.959 26.126H183.569V36.5H181.959V26.126ZM200.194 29.696V36.5L192.382 36.514C191.411 36.514 190.655 36.2387 190.114 35.688C189.572 35.1373 189.302 34.3813 189.302 33.42C189.302 32.7947 189.423 32.244 189.666 31.768C189.908 31.2827 190.258 30.844 190.716 30.452L191.99 31.348C191.616 31.6747 191.341 32.006 191.164 32.342C190.996 32.6687 190.912 33.0233 190.912 33.406C190.912 33.8913 191.052 34.2787 191.332 34.568C191.612 34.8573 192.004 35.002 192.508 35.002H198.584V29.696H200.194ZM196.064 28.716C195.821 28.716 195.616 28.632 195.448 28.464C195.289 28.296 195.21 28.086 195.21 27.834C195.21 27.5727 195.289 27.3627 195.448 27.204C195.616 27.036 195.821 26.952 196.064 26.952C196.306 26.952 196.507 27.036 196.666 27.204C196.834 27.3627 196.918 27.5727 196.918 27.834C196.918 28.086 196.834 28.296 196.666 28.464C196.507 28.632 196.306 28.716 196.064 28.716ZM193.852 28.716C193.609 28.716 193.404 28.632 193.236 28.464C193.077 28.296 192.998 28.086 192.998 27.834C192.998 27.5727 193.077 27.3627 193.236 27.204C193.404 27.036 193.609 26.952 193.852 26.952C194.094 26.952 194.295 27.036 194.454 27.204C194.622 27.3627 194.706 27.5727 194.706 27.834C194.706 28.086 194.622 28.296 194.454 28.464C194.295 28.632 194.094 28.716 193.852 28.716ZM202.44 26.126H204.05V36.5H202.44V26.126ZM207.759 28.31C208.851 28.562 209.803 29.0287 210.615 29.71C211.427 30.3913 212.052 31.2407 212.491 32.258C212.929 33.266 213.153 34.3907 213.163 35.632C211.819 36.2107 210.274 36.5 208.529 36.5C207.614 36.5 206.727 36.4113 205.869 36.234V34.694C206.718 34.8993 207.609 35.002 208.543 35.002C209.597 35.002 210.577 34.876 211.483 34.624C211.305 33.3827 210.867 32.3327 210.167 31.474C209.467 30.606 208.543 30.0367 207.395 29.766L207.759 28.31ZM215.127 26.126H216.737V36.5H215.127V26.126ZM228.342 35.002C228.529 35.002 228.622 35.2493 228.622 35.744C228.622 36.248 228.529 36.5 228.342 36.5H227.25C226.363 36.5 225.673 36.2993 225.178 35.898C223.993 36.2993 222.672 36.5 221.216 36.5C220.301 36.5 219.415 36.4113 218.556 36.234V34.694C219.405 34.8993 220.297 35.002 221.23 35.002C222.359 35.002 223.391 34.8573 224.324 34.568C224.287 34.4933 224.203 34.2647 224.072 33.882L222.308 28.772L223.82 28.296L225.584 33.406C225.761 33.938 225.906 34.3067 226.018 34.512C226.13 34.708 226.265 34.8387 226.424 34.904C226.592 34.96 226.867 34.988 227.25 34.988H228.342V35.002ZM236.438 35.002V36.5H228.346C228.159 36.5 228.066 36.248 228.066 35.744C228.066 35.2493 228.159 35.002 228.346 35.002H230.068C229.648 34.4233 229.438 33.7513 229.438 32.986C229.438 32.286 229.61 31.656 229.956 31.096C230.301 30.5267 230.772 30.0833 231.37 29.766C231.967 29.4393 232.62 29.276 233.33 29.276C234.226 29.276 235.187 29.5233 236.214 30.018L235.5 31.348C234.632 30.9653 233.913 30.774 233.344 30.774C232.905 30.774 232.508 30.872 232.154 31.068C231.808 31.2547 231.538 31.516 231.342 31.852C231.146 32.188 231.048 32.5613 231.048 32.972C231.048 33.476 231.192 33.9147 231.482 34.288C231.78 34.652 232.177 34.89 232.672 35.002H236.438ZM238.123 26.126H239.733V36.5H238.123V26.126ZM240.363 39.02V39.986H237.493V39.02H237.773C237.699 38.8427 237.661 38.6607 237.661 38.474C237.661 38.1007 237.801 37.7927 238.081 37.55C238.361 37.3167 238.716 37.2 239.145 37.2C239.332 37.2 239.523 37.2187 239.719 37.256C239.925 37.3027 240.097 37.3587 240.237 37.424L239.817 38.306C239.743 38.2687 239.645 38.236 239.523 38.208C239.402 38.18 239.285 38.166 239.173 38.166C238.996 38.166 238.851 38.2033 238.739 38.278C238.637 38.362 238.585 38.4647 238.585 38.586C238.585 38.6887 238.627 38.7867 238.711 38.88C238.805 38.9733 238.921 39.02 239.061 39.02H240.363Z" fill="#0C0A09"/>
</g>
<g clip-path="url(#clip2_3185_6674)">
<mask id="path-9-inside-3_3185_6674" fill="white">
<path d="M257 2H392V62H257V2Z"/>
</mask>
<path d="M392 61H257V63H392V61Z" fill="#E7E5E4" mask="url(#path-9-inside-3_3185_6674)"/>
<path d="M277.807 35.002C277.993 35.002 278.087 35.2493 278.087 35.744C278.087 36.248 277.993 36.5 277.807 36.5H276.267V36.528C276.267 37.508 276.001 38.2733 275.469 38.824C274.937 39.3747 274.204 39.6593 273.271 39.678L273.019 38.166C273.597 38.2033 274.013 38.0913 274.265 37.83C274.526 37.578 274.657 37.144 274.657 36.528V29.696H276.267V35.002H277.807ZM287.149 35.002C287.335 35.002 287.429 35.2493 287.429 35.744C287.429 36.248 287.335 36.5 287.149 36.5H286.925C286.523 36.5 286.229 36.6027 286.043 36.808C285.865 37.0133 285.753 37.284 285.707 37.62C285.669 37.9653 285.651 38.4787 285.651 39.16V39.846L284.181 40.742C283.574 40.742 282.972 40.5693 282.375 40.224C281.777 39.888 281.241 39.398 280.765 38.754C280.289 38.1193 279.929 37.368 279.687 36.5H277.811C277.624 36.5 277.531 36.248 277.531 35.744C277.531 35.2493 277.624 35.002 277.811 35.002H279.393C279.365 34.694 279.351 34.372 279.351 34.036C279.351 33.0093 279.491 32.1273 279.771 31.39C280.06 30.6527 280.433 30.0973 280.891 29.724C281.348 29.3413 281.833 29.15 282.347 29.15C282.851 29.15 283.331 29.3413 283.789 29.724C284.255 30.0973 284.629 30.6573 284.909 31.404C285.198 32.1413 285.343 33.0187 285.343 34.036C285.343 34.4373 285.31 34.8993 285.245 35.422C285.674 35.142 286.234 35.002 286.925 35.002H287.149ZM280.961 34.05C280.961 34.274 280.979 34.5913 281.017 35.002H283.677C283.714 34.7407 283.733 34.4373 283.733 34.092C283.733 33.4573 283.663 32.8787 283.523 32.356C283.383 31.824 283.201 31.4087 282.977 31.11C282.762 30.802 282.552 30.648 282.347 30.648C282.132 30.648 281.917 30.802 281.703 31.11C281.488 31.4087 281.311 31.8193 281.171 32.342C281.031 32.8647 280.961 33.434 280.961 34.05ZM281.381 36.5C281.633 37.2093 281.969 37.802 282.389 38.278C282.818 38.7633 283.275 39.0667 283.761 39.188L284.041 39.02C284.041 38.4787 284.059 38.0073 284.097 37.606C284.134 37.214 284.223 36.8453 284.363 36.5H281.381ZM301.05 35.002C301.237 35.002 301.33 35.2493 301.33 35.744C301.33 36.248 301.237 36.5 301.05 36.5H287.148C286.962 36.5 286.868 36.248 286.868 35.744C286.868 35.2493 286.962 35.002 287.148 35.002H288.758V26.126H290.368V32.44C290.76 31.5253 291.311 30.7927 292.02 30.242C292.739 29.682 293.649 29.402 294.75 29.402C295.674 29.402 296.454 29.6027 297.088 30.004C297.723 30.4053 298.194 30.9513 298.502 31.642C298.81 32.3327 298.964 33.1027 298.964 33.952V35.002H301.05ZM297.354 35.002V33.952C297.354 32.972 297.126 32.2207 296.668 31.698C296.211 31.166 295.586 30.9 294.792 30.9C294.12 30.9 293.486 31.082 292.888 31.446C292.291 31.81 291.782 32.3093 291.362 32.944C290.942 33.5693 290.653 34.2553 290.494 35.002H297.354ZM294.792 28.184C294.522 28.184 294.298 28.0907 294.12 27.904C293.943 27.7173 293.854 27.484 293.854 27.204C293.854 26.924 293.943 26.6953 294.12 26.518C294.298 26.3313 294.522 26.238 294.792 26.238C295.063 26.238 295.287 26.3313 295.464 26.518C295.642 26.6953 295.73 26.924 295.73 27.204C295.73 27.484 295.642 27.7173 295.464 27.904C295.287 28.0907 295.063 28.184 294.792 28.184ZM311.595 35.002C311.781 35.002 311.875 35.2493 311.875 35.744C311.875 36.248 311.781 36.5 311.595 36.5H311.497C310.601 36.5 309.882 36.2573 309.341 35.772C308.734 36.0147 308.099 36.1967 307.437 36.318C306.783 36.4393 306.186 36.5 305.645 36.5C304.749 36.5 303.876 36.3087 303.027 35.926C302.56 36.3087 301.967 36.5 301.249 36.5H301.053C300.866 36.5 300.773 36.248 300.773 35.744C300.773 35.2493 300.866 35.002 301.053 35.002H301.249C301.547 35.002 301.781 34.932 301.949 34.792C302.126 34.6427 302.238 34.4093 302.285 34.092L302.327 33.728C302.411 32.9907 302.527 32.3 302.677 31.656C302.835 31.012 303.134 30.4193 303.573 29.878C304.021 29.3273 304.637 29.052 305.421 29.052C306.111 29.052 306.765 29.2807 307.381 29.738C307.997 30.186 308.51 30.8113 308.921 31.614C309.331 32.4167 309.588 33.3127 309.691 34.302C309.952 34.7687 310.409 35.002 311.063 35.002H311.595ZM303.839 34.596C304.417 34.8667 305.024 35.002 305.659 35.002C306.405 35.002 307.222 34.8667 308.109 34.596C308.043 33.8773 307.875 33.21 307.605 32.594C307.334 31.9687 307.007 31.474 306.625 31.11C306.251 30.7367 305.873 30.55 305.491 30.55C305.127 30.55 304.837 30.718 304.623 31.054C304.417 31.3807 304.273 31.7587 304.189 32.188C304.105 32.6173 304.03 33.126 303.965 33.714L303.881 34.386L303.839 34.596ZM314.282 26.126V36.5H311.594C311.407 36.5 311.314 36.248 311.314 35.744C311.314 35.2493 311.407 35.002 311.594 35.002H312.672V26.126H314.282ZM316.668 26.126H318.278V36.5H316.668V26.126ZM334.903 29.696V36.5L327.091 36.514C326.12 36.514 325.364 36.2387 324.823 35.688C324.281 35.1373 324.011 34.3813 324.011 33.42C324.011 32.7947 324.132 32.244 324.375 31.768C324.617 31.2827 324.967 30.844 325.425 30.452L326.699 31.348C326.325 31.6747 326.05 32.006 325.873 32.342C325.705 32.6687 325.621 33.0233 325.621 33.406C325.621 33.8913 325.761 34.2787 326.041 34.568C326.321 34.8573 326.713 35.002 327.217 35.002H333.293V29.696H334.903ZM330.773 28.716C330.53 28.716 330.325 28.632 330.157 28.464C329.998 28.296 329.919 28.086 329.919 27.834C329.919 27.5727 329.998 27.3627 330.157 27.204C330.325 27.036 330.53 26.952 330.773 26.952C331.015 26.952 331.216 27.036 331.375 27.204C331.543 27.3627 331.627 27.5727 331.627 27.834C331.627 28.086 331.543 28.296 331.375 28.464C331.216 28.632 331.015 28.716 330.773 28.716ZM328.561 28.716C328.318 28.716 328.113 28.632 327.945 28.464C327.786 28.296 327.707 28.086 327.707 27.834C327.707 27.5727 327.786 27.3627 327.945 27.204C328.113 27.036 328.318 26.952 328.561 26.952C328.803 26.952 329.004 27.036 329.163 27.204C329.331 27.3627 329.415 27.5727 329.415 27.834C329.415 28.086 329.331 28.296 329.163 28.464C329.004 28.632 328.803 28.716 328.561 28.716ZM337.149 26.126H338.759V36.5H337.149V26.126ZM342.468 28.31C343.56 28.562 344.512 29.0287 345.324 29.71C346.136 30.3913 346.761 31.2407 347.2 32.258C347.638 33.266 347.862 34.3907 347.872 35.632C346.528 36.2107 344.983 36.5 343.238 36.5C342.323 36.5 341.436 36.4113 340.578 36.234V34.694C341.427 34.8993 342.318 35.002 343.252 35.002C344.306 35.002 345.286 34.876 346.192 34.624C346.014 33.3827 345.576 32.3327 344.876 31.474C344.176 30.606 343.252 30.0367 342.104 29.766L342.468 28.31ZM349.836 26.126H351.446V36.5H349.836V26.126ZM363.051 35.002C363.238 35.002 363.331 35.2493 363.331 35.744C363.331 36.248 363.238 36.5 363.051 36.5H361.959C361.072 36.5 360.382 36.2993 359.887 35.898C358.702 36.2993 357.381 36.5 355.925 36.5C355.01 36.5 354.124 36.4113 353.265 36.234V34.694C354.114 34.8993 355.006 35.002 355.939 35.002C357.068 35.002 358.1 34.8573 359.033 34.568C358.996 34.4933 358.912 34.2647 358.781 33.882L357.017 28.772L358.529 28.296L360.293 33.406C360.47 33.938 360.615 34.3067 360.727 34.512C360.839 34.708 360.974 34.8387 361.133 34.904C361.301 34.96 361.576 34.988 361.959 34.988H363.051V35.002ZM371.147 35.002V36.5H363.055C362.868 36.5 362.775 36.248 362.775 35.744C362.775 35.2493 362.868 35.002 363.055 35.002H364.777C364.357 34.4233 364.147 33.7513 364.147 32.986C364.147 32.286 364.319 31.656 364.665 31.096C365.01 30.5267 365.481 30.0833 366.079 29.766C366.676 29.4393 367.329 29.276 368.039 29.276C368.935 29.276 369.896 29.5233 370.923 30.018L370.209 31.348C369.341 30.9653 368.622 30.774 368.053 30.774C367.614 30.774 367.217 30.872 366.863 31.068C366.517 31.2547 366.247 31.516 366.051 31.852C365.855 32.188 365.757 32.5613 365.757 32.972C365.757 33.476 365.901 33.9147 366.191 34.288C366.489 34.652 366.886 34.89 367.381 35.002H371.147ZM372.832 26.126H374.442V36.5H372.832V26.126ZM375.072 39.02V39.986H372.202V39.02H372.482C372.408 38.8427 372.37 38.6607 372.37 38.474C372.37 38.1007 372.51 37.7927 372.79 37.55C373.07 37.3167 373.425 37.2 373.854 37.2C374.041 37.2 374.232 37.2187 374.428 37.256C374.634 37.3027 374.806 37.3587 374.946 37.424L374.526 38.306C374.452 38.2687 374.354 38.236 374.232 38.208C374.111 38.18 373.994 38.166 373.882 38.166C373.705 38.166 373.56 38.2033 373.448 38.278C373.346 38.362 373.294 38.4647 373.294 38.586C373.294 38.6887 373.336 38.7867 373.42 38.88C373.514 38.9733 373.63 39.02 373.77 39.02H375.072Z" fill="#0C0A09"/>
</g>
<g clip-path="url(#clip3_3185_6674)">
<mask id="path-12-inside-4_3185_6674" fill="white">
<path d="M392 2H523V62H392V2Z"/>
</mask>
<path d="M523 61H392V63H523V61Z" fill="#E7E5E4" mask="url(#path-12-inside-4_3185_6674)"/>
<path d="M413.045 39.384C412.149 39.384 411.37 39.1693 410.707 38.74C410.054 38.32 409.554 37.746 409.209 37.018C408.864 36.29 408.691 35.4873 408.691 34.61C408.691 34.078 408.756 33.5227 408.887 32.944L410.469 33.182C410.357 33.7607 410.301 34.2507 410.301 34.652C410.301 35.2867 410.413 35.8513 410.637 36.346C410.861 36.8313 411.178 37.2093 411.589 37.48C412.009 37.7507 412.494 37.886 413.045 37.886C413.596 37.886 414.076 37.7507 414.487 37.48C414.907 37.2093 415.229 36.8313 415.453 36.346C415.677 35.8513 415.789 35.282 415.789 34.638V26.126H417.399V34.582C417.399 35.4687 417.226 36.276 416.881 37.004C416.536 37.7413 416.032 38.32 415.369 38.74C414.716 39.1693 413.941 39.384 413.045 39.384ZM422.921 35.002C423.107 35.002 423.201 35.2493 423.201 35.744C423.201 36.248 423.107 36.5 422.921 36.5H419.645V26.126H421.255V35.002H422.921ZM432.22 35.002C432.406 35.002 432.5 35.2493 432.5 35.744C432.5 36.248 432.406 36.5 432.22 36.5H422.924C422.737 36.5 422.644 36.248 422.644 35.744C422.644 35.2493 422.737 35.002 422.924 35.002H428.482V32.874C428.482 32.1647 428.253 31.6 427.796 31.18C427.348 30.76 426.746 30.55 425.99 30.55C425.159 30.55 424.384 30.8067 423.666 31.32L422.966 29.948C423.88 29.3507 424.888 29.052 425.99 29.052C426.783 29.052 427.488 29.2153 428.104 29.542C428.729 29.8687 429.214 30.3213 429.56 30.9C429.914 31.4787 430.092 32.1367 430.092 32.874V35.002H432.22ZM425.892 39.566C425.621 39.566 425.397 39.4727 425.22 39.286C425.042 39.0993 424.954 38.866 424.954 38.586C424.954 38.306 425.042 38.0727 425.22 37.886C425.397 37.7087 425.621 37.62 425.892 37.62C426.162 37.62 426.386 37.7087 426.564 37.886C426.741 38.0727 426.83 38.306 426.83 38.586C426.83 38.866 426.741 39.0993 426.564 39.286C426.386 39.4727 426.162 39.566 425.892 39.566ZM442.763 35.002C442.949 35.002 443.043 35.2493 443.043 35.744C443.043 36.248 442.949 36.5 442.763 36.5H442.665C441.769 36.5 441.05 36.2573 440.509 35.772C439.902 36.0147 439.267 36.1967 438.605 36.318C437.951 36.4393 437.354 36.5 436.813 36.5C435.917 36.5 435.044 36.3087 434.195 35.926C433.728 36.3087 433.135 36.5 432.417 36.5H432.221C432.034 36.5 431.941 36.248 431.941 35.744C431.941 35.2493 432.034 35.002 432.221 35.002H432.417C432.715 35.002 432.949 34.932 433.117 34.792C433.294 34.6427 433.406 34.4093 433.453 34.092L433.495 33.728C433.579 32.9907 433.695 32.3 433.845 31.656C434.003 31.012 434.302 30.4193 434.741 29.878C435.189 29.3273 435.805 29.052 436.589 29.052C437.279 29.052 437.933 29.2807 438.549 29.738C439.165 30.186 439.678 30.8113 440.089 31.614C440.499 32.4167 440.756 33.3127 440.859 34.302C441.12 34.7687 441.577 35.002 442.231 35.002H442.763ZM435.007 34.596C435.585 34.8667 436.192 35.002 436.827 35.002C437.573 35.002 438.39 34.8667 439.277 34.596C439.211 33.8773 439.043 33.21 438.773 32.594C438.502 31.9687 438.175 31.474 437.793 31.11C437.419 30.7367 437.041 30.55 436.659 30.55C436.295 30.55 436.005 30.718 435.791 31.054C435.585 31.3807 435.441 31.7587 435.357 32.188C435.273 32.6173 435.198 33.126 435.133 33.714L435.049 34.386L435.007 34.596ZM445.45 26.126V36.5H442.762C442.575 36.5 442.482 36.248 442.482 35.744C442.482 35.2493 442.575 35.002 442.762 35.002H443.84V26.126H445.45ZM447.836 26.126H449.446V36.5H447.836V26.126ZM466.071 29.696V36.5L458.259 36.514C457.288 36.514 456.532 36.2387 455.991 35.688C455.449 35.1373 455.179 34.3813 455.179 33.42C455.179 32.7947 455.3 32.244 455.543 31.768C455.785 31.2827 456.135 30.844 456.593 30.452L457.867 31.348C457.493 31.6747 457.218 32.006 457.041 32.342C456.873 32.6687 456.789 33.0233 456.789 33.406C456.789 33.8913 456.929 34.2787 457.209 34.568C457.489 34.8573 457.881 35.002 458.385 35.002H464.461V29.696H466.071ZM461.941 28.716C461.698 28.716 461.493 28.632 461.325 28.464C461.166 28.296 461.087 28.086 461.087 27.834C461.087 27.5727 461.166 27.3627 461.325 27.204C461.493 27.036 461.698 26.952 461.941 26.952C462.183 26.952 462.384 27.036 462.543 27.204C462.711 27.3627 462.795 27.5727 462.795 27.834C462.795 28.086 462.711 28.296 462.543 28.464C462.384 28.632 462.183 28.716 461.941 28.716ZM459.729 28.716C459.486 28.716 459.281 28.632 459.113 28.464C458.954 28.296 458.875 28.086 458.875 27.834C458.875 27.5727 458.954 27.3627 459.113 27.204C459.281 27.036 459.486 26.952 459.729 26.952C459.971 26.952 460.172 27.036 460.331 27.204C460.499 27.3627 460.583 27.5727 460.583 27.834C460.583 28.086 460.499 28.296 460.331 28.464C460.172 28.632 459.971 28.716 459.729 28.716ZM468.317 26.126H469.927V36.5H468.317V26.126ZM473.636 28.31C474.728 28.562 475.68 29.0287 476.492 29.71C477.304 30.3913 477.929 31.2407 478.368 32.258C478.806 33.266 479.03 34.3907 479.04 35.632C477.696 36.2107 476.151 36.5 474.406 36.5C473.491 36.5 472.604 36.4113 471.746 36.234V34.694C472.595 34.8993 473.486 35.002 474.42 35.002C475.474 35.002 476.454 34.876 477.36 34.624C477.182 33.3827 476.744 32.3327 476.044 31.474C475.344 30.606 474.42 30.0367 473.272 29.766L473.636 28.31ZM481.004 26.126H482.614V36.5H481.004V26.126ZM494.219 35.002C494.406 35.002 494.499 35.2493 494.499 35.744C494.499 36.248 494.406 36.5 494.219 36.5H493.127C492.24 36.5 491.55 36.2993 491.055 35.898C489.87 36.2993 488.549 36.5 487.093 36.5C486.178 36.5 485.292 36.4113 484.433 36.234V34.694C485.282 34.8993 486.174 35.002 487.107 35.002C488.236 35.002 489.268 34.8573 490.201 34.568C490.164 34.4933 490.08 34.2647 489.949 33.882L488.185 28.772L489.697 28.296L491.461 33.406C491.638 33.938 491.783 34.3067 491.895 34.512C492.007 34.708 492.142 34.8387 492.301 34.904C492.469 34.96 492.744 34.988 493.127 34.988H494.219V35.002ZM502.315 35.002V36.5H494.223C494.036 36.5 493.943 36.248 493.943 35.744C493.943 35.2493 494.036 35.002 494.223 35.002H495.945C495.525 34.4233 495.315 33.7513 495.315 32.986C495.315 32.286 495.487 31.656 495.833 31.096C496.178 30.5267 496.649 30.0833 497.247 29.766C497.844 29.4393 498.497 29.276 499.207 29.276C500.103 29.276 501.064 29.5233 502.091 30.018L501.377 31.348C500.509 30.9653 499.79 30.774 499.221 30.774C498.782 30.774 498.385 30.872 498.031 31.068C497.685 31.2547 497.415 31.516 497.219 31.852C497.023 32.188 496.925 32.5613 496.925 32.972C496.925 33.476 497.069 33.9147 497.359 34.288C497.657 34.652 498.054 34.89 498.549 35.002H502.315ZM504 26.126H505.61V36.5H504V26.126ZM506.24 39.02V39.986H503.37V39.02H503.65C503.576 38.8427 503.538 38.6607 503.538 38.474C503.538 38.1007 503.678 37.7927 503.958 37.55C504.238 37.3167 504.593 37.2 505.022 37.2C505.209 37.2 505.4 37.2187 505.596 37.256C505.802 37.3027 505.974 37.3587 506.114 37.424L505.694 38.306C505.62 38.2687 505.522 38.236 505.4 38.208C505.279 38.18 505.162 38.166 505.05 38.166C504.873 38.166 504.728 38.2033 504.616 38.278C504.514 38.362 504.462 38.4647 504.462 38.586C504.462 38.6887 504.504 38.7867 504.588 38.88C504.682 38.9733 504.798 39.02 504.938 39.02H506.24Z" fill="#0C0A09"/>
</g>
</g>
<defs>
<filter id="filter0_d_3185_6674" x="0" y="0" width="555" height="84" filterUnits="userSpaceOnUse" color-interpolation-filters="sRGB">
<feFlood flood-opacity="0" result="BackgroundImageFix"/>
<feColorMatrix in="SourceAlpha" type="matrix" values="0 0 0 0 0 0 0 0 0 0 0 0 0 0 0 0 0 0 127 0" result="hardAlpha"/>
<feMorphology radius="3" operator="erode" in="SourceAlpha" result="effect1_dropShadow_3185_6674"/>
<feOffset dy="10"/>
<feGaussianBlur stdDeviation="7.5"/>
<feComposite in2="hardAlpha" operator="out"/>
<feColorMatrix type="matrix" values="0 0 0 0 0 0 0 0 0 0 0 0 0 0 0 0 0 0 0.1 0"/>
<feBlend mode="normal" in2="BackgroundImageFix" result="effect1_dropShadow_3185_6674"/>
<feBlend mode="normal" in="SourceGraphic" in2="effect1_dropShadow_3185_6674" result="shape"/>
</filter>
<clipPath id="clip0_3185_6674">
<rect width="107" height="60" fill="white" transform="translate(12 2)"/>
</clipPath>
<clipPath id="clip1_3185_6674">
<rect width="138" height="60" fill="white" transform="translate(119 2)"/>
</clipPath>
<clipPath id="clip2_3185_6674">
<rect width="135" height="60" fill="white" transform="translate(257 2)"/>
</clipPath>
<clipPath id="clip3_3185_6674">
<rect width="131" height="60" fill="white" transform="translate(392 2)"/>
</clipPath>
</defs>
</svg>
