<svg width="372" height="158" viewBox="0 0 372 158" fill="none" xmlns="http://www.w3.org/2000/svg">
<g filter="url(#filter0_dd_3185_6667)">
<rect x="12" y="2" width="348" height="63" rx="8" fill="white" shape-rendering="crispEdges"/>
<rect x="12.5" y="2.5" width="347" height="62" rx="7.5" stroke="#E7E5E4" shape-rendering="crispEdges"/>
<rect x="25" y="23" width="44" height="24" rx="12" fill="#2ECA8B"/>
<g filter="url(#filter1_dd_3185_6667)">
<rect x="47" y="25" width="20" height="20" rx="10" fill="white"/>
</g>
<path d="M141.629 36.806C141.816 36.806 141.909 37.086 141.909 37.646C141.909 38.2153 141.816 38.5 141.629 38.5H141.223C140.094 38.5 139.296 38.1687 138.829 37.506C138.045 37.87 137.28 38.052 136.533 38.052C135.852 38.052 135.227 37.898 134.657 37.59C134.088 37.2727 133.635 36.848 133.299 36.316C132.963 35.7747 132.795 35.1773 132.795 34.524C132.795 33.88 132.963 33.2873 133.299 32.746C133.635 32.2047 134.088 31.78 134.657 31.472C135.236 31.1547 135.861 30.996 136.533 30.996H138.325V30.632H140.159V35.518C140.159 35.9847 140.248 36.316 140.425 36.512C140.603 36.708 140.929 36.806 141.405 36.806H141.629ZM136.617 36.358C137.168 36.358 137.742 36.1853 138.339 35.84C138.33 35.7747 138.325 35.672 138.325 35.532V32.69H136.575C136.221 32.69 135.894 32.774 135.595 32.942C135.297 33.1007 135.059 33.32 134.881 33.6C134.713 33.88 134.629 34.188 134.629 34.524C134.629 35.0373 134.816 35.4713 135.189 35.826C135.563 36.1807 136.039 36.358 136.617 36.358ZM137.667 29.96C137.415 29.96 137.205 29.8713 137.037 29.694C136.869 29.5167 136.785 29.2973 136.785 29.036C136.785 28.756 136.869 28.532 137.037 28.364C137.205 28.1867 137.415 28.098 137.667 28.098C137.938 28.098 138.157 28.1867 138.325 28.364C138.493 28.532 138.577 28.756 138.577 29.036C138.577 29.2973 138.489 29.5167 138.311 29.694C138.143 29.8713 137.929 29.96 137.667 29.96ZM135.413 29.96C135.161 29.96 134.951 29.8713 134.783 29.694C134.615 29.5167 134.531 29.2973 134.531 29.036C134.531 28.756 134.615 28.532 134.783 28.364C134.951 28.1867 135.161 28.098 135.413 28.098C135.684 28.098 135.903 28.1867 136.071 28.364C136.239 28.532 136.323 28.756 136.323 29.036C136.323 29.2973 136.235 29.5167 136.057 29.694C135.889 29.8713 135.675 29.96 135.413 29.96ZM144.555 28.07V38.5H141.629C141.442 38.5 141.349 38.2153 141.349 37.646C141.349 37.086 141.442 36.806 141.629 36.806H142.721V28.07H144.555ZM155 36.806C155.187 36.806 155.28 37.086 155.28 37.646C155.28 38.2153 155.187 38.5 155 38.5H153.46C153.442 39.4987 153.138 40.278 152.55 40.838C151.972 41.4073 151.183 41.6967 150.184 41.706L149.918 39.984C149.993 39.9933 150.096 39.998 150.226 39.998C150.702 39.998 151.052 39.8813 151.276 39.648C151.5 39.4147 151.617 39.032 151.626 38.5H150.142C149.433 38.5 148.775 38.3413 148.168 38.024C147.571 37.7067 147.095 37.2727 146.74 36.722C146.386 36.162 146.208 35.546 146.208 34.874C146.208 34.202 146.386 33.586 146.74 33.026C147.095 32.466 147.571 32.0227 148.168 31.696C148.775 31.3693 149.433 31.206 150.142 31.206C150.665 31.206 151.211 31.304 151.78 31.5C152.35 31.6867 152.863 31.9387 153.32 32.256L153.46 32.312V36.806H155ZM148.042 34.874C148.042 35.238 148.131 35.5693 148.308 35.868C148.495 36.1573 148.747 36.386 149.064 36.554C149.391 36.722 149.76 36.806 150.17 36.806H151.626V33.264C151.122 33.0213 150.637 32.9 150.17 32.9C149.76 32.9 149.391 32.9887 149.064 33.166C148.747 33.3433 148.495 33.5813 148.308 33.88C148.131 34.1787 148.042 34.51 148.042 34.874ZM165.738 36.806C165.925 36.806 166.018 37.086 166.018 37.646C166.018 38.2153 165.925 38.5 165.738 38.5H165.626C164.73 38.5 164.002 38.2713 163.442 37.814C162.845 38.038 162.224 38.2107 161.58 38.332C160.936 38.444 160.353 38.5 159.83 38.5C158.925 38.5 158.043 38.304 157.184 37.912C156.717 38.304 156.129 38.5 155.42 38.5H155C154.813 38.5 154.72 38.2153 154.72 37.646C154.72 37.086 154.813 36.806 155 36.806H155.196C155.485 36.806 155.709 36.736 155.868 36.596C156.036 36.456 156.143 36.2367 156.19 35.938L156.232 35.574C156.325 34.846 156.456 34.1693 156.624 33.544C156.801 32.9187 157.119 32.34 157.576 31.808C158.033 31.276 158.668 31.01 159.48 31.01C160.189 31.01 160.857 31.234 161.482 31.682C162.117 32.1207 162.649 32.732 163.078 33.516C163.507 34.3 163.783 35.182 163.904 36.162C164.137 36.5913 164.576 36.806 165.22 36.806H165.738ZM158.01 36.372C158.327 36.5213 158.631 36.6333 158.92 36.708C159.209 36.7733 159.517 36.806 159.844 36.806C160.535 36.806 161.281 36.6893 162.084 36.456C162.009 35.7933 161.841 35.1773 161.58 34.608C161.319 34.0293 161.006 33.572 160.642 33.236C160.287 32.8907 159.928 32.718 159.564 32.718C159.2 32.718 158.915 32.886 158.71 33.222C158.505 33.5487 158.36 33.922 158.276 34.342C158.201 34.762 158.131 35.266 158.066 35.854C158.057 35.9753 158.047 36.078 158.038 36.162C158.029 36.246 158.019 36.316 158.01 36.372ZM175.518 36.806C175.705 36.806 175.798 37.086 175.798 37.646C175.798 38.2153 175.705 38.5 175.518 38.5H172.942C171.897 38.5 170.94 38.3227 170.072 37.968C169.111 38.3227 168.257 38.5 167.51 38.5H165.732C165.546 38.5 165.452 38.2153 165.452 37.646C165.452 37.086 165.546 36.806 165.732 36.806H167.51C167.744 36.806 167.968 36.7873 168.182 36.75C167.417 36.0313 166.871 35.1307 166.544 34.048L168.084 31.444C168.812 31.2387 169.564 31.136 170.338 31.136C171.15 31.136 171.869 31.2433 172.494 31.458C173.12 31.6727 173.605 31.9807 173.95 32.382C174.296 32.774 174.468 33.2267 174.468 33.74C174.468 34.2813 174.277 34.8133 173.894 35.336C173.521 35.8493 173.012 36.33 172.368 36.778C172.63 36.7967 172.821 36.806 172.942 36.806H175.518ZM168.238 33.208C168.388 33.8427 168.63 34.4073 168.966 34.902C169.302 35.3873 169.718 35.784 170.212 36.092C170.903 35.756 171.482 35.378 171.948 34.958C172.415 34.5287 172.648 34.1413 172.648 33.796C172.648 33.516 172.443 33.2873 172.032 33.11C171.622 32.9233 171.057 32.83 170.338 32.83C169.61 32.83 168.91 32.956 168.238 33.208ZM178.447 28.07V38.5H175.521C175.335 38.5 175.241 38.2153 175.241 37.646C175.241 37.086 175.335 36.806 175.521 36.806H176.613V28.07H178.447ZM184.203 36.806C184.39 36.806 184.483 37.086 184.483 37.646C184.483 38.2153 184.39 38.5 184.203 38.5H180.745V28.07H182.565V36.806H184.203ZM187.521 31.584V38.5H184.203C184.016 38.5 183.923 38.2153 183.923 37.646C183.923 37.086 184.016 36.806 184.203 36.806H185.687V31.584H187.521ZM186.499 41.72C186.21 41.72 185.967 41.6173 185.771 41.412C185.584 41.216 185.491 40.9687 185.491 40.67C185.491 40.362 185.584 40.11 185.771 39.914C185.967 39.718 186.21 39.62 186.499 39.62C186.798 39.62 187.04 39.718 187.227 39.914C187.423 40.11 187.521 40.362 187.521 40.67C187.521 40.9687 187.423 41.216 187.227 41.412C187.031 41.6173 186.788 41.72 186.499 41.72ZM206.27 36.806C206.457 36.806 206.55 37.086 206.55 37.646C206.55 38.2153 206.457 38.5 206.27 38.5H204.562C204.394 39.8067 203.834 40.8427 202.882 41.608C201.93 42.3827 200.54 42.77 198.71 42.77C196.685 42.77 195.192 42.2987 194.23 41.356C193.278 40.4227 192.802 39.186 192.802 37.646C192.802 36.862 192.933 36.0453 193.194 35.196L194.874 35.966C194.716 36.554 194.636 37.128 194.636 37.688C194.636 38.7987 194.954 39.6387 195.588 40.208C196.223 40.7867 197.264 41.076 198.71 41.076C199.98 41.076 200.932 40.8567 201.566 40.418C202.21 39.9887 202.602 39.3493 202.742 38.5H201.3C200.591 38.5 199.933 38.3413 199.326 38.024C198.729 37.6973 198.253 37.254 197.898 36.694C197.553 36.134 197.38 35.5227 197.38 34.86C197.38 34.1973 197.558 33.586 197.912 33.026C198.267 32.466 198.743 32.0227 199.34 31.696C199.947 31.3693 200.605 31.206 201.314 31.206C201.846 31.206 202.411 31.3087 203.008 31.514C203.606 31.71 204.124 31.976 204.562 32.312H204.618V36.806H206.27ZM199.2 34.86C199.2 35.2147 199.289 35.5413 199.466 35.84C199.653 36.1387 199.91 36.3767 200.236 36.554C200.563 36.722 200.932 36.806 201.342 36.806H202.798V33.264C202.266 33.0213 201.786 32.9 201.356 32.9C200.936 32.9 200.563 32.9887 200.236 33.166C199.91 33.3433 199.653 33.5813 199.466 33.88C199.289 34.1787 199.2 34.5053 199.2 34.86ZM202.42 30.016C202.168 30.016 201.958 29.9273 201.79 29.75C201.622 29.5727 201.538 29.3533 201.538 29.092C201.538 28.812 201.622 28.588 201.79 28.42C201.958 28.2427 202.168 28.154 202.42 28.154C202.691 28.154 202.91 28.2427 203.078 28.42C203.246 28.588 203.33 28.812 203.33 29.092C203.33 29.3533 203.242 29.5727 203.064 29.75C202.896 29.9273 202.682 30.016 202.42 30.016ZM200.166 30.016C199.914 30.016 199.704 29.9273 199.536 29.75C199.368 29.5727 199.284 29.3533 199.284 29.092C199.284 28.812 199.368 28.588 199.536 28.42C199.704 28.2427 199.914 28.154 200.166 28.154C200.437 28.154 200.656 28.2427 200.824 28.42C200.992 28.588 201.076 28.812 201.076 29.092C201.076 29.3533 200.988 29.5727 200.81 29.75C200.642 29.9273 200.428 30.016 200.166 30.016ZM209.588 31.584V38.5H206.27C206.083 38.5 205.99 38.2153 205.99 37.646C205.99 37.086 206.083 36.806 206.27 36.806H207.754V31.584H209.588ZM209.812 41.44C209.56 41.44 209.35 41.3513 209.182 41.174C209.014 40.9967 208.93 40.7773 208.93 40.516C208.93 40.236 209.014 40.0073 209.182 39.83C209.35 39.662 209.56 39.578 209.812 39.578C210.082 39.578 210.302 39.662 210.47 39.83C210.638 40.0073 210.722 40.236 210.722 40.516C210.722 40.7773 210.633 40.9967 210.456 41.174C210.288 41.3513 210.073 41.44 209.812 41.44ZM207.558 41.44C207.306 41.44 207.096 41.3513 206.928 41.174C206.76 40.9967 206.676 40.7773 206.676 40.516C206.676 40.236 206.76 40.0073 206.928 39.83C207.096 39.662 207.306 39.578 207.558 39.578C207.828 39.578 208.048 39.662 208.216 39.83C208.384 40.0073 208.468 40.236 208.468 40.516C208.468 40.7773 208.379 40.9967 208.202 41.174C208.034 41.3513 207.819 41.44 207.558 41.44ZM219.887 36.806C220.074 36.806 220.167 37.086 220.167 37.646C220.167 38.2153 220.074 38.5 219.887 38.5H218.347C218.328 39.4987 218.025 40.278 217.437 40.838C216.858 41.4073 216.07 41.6967 215.071 41.706L214.805 39.984C214.88 39.9933 214.982 39.998 215.113 39.998C215.589 39.998 215.939 39.8813 216.163 39.648C216.387 39.4147 216.504 39.032 216.513 38.5H215.029C214.32 38.5 213.662 38.3413 213.055 38.024C212.458 37.7067 211.982 37.2727 211.627 36.722C211.272 36.162 211.095 35.546 211.095 34.874C211.095 34.202 211.272 33.586 211.627 33.026C211.982 32.466 212.458 32.0227 213.055 31.696C213.662 31.3693 214.32 31.206 215.029 31.206C215.552 31.206 216.098 31.304 216.667 31.5C217.236 31.6867 217.75 31.9387 218.207 32.256L218.347 32.312V36.806H219.887ZM212.929 34.874C212.929 35.238 213.018 35.5693 213.195 35.868C213.382 36.1573 213.634 36.386 213.951 36.554C214.278 36.722 214.646 36.806 215.057 36.806H216.513V33.264C216.009 33.0213 215.524 32.9 215.057 32.9C214.646 32.9 214.278 32.9887 213.951 33.166C213.634 33.3433 213.382 33.5813 213.195 33.88C213.018 34.1787 212.929 34.51 212.929 34.874ZM233.971 36.806C234.157 36.806 234.251 37.086 234.251 37.646C234.251 38.2153 234.157 38.5 233.971 38.5H233.131C232.319 38.5 231.661 38.2853 231.157 37.856C230.69 38.2853 229.99 38.5 229.057 38.5C228.17 38.5 227.465 38.29 226.943 37.87C226.467 38.29 225.771 38.5 224.857 38.5C223.97 38.5 223.265 38.29 222.743 37.87C222.267 38.29 221.553 38.5 220.601 38.5H219.887C219.7 38.5 219.607 38.2153 219.607 37.646C219.607 37.086 219.7 36.806 219.887 36.806H220.433C220.927 36.806 221.263 36.7127 221.441 36.526C221.627 36.33 221.721 35.994 221.721 35.518V32.97H223.555V35.532C223.555 35.9427 223.522 36.2927 223.457 36.582C223.718 36.7313 224.087 36.806 224.563 36.806C224.927 36.806 225.207 36.7687 225.403 36.694C225.599 36.61 225.734 36.4793 225.809 36.302C225.893 36.1153 225.935 35.854 225.935 35.518V32.27H227.755V35.532C227.755 35.9613 227.717 36.3113 227.643 36.582C227.913 36.7313 228.287 36.806 228.763 36.806C229.127 36.806 229.407 36.7687 229.603 36.694C229.799 36.61 229.934 36.4793 230.009 36.302C230.093 36.1153 230.135 35.854 230.135 35.518V31.57H231.955V35.532C231.955 35.9613 231.917 36.3113 231.843 36.582C232.076 36.7313 232.361 36.806 232.697 36.806H233.971ZM239.597 36.806C239.783 36.806 239.877 37.086 239.877 37.646C239.877 38.2153 239.783 38.5 239.597 38.5H238.841C238.029 38.5 237.366 38.2853 236.853 37.856C236.395 38.2853 235.705 38.5 234.781 38.5H233.969C233.782 38.5 233.689 38.2153 233.689 37.646C233.689 37.086 233.782 36.806 233.969 36.806H234.599C235.075 36.806 235.401 36.708 235.579 36.512C235.756 36.316 235.845 35.9847 235.845 35.518V31.584H237.665V35.532C237.665 35.9053 237.627 36.2553 237.553 36.582C237.786 36.7313 238.075 36.806 238.421 36.806H239.597ZM237.875 30.59C237.623 30.59 237.413 30.5013 237.245 30.324C237.077 30.1467 236.993 29.9273 236.993 29.666C236.993 29.386 237.077 29.162 237.245 28.994C237.413 28.8167 237.623 28.728 237.875 28.728C238.145 28.728 238.365 28.8167 238.533 28.994C238.701 29.162 238.785 29.386 238.785 29.666C238.785 29.9273 238.696 30.1467 238.519 30.324C238.351 30.5013 238.136 30.59 237.875 30.59ZM235.621 30.59C235.369 30.59 235.159 30.5013 234.991 30.324C234.823 30.1467 234.739 29.9273 234.739 29.666C234.739 29.386 234.823 29.162 234.991 28.994C235.159 28.8167 235.369 28.728 235.621 28.728C235.891 28.728 236.111 28.8167 236.279 28.994C236.447 29.162 236.531 29.386 236.531 29.666C236.531 29.9273 236.442 30.1467 236.265 30.324C236.097 30.5013 235.882 30.59 235.621 30.59ZM242.528 28.07V38.5H239.602C239.415 38.5 239.322 38.2153 239.322 37.646C239.322 37.086 239.415 36.806 239.602 36.806H240.694V28.07H242.528ZM244.825 28.07H246.645V38.5H244.825V28.07ZM253.747 43.666C253.271 43.1153 252.888 42.4667 252.599 41.72C252.319 40.9827 252.179 40.2313 252.179 39.466C252.179 38.6353 252.328 37.9073 252.627 37.282C252.926 36.6567 253.341 36.2087 253.873 35.938L253.929 35.56C254.022 34.8413 254.158 34.1833 254.335 33.586C254.512 32.9793 254.825 32.4333 255.273 31.948C255.73 31.4533 256.356 31.206 257.149 31.206C257.989 31.206 258.759 31.4953 259.459 32.074C260.168 32.6527 260.719 33.432 261.111 34.412C261.512 35.392 261.69 36.4513 261.643 37.59C260.999 37.8887 260.299 38.1173 259.543 38.276C258.796 38.4253 258.12 38.5 257.513 38.5C256.533 38.5 255.567 38.2527 254.615 37.758C254.363 37.8513 254.162 38.0473 254.013 38.346C253.873 38.6447 253.803 39.0087 253.803 39.438C253.803 39.97 253.934 40.544 254.195 41.16C254.456 41.7853 254.811 42.3453 255.259 42.84L253.747 43.666ZM257.527 36.806C258.218 36.806 258.96 36.694 259.753 36.47C259.688 35.8353 259.524 35.2427 259.263 34.692C259.002 34.1413 258.684 33.7073 258.311 33.39C257.938 33.0633 257.569 32.9 257.205 32.9C256.869 32.9 256.603 33.0353 256.407 33.306C256.22 33.5673 256.085 33.8753 256.001 34.23C255.917 34.5847 255.842 35.0187 255.777 35.532C255.73 35.9147 255.684 36.1853 255.637 36.344C255.973 36.5027 256.286 36.6193 256.575 36.694C256.874 36.7687 257.191 36.806 257.527 36.806ZM267.287 36.806C267.474 36.806 267.567 37.086 267.567 37.646C267.567 38.2153 267.474 38.5 267.287 38.5H263.829V28.07H265.649V36.806H267.287ZM281.441 36.806C281.628 36.806 281.721 37.086 281.721 37.646C281.721 38.2153 281.628 38.5 281.441 38.5H267.287C267.1 38.5 267.007 38.2153 267.007 37.646C267.007 37.086 267.1 36.806 267.287 36.806H268.897V28.07H270.731V34.244C271.132 33.3293 271.692 32.5967 272.411 32.046C273.13 31.4953 274.035 31.22 275.127 31.22C276.051 31.22 276.84 31.4253 277.493 31.836C278.156 32.2373 278.65 32.788 278.977 33.488C279.313 34.1787 279.481 34.9627 279.481 35.84V36.806H281.441ZM277.647 36.806V35.84C277.647 34.8973 277.423 34.174 276.975 33.67C276.536 33.166 275.92 32.914 275.127 32.914C274.464 32.914 273.839 33.0867 273.251 33.432C272.663 33.7773 272.164 34.244 271.753 34.832C271.342 35.42 271.053 36.078 270.885 36.806H277.647ZM275.169 30.058C274.88 30.058 274.637 29.96 274.441 29.764C274.254 29.5587 274.161 29.3067 274.161 29.008C274.161 28.7 274.254 28.448 274.441 28.252C274.637 28.056 274.88 27.958 275.169 27.958C275.468 27.958 275.71 28.056 275.897 28.252C276.093 28.448 276.191 28.7 276.191 29.008C276.191 29.3067 276.093 29.5587 275.897 29.764C275.701 29.96 275.458 30.058 275.169 30.058ZM284.756 31.584V38.5H281.438C281.251 38.5 281.157 38.2153 281.157 37.646C281.157 37.086 281.251 36.806 281.438 36.806H282.922V31.584H284.756ZM283.846 30.604C283.556 30.604 283.314 30.506 283.118 30.31C282.931 30.1047 282.838 29.8527 282.838 29.554C282.838 29.246 282.931 28.994 283.118 28.798C283.314 28.602 283.556 28.504 283.846 28.504C284.144 28.504 284.387 28.602 284.574 28.798C284.77 28.994 284.868 29.246 284.868 29.554C284.868 29.8527 284.77 30.1047 284.574 30.31C284.378 30.506 284.135 30.604 283.846 30.604ZM300.677 36.806C300.863 36.806 300.957 37.086 300.957 37.646C300.957 38.2153 300.863 38.5 300.677 38.5H300.593C299.921 38.5 299.351 38.3507 298.885 38.052C298.605 39.06 298.087 39.8673 297.331 40.474C296.584 41.09 295.665 41.398 294.573 41.398C293.649 41.398 292.841 41.174 292.151 40.726C291.469 40.278 290.947 39.676 290.583 38.92C290.219 38.164 290.037 37.324 290.037 36.4C290.037 35.896 290.093 35.3873 290.205 34.874L292.011 35.14C291.917 35.6533 291.871 36.0873 291.871 36.442C291.871 37.086 291.983 37.6553 292.207 38.15C292.431 38.6447 292.743 39.0273 293.145 39.298C293.555 39.5687 294.031 39.704 294.573 39.704C295.114 39.704 295.585 39.5687 295.987 39.298C296.397 39.0273 296.715 38.6447 296.939 38.15C297.163 37.6553 297.275 37.0813 297.275 36.428V28.07H299.109V36.372V36.428C299.351 36.68 299.701 36.806 300.159 36.806H300.677ZM306.302 36.806C306.488 36.806 306.582 37.086 306.582 37.646C306.582 38.2153 306.488 38.5 306.302 38.5H305.546C304.734 38.5 304.071 38.2853 303.558 37.856C303.1 38.2853 302.41 38.5 301.486 38.5H300.674C300.487 38.5 300.394 38.2153 300.394 37.646C300.394 37.086 300.487 36.806 300.674 36.806H301.304C301.78 36.806 302.106 36.708 302.284 36.512C302.461 36.316 302.55 35.9847 302.55 35.518V31.584H304.37V35.532C304.37 35.9053 304.332 36.2553 304.258 36.582C304.491 36.7313 304.78 36.806 305.126 36.806H306.302ZM304.594 41.44C304.342 41.44 304.132 41.3513 303.964 41.174C303.796 40.9967 303.712 40.7773 303.712 40.516C303.712 40.236 303.796 40.0073 303.964 39.83C304.132 39.662 304.342 39.578 304.594 39.578C304.864 39.578 305.084 39.662 305.252 39.83C305.42 40.0073 305.504 40.236 305.504 40.516C305.504 40.7773 305.415 40.9967 305.238 41.174C305.07 41.3513 304.855 41.44 304.594 41.44ZM302.34 41.44C302.088 41.44 301.878 41.3513 301.71 41.174C301.542 40.9967 301.458 40.7773 301.458 40.516C301.458 40.236 301.542 40.0073 301.71 39.83C301.878 39.662 302.088 39.578 302.34 39.578C302.61 39.578 302.83 39.662 302.998 39.83C303.166 40.0073 303.25 40.236 303.25 40.516C303.25 40.7773 303.161 40.9967 302.984 41.174C302.816 41.3513 302.601 41.44 302.34 41.44ZM316.093 36.806C316.279 36.806 316.373 37.086 316.373 37.646C316.373 38.2153 316.279 38.5 316.093 38.5H313.517C312.471 38.5 311.515 38.3227 310.647 37.968C309.685 38.3227 308.831 38.5 308.085 38.5H306.307C306.12 38.5 306.027 38.2153 306.027 37.646C306.027 37.086 306.12 36.806 306.307 36.806H308.085C308.318 36.806 308.542 36.7873 308.757 36.75C307.991 36.0313 307.445 35.1307 307.119 34.048L308.659 31.444C309.387 31.2387 310.138 31.136 310.913 31.136C311.725 31.136 312.443 31.2433 313.069 31.458C313.694 31.6727 314.179 31.9807 314.525 32.382C314.87 32.774 315.043 33.2267 315.043 33.74C315.043 34.2813 314.851 34.8133 314.469 35.336C314.095 35.8493 313.587 36.33 312.943 36.778C313.204 36.7967 313.395 36.806 313.517 36.806H316.093ZM308.813 33.208C308.962 33.8427 309.205 34.4073 309.541 34.902C309.877 35.3873 310.292 35.784 310.787 36.092C311.477 35.756 312.056 35.378 312.523 34.958C312.989 34.5287 313.223 34.1413 313.223 33.796C313.223 33.516 313.017 33.2873 312.607 33.11C312.196 32.9233 311.631 32.83 310.913 32.83C310.185 32.83 309.485 32.956 308.813 33.208ZM325.728 36.806C325.914 36.806 326.008 37.086 326.008 37.646C326.008 38.2153 325.914 38.5 325.728 38.5H316.096C315.909 38.5 315.816 38.2153 315.816 37.646C315.816 37.086 315.909 36.806 316.096 36.806H317.706C317.351 36.246 317.174 35.6253 317.174 34.944C317.174 34.244 317.351 33.6093 317.706 33.04C318.06 32.4707 318.536 32.0227 319.134 31.696C319.74 31.3693 320.403 31.206 321.122 31.206C322.046 31.206 323.049 31.4813 324.132 32.032V36.806H325.728ZM319.008 34.93C319.008 35.3967 319.143 35.8027 319.414 36.148C319.694 36.484 320.067 36.7033 320.534 36.806H322.298V33.11C321.915 32.97 321.528 32.9 321.136 32.9C320.52 32.9 320.011 33.0913 319.61 33.474C319.208 33.8567 319.008 34.342 319.008 34.93ZM321.122 30.03C320.832 30.03 320.59 29.932 320.394 29.736C320.207 29.5307 320.114 29.2787 320.114 28.98C320.114 28.672 320.207 28.42 320.394 28.224C320.59 28.028 320.832 27.93 321.122 27.93C321.42 27.93 321.663 28.028 321.85 28.224C322.046 28.42 322.144 28.672 322.144 28.98C322.144 29.2787 322.046 29.5307 321.85 29.736C321.654 29.932 321.411 30.03 321.122 30.03ZM329.052 31.584V38.5H325.734C325.548 38.5 325.454 38.2153 325.454 37.646C325.454 37.086 325.548 36.806 325.734 36.806H327.218V31.584H329.052ZM329.262 30.59C329.01 30.59 328.8 30.5013 328.632 30.324C328.464 30.1467 328.38 29.9273 328.38 29.666C328.38 29.386 328.464 29.162 328.632 28.994C328.8 28.8167 329.01 28.728 329.262 28.728C329.533 28.728 329.752 28.8167 329.92 28.994C330.088 29.162 330.172 29.386 330.172 29.666C330.172 29.9273 330.084 30.1467 329.906 30.324C329.738 30.5013 329.524 30.59 329.262 30.59ZM327.008 30.59C326.756 30.59 326.546 30.5013 326.378 30.324C326.21 30.1467 326.126 29.9273 326.126 29.666C326.126 29.386 326.21 29.162 326.378 28.994C326.546 28.8167 326.756 28.728 327.008 28.728C327.279 28.728 327.498 28.8167 327.666 28.994C327.834 29.162 327.918 29.386 327.918 29.666C327.918 29.9273 327.83 30.1467 327.652 30.324C327.484 30.5013 327.27 30.59 327.008 30.59Z" fill="#0C0A09"/>
</g>
<g filter="url(#filter2_dd_3185_6667)">
<rect x="12" y="73" width="348" height="63" rx="8" fill="white" shape-rendering="crispEdges"/>
<rect x="12.5" y="73.5" width="347" height="62" rx="7.5" stroke="#E7E5E4" shape-rendering="crispEdges"/>
<rect x="25" y="94" width="44" height="24" rx="12" fill="#2ECA8B"/>
<g filter="url(#filter3_dd_3185_6667)">
<rect x="47" y="96" width="20" height="20" rx="10" fill="white"/>
</g>
<path d="M127.591 109.5C126.909 109.5 126.289 109.351 125.729 109.052C125.178 108.744 124.744 108.329 124.427 107.806C124.109 107.274 123.951 106.691 123.951 106.056C123.951 105.384 124.123 104.749 124.469 104.152C124.823 103.545 125.281 103.06 125.841 102.696C126.401 102.332 126.984 102.15 127.591 102.15C128.197 102.15 128.781 102.332 129.341 102.696C129.901 103.06 130.353 103.545 130.699 104.152C131.053 104.749 131.231 105.384 131.231 106.056C131.231 106.691 131.072 107.274 130.755 107.806C130.437 108.329 129.999 108.744 129.439 109.052C128.888 109.351 128.272 109.5 127.591 109.5ZM127.591 107.806C128.123 107.806 128.557 107.643 128.893 107.316C129.229 106.989 129.397 106.569 129.397 106.056C129.397 105.711 129.303 105.365 129.117 105.02C128.93 104.675 128.697 104.395 128.417 104.18C128.137 103.956 127.861 103.844 127.591 103.844C127.32 103.844 127.045 103.956 126.765 104.18C126.485 104.395 126.251 104.675 126.065 105.02C125.878 105.365 125.785 105.711 125.785 106.056C125.785 106.569 125.953 106.989 126.289 107.316C126.625 107.643 127.059 107.806 127.591 107.806ZM128.711 101.128C128.459 101.128 128.249 101.039 128.081 100.862C127.913 100.685 127.829 100.465 127.829 100.204C127.829 99.924 127.913 99.7 128.081 99.532C128.249 99.3547 128.459 99.266 128.711 99.266C128.981 99.266 129.201 99.3547 129.369 99.532C129.537 99.7 129.621 99.924 129.621 100.204C129.621 100.465 129.532 100.685 129.355 100.862C129.187 101.039 128.972 101.128 128.711 101.128ZM126.457 101.128C126.205 101.128 125.995 101.039 125.827 100.862C125.659 100.685 125.575 100.465 125.575 100.204C125.575 99.924 125.659 99.7 125.827 99.532C125.995 99.3547 126.205 99.266 126.457 99.266C126.727 99.266 126.947 99.3547 127.115 99.532C127.283 99.7 127.367 99.924 127.367 100.204C127.367 100.465 127.278 100.685 127.101 100.862C126.933 101.039 126.718 101.128 126.457 101.128ZM131.779 110.998C132.339 111.026 132.74 110.914 132.983 110.662C133.235 110.419 133.361 109.995 133.361 109.388V102.584H135.195V109.388C135.195 110.405 134.915 111.203 134.355 111.782C133.795 112.37 133.025 112.673 132.045 112.692L131.779 110.998ZM143.835 103.312V109.388C143.835 110.424 143.541 111.231 142.953 111.81C142.375 112.398 141.577 112.697 140.559 112.706L140.293 110.984C140.368 110.993 140.471 110.998 140.601 110.998C141.096 110.998 141.451 110.872 141.665 110.62C141.889 110.368 142.001 109.957 142.001 109.388V109.29C141.516 109.43 141.021 109.5 140.517 109.5C139.808 109.5 139.15 109.341 138.543 109.024C137.946 108.697 137.47 108.254 137.115 107.694C136.761 107.134 136.583 106.523 136.583 105.86C136.583 105.197 136.761 104.586 137.115 104.026C137.47 103.466 137.946 103.023 138.543 102.696C139.15 102.369 139.808 102.206 140.517 102.206C141.04 102.206 141.586 102.304 142.155 102.5C142.725 102.687 143.238 102.939 143.695 103.256L143.835 103.312ZM140.559 107.806C140.979 107.806 141.46 107.694 142.001 107.47V104.264C141.469 104.021 140.989 103.9 140.559 103.9C140.139 103.9 139.766 103.993 139.439 104.18C139.122 104.357 138.87 104.595 138.683 104.894C138.506 105.193 138.417 105.515 138.417 105.86C138.417 106.215 138.506 106.541 138.683 106.84C138.87 107.139 139.127 107.377 139.453 107.554C139.78 107.722 140.149 107.806 140.559 107.806ZM155.136 107.806C155.323 107.806 155.416 108.086 155.416 108.646C155.416 109.215 155.323 109.5 155.136 109.5H154.044C153.13 109.5 152.416 109.304 151.902 108.912C150.68 109.304 149.354 109.5 147.926 109.5C146.984 109.5 146.078 109.411 145.21 109.234V107.484C146.069 107.699 146.979 107.806 147.94 107.806C149.004 107.806 149.989 107.68 150.894 107.428C150.81 107.232 150.722 106.989 150.628 106.7L148.92 101.758L150.642 101.212L152.35 106.168C152.537 106.719 152.686 107.097 152.798 107.302C152.91 107.507 153.05 107.643 153.218 107.708C153.386 107.764 153.662 107.792 154.044 107.792H155.136V107.806ZM158.063 99.07V109.5H155.137C154.95 109.5 154.857 109.215 154.857 108.646C154.857 108.086 154.95 107.806 155.137 107.806H156.229V99.07H158.063ZM160.36 99.07H162.18V109.5H160.36V99.07ZM176.506 107.806C176.693 107.806 176.786 108.086 176.786 108.646C176.786 109.215 176.693 109.5 176.506 109.5H176.1C174.971 109.5 174.173 109.169 173.706 108.506C172.922 108.87 172.157 109.052 171.41 109.052C170.729 109.052 170.104 108.898 169.534 108.59C168.965 108.273 168.512 107.848 168.176 107.316C167.84 106.775 167.672 106.177 167.672 105.524C167.672 104.88 167.84 104.287 168.176 103.746C168.512 103.205 168.965 102.78 169.534 102.472C170.113 102.155 170.738 101.996 171.41 101.996H173.202V101.632H175.036V106.518C175.036 106.985 175.125 107.316 175.302 107.512C175.48 107.708 175.806 107.806 176.282 107.806H176.506ZM171.494 107.358C172.045 107.358 172.619 107.185 173.216 106.84C173.207 106.775 173.202 106.672 173.202 106.532V103.69H171.452C171.098 103.69 170.771 103.774 170.472 103.942C170.174 104.101 169.936 104.32 169.758 104.6C169.59 104.88 169.506 105.188 169.506 105.524C169.506 106.037 169.693 106.471 170.066 106.826C170.44 107.181 170.916 107.358 171.494 107.358ZM172.544 100.96C172.292 100.96 172.082 100.871 171.914 100.694C171.746 100.517 171.662 100.297 171.662 100.036C171.662 99.756 171.746 99.532 171.914 99.364C172.082 99.1867 172.292 99.098 172.544 99.098C172.815 99.098 173.034 99.1867 173.202 99.364C173.37 99.532 173.454 99.756 173.454 100.036C173.454 100.297 173.366 100.517 173.188 100.694C173.02 100.871 172.806 100.96 172.544 100.96ZM170.29 100.96C170.038 100.96 169.828 100.871 169.66 100.694C169.492 100.517 169.408 100.297 169.408 100.036C169.408 99.756 169.492 99.532 169.66 99.364C169.828 99.1867 170.038 99.098 170.29 99.098C170.561 99.098 170.78 99.1867 170.948 99.364C171.116 99.532 171.2 99.756 171.2 100.036C171.2 100.297 171.112 100.517 170.934 100.694C170.766 100.871 170.552 100.96 170.29 100.96ZM179.824 102.584V109.5H176.506C176.319 109.5 176.226 109.215 176.226 108.646C176.226 108.086 176.319 107.806 176.506 107.806H177.99V102.584H179.824ZM180.048 112.44C179.796 112.44 179.586 112.351 179.418 112.174C179.25 111.997 179.166 111.777 179.166 111.516C179.166 111.236 179.25 111.007 179.418 110.83C179.586 110.662 179.796 110.578 180.048 110.578C180.319 110.578 180.538 110.662 180.706 110.83C180.874 111.007 180.958 111.236 180.958 111.516C180.958 111.777 180.869 111.997 180.692 112.174C180.524 112.351 180.309 112.44 180.048 112.44ZM177.794 112.44C177.542 112.44 177.332 112.351 177.164 112.174C176.996 111.997 176.912 111.777 176.912 111.516C176.912 111.236 176.996 111.007 177.164 110.83C177.332 110.662 177.542 110.578 177.794 110.578C178.065 110.578 178.284 110.662 178.452 110.83C178.62 111.007 178.704 111.236 178.704 111.516C178.704 111.777 178.615 111.997 178.438 112.174C178.27 112.351 178.055 112.44 177.794 112.44ZM185.433 107.806C185.62 107.806 185.713 108.086 185.713 108.646C185.713 109.215 185.62 109.5 185.433 109.5H181.975V99.07H183.795V107.806H185.433ZM195.094 107.806C195.28 107.806 195.374 108.086 195.374 108.646C195.374 109.215 195.28 109.5 195.094 109.5H194.898C194.487 109.5 194.188 109.607 194.002 109.822C193.824 110.046 193.712 110.34 193.666 110.704C193.628 111.068 193.605 111.609 193.596 112.328V112.972L191.972 113.966C191.318 113.966 190.674 113.784 190.04 113.42C189.405 113.056 188.836 112.533 188.332 111.852C187.837 111.18 187.464 110.396 187.212 109.5H185.434C185.247 109.5 185.154 109.215 185.154 108.646C185.154 108.086 185.247 107.806 185.434 107.806H186.918C186.899 107.47 186.89 107.209 186.89 107.022C186.89 105.986 187.034 105.085 187.324 104.32C187.622 103.555 188.014 102.971 188.5 102.57C188.985 102.169 189.503 101.968 190.054 101.968C190.604 101.968 191.122 102.169 191.608 102.57C192.093 102.971 192.48 103.555 192.77 104.32C193.068 105.085 193.218 105.986 193.218 107.022C193.218 107.442 193.19 107.843 193.134 108.226C193.591 107.946 194.179 107.806 194.898 107.806H195.094ZM188.71 107.05C188.71 107.302 188.724 107.554 188.752 107.806H191.356C191.384 107.563 191.398 107.321 191.398 107.078C191.398 106.453 191.328 105.879 191.188 105.356C191.048 104.833 190.87 104.423 190.656 104.124C190.45 103.816 190.25 103.662 190.054 103.662C189.858 103.662 189.652 103.816 189.438 104.124C189.232 104.423 189.06 104.833 188.92 105.356C188.78 105.869 188.71 106.434 188.71 107.05ZM189.13 109.5C189.382 110.209 189.718 110.807 190.138 111.292C190.567 111.787 191.024 112.095 191.51 112.216L191.776 112.048C191.776 110.947 191.892 110.097 192.126 109.5H189.13ZM198.418 102.584V109.5H195.1C194.913 109.5 194.82 109.215 194.82 108.646C194.82 108.086 194.913 107.806 195.1 107.806H196.584V102.584H198.418ZM197.508 101.604C197.218 101.604 196.976 101.506 196.78 101.31C196.593 101.105 196.5 100.853 196.5 100.554C196.5 100.246 196.593 99.994 196.78 99.798C196.976 99.602 197.218 99.504 197.508 99.504C197.806 99.504 198.049 99.602 198.236 99.798C198.432 99.994 198.53 100.246 198.53 100.554C198.53 100.853 198.432 101.105 198.236 101.31C198.04 101.506 197.797 101.604 197.508 101.604ZM213.625 107.806C213.811 107.806 213.905 108.086 213.905 108.646C213.905 109.215 213.811 109.5 213.625 109.5H212.533C211.618 109.5 210.904 109.304 210.391 108.912C209.168 109.304 207.843 109.5 206.415 109.5C205.472 109.5 204.567 109.411 203.699 109.234V107.484C204.557 107.699 205.467 107.806 206.429 107.806C207.493 107.806 208.477 107.68 209.383 107.428C209.299 107.232 209.21 106.989 209.117 106.7L207.409 101.758L209.131 101.212L210.839 106.168C211.025 106.719 211.175 107.097 211.287 107.302C211.399 107.507 211.539 107.643 211.707 107.708C211.875 107.764 212.15 107.792 212.533 107.792H213.625V107.806ZM219.253 107.806C219.44 107.806 219.533 108.086 219.533 108.646C219.533 109.215 219.44 109.5 219.253 109.5H218.497C217.685 109.5 217.022 109.285 216.509 108.856C216.052 109.285 215.361 109.5 214.437 109.5H213.625C213.438 109.5 213.345 109.215 213.345 108.646C213.345 108.086 213.438 107.806 213.625 107.806H214.255C214.731 107.806 215.058 107.708 215.235 107.512C215.412 107.316 215.501 106.985 215.501 106.518V102.584H217.321V106.532C217.321 106.905 217.284 107.255 217.209 107.582C217.442 107.731 217.732 107.806 218.077 107.806H219.253ZM216.411 101.604C216.122 101.604 215.879 101.506 215.683 101.31C215.496 101.105 215.403 100.853 215.403 100.554C215.403 100.246 215.496 99.994 215.683 99.798C215.879 99.602 216.122 99.504 216.411 99.504C216.71 99.504 216.952 99.602 217.139 99.798C217.335 99.994 217.433 100.246 217.433 100.554C217.433 100.853 217.335 101.105 217.139 101.31C216.943 101.506 216.7 101.604 216.411 101.604ZM227.392 107.806V109.5H219.258C219.071 109.5 218.978 109.215 218.978 108.646C218.978 108.086 219.071 107.806 219.258 107.806H220.84C220.494 107.255 220.322 106.635 220.322 105.944C220.322 105.244 220.494 104.609 220.84 104.04C221.194 103.471 221.67 103.023 222.268 102.696C222.874 102.369 223.537 102.206 224.256 102.206C225.161 102.206 226.136 102.458 227.182 102.962L226.356 104.46C225.506 104.087 224.816 103.9 224.284 103.9C223.658 103.9 223.145 104.091 222.744 104.474C222.352 104.857 222.156 105.342 222.156 105.93C222.156 106.397 222.291 106.803 222.562 107.148C222.832 107.484 223.196 107.703 223.654 107.806H227.392ZM235.79 109.5C235.109 109.5 234.488 109.351 233.928 109.052C233.377 108.744 232.943 108.329 232.626 107.806C232.309 107.274 232.15 106.691 232.15 106.056C232.15 105.384 232.323 104.749 232.668 104.152C233.023 103.545 233.48 103.06 234.04 102.696C234.6 102.332 235.183 102.15 235.79 102.15C236.397 102.15 236.98 102.332 237.54 102.696C238.1 103.06 238.553 103.545 238.898 104.152C239.253 104.749 239.43 105.384 239.43 106.056C239.43 106.691 239.271 107.274 238.954 107.806C238.637 108.329 238.198 108.744 237.638 109.052C237.087 109.351 236.471 109.5 235.79 109.5ZM235.79 107.806C236.322 107.806 236.756 107.643 237.092 107.316C237.428 106.989 237.596 106.569 237.596 106.056C237.596 105.711 237.503 105.365 237.316 105.02C237.129 104.675 236.896 104.395 236.616 104.18C236.336 103.956 236.061 103.844 235.79 103.844C235.519 103.844 235.244 103.956 234.964 104.18C234.684 104.395 234.451 104.675 234.264 105.02C234.077 105.365 233.984 105.711 233.984 106.056C233.984 106.569 234.152 106.989 234.488 107.316C234.824 107.643 235.258 107.806 235.79 107.806ZM236.91 101.128C236.658 101.128 236.448 101.039 236.28 100.862C236.112 100.685 236.028 100.465 236.028 100.204C236.028 99.924 236.112 99.7 236.28 99.532C236.448 99.3547 236.658 99.266 236.91 99.266C237.181 99.266 237.4 99.3547 237.568 99.532C237.736 99.7 237.82 99.924 237.82 100.204C237.82 100.465 237.731 100.685 237.554 100.862C237.386 101.039 237.171 101.128 236.91 101.128ZM234.656 101.128C234.404 101.128 234.194 101.039 234.026 100.862C233.858 100.685 233.774 100.465 233.774 100.204C233.774 99.924 233.858 99.7 234.026 99.532C234.194 99.3547 234.404 99.266 234.656 99.266C234.927 99.266 235.146 99.3547 235.314 99.532C235.482 99.7 235.566 99.924 235.566 100.204C235.566 100.465 235.477 100.685 235.3 100.862C235.132 101.039 234.917 101.128 234.656 101.128ZM242.694 101.226C243.823 101.478 244.808 101.945 245.648 102.626C246.488 103.298 247.141 104.147 247.608 105.174C248.084 106.191 248.336 107.33 248.364 108.59C246.964 109.197 245.354 109.5 243.534 109.5C242.591 109.5 241.686 109.411 240.818 109.234V107.484C241.676 107.699 242.586 107.806 243.548 107.806C244.565 107.806 245.522 107.685 246.418 107.442C246.203 106.266 245.741 105.272 245.032 104.46C244.322 103.648 243.412 103.121 242.302 102.878L242.694 101.226ZM253.711 107.806C253.897 107.806 253.991 108.086 253.991 108.646C253.991 109.215 253.897 109.5 253.711 109.5H250.253V99.07H252.073V107.806H253.711ZM263.371 107.806C263.558 107.806 263.651 108.086 263.651 108.646C263.651 109.215 263.558 109.5 263.371 109.5H263.175C262.764 109.5 262.466 109.607 262.279 109.822C262.102 110.046 261.99 110.34 261.943 110.704C261.906 111.068 261.882 111.609 261.873 112.328V112.972L260.249 113.966C259.596 113.966 258.952 113.784 258.317 113.42C257.682 113.056 257.113 112.533 256.609 111.852C256.114 111.18 255.741 110.396 255.489 109.5H253.711C253.524 109.5 253.431 109.215 253.431 108.646C253.431 108.086 253.524 107.806 253.711 107.806H255.195C255.176 107.47 255.167 107.209 255.167 107.022C255.167 105.986 255.312 105.085 255.601 104.32C255.9 103.555 256.292 102.971 256.777 102.57C257.262 102.169 257.78 101.968 258.331 101.968C258.882 101.968 259.4 102.169 259.885 102.57C260.37 102.971 260.758 103.555 261.047 104.32C261.346 105.085 261.495 105.986 261.495 107.022C261.495 107.442 261.467 107.843 261.411 108.226C261.868 107.946 262.456 107.806 263.175 107.806H263.371ZM256.987 107.05C256.987 107.302 257.001 107.554 257.029 107.806H259.633C259.661 107.563 259.675 107.321 259.675 107.078C259.675 106.453 259.605 105.879 259.465 105.356C259.325 104.833 259.148 104.423 258.933 104.124C258.728 103.816 258.527 103.662 258.331 103.662C258.135 103.662 257.93 103.816 257.715 104.124C257.51 104.423 257.337 104.833 257.197 105.356C257.057 105.869 256.987 106.434 256.987 107.05ZM257.407 109.5C257.659 110.209 257.995 110.807 258.415 111.292C258.844 111.787 259.302 112.095 259.787 112.216L260.053 112.048C260.053 110.947 260.17 110.097 260.403 109.5H257.407ZM277.461 107.806C277.648 107.806 277.741 108.086 277.741 108.646C277.741 109.215 277.648 109.5 277.461 109.5H276.621C275.809 109.5 275.151 109.285 274.647 108.856C274.18 109.285 273.48 109.5 272.547 109.5C271.66 109.5 270.956 109.29 270.433 108.87C269.957 109.29 269.262 109.5 268.347 109.5C267.46 109.5 266.756 109.29 266.233 108.87C265.757 109.29 265.043 109.5 264.091 109.5H263.377C263.19 109.5 263.097 109.215 263.097 108.646C263.097 108.086 263.19 107.806 263.377 107.806H263.923C264.418 107.806 264.754 107.713 264.931 107.526C265.118 107.33 265.211 106.994 265.211 106.518V103.97H267.045V106.532C267.045 106.943 267.012 107.293 266.947 107.582C267.208 107.731 267.577 107.806 268.053 107.806C268.417 107.806 268.697 107.769 268.893 107.694C269.089 107.61 269.224 107.479 269.299 107.302C269.383 107.115 269.425 106.854 269.425 106.518V103.27H271.245V106.532C271.245 106.961 271.208 107.311 271.133 107.582C271.404 107.731 271.777 107.806 272.253 107.806C272.617 107.806 272.897 107.769 273.093 107.694C273.289 107.61 273.424 107.479 273.499 107.302C273.583 107.115 273.625 106.854 273.625 106.518V102.57H275.445V106.532C275.445 106.961 275.408 107.311 275.333 107.582C275.566 107.731 275.851 107.806 276.187 107.806H277.461ZM270.307 97.88C270.55 97.88 270.746 97.964 270.895 98.132C271.054 98.2907 271.133 98.496 271.133 98.748C271.133 99 271.054 99.2053 270.895 99.364C270.746 99.5227 270.55 99.602 270.307 99.602C270.064 99.602 269.864 99.5227 269.705 99.364C269.556 99.2053 269.481 99 269.481 98.748C269.481 98.496 269.556 98.2907 269.705 98.132C269.864 97.964 270.064 97.88 270.307 97.88ZM269.187 99.798C269.448 99.798 269.663 99.8867 269.831 100.064C270.008 100.232 270.097 100.451 270.097 100.722C270.097 100.993 270.008 101.217 269.831 101.394C269.663 101.571 269.448 101.66 269.187 101.66C268.935 101.66 268.725 101.571 268.557 101.394C268.389 101.217 268.305 100.993 268.305 100.722C268.305 100.461 268.389 100.241 268.557 100.064C268.725 99.8867 268.935 99.798 269.187 99.798ZM271.441 99.798C271.702 99.798 271.917 99.8867 272.085 100.064C272.262 100.232 272.351 100.451 272.351 100.722C272.351 100.993 272.262 101.217 272.085 101.394C271.917 101.571 271.702 101.66 271.441 101.66C271.189 101.66 270.979 101.571 270.811 101.394C270.643 101.217 270.559 100.993 270.559 100.722C270.559 100.461 270.643 100.241 270.811 100.064C270.979 99.8867 271.189 99.798 271.441 99.798ZM280.385 99.07V109.5H277.459C277.272 109.5 277.179 109.215 277.179 108.646C277.179 108.086 277.272 107.806 277.459 107.806H278.551V99.07H280.385ZM282.683 99.07H284.503V109.5H282.683V99.07ZM300.677 107.806C300.863 107.806 300.957 108.086 300.957 108.646C300.957 109.215 300.863 109.5 300.677 109.5H300.593C299.921 109.5 299.351 109.351 298.885 109.052C298.605 110.06 298.087 110.867 297.331 111.474C296.584 112.09 295.665 112.398 294.573 112.398C293.649 112.398 292.841 112.174 292.151 111.726C291.469 111.278 290.947 110.676 290.583 109.92C290.219 109.164 290.037 108.324 290.037 107.4C290.037 106.896 290.093 106.387 290.205 105.874L292.011 106.14C291.917 106.653 291.871 107.087 291.871 107.442C291.871 108.086 291.983 108.655 292.207 109.15C292.431 109.645 292.743 110.027 293.145 110.298C293.555 110.569 294.031 110.704 294.573 110.704C295.114 110.704 295.585 110.569 295.987 110.298C296.397 110.027 296.715 109.645 296.939 109.15C297.163 108.655 297.275 108.081 297.275 107.428V99.07H299.109V107.372V107.428C299.351 107.68 299.701 107.806 300.159 107.806H300.677ZM306.302 107.806C306.488 107.806 306.582 108.086 306.582 108.646C306.582 109.215 306.488 109.5 306.302 109.5H305.546C304.734 109.5 304.071 109.285 303.558 108.856C303.1 109.285 302.41 109.5 301.486 109.5H300.674C300.487 109.5 300.394 109.215 300.394 108.646C300.394 108.086 300.487 107.806 300.674 107.806H301.304C301.78 107.806 302.106 107.708 302.284 107.512C302.461 107.316 302.55 106.985 302.55 106.518V102.584H304.37V106.532C304.37 106.905 304.332 107.255 304.258 107.582C304.491 107.731 304.78 107.806 305.126 107.806H306.302ZM304.594 112.44C304.342 112.44 304.132 112.351 303.964 112.174C303.796 111.997 303.712 111.777 303.712 111.516C303.712 111.236 303.796 111.007 303.964 110.83C304.132 110.662 304.342 110.578 304.594 110.578C304.864 110.578 305.084 110.662 305.252 110.83C305.42 111.007 305.504 111.236 305.504 111.516C305.504 111.777 305.415 111.997 305.238 112.174C305.07 112.351 304.855 112.44 304.594 112.44ZM302.34 112.44C302.088 112.44 301.878 112.351 301.71 112.174C301.542 111.997 301.458 111.777 301.458 111.516C301.458 111.236 301.542 111.007 301.71 110.83C301.878 110.662 302.088 110.578 302.34 110.578C302.61 110.578 302.83 110.662 302.998 110.83C303.166 111.007 303.25 111.236 303.25 111.516C303.25 111.777 303.161 111.997 302.984 112.174C302.816 112.351 302.601 112.44 302.34 112.44ZM316.093 107.806C316.279 107.806 316.373 108.086 316.373 108.646C316.373 109.215 316.279 109.5 316.093 109.5H313.517C312.471 109.5 311.515 109.323 310.647 108.968C309.685 109.323 308.831 109.5 308.085 109.5H306.307C306.12 109.5 306.027 109.215 306.027 108.646C306.027 108.086 306.12 107.806 306.307 107.806H308.085C308.318 107.806 308.542 107.787 308.757 107.75C307.991 107.031 307.445 106.131 307.119 105.048L308.659 102.444C309.387 102.239 310.138 102.136 310.913 102.136C311.725 102.136 312.443 102.243 313.069 102.458C313.694 102.673 314.179 102.981 314.525 103.382C314.87 103.774 315.043 104.227 315.043 104.74C315.043 105.281 314.851 105.813 314.469 106.336C314.095 106.849 313.587 107.33 312.943 107.778C313.204 107.797 313.395 107.806 313.517 107.806H316.093ZM308.813 104.208C308.962 104.843 309.205 105.407 309.541 105.902C309.877 106.387 310.292 106.784 310.787 107.092C311.477 106.756 312.056 106.378 312.523 105.958C312.989 105.529 313.223 105.141 313.223 104.796C313.223 104.516 313.017 104.287 312.607 104.11C312.196 103.923 311.631 103.83 310.913 103.83C310.185 103.83 309.485 103.956 308.813 104.208ZM325.728 107.806C325.914 107.806 326.008 108.086 326.008 108.646C326.008 109.215 325.914 109.5 325.728 109.5H316.096C315.909 109.5 315.816 109.215 315.816 108.646C315.816 108.086 315.909 107.806 316.096 107.806H317.706C317.351 107.246 317.174 106.625 317.174 105.944C317.174 105.244 317.351 104.609 317.706 104.04C318.06 103.471 318.536 103.023 319.134 102.696C319.74 102.369 320.403 102.206 321.122 102.206C322.046 102.206 323.049 102.481 324.132 103.032V107.806H325.728ZM319.008 105.93C319.008 106.397 319.143 106.803 319.414 107.148C319.694 107.484 320.067 107.703 320.534 107.806H322.298V104.11C321.915 103.97 321.528 103.9 321.136 103.9C320.52 103.9 320.011 104.091 319.61 104.474C319.208 104.857 319.008 105.342 319.008 105.93ZM321.122 101.03C320.832 101.03 320.59 100.932 320.394 100.736C320.207 100.531 320.114 100.279 320.114 99.98C320.114 99.672 320.207 99.42 320.394 99.224C320.59 99.028 320.832 98.93 321.122 98.93C321.42 98.93 321.663 99.028 321.85 99.224C322.046 99.42 322.144 99.672 322.144 99.98C322.144 100.279 322.046 100.531 321.85 100.736C321.654 100.932 321.411 101.03 321.122 101.03ZM329.052 102.584V109.5H325.734C325.548 109.5 325.454 109.215 325.454 108.646C325.454 108.086 325.548 107.806 325.734 107.806H327.218V102.584H329.052ZM329.262 101.59C329.01 101.59 328.8 101.501 328.632 101.324C328.464 101.147 328.38 100.927 328.38 100.666C328.38 100.386 328.464 100.162 328.632 99.994C328.8 99.8167 329.01 99.728 329.262 99.728C329.533 99.728 329.752 99.8167 329.92 99.994C330.088 100.162 330.172 100.386 330.172 100.666C330.172 100.927 330.084 101.147 329.906 101.324C329.738 101.501 329.524 101.59 329.262 101.59ZM327.008 101.59C326.756 101.59 326.546 101.501 326.378 101.324C326.21 101.147 326.126 100.927 326.126 100.666C326.126 100.386 326.21 100.162 326.378 99.994C326.546 99.8167 326.756 99.728 327.008 99.728C327.279 99.728 327.498 99.8167 327.666 99.994C327.834 100.162 327.918 100.386 327.918 100.666C327.918 100.927 327.83 101.147 327.652 101.324C327.484 101.501 327.27 101.59 327.008 101.59Z" fill="#0C0A09"/>
</g>
<defs>
<filter id="filter0_dd_3185_6667" x="0" y="0" width="372" height="87" filterUnits="userSpaceOnUse" color-interpolation-filters="sRGB">
<feFlood flood-opacity="0" result="BackgroundImageFix"/>
<feColorMatrix in="SourceAlpha" type="matrix" values="0 0 0 0 0 0 0 0 0 0 0 0 0 0 0 0 0 0 127 0" result="hardAlpha"/>
<feOffset dy="1"/>
<feGaussianBlur stdDeviation="1"/>
<feComposite in2="hardAlpha" operator="out"/>
<feColorMatrix type="matrix" values="0 0 0 0 0 0 0 0 0 0 0 0 0 0 0 0 0 0 0.05 0"/>
<feBlend mode="normal" in2="BackgroundImageFix" result="effect1_dropShadow_3185_6667"/>
<feColorMatrix in="SourceAlpha" type="matrix" values="0 0 0 0 0 0 0 0 0 0 0 0 0 0 0 0 0 0 127 0" result="hardAlpha"/>
<feMorphology radius="3" operator="erode" in="SourceAlpha" result="effect2_dropShadow_3185_6667"/>
<feOffset dy="10"/>
<feGaussianBlur stdDeviation="7.5"/>
<feComposite in2="hardAlpha" operator="out"/>
<feColorMatrix type="matrix" values="0 0 0 0 0 0 0 0 0 0 0 0 0 0 0 0 0 0 0.1 0"/>
<feBlend mode="normal" in2="effect1_dropShadow_3185_6667" result="effect2_dropShadow_3185_6667"/>
<feBlend mode="normal" in="SourceGraphic" in2="effect2_dropShadow_3185_6667" result="shape"/>
</filter>
<filter id="filter1_dd_3185_6667" x="35" y="23" width="44" height="44" filterUnits="userSpaceOnUse" color-interpolation-filters="sRGB">
<feFlood flood-opacity="0" result="BackgroundImageFix"/>
<feColorMatrix in="SourceAlpha" type="matrix" values="0 0 0 0 0 0 0 0 0 0 0 0 0 0 0 0 0 0 127 0" result="hardAlpha"/>
<feMorphology radius="4" operator="erode" in="SourceAlpha" result="effect1_dropShadow_3185_6667"/>
<feOffset dy="4"/>
<feGaussianBlur stdDeviation="3"/>
<feComposite in2="hardAlpha" operator="out"/>
<feColorMatrix type="matrix" values="0 0 0 0 0 0 0 0 0 0 0 0 0 0 0 0 0 0 0.1 0"/>
<feBlend mode="normal" in2="BackgroundImageFix" result="effect1_dropShadow_3185_6667"/>
<feColorMatrix in="SourceAlpha" type="matrix" values="0 0 0 0 0 0 0 0 0 0 0 0 0 0 0 0 0 0 127 0" result="hardAlpha"/>
<feMorphology radius="3" operator="erode" in="SourceAlpha" result="effect2_dropShadow_3185_6667"/>
<feOffset dy="10"/>
<feGaussianBlur stdDeviation="7.5"/>
<feComposite in2="hardAlpha" operator="out"/>
<feColorMatrix type="matrix" values="0 0 0 0 0 0 0 0 0 0 0 0 0 0 0 0 0 0 0.1 0"/>
<feBlend mode="normal" in2="effect1_dropShadow_3185_6667" result="effect2_dropShadow_3185_6667"/>
<feBlend mode="normal" in="SourceGraphic" in2="effect2_dropShadow_3185_6667" result="shape"/>
</filter>
<filter id="filter2_dd_3185_6667" x="0" y="71" width="372" height="87" filterUnits="userSpaceOnUse" color-interpolation-filters="sRGB">
<feFlood flood-opacity="0" result="BackgroundImageFix"/>
<feColorMatrix in="SourceAlpha" type="matrix" values="0 0 0 0 0 0 0 0 0 0 0 0 0 0 0 0 0 0 127 0" result="hardAlpha"/>
<feOffset dy="1"/>
<feGaussianBlur stdDeviation="1"/>
<feComposite in2="hardAlpha" operator="out"/>
<feColorMatrix type="matrix" values="0 0 0 0 0 0 0 0 0 0 0 0 0 0 0 0 0 0 0.05 0"/>
<feBlend mode="normal" in2="BackgroundImageFix" result="effect1_dropShadow_3185_6667"/>
<feColorMatrix in="SourceAlpha" type="matrix" values="0 0 0 0 0 0 0 0 0 0 0 0 0 0 0 0 0 0 127 0" result="hardAlpha"/>
<feMorphology radius="3" operator="erode" in="SourceAlpha" result="effect2_dropShadow_3185_6667"/>
<feOffset dy="10"/>
<feGaussianBlur stdDeviation="7.5"/>
<feComposite in2="hardAlpha" operator="out"/>
<feColorMatrix type="matrix" values="0 0 0 0 0 0 0 0 0 0 0 0 0 0 0 0 0 0 0.1 0"/>
<feBlend mode="normal" in2="effect1_dropShadow_3185_6667" result="effect2_dropShadow_3185_6667"/>
<feBlend mode="normal" in="SourceGraphic" in2="effect2_dropShadow_3185_6667" result="shape"/>
</filter>
<filter id="filter3_dd_3185_6667" x="35" y="94" width="44" height="44" filterUnits="userSpaceOnUse" color-interpolation-filters="sRGB">
<feFlood flood-opacity="0" result="BackgroundImageFix"/>
<feColorMatrix in="SourceAlpha" type="matrix" values="0 0 0 0 0 0 0 0 0 0 0 0 0 0 0 0 0 0 127 0" result="hardAlpha"/>
<feMorphology radius="4" operator="erode" in="SourceAlpha" result="effect1_dropShadow_3185_6667"/>
<feOffset dy="4"/>
<feGaussianBlur stdDeviation="3"/>
<feComposite in2="hardAlpha" operator="out"/>
<feColorMatrix type="matrix" values="0 0 0 0 0 0 0 0 0 0 0 0 0 0 0 0 0 0 0.1 0"/>
<feBlend mode="normal" in2="BackgroundImageFix" result="effect1_dropShadow_3185_6667"/>
<feColorMatrix in="SourceAlpha" type="matrix" values="0 0 0 0 0 0 0 0 0 0 0 0 0 0 0 0 0 0 127 0" result="hardAlpha"/>
<feMorphology radius="3" operator="erode" in="SourceAlpha" result="effect2_dropShadow_3185_6667"/>
<feOffset dy="10"/>
<feGaussianBlur stdDeviation="7.5"/>
<feComposite in2="hardAlpha" operator="out"/>
<feColorMatrix type="matrix" values="0 0 0 0 0 0 0 0 0 0 0 0 0 0 0 0 0 0 0.1 0"/>
<feBlend mode="normal" in2="effect1_dropShadow_3185_6667" result="effect2_dropShadow_3185_6667"/>
<feBlend mode="normal" in="SourceGraphic" in2="effect2_dropShadow_3185_6667" result="shape"/>
</filter>
</defs>
</svg>
