<svg width="46" height="48" viewBox="0 0 46 48" fill="none" xmlns="http://www.w3.org/2000/svg">
<g filter="url(#filter0_bd_3373_2636)">
<path d="M35.075 19.3676C34.2376 19.3676 33.5583 18.6991 33.5583 17.8751C33.5583 13.6886 31.9018 9.75439 28.8937 6.79305C28.3007 6.20958 28.3007 5.26646 28.8937 4.68272C29.4867 4.09925 30.4455 4.09925 31.0385 4.68272C34.6201 8.20649 36.5918 12.8917 36.5918 17.8751C36.5918 18.6991 35.9125 19.3676 35.075 19.3676Z" fill="url(#paint0_linear_3373_2636)"/>
</g>
<g filter="url(#filter1_bd_3373_2636)">
<path d="M5.1494 19.3676C4.31229 19.3676 3.63265 18.6991 3.63265 17.8751C3.63265 12.8917 5.60462 8.20649 9.18584 4.68272C9.77882 4.09925 10.7376 4.09925 11.3306 4.68272C11.9238 5.26646 11.9238 6.20958 11.3306 6.79305C8.32261 9.75275 6.66643 13.6886 6.66643 17.8751C6.66643 18.6991 5.9868 19.3676 5.1494 19.3676Z" fill="url(#paint1_linear_3373_2636)"/>
</g>
<g filter="url(#filter2_bd_3373_2636)">
<path d="M26.1225 32.7452C26.1225 36.0646 23.4317 38.7553 20.1124 38.7553C16.793 38.7553 14.102 36.0646 14.102 32.7452C14.102 29.4258 16.793 26.7349 20.1124 26.7349C23.4317 26.7349 26.1225 29.4258 26.1225 32.7452Z" fill="url(#paint2_linear_3373_2636)"/>
</g>
<g filter="url(#filter3_bd_3373_2636)">
<path d="M20.3063 8.89787C19.45 8.89787 18.7551 8.24661 18.7551 7.44385V4.53556C18.7551 3.73307 19.45 3.08154 20.3063 3.08154C21.1622 3.08154 21.8571 3.73307 21.8571 4.53556V7.44385C21.8571 8.24661 21.1622 8.89787 20.3063 8.89787Z" fill="url(#paint3_linear_3373_2636)"/>
</g>
<path d="M34.1139 28.3486C31.8566 26.4489 30.5623 23.6739 30.5623 20.7323V16.5883C30.5623 10.8507 25.8732 6.18359 20.1124 6.18359C14.3513 6.18359 9.66223 10.8507 9.66223 16.5883V20.7323C9.66223 23.6739 8.36792 26.4505 6.09748 28.3619C5.51661 28.8554 5.18367 29.5763 5.18367 30.3373C5.18367 31.7719 6.35552 32.9387 7.79635 32.9387H32.4284C33.869 32.9387 35.0408 31.7719 35.0408 30.3373C35.0408 29.5763 34.7079 28.8554 34.1139 28.3486Z" fill="url(#paint4_linear_3373_2636)"/>
<defs>
<filter id="filter0_bd_3373_2636" x="16.2651" y="-7.93874" width="32.5106" height="39.4903" filterUnits="userSpaceOnUse" color-interpolation-filters="sRGB">
<feFlood flood-opacity="0" result="BackgroundImageFix"/>
<feGaussianBlur in="BackgroundImageFix" stdDeviation="6.09193"/>
<feComposite in2="SourceAlpha" operator="in" result="effect1_backgroundBlur_3373_2636"/>
<feColorMatrix in="SourceAlpha" type="matrix" values="0 0 0 0 0 0 0 0 0 0 0 0 0 0 0 0 0 0 127 0" result="hardAlpha"/>
<feOffset dx="3.07676" dy="3.07676"/>
<feGaussianBlur stdDeviation="3.07676"/>
<feColorMatrix type="matrix" values="0 0 0 0 0.996078 0 0 0 0 0.654902 0 0 0 0 0.407843 0 0 0 0.21 0"/>
<feBlend mode="normal" in2="effect1_backgroundBlur_3373_2636" result="effect2_dropShadow_3373_2636"/>
<feBlend mode="normal" in="SourceGraphic" in2="effect2_dropShadow_3373_2636" result="shape"/>
</filter>
<filter id="filter1_bd_3373_2636" x="-8.5512" y="-7.93874" width="32.5106" height="39.4903" filterUnits="userSpaceOnUse" color-interpolation-filters="sRGB">
<feFlood flood-opacity="0" result="BackgroundImageFix"/>
<feGaussianBlur in="BackgroundImageFix" stdDeviation="6.09193"/>
<feComposite in2="SourceAlpha" operator="in" result="effect1_backgroundBlur_3373_2636"/>
<feColorMatrix in="SourceAlpha" type="matrix" values="0 0 0 0 0 0 0 0 0 0 0 0 0 0 0 0 0 0 127 0" result="hardAlpha"/>
<feOffset dx="3.07676" dy="3.07676"/>
<feGaussianBlur stdDeviation="3.07676"/>
<feColorMatrix type="matrix" values="0 0 0 0 0.996078 0 0 0 0 0.654902 0 0 0 0 0.407843 0 0 0 0.21 0"/>
<feBlend mode="normal" in2="effect1_backgroundBlur_3373_2636" result="effect2_dropShadow_3373_2636"/>
<feBlend mode="normal" in="SourceGraphic" in2="effect2_dropShadow_3373_2636" result="shape"/>
</filter>
<filter id="filter2_bd_3373_2636" x="1.91819" y="14.551" width="36.3881" height="36.3882" filterUnits="userSpaceOnUse" color-interpolation-filters="sRGB">
<feFlood flood-opacity="0" result="BackgroundImageFix"/>
<feGaussianBlur in="BackgroundImageFix" stdDeviation="6.09193"/>
<feComposite in2="SourceAlpha" operator="in" result="effect1_backgroundBlur_3373_2636"/>
<feColorMatrix in="SourceAlpha" type="matrix" values="0 0 0 0 0 0 0 0 0 0 0 0 0 0 0 0 0 0 127 0" result="hardAlpha"/>
<feOffset dx="3.07676" dy="3.07676"/>
<feGaussianBlur stdDeviation="3.07676"/>
<feColorMatrix type="matrix" values="0 0 0 0 0.996078 0 0 0 0 0.654902 0 0 0 0 0.407843 0 0 0 0.21 0"/>
<feBlend mode="normal" in2="effect1_backgroundBlur_3373_2636" result="effect2_dropShadow_3373_2636"/>
<feBlend mode="normal" in="SourceGraphic" in2="effect2_dropShadow_3373_2636" result="shape"/>
</filter>
<filter id="filter3_bd_3373_2636" x="6.57124" y="-9.10231" width="27.4698" height="30.1841" filterUnits="userSpaceOnUse" color-interpolation-filters="sRGB">
<feFlood flood-opacity="0" result="BackgroundImageFix"/>
<feGaussianBlur in="BackgroundImageFix" stdDeviation="6.09193"/>
<feComposite in2="SourceAlpha" operator="in" result="effect1_backgroundBlur_3373_2636"/>
<feColorMatrix in="SourceAlpha" type="matrix" values="0 0 0 0 0 0 0 0 0 0 0 0 0 0 0 0 0 0 127 0" result="hardAlpha"/>
<feOffset dx="3.07676" dy="3.07676"/>
<feGaussianBlur stdDeviation="3.07676"/>
<feColorMatrix type="matrix" values="0 0 0 0 0.996078 0 0 0 0 0.654902 0 0 0 0 0.407843 0 0 0 0.21 0"/>
<feBlend mode="normal" in2="effect1_backgroundBlur_3373_2636" result="effect2_dropShadow_3373_2636"/>
<feBlend mode="normal" in="SourceGraphic" in2="effect2_dropShadow_3373_2636" result="shape"/>
</filter>
<linearGradient id="paint0_linear_3373_2636" x1="36.0145" y1="6.97593" x2="25.7303" y2="6.21023" gradientUnits="userSpaceOnUse">
<stop stop-color="white"/>
<stop offset="0.760063" stop-color="white" stop-opacity="0.61"/>
</linearGradient>
<linearGradient id="paint1_linear_3373_2636" x1="11.1982" y1="6.97593" x2="0.913993" y2="6.21023" gradientUnits="userSpaceOnUse">
<stop stop-color="white"/>
<stop offset="0.760063" stop-color="white" stop-opacity="0.61"/>
</linearGradient>
<linearGradient id="paint2_linear_3373_2636" x1="25.2702" y1="28.9055" x2="10.291" y2="26.8343" gradientUnits="userSpaceOnUse">
<stop stop-color="white"/>
<stop offset="0.760063" stop-color="white" stop-opacity="0.61"/>
</linearGradient>
<linearGradient id="paint3_linear_3373_2636" x1="21.6372" y1="4.13186" x2="17.719" y2="3.84291" gradientUnits="userSpaceOnUse">
<stop stop-color="white"/>
<stop offset="0.760063" stop-color="white" stop-opacity="0.61"/>
</linearGradient>
<linearGradient id="paint4_linear_3373_2636" x1="21.0953" y1="19.7734" x2="-1.87396" y2="35.4732" gradientUnits="userSpaceOnUse">
<stop stop-color="#FFB37F"/>
<stop offset="1" stop-color="#FF7B0D"/>
</linearGradient>
</defs>
</svg>
