<svg width="80" height="80" viewBox="0 0 80 80" fill="none" xmlns="http://www.w3.org/2000/svg">
<g filter="url(#filter0_di_3373_2675)">
<path d="M37.4754 51.7081C37.6888 51.1394 38.1387 50.6895 38.7074 50.4761L41.7179 49.3471C42.8385 48.9266 43.7446 48.052 44.2019 46.9472C44.6592 45.8403 44.6392 44.582 44.143 43.4929L42.8143 40.5664C42.562 40.0113 42.561 39.3775 42.8143 38.8235L44.143 35.8969C44.6392 34.8079 44.6592 33.5496 44.2019 32.4427C43.7467 31.34 42.8385 30.4632 41.7179 30.0428L38.7074 28.9138C38.1366 28.7004 37.6866 28.2505 37.4754 27.6818L36.3453 24.6701C35.927 23.5495 35.0503 22.6412 33.9455 22.1861C32.8396 21.7277 31.5803 21.7488 30.4913 22.2449L27.5648 23.5737C27.0108 23.827 26.3759 23.827 25.8219 23.5737L22.8954 22.2449C21.8064 21.7488 20.5471 21.7277 19.4412 22.1861C18.3364 22.6433 17.4618 23.5495 17.0414 24.6701L15.9124 27.6807C15.699 28.2494 15.2491 28.6993 14.6804 28.9127L11.6698 30.0417C10.5492 30.4622 9.64312 31.3368 9.18586 32.4416C8.72859 33.5485 8.74856 34.8068 9.24472 35.8959L10.5734 38.8224C10.8257 39.3775 10.8268 40.0113 10.5734 40.5653L9.24472 43.4919C8.74856 44.5809 8.72859 45.8392 9.18586 46.9461C9.4045 47.4738 9.72617 47.9511 10.1256 48.3505C10.5598 48.7847 11.0853 49.1274 11.6698 49.346L14.6804 50.475C15.2512 50.6884 15.7011 51.1383 15.9124 51.707L17.0414 54.7177C17.4597 55.8383 18.3375 56.7455 19.4412 57.2017C20.5481 57.659 21.8064 57.639 22.8954 57.1428L25.8219 55.8141C26.3769 55.5618 27.0108 55.5608 27.5648 55.8141L30.4913 57.1428C31.5803 57.639 32.8386 57.659 33.9455 57.2017C35.0503 56.7444 35.9249 55.8383 36.3453 54.7177L37.4754 51.7081Z" fill="url(#paint0_linear_3373_2675)"/>
</g>
<g filter="url(#filter1_b_3373_2675)">
<path d="M37.4754 51.7081C37.6888 51.1394 38.1387 50.6895 38.7074 50.4761L41.7179 49.3471C42.8385 48.9266 43.7446 48.052 44.2019 46.9472C44.6592 45.8403 44.6392 44.582 44.143 43.4929L42.8143 40.5664C42.562 40.0113 42.561 39.3775 42.8143 38.8235L44.143 35.8969C44.6392 34.8079 44.6592 33.5496 44.2019 32.4427C43.7467 31.34 42.8385 30.4632 41.7179 30.0428L38.7074 28.9138C38.1366 28.7004 37.6866 28.2505 37.4754 27.6818L36.3453 24.6701C35.927 23.5495 35.0503 22.6412 33.9455 22.1861C32.8396 21.7277 31.5803 21.7488 30.4913 22.2449L27.5648 23.5737C27.0108 23.827 26.3759 23.827 25.8219 23.5737L22.8954 22.2449C21.8064 21.7488 20.5471 21.7277 19.4412 22.1861C18.3364 22.6433 17.4618 23.5495 17.0414 24.6701L15.9124 27.6807C15.699 28.2494 15.2491 28.6993 14.6804 28.9127L11.6698 30.0417C10.5492 30.4622 9.64312 31.3368 9.18586 32.4416C8.72859 33.5485 8.74856 34.8068 9.24472 35.8959L10.5734 38.8224C10.8257 39.3775 10.8268 40.0113 10.5734 40.5653L9.24472 43.4919C8.74856 44.5809 8.72859 45.8392 9.18586 46.9461C9.4045 47.4738 9.72617 47.9511 10.1256 48.3505C10.5598 48.7847 11.0853 49.1274 11.6698 49.346L14.6804 50.475C15.2512 50.6884 15.7011 51.1383 15.9124 51.707L17.0414 54.7177C17.4597 55.8383 18.3375 56.7455 19.4412 57.2017C20.5481 57.659 21.8064 57.639 22.8954 57.1428L25.8219 55.8141C26.3769 55.5618 27.0108 55.5608 27.5648 55.8141L30.4913 57.1428C31.5803 57.639 32.8386 57.659 33.9455 57.2017C35.0503 56.7444 35.9249 55.8383 36.3453 54.7177L37.4754 51.7081Z" fill="url(#paint1_linear_3373_2675)"/>
</g>
<g filter="url(#filter2_b_3373_2675)">
<path d="M25.5306 38.7292L24.7891 38.7295L24.7897 37.2487L27.3805 37.2478C27.9942 37.2476 28.4919 36.7499 28.4921 36.1362C28.4923 35.5226 27.995 35.0253 27.3813 35.0255L23.6783 35.0268C23.0646 35.027 22.567 35.5247 22.5667 36.1383L22.5654 39.8414C22.5652 40.4551 23.0625 40.9524 23.6762 40.9522L25.5277 40.9515C25.9361 40.9514 26.268 41.2832 26.2678 41.6916C26.2677 42.1001 25.9356 42.4322 25.5272 42.4323L23.6756 42.433C23.062 42.4332 22.5643 42.9308 22.5641 43.5445C22.563 43.8513 22.6875 44.1288 22.8885 44.3298C23.0895 44.5308 23.367 44.6553 23.6738 44.6542L25.5253 44.6535C26.3171 44.6532 27.0607 44.3451 27.6202 43.7857C28.1796 43.2262 28.4909 42.4815 28.4912 41.6898C28.4917 40.0582 27.1622 38.7287 25.5306 38.7292Z" fill="url(#paint2_linear_3373_2675)"/>
</g>
<g filter="url(#filter3_b_3373_2675)">
<path d="M20.5618 42.2775L17.9709 42.2765L17.9696 41.5361C17.9694 41.1277 18.3023 40.7948 18.7097 40.796C19.5004 40.7952 20.2449 40.4886 20.804 39.9296C21.363 39.3705 21.6717 38.626 21.6714 37.8343C21.6698 36.1995 20.3371 34.8689 18.7076 34.8704L16.856 34.8698C16.2423 34.8696 15.745 35.3668 15.7452 35.9805C15.7454 36.5942 16.2431 37.0919 16.8568 37.0921L18.7084 37.0928C19.1158 37.0919 19.4489 37.425 19.4501 37.8345C19.4502 38.0335 19.3717 38.2188 19.2325 38.3581C19.0932 38.4973 18.9079 38.5737 18.71 38.5747C17.9182 38.5744 17.1748 38.882 16.6147 39.4421C16.0556 40.0012 15.748 40.7446 15.7483 41.5364L15.749 43.3879C15.7491 43.6938 15.8727 43.9724 16.0739 44.1735C16.275 44.3747 16.5526 44.4994 16.8595 44.4985L20.5626 44.4998C21.1764 44.5 21.6736 44.0027 21.6734 43.389C21.6721 42.7743 21.1755 42.2777 20.5618 42.2775Z" fill="url(#paint3_linear_3373_2675)"/>
</g>
<g filter="url(#filter4_b_3373_2675)">
<path d="M29.976 38.3779C30.3272 38.7291 30.8122 38.9486 31.3466 38.9475C32.4153 38.9476 33.2854 38.0776 33.2864 37.0077C33.2885 35.939 32.4161 35.0665 31.3462 35.0675C30.2774 35.0674 29.4074 35.9375 29.4064 37.0073C29.4053 37.5417 29.6238 38.0256 29.976 38.3779Z" fill="url(#paint4_linear_3373_2675)"/>
</g>
<g filter="url(#filter5_b_3373_2675)">
<path d="M37.0428 35.3234C36.5861 34.9629 35.9039 35.0545 35.5188 35.5311L29.5672 42.8884C29.2074 43.3317 29.2346 43.9507 29.6094 44.3255L29.6981 44.4038C30.1548 44.7643 30.837 44.6727 31.2221 44.1961L37.1737 36.8388C37.5598 36.3632 37.5201 35.6752 37.0428 35.3234Z" fill="url(#paint5_linear_3373_2675)"/>
</g>
<g filter="url(#filter6_b_3373_2675)">
<path d="M35.6115 40.8839C34.5427 40.8838 33.6727 41.7539 33.6717 42.8237C33.6706 43.3581 33.8902 43.8431 34.2413 44.1943C34.5925 44.5455 35.0775 44.765 35.6119 44.7639C36.6806 44.764 37.5507 43.894 37.5517 42.8241C37.5527 41.7543 36.6803 40.8818 35.6115 40.8839Z" fill="url(#paint6_linear_3373_2675)"/>
</g>
<defs>
<filter id="filter0_di_3373_2675" x="-7.63241" y="0.420519" width="76.8973" height="73.5993" filterUnits="userSpaceOnUse" color-interpolation-filters="sRGB">
<feFlood flood-opacity="0" result="BackgroundImageFix"/>
<feColorMatrix in="SourceAlpha" type="matrix" values="0 0 0 0 0 0 0 0 0 0 0 0 0 0 0 0 0 0 127 0" result="hardAlpha"/>
<feOffset dx="8.24477" dy="-4.94686"/>
<feGaussianBlur stdDeviation="8.24477"/>
<feColorMatrix type="matrix" values="0 0 0 0 1 0 0 0 0 0.173096 0 0 0 0 0.502901 0 0 0 0.4 0"/>
<feBlend mode="normal" in2="BackgroundImageFix" result="effect1_dropShadow_3373_2675"/>
<feBlend mode="normal" in="SourceGraphic" in2="effect1_dropShadow_3373_2675" result="shape"/>
<feColorMatrix in="SourceAlpha" type="matrix" values="0 0 0 0 0 0 0 0 0 0 0 0 0 0 0 0 0 0 127 0" result="hardAlpha"/>
<feOffset dx="-16.4895" dy="16.4895"/>
<feGaussianBlur stdDeviation="16.4895"/>
<feComposite in2="hardAlpha" operator="arithmetic" k2="-1" k3="1"/>
<feColorMatrix type="matrix" values="0 0 0 0 1 0 0 0 0 1 0 0 0 0 1 0 0 0 0.24 0"/>
<feBlend mode="normal" in2="shape" result="effect2_innerShadow_3373_2675"/>
</filter>
<filter id="filter1_b_3373_2675" x="-12.5793" y="0.420521" width="78.5463" height="78.5462" filterUnits="userSpaceOnUse" color-interpolation-filters="sRGB">
<feFlood flood-opacity="0" result="BackgroundImageFix"/>
<feGaussianBlur in="BackgroundImageFix" stdDeviation="10.7182"/>
<feComposite in2="SourceAlpha" operator="in" result="effect1_backgroundBlur_3373_2675"/>
<feBlend mode="normal" in="SourceGraphic" in2="effect1_backgroundBlur_3373_2675" result="shape"/>
</filter>
<filter id="filter2_b_3373_2675" x="-10.0849" y="2.37634" width="71.2261" height="74.927" filterUnits="userSpaceOnUse" color-interpolation-filters="sRGB">
<feFlood flood-opacity="0" result="BackgroundImageFix"/>
<feGaussianBlur in="BackgroundImageFix" stdDeviation="16.3245"/>
<feComposite in2="SourceAlpha" operator="in" result="effect1_backgroundBlur_3373_2675"/>
<feBlend mode="normal" in="SourceGraphic" in2="effect1_backgroundBlur_3373_2675" result="shape"/>
</filter>
<filter id="filter3_b_3373_2675" x="-16.9038" y="2.22058" width="71.2263" height="74.9285" filterUnits="userSpaceOnUse" color-interpolation-filters="sRGB">
<feFlood flood-opacity="0" result="BackgroundImageFix"/>
<feGaussianBlur in="BackgroundImageFix" stdDeviation="16.3245"/>
<feComposite in2="SourceAlpha" operator="in" result="effect1_backgroundBlur_3373_2675"/>
<feBlend mode="normal" in="SourceGraphic" in2="effect1_backgroundBlur_3373_2675" result="shape"/>
</filter>
<filter id="filter4_b_3373_2675" x="-3.24267" y="2.41833" width="69.1781" height="69.1785" filterUnits="userSpaceOnUse" color-interpolation-filters="sRGB">
<feFlood flood-opacity="0" result="BackgroundImageFix"/>
<feGaussianBlur in="BackgroundImageFix" stdDeviation="16.3245"/>
<feComposite in2="SourceAlpha" operator="in" result="effect1_backgroundBlur_3373_2675"/>
<feBlend mode="normal" in="SourceGraphic" in2="effect1_backgroundBlur_3373_2675" result="shape"/>
</filter>
<filter id="filter5_b_3373_2675" x="-3.33683" y="2.45446" width="73.421" height="74.8186" filterUnits="userSpaceOnUse" color-interpolation-filters="sRGB">
<feFlood flood-opacity="0" result="BackgroundImageFix"/>
<feGaussianBlur in="BackgroundImageFix" stdDeviation="16.3245"/>
<feComposite in2="SourceAlpha" operator="in" result="effect1_backgroundBlur_3373_2675"/>
<feBlend mode="normal" in="SourceGraphic" in2="effect1_backgroundBlur_3373_2675" result="shape"/>
</filter>
<filter id="filter6_b_3373_2675" x="1.02264" y="8.23474" width="69.1781" height="69.1785" filterUnits="userSpaceOnUse" color-interpolation-filters="sRGB">
<feFlood flood-opacity="0" result="BackgroundImageFix"/>
<feGaussianBlur in="BackgroundImageFix" stdDeviation="16.3245"/>
<feComposite in2="SourceAlpha" operator="in" result="effect1_backgroundBlur_3373_2675"/>
<feBlend mode="normal" in="SourceGraphic" in2="effect1_backgroundBlur_3373_2675" result="shape"/>
</filter>
<linearGradient id="paint0_linear_3373_2675" x1="8.85714" y1="39.6937" x2="44.5306" y2="39.6937" gradientUnits="userSpaceOnUse">
<stop stop-color="#FF6A6A"/>
<stop offset="1" stop-color="#FF247B"/>
<stop offset="1" stop-color="#FE5196"/>
</linearGradient>
<linearGradient id="paint1_linear_3373_2675" x1="26.862" y1="43.2406" x2="-6.08011" y2="31.8528" gradientUnits="userSpaceOnUse">
<stop stop-color="#FF5295"/>
<stop offset="1" stop-color="#DC1906"/>
</linearGradient>
<linearGradient id="paint2_linear_3373_2675" x1="30.3572" y1="40.1156" x2="23.1837" y2="30.843" gradientUnits="userSpaceOnUse">
<stop stop-color="white"/>
<stop offset="1" stop-color="white" stop-opacity="0.61"/>
</linearGradient>
<linearGradient id="paint3_linear_3373_2675" x1="23.5983" y1="40.9137" x2="16.07" y2="30.7326" gradientUnits="userSpaceOnUse">
<stop stop-color="white"/>
<stop offset="1" stop-color="white" stop-opacity="0.61"/>
</linearGradient>
<linearGradient id="paint4_linear_3373_2675" x1="33.3993" y1="37.3077" x2="30.455" y2="33.4185" gradientUnits="userSpaceOnUse">
<stop stop-color="white"/>
<stop offset="1" stop-color="white" stop-opacity="0.61"/>
</linearGradient>
<linearGradient id="paint5_linear_3373_2675" x1="36.9403" y1="38.1762" x2="34.2611" y2="35.2917" gradientUnits="userSpaceOnUse">
<stop stop-color="white"/>
<stop offset="1" stop-color="white" stop-opacity="0.61"/>
</linearGradient>
<linearGradient id="paint6_linear_3373_2675" x1="37.6646" y1="43.1241" x2="34.7203" y2="39.2349" gradientUnits="userSpaceOnUse">
<stop stop-color="white"/>
<stop offset="1" stop-color="white" stop-opacity="0.61"/>
</linearGradient>
</defs>
</svg>
