<?xml version="1.0" encoding="UTF-8"?>
<svg xmlns="http://www.w3.org/2000/svg" xmlns:xlink="http://www.w3.org/1999/xlink" version="1.1" viewBox="0 0 57 57">
  <defs>
    <style>
      .cls-1 {
        fill: url(#linear-gradient-3);
      }

      .cls-2 {
        fill: none;
        stroke: url(#linear-gradient-2);
        stroke-width: 3px;
      }

      .cls-3 {
        fill: url(#radial-gradient);
      }

      .cls-4 {
        fill: url(#linear-gradient);
      }

      .cls-5 {
        fill: #313036;
        fill-opacity: .3;
      }
    </style>
    <linearGradient id="linear-gradient" x1="3.4" y1="55.4" x2="29.1" y2="28.9" gradientTransform="translate(0 58) scale(1 -1)" gradientUnits="userSpaceOnUse">
      <stop offset="0" stop-color="#b1b1b1" stop-opacity=".3"/>
      <stop offset="1" stop-color="#363567" stop-opacity=".2"/>
    </linearGradient>
    <linearGradient id="linear-gradient-2" x1="20.1" y1="68.9" x2="35.6" y2="-3.8" gradientTransform="translate(0 58) scale(1 -1)" gradientUnits="userSpaceOnUse">
      <stop offset="0" stop-color="#fff" stop-opacity=".2"/>
      <stop offset="1" stop-color="#fff" stop-opacity="0"/>
    </linearGradient>
    <linearGradient id="linear-gradient-3" x1="37.9" y1="29" x2="4.3" y2="32.5" gradientTransform="translate(0 58) scale(1 -1)" gradientUnits="userSpaceOnUse">
      <stop offset="0" stop-color="#fff"/>
      <stop offset=".8" stop-color="#fff" stop-opacity=".6"/>
    </linearGradient>
    <radialGradient id="radial-gradient" cx="-803.3" cy="1083.3" fx="-803.3" fy="1083.3" r="1" gradientTransform="translate(-4854.9 9649.1) rotate(63.4) scale(8 -8)" gradientUnits="userSpaceOnUse">
      <stop offset="0" stop-color="#ffe974"/>
      <stop offset="1" stop-color="#ffab48"/>
    </radialGradient>
  </defs>
  <!-- Generator: Adobe Illustrator 28.7.0, SVG Export Plug-In . SVG Version: 1.2.0 Build 45)  -->
  <g>
    <g id="Layer_1">
      <g>
        <rect class="cls-5" width="57" height="57" rx="12" ry="12"/>
        <rect class="cls-4" width="57" height="57" rx="12" ry="12"/>
        <rect class="cls-2" x="1.5" y="1.5" width="54" height="54" rx="10.5" ry="10.5"/>
      </g>
      <path class="cls-1" d="M27.7,10.1c-7.5,0-13.4,11.2-13.4,20.7s5.2,14.9,13.4,14.9,13.4-5.9,13.4-14.9-5.8-20.7-13.4-20.7Z"/>
      <path class="cls-3" d="M33.7,26.4c-.1-.3-.4-.5-.7-.6l-3-.5-1.3-2.8c-.3-.6-1.3-.6-1.6,0l-1.3,2.8-3,.5c-.3,0-.6.3-.7.6-.1.3,0,.7.2.9l2.2,2.2-.5,3.2c0,.3,0,.7.4.9.3.2.6.2.9,0l2.6-1.5,2.6,1.5c.1,0,.3.1.4.1s.4,0,.5-.2c.3-.2.4-.5.4-.9l-.5-3.2,2.2-2.2c.2-.2.3-.6.2-.9Z"/>
    </g>
  </g>
</svg>