<?xml version="1.0" encoding="UTF-8"?>
<svg xmlns="http://www.w3.org/2000/svg" xmlns:xlink="http://www.w3.org/1999/xlink" version="1.1" viewBox="0 0 57 57">
  <defs>
    <style>
      .cls-1 {
        fill: url(#linear-gradient-8);
      }

      .cls-2 {
        fill: url(#linear-gradient-7);
      }

      .cls-3 {
        fill: url(#linear-gradient-5);
      }

      .cls-4 {
        fill: url(#linear-gradient-6);
      }

      .cls-5 {
        fill: url(#linear-gradient-9);
      }

      .cls-6 {
        fill: url(#linear-gradient-4);
      }

      .cls-7 {
        fill: url(#linear-gradient-3);
      }

      .cls-8 {
        fill: none;
        stroke: url(#linear-gradient-2);
        stroke-width: 3px;
      }

      .cls-9 {
        fill: url(#linear-gradient);
      }

      .cls-10 {
        fill: #313036;
        fill-opacity: .3;
      }
    </style>
    <linearGradient id="linear-gradient" x1="3.4" y1="47.4" x2="29.1" y2="20.9" gradientTransform="translate(0 50) scale(1 -1)" gradientUnits="userSpaceOnUse">
      <stop offset="0" stop-color="#b1b1b1" stop-opacity=".3"/>
      <stop offset="1" stop-color="#363567" stop-opacity=".2"/>
    </linearGradient>
    <linearGradient id="linear-gradient-2" x1="20.1" y1="60.9" x2="35.6" y2="-11.8" gradientTransform="translate(0 50) scale(1 -1)" gradientUnits="userSpaceOnUse">
      <stop offset="0" stop-color="#fff" stop-opacity=".2"/>
      <stop offset="1" stop-color="#fff" stop-opacity="0"/>
    </linearGradient>
    <linearGradient id="linear-gradient-3" x1="10.9" y1="21.3" x2="46.5" y2="21.3" gradientTransform="translate(0 50) scale(1 -1)" gradientUnits="userSpaceOnUse">
      <stop offset="0" stop-color="#ff6a6a"/>
      <stop offset="1" stop-color="#ff247b"/>
      <stop offset="1" stop-color="#fe5196"/>
    </linearGradient>
    <linearGradient id="linear-gradient-4" x1="29.9" y1="20.9" x2="-3" y2="32.3" gradientTransform="translate(0 50) scale(1 -1)" gradientUnits="userSpaceOnUse">
      <stop offset="0" stop-color="#ff5295"/>
      <stop offset="1" stop-color="#dc1906"/>
    </linearGradient>
    <linearGradient id="linear-gradient-5" x1="29.5" y1="18.7" x2="22.3" y2="27.9" gradientTransform="translate(0 50) scale(1 -1)" gradientUnits="userSpaceOnUse">
      <stop offset="0" stop-color="#fff"/>
      <stop offset="1" stop-color="#fff" stop-opacity=".6"/>
    </linearGradient>
    <linearGradient id="linear-gradient-6" x1="22.7" y1="18" x2="15.2" y2="28.1" gradientTransform="translate(0 50) scale(1 -1)" gradientUnits="userSpaceOnUse">
      <stop offset="0" stop-color="#fff"/>
      <stop offset="1" stop-color="#fff" stop-opacity=".6"/>
    </linearGradient>
    <linearGradient id="linear-gradient-7" x1="34.2" y1="22.8" x2="31.3" y2="26.7" gradientTransform="translate(0 50) scale(1 -1)" gradientUnits="userSpaceOnUse">
      <stop offset="0" stop-color="#fff"/>
      <stop offset="1" stop-color="#fff" stop-opacity=".6"/>
    </linearGradient>
    <linearGradient id="linear-gradient-8" x1="36.2" y1="20.3" x2="33.5" y2="23.1" gradientTransform="translate(0 50) scale(1 -1)" gradientUnits="userSpaceOnUse">
      <stop offset="0" stop-color="#fff"/>
      <stop offset="1" stop-color="#fff" stop-opacity=".6"/>
    </linearGradient>
    <linearGradient id="linear-gradient-9" x1="38.5" y1="17" x2="35.6" y2="20.9" gradientTransform="translate(0 50) scale(1 -1)" gradientUnits="userSpaceOnUse">
      <stop offset="0" stop-color="#fff"/>
      <stop offset="1" stop-color="#fff" stop-opacity=".6"/>
    </linearGradient>
  </defs>
  <!-- Generator: Adobe Illustrator 28.7.0, SVG Export Plug-In . SVG Version: 1.2.0 Build 45)  -->
  <g>
    <g id="Layer_1">
      <g>
        <rect class="cls-10" width="57" height="57" rx="18" ry="18"/>
        <rect class="cls-9" width="57" height="57" rx="18" ry="18"/>
        <rect class="cls-8" x="1.5" y="1.5" width="54" height="54" rx="16.5" ry="16.5"/>
      </g>
      <path class="cls-7" d="M39.5,40.7c.2-.6.7-1,1.2-1.2l3-1.1c1.1-.4,2-1.3,2.5-2.4.5-1.1.4-2.4,0-3.5l-1.3-2.9c-.3-.6-.3-1.2,0-1.7l1.3-2.9c.5-1.1.5-2.3,0-3.5-.5-1.1-1.4-2-2.5-2.4l-3-1.1c-.6-.2-1-.7-1.2-1.2l-1.1-3c-.4-1.1-1.3-2-2.4-2.5-1.1-.5-2.4-.4-3.5,0l-2.9,1.3c-.6.3-1.2.3-1.7,0l-2.9-1.3c-1.1-.5-2.3-.5-3.5,0-1.1.5-2,1.4-2.4,2.5l-1.1,3c-.2.6-.7,1-1.2,1.2l-3,1.1c-1.1.4-2,1.3-2.5,2.4-.5,1.1-.4,2.4,0,3.5l1.3,2.9c.3.6.3,1.2,0,1.7l-1.3,2.9c-.5,1.1-.5,2.3,0,3.5.2.5.5,1,.9,1.4.4.4,1,.8,1.5,1l3,1.1c.6.2,1,.7,1.2,1.2l1.1,3c.4,1.1,1.3,2,2.4,2.5,1.1.5,2.4.4,3.5,0l2.9-1.3c.6-.3,1.2-.3,1.7,0l2.9,1.3c1.1.5,2.3.5,3.5,0,1.1-.5,2-1.4,2.4-2.5l1.1-3Z"/>
      <path class="cls-6" d="M39.5,40.7c.2-.6.7-1,1.2-1.2l3-1.1c1.1-.4,2-1.3,2.5-2.4.5-1.1.4-2.4,0-3.5l-1.3-2.9c-.3-.6-.3-1.2,0-1.7l1.3-2.9c.5-1.1.5-2.3,0-3.5-.5-1.1-1.4-2-2.5-2.4l-3-1.1c-.6-.2-1-.7-1.2-1.2l-1.1-3c-.4-1.1-1.3-2-2.4-2.5-1.1-.5-2.4-.4-3.5,0l-2.9,1.3c-.6.3-1.2.3-1.7,0l-2.9-1.3c-1.1-.5-2.3-.5-3.5,0-1.1.5-2,1.4-2.4,2.5l-1.1,3c-.2.6-.7,1-1.2,1.2l-3,1.1c-1.1.4-2,1.3-2.5,2.4-.5,1.1-.4,2.4,0,3.5l1.3,2.9c.3.6.3,1.2,0,1.7l-1.3,2.9c-.5,1.1-.5,2.3,0,3.5.2.5.5,1,.9,1.4.4.4,1,.8,1.5,1l3,1.1c.6.2,1,.7,1.2,1.2l1.1,3c.4,1.1,1.3,2,2.4,2.5,1.1.5,2.4.4,3.5,0l2.9-1.3c.6-.3,1.2-.3,1.7,0l2.9,1.3c1.1.5,2.3.5,3.5,0,1.1-.5,2-1.4,2.4-2.5l1.1-3Z"/>
      <path class="cls-3" d="M27.5,27.7h-.7s0-1.5,0-1.5h2.6c.6,0,1.1-.5,1.1-1.1,0-.6-.5-1.1-1.1-1.1h-3.7c-.6,0-1.1.5-1.1,1.1v3.7c0,.6.5,1.1,1.1,1.1h1.9c.4,0,.7.3.7.7,0,.4-.3.7-.7.7h-1.9c-.6,0-1.1.5-1.1,1.1,0,.3.1.6.3.8.2.2.5.3.8.3h1.9c.8,0,1.5-.3,2.1-.9.6-.6.9-1.3.9-2.1,0-1.6-1.3-3-3-3Z"/>
      <path class="cls-4" d="M22.6,31.3h-2.6s0-.7,0-.7c0-.4.3-.7.7-.7.8,0,1.5-.3,2.1-.9.6-.6.9-1.3.9-2.1,0-1.6-1.3-3-3-3h-1.9c-.6,0-1.1.5-1.1,1.1,0,.6.5,1.1,1.1,1.1h1.9c.4,0,.7.3.7.7,0,.2,0,.4-.2.5-.1.1-.3.2-.5.2-.8,0-1.5.3-2.1.9-.6.6-.9,1.3-.9,2.1v1.9c0,.3.1.6.3.8.2.2.5.3.8.3h3.7c.6,0,1.1-.5,1.1-1.1,0-.6-.5-1.1-1.1-1.1Z"/>
      <path class="cls-2" d="M32,27.4c.4.4.8.6,1.4.6,1.1,0,1.9-.9,1.9-1.9,0-1.1-.9-1.9-1.9-1.9-1.1,0-1.9.9-1.9,1.9,0,.5.2,1,.6,1.4Z"/>
      <path class="cls-1" d="M39,24.3c-.5-.4-1.1-.3-1.5.2l-6,7.4c-.4.4-.3,1.1,0,1.4h0c.5.4,1.1.3,1.5-.1l6-7.4c.4-.5.3-1.2-.1-1.5Z"/>
      <path class="cls-5" d="M37.6,29.9c-1.1,0-1.9.9-1.9,1.9,0,.5.2,1,.6,1.4.4.4.8.6,1.4.6,1.1,0,1.9-.9,1.9-1.9,0-1.1-.9-1.9-1.9-1.9Z"/>
    </g>
  </g>
</svg>