<?xml version="1.0" encoding="UTF-8"?>
<svg xmlns="http://www.w3.org/2000/svg" xmlns:xlink="http://www.w3.org/1999/xlink" version="1.1" viewBox="0 0 57 57">
  <defs>
    <style>
      .cls-1 {
        fill: url(#radial-gradient);
        fill-rule: evenodd;
      }

      .cls-2 {
        fill: url(#linear-gradient-4);
      }

      .cls-3 {
        fill: url(#linear-gradient-3);
      }

      .cls-4 {
        fill: none;
        stroke: url(#linear-gradient-2);
        stroke-width: 3px;
      }

      .cls-5 {
        fill: url(#linear-gradient);
      }

      .cls-6 {
        fill: #fff;
      }

      .cls-7 {
        fill: #313036;
        fill-opacity: .3;
      }

      .cls-8 {
        opacity: .8;
      }
    </style>
    <linearGradient id="linear-gradient" x1="3.4" y1="55.4" x2="29.1" y2="28.9" gradientTransform="translate(0 58) scale(1 -1)" gradientUnits="userSpaceOnUse">
      <stop offset="0" stop-color="#b1b1b1" stop-opacity=".3"/>
      <stop offset="1" stop-color="#363567" stop-opacity=".2"/>
    </linearGradient>
    <linearGradient id="linear-gradient-2" x1="20.1" y1="68.9" x2="35.6" y2="-3.8" gradientTransform="translate(0 58) scale(1 -1)" gradientUnits="userSpaceOnUse">
      <stop offset="0" stop-color="#fff" stop-opacity=".2"/>
      <stop offset="1" stop-color="#fff" stop-opacity="0"/>
    </linearGradient>
    <linearGradient id="linear-gradient-3" x1="8.9" y1="29.1" x2="47.3" y2="29.1" gradientTransform="translate(0 58) scale(1 -1)" gradientUnits="userSpaceOnUse">
      <stop offset="0" stop-color="#ff6a6a"/>
      <stop offset="1" stop-color="#ff247b"/>
      <stop offset="1" stop-color="#fe5196"/>
    </linearGradient>
    <linearGradient id="linear-gradient-4" x1="17.4" y1="29.3" x2="39.2" y2="29.3" gradientTransform="translate(0 58) scale(1 -1)" gradientUnits="userSpaceOnUse">
      <stop offset="0" stop-color="#fb8383"/>
      <stop offset="1" stop-color="#fe5196"/>
    </linearGradient>
    <radialGradient id="radial-gradient" cx="-965.9" cy="1075.2" fx="-965.9" fy="1075.2" r="1" gradientTransform="translate(-42089.7 -2079.8) rotate(134.8) scale(29.2 -29.2)" gradientUnits="userSpaceOnUse">
      <stop offset="0" stop-color="#47aafc"/>
      <stop offset="1" stop-color="#4561ff"/>
    </radialGradient>
  </defs>
  <!-- Generator: Adobe Illustrator 28.7.0, SVG Export Plug-In . SVG Version: 1.2.0 Build 45)  -->
  <g>
    <g id="Layer_1">
      <g>
        <rect class="cls-7" width="57" height="57" rx="12" ry="12"/>
        <rect class="cls-5" width="57" height="57" rx="12" ry="12"/>
        <rect class="cls-4" x="1.5" y="1.5" width="54" height="54" rx="10.5" ry="10.5"/>
      </g>
      <circle class="cls-3" cx="28.1" cy="28.9" r="19.2"/>
      <g class="cls-8">
        <circle class="cls-6" cx="28.1" cy="28.9" r="15.3"/>
      </g>
      <circle class="cls-2" cx="28.3" cy="28.7" r="10.9"/>
      <g class="cls-8">
        <circle class="cls-6" cx="28.3" cy="28.7" r="5.8"/>
      </g>
      <path class="cls-1" d="M43.4,15.5h4.6c.4,0,.8-.2,1.1-.5l4.3-4.3c.5-.5.6-1.1.3-1.7-.2-.6-.8-1-1.5-1h-3.7v-3.7c0-.6-.4-1.2-1-1.5-.6-.2-1.3-.1-1.7.3l-4.3,4.3c-.3.3-.5.7-.5,1.1v4.6s0,0,0,0l-14.2,14.2c-.6.6-.6,1.7,0,2.3.6.6,1.7.6,2.3,0l14.2-14.2s0,0,0,0Z"/>
    </g>
  </g>
</svg>