<?xml version="1.0" encoding="UTF-8"?>
<svg xmlns="http://www.w3.org/2000/svg" xmlns:xlink="http://www.w3.org/1999/xlink" version="1.1" viewBox="0 0 57 57">
  <defs>
    <style>
      .cls-1 {
        fill: url(#linear-gradient-4);
      }

      .cls-2 {
        fill: url(#linear-gradient-3);
      }

      .cls-3 {
        fill: none;
        stroke: url(#linear-gradient-2);
        stroke-width: 3px;
      }

      .cls-4 {
        fill: url(#linear-gradient);
      }

      .cls-5 {
        fill: #313036;
        fill-opacity: .3;
      }
    </style>
    <linearGradient id="linear-gradient" x1="3.4" y1="35.4" x2="29.1" y2="8.9" gradientTransform="translate(0 38) scale(1 -1)" gradientUnits="userSpaceOnUse">
      <stop offset="0" stop-color="#b1b1b1" stop-opacity=".3"/>
      <stop offset="1" stop-color="#363567" stop-opacity=".2"/>
    </linearGradient>
    <linearGradient id="linear-gradient-2" x1="20.1" y1="48.9" x2="35.6" y2="-23.8" gradientTransform="translate(0 38) scale(1 -1)" gradientUnits="userSpaceOnUse">
      <stop offset="0" stop-color="#fff" stop-opacity=".2"/>
      <stop offset="1" stop-color="#fff" stop-opacity="0"/>
    </linearGradient>
    <linearGradient id="linear-gradient-3" x1="40.4" y1="8.5" x2="1.8" y2="13.8" gradientTransform="translate(0 38) scale(1 -1)" gradientUnits="userSpaceOnUse">
      <stop offset="0" stop-color="#fff"/>
      <stop offset="1" stop-color="#fff" stop-opacity=".6"/>
    </linearGradient>
    <linearGradient id="linear-gradient-4" x1="43.2" y1="27.6" x2="19.7" y2="0" gradientTransform="translate(0 38) scale(1 -1)" gradientUnits="userSpaceOnUse">
      <stop offset="0" stop-color="#b2f763"/>
      <stop offset="1" stop-color="#26ab3f"/>
    </linearGradient>
  </defs>
  <!-- Generator: Adobe Illustrator 28.7.0, SVG Export Plug-In . SVG Version: 1.2.0 Build 45)  -->
  <g>
    <g id="Layer_1">
      <g>
        <rect class="cls-5" width="57" height="57" rx="12" ry="12"/>
        <rect class="cls-4" width="57" height="57" rx="12" ry="12"/>
        <rect class="cls-3" x="1.5" y="1.5" width="54" height="54" rx="10.5" ry="10.5"/>
      </g>
      <circle class="cls-2" cx="28.7" cy="27.9" r="15.5"/>
      <path class="cls-1" d="M27.9,11.6c-9.2,0-16.7,7.5-16.7,16.7s7.5,16.7,16.7,16.7,16.7-7.5,16.7-16.7-7.5-16.7-16.7-16.7ZM35.1,25.1l-8.3,9c-.4.4-.9.6-1.4.6s-.9-.2-1.3-.5l-4.5-3.8c-.8-.7-.9-1.9-.2-2.7.7-.8,1.9-.9,2.7-.2l3.1,2.6,7.1-7.6c.7-.8,1.9-.8,2.7-.1.8.7.8,1.9.1,2.7Z"/>
    </g>
  </g>
</svg>