<?xml version="1.0" encoding="UTF-8"?>
<svg xmlns="http://www.w3.org/2000/svg" xmlns:xlink="http://www.w3.org/1999/xlink" version="1.1" viewBox="0 0 57 57">
  <defs>
    <style>
      .cls-1 {
        fill: url(#radial-gradient-7);
      }

      .cls-2 {
        fill: url(#radial-gradient-6);
      }

      .cls-3 {
        fill: url(#radial-gradient-5);
      }

      .cls-4 {
        fill: url(#radial-gradient-4);
      }

      .cls-5 {
        fill: url(#radial-gradient-8);
      }

      .cls-6 {
        fill: url(#radial-gradient-3);
      }

      .cls-7 {
        fill: url(#radial-gradient-2);
      }

      .cls-8 {
        fill: url(#linear-gradient-3);
      }

      .cls-9 {
        fill: url(#radial-gradient);
      }

      .cls-10 {
        fill: url(#linear-gradient);
      }

      .cls-11 {
        fill: #313036;
        fill-opacity: .3;
      }

      .cls-12 {
        fill: none;
        stroke: url(#linear-gradient-2);
        stroke-width: 1.2px;
      }
    </style>
    <linearGradient id="linear-gradient" x1="3.4" y1="55.4" x2="29.1" y2="28.9" gradientTransform="translate(0 58) scale(1 -1)" gradientUnits="userSpaceOnUse">
      <stop offset="0" stop-color="#b1b1b1" stop-opacity=".3"/>
      <stop offset="1" stop-color="#363567" stop-opacity=".2"/>
    </linearGradient>
    <linearGradient id="linear-gradient-2" x1="20.1" y1="68.9" x2="35.6" y2="-3.8" gradientTransform="translate(0 58) scale(1 -1)" gradientUnits="userSpaceOnUse">
      <stop offset="0" stop-color="#fff" stop-opacity=".2"/>
      <stop offset="1" stop-color="#fff" stop-opacity="0"/>
    </linearGradient>
    <radialGradient id="radial-gradient" cx="-881.9" cy="1060.2" fx="-881.9" fy="1060.2" r="1" gradientTransform="translate(-8150.5 18480.9) rotate(64.3) scale(14.8 -14.5)" gradientUnits="userSpaceOnUse">
      <stop offset="0" stop-color="#ffe974"/>
      <stop offset="1" stop-color="#ffab48"/>
    </radialGradient>
    <radialGradient id="radial-gradient-2" cx="-526.6" cy="1177" fx="-526.6" fy="1177" r="1" gradientTransform="translate(-2359.8 2941.7) rotate(63.4) scale(2.9 -2.9)" gradientUnits="userSpaceOnUse">
      <stop offset="0" stop-color="#ffe974"/>
      <stop offset="1" stop-color="#ffab48"/>
    </radialGradient>
    <radialGradient id="radial-gradient-3" cx="-320.9" cy="1008.7" fx="-320.9" fy="1008.7" r="1" gradientTransform="translate(-1258.8 2435.5) rotate(42.7) scale(2.1 -2.6)" gradientUnits="userSpaceOnUse">
      <stop offset="0" stop-color="#ffe974"/>
      <stop offset="1" stop-color="#ffab48"/>
    </radialGradient>
    <radialGradient id="radial-gradient-4" cx="-526.6" cy="1177" fx="-526.6" fy="1177" r="1" gradientTransform="translate(-2359.8 2963.4) rotate(63.4) scale(2.9 -2.9)" gradientUnits="userSpaceOnUse">
      <stop offset="0" stop-color="#ffe974"/>
      <stop offset="1" stop-color="#ffab48"/>
    </radialGradient>
    <linearGradient id="linear-gradient-3" x1="28.3" y1="19.7" x2="30" y2="12.5" gradientTransform="translate(0 58) scale(1 -1)" gradientUnits="userSpaceOnUse">
      <stop offset="0" stop-color="#d7dde8"/>
      <stop offset="1" stop-color="#acafd0"/>
    </linearGradient>
    <radialGradient id="radial-gradient-5" cx="-604.6" cy="1445.8" fx="-604.6" fy="1445.8" r="1" gradientTransform="translate(-1995.5 2452.1) rotate(77) scale(3.2 -1.7)" gradientUnits="userSpaceOnUse">
      <stop offset="0" stop-color="#ffe974"/>
      <stop offset="1" stop-color="#ffab48"/>
    </radialGradient>
    <radialGradient id="radial-gradient-6" cx="-526.6" cy="1177" fx="-526.6" fy="1177" r="1" gradientTransform="translate(-2381.1 2941.7) rotate(63.4) scale(2.9 -2.9)" gradientUnits="userSpaceOnUse">
      <stop offset="0" stop-color="#ffe974"/>
      <stop offset="1" stop-color="#ffab48"/>
    </radialGradient>
    <radialGradient id="radial-gradient-7" cx="-320.9" cy="1008.7" fx="-320.9" fy="1008.7" r="1" gradientTransform="translate(-1289.5 2435.5) rotate(42.7) scale(2.1 -2.6)" gradientUnits="userSpaceOnUse">
      <stop offset="0" stop-color="#ffe974"/>
      <stop offset="1" stop-color="#ffab48"/>
    </radialGradient>
    <radialGradient id="radial-gradient-8" cx="-526.6" cy="1177" fx="-526.6" fy="1177" r="1" gradientTransform="translate(-2381.1 2963.4) rotate(63.4) scale(2.9 -2.9)" gradientUnits="userSpaceOnUse">
      <stop offset="0" stop-color="#ffe974"/>
      <stop offset="1" stop-color="#ffab48"/>
    </radialGradient>
  </defs>
  <!-- Generator: Adobe Illustrator 28.7.0, SVG Export Plug-In . SVG Version: 1.2.0 Build 45)  -->
  <g>
    <g id="Layer_1">
      <g>
        <rect class="cls-11" width="57" height="57" rx="18.2" ry="18.2"/>
        <rect class="cls-10" width="57" height="57" rx="18.2" ry="18.2"/>
        <rect class="cls-12" x=".6" y=".6" width="55.8" height="55.8" rx="17.6" ry="17.6"/>
      </g>
      <path class="cls-9" d="M39.4,27.9c0,3.2-1.5,6.2-4,8.2-1,.8-1.7,1.9-1.9,3h0s-9,0-9,0h-.1c-.2-1.2-.8-2.2-1.7-2.9-3.3-2.5-4.8-6.5-3.9-10.6.8-4,4-7.2,8-8,3.2-.7,6.4.1,8.8,2.1,2.5,2,3.9,5,3.9,8.1Z"/>
      <path class="cls-7" d="M38.6,19.4c-.3,0-.6-.1-.8-.3-.4-.4-.4-1.1,0-1.6l2-2c.4-.4,1.1-.4,1.6,0,.4.4.4,1.1,0,1.6l-2,2c-.2.2-.5.3-.8.3Z"/>
      <path class="cls-6" d="M45.7,29.1h-2.9c-.6,0-1.1-.5-1.1-1.2s.5-1.2,1.1-1.2h2.9c.6,0,1.1.5,1.1,1.2s-.5,1.2-1.1,1.2Z"/>
      <path class="cls-4" d="M40.6,41.1c-.3,0-.6-.1-.8-.3l-2-2c-.4-.4-.4-1.1,0-1.6s1.1-.4,1.6,0l2,2c.4.4.4,1.1,0,1.6s-.5.3-.8.3Z"/>
      <path class="cls-8" d="M33.5,39.2s0,0,0,0c0,.2,0,.5,0,.7v3.3c0,1.4-1.2,2.6-2.7,2.6h-3.8c-1.3,0-2.7-.9-2.7-3v-2.6c0-.3,0-.6,0-.9,0,0,0-.1,0-.1h9.1s0,0,0,0Z"/>
      <path class="cls-3" d="M28.9,15.1c-.6,0-1.2-.5-1.2-1.1v-2.9c0-.6.5-1.1,1.2-1.1s1.2.5,1.2,1.1v2.9c0,.6-.5,1.1-1.2,1.1Z"/>
      <path class="cls-2" d="M19.3,19.4c-.3,0-.6-.1-.8-.3l-2-2c-.4-.4-.4-1.1,0-1.6.4-.4,1.1-.4,1.6,0l2,2c.4.4.4,1.1,0,1.6-.2.2-.5.3-.8.3Z"/>
      <path class="cls-1" d="M15,29.1h-2.9c-.6,0-1.1-.5-1.1-1.2s.5-1.2,1.1-1.2h2.9c.6,0,1.1.5,1.1,1.2s-.5,1.2-1.1,1.2Z"/>
      <path class="cls-5" d="M17.2,41.1c-.3,0-.6-.1-.8-.3-.4-.4-.4-1.1,0-1.6l2-2c.4-.4,1.1-.4,1.6,0s.4,1.1,0,1.6l-2,2c-.2.2-.5.3-.8.3Z"/>
    </g>
  </g>
</svg>