<?xml version="1.0" encoding="UTF-8"?>
<svg xmlns="http://www.w3.org/2000/svg" xmlns:xlink="http://www.w3.org/1999/xlink" version="1.1" viewBox="0 0 42.3 42.3">
  <defs>
    <style>
      .cls-1 {
        fill: #ffdea9;
      }

      .cls-2 {
        fill: #fc6b00;
        fill-opacity: .4;
      }

      .cls-3 {
        fill: url(#linear-gradient-3);
      }

      .cls-4 {
        stroke: url(#linear-gradient-4);
        stroke-width: .1px;
      }

      .cls-4, .cls-5 {
        fill: none;
      }

      .cls-6 {
        fill: url(#linear-gradient);
        fill-rule: evenodd;
      }

      .cls-5 {
        stroke: url(#linear-gradient-2);
        stroke-width: .1px;
      }
    </style>
    <linearGradient id="linear-gradient" x1="14.1" y1="36.7" x2="39.5" y2="36.7" gradientTransform="translate(0 53.7) scale(1 -1)" gradientUnits="userSpaceOnUse">
      <stop offset="0" stop-color="#fc6b00"/>
      <stop offset="1" stop-color="#964000"/>
    </linearGradient>
    <linearGradient id="linear-gradient-2" x1="16.2" y1="38.6" x2="26.2" y2="19.2" gradientTransform="translate(0 53.7) scale(1 -1)" gradientUnits="userSpaceOnUse">
      <stop offset="0" stop-color="#fff"/>
      <stop offset=".8" stop-color="#fff" stop-opacity="0"/>
    </linearGradient>
    <linearGradient id="linear-gradient-3" x1="28.4" y1="1951.4" x2="28" y2="1946" gradientTransform="translate(-1928.5 -2.8) rotate(90) scale(1 -1)" gradientUnits="userSpaceOnUse">
      <stop offset="0" stop-color="#f9fffc"/>
      <stop offset="1" stop-color="#f7fbff" stop-opacity=".3"/>
    </linearGradient>
    <linearGradient id="linear-gradient-4" x1="25.5" y1="1945.8" x2="30.8" y2="1953.5" gradientTransform="translate(-1928.5 -2.7) rotate(90) scale(1 -1)" gradientUnits="userSpaceOnUse">
      <stop offset="0" stop-color="#fff"/>
      <stop offset="1" stop-color="#fff" stop-opacity="0"/>
    </linearGradient>
  </defs>
  <!-- Generator: Adobe Illustrator 28.7.0, SVG Export Plug-In . SVG Version: 1.2.0 Build 45)  -->
  <g>
    <g id="Layer_1">
      <rect class="cls-1" x="0" y="0" width="42.2" height="42.2" rx="10.9" ry="10.9" transform="translate(0 42.2) rotate(-89.9)"/>
      <path class="cls-6" d="M21.2,11.3c-2.3,0-4.2,1.9-4.2,4.2v8.5c0,.8-.6,1.4-1.4,1.4s-1.4-.6-1.4-1.4v-8.5c0-3.9,3.2-7.1,7.1-7.1s7.1,3.2,7.1,7.1v8.5c0,.8-.6,1.4-1.4,1.4s-1.4-.6-1.4-1.4v-8.5c0-2.3-1.9-4.2-4.2-4.2Z"/>
      <g>
        <rect class="cls-2" x="11.3" y="16.9" width="19.8" height="15.6" rx="4.2" ry="4.2"/>
        <rect class="cls-5" x="11.3" y="17" width="19.7" height="15.4" rx="4.2" ry="4.2"/>
      </g>
      <g>
        <path class="cls-3" d="M24,24v2.8c0,1.6-1.3,2.8-2.8,2.8h0c-1.6,0-2.8-1.3-2.8-2.8v-2.8c0-1.6,1.3-2.8,2.8-2.8h0c1.6,0,2.8,1.3,2.8,2.8Z"/>
        <rect class="cls-4" x="18.4" y="21.2" width="5.5" height="8.4" rx="2.8" ry="2.8"/>
      </g>
    </g>
  </g>
</svg>