<?xml version="1.0" encoding="UTF-8"?>
<svg xmlns="http://www.w3.org/2000/svg" xmlns:xlink="http://www.w3.org/1999/xlink" version="1.1" viewBox="0 0 41.9 41.9">
  <defs>
    <style>
      .cls-1 {
        mask: url(#mask);
      }

      .cls-2 {
        fill: #ffdea9;
      }

      .cls-3 {
        fill: #fc6b00;
        fill-opacity: .4;
      }

      .cls-4 {
        fill: url(#linear-gradient-5);
      }

      .cls-5 {
        fill: url(#linear-gradient-2);
      }

      .cls-6 {
        fill: url(#linear-gradient);
      }

      .cls-7 {
        fill: #fff;
      }

      .cls-8 {
        fill: none;
        stroke: url(#linear-gradient-4);
        stroke-miterlimit: 4;
        stroke-width: .1px;
      }

      .cls-9 {
        fill: url(#linear-gradient-3);
        fill-opacity: .9;
      }
    </style>
    <linearGradient id="linear-gradient" x1="423.4" y1="947" x2="440.3" y2="947" gradientTransform="translate(-920.5 -413.5) rotate(90) scale(1 -1)" gradientUnits="userSpaceOnUse">
      <stop offset="0" stop-color="#fc6b00"/>
      <stop offset="1" stop-color="#964000"/>
    </linearGradient>
    <mask id="mask" x="12.1" y="11.4" width="18" height="18.7" maskUnits="userSpaceOnUse">
      <g id="path-3-inside-1_3377_11741">
        <path class="cls-7" d="M22.7,12.1c.6-.6,1.6-.7,2.2,0l4.6,4.3c.6.6.7,1.6,0,2.2l-9,9.8c-.4.4-.9.7-1.4.9l-2.7.8-4.2-3.8.6-2.7c.1-.6.4-1.1.8-1.5l9-9.8Z"/>
      </g>
    </mask>
    <linearGradient id="linear-gradient-2" x1="12.7" y1="43.6" x2="25.6" y2="26.3" gradientTransform="translate(0 53.7) scale(1 -1)" gradientUnits="userSpaceOnUse">
      <stop offset="0" stop-color="#fff"/>
      <stop offset=".8" stop-color="#fff" stop-opacity="0"/>
    </linearGradient>
    <linearGradient id="linear-gradient-3" x1="-2326.1" y1="972.2" x2="-2335.2" y2="972.4" gradientTransform="translate(-946.8 -2313.6) rotate(-90)" gradientUnits="userSpaceOnUse">
      <stop offset="0" stop-color="#fcfdfe"/>
      <stop offset="1" stop-color="#fcfdfe" stop-opacity="0"/>
    </linearGradient>
    <linearGradient id="linear-gradient-4" x1="-2326.4" y1="972.8" x2="-2329.5" y2="972.3" gradientTransform="translate(-946.8 -2313.7) rotate(-90)" gradientUnits="userSpaceOnUse">
      <stop offset="0" stop-color="#fff"/>
      <stop offset="1" stop-color="#fff" stop-opacity="0"/>
    </linearGradient>
    <linearGradient id="linear-gradient-5" x1="10.8" y1="26.2" x2="18.3" y2="19.3" gradientTransform="translate(0 53.7) scale(1 -1)" gradientUnits="userSpaceOnUse">
      <stop offset="0" stop-color="#fc6b00"/>
      <stop offset="1" stop-color="#964000"/>
    </linearGradient>
  </defs>
  <!-- Generator: Adobe Illustrator 28.7.0, SVG Export Plug-In . SVG Version: 1.2.0 Build 45)  -->
  <g>
    <g id="Layer_1">
      <rect class="cls-2" x="0" y="0" width="41.8" height="41.8" rx="10.8" ry="10.8" transform="translate(0 41.8) rotate(-89.9)"/>
      <rect class="cls-6" x="21" y="9.9" width="11" height="9.4" rx="3" ry="3" transform="translate(-2.2 24.2) rotate(-47.3)"/>
      <g>
        <path class="cls-3" d="M22.7,12.1c.6-.6,1.6-.7,2.2,0l4.6,4.3c.6.6.7,1.6,0,2.2l-9,9.8c-.4.4-.9.7-1.4.9l-2.7.8-4.2-3.8.6-2.7c.1-.6.4-1.1.8-1.5l9-9.8Z"/>
        <g class="cls-1">
          <path class="cls-5" d="M24.9,12h0c0,.1,0,0,0,0ZM22.7,12.1h-.1c0,0,.1,0,.1,0ZM29.5,16.3h0c0,.1,0,0,0,0ZM29.6,18.5h.1c0,0-.1,0-.1,0ZM20.6,28.3h-.1c0,0,.1,0,.1,0ZM19.1,29.1h0c0,.1,0,0,0,0ZM16.5,29.9h0c0,.1,0,.2,0,.2h0s0-.2,0-.2ZM12.3,26.1h-.1s0,0,0,0h0c0,0,0,0,0,0ZM12.9,23.3h-.1s.1,0,.1,0ZM13.6,21.8h-.1c0,0,.1,0,.1,0ZM25,11.9c-.7-.6-1.8-.6-2.4,0l.2.2c.5-.6,1.4-.6,2,0l.2-.2ZM29.6,16.2l-4.6-4.3-.2.2,4.6,4.3.2-.2ZM29.7,18.6c.6-.7.6-1.8,0-2.4l-.2.2c.6.5.6,1.4,0,2l.2.2ZM20.7,28.3l9-9.8-.2-.2-9,9.8.2.2ZM19.2,29.3c.6-.2,1.1-.5,1.5-.9l-.2-.2c-.4.4-.8.7-1.4.8v.3ZM16.5,30.1l2.7-.8v-.3c0,0-2.8.8-2.8.8v.3ZM16.6,29.8l-4.2-3.8-.2.2,4.2,3.8.2-.2ZM13.5,21.8c-.4.4-.7,1-.8,1.6h.3c.1-.5.4-1,.7-1.4l-.2-.2ZM22.6,12l-9,9.8.2.2,9-9.8-.2-.2ZM12.4,26.1l.6-2.7h-.3c0,0-.6,2.7-.6,2.7h.3Z"/>
        </g>
      </g>
      <g>
        <rect class="cls-9" x="24.7" y="12.6" width="1.6" height="6.3" rx=".8" ry=".8" transform="translate(-3.4 23.8) rotate(-47.3)"/>
        <rect class="cls-8" x="24.7" y="12.7" width="1.5" height="6.2" rx=".7" ry=".7" transform="translate(-3.4 23.8) rotate(-47.3)"/>
      </g>
      <path class="cls-4" d="M16.3,29.9l-4.2-3.8-.9,4.1c-.1.6.4,1.1,1,.9l4-1.2Z"/>
    </g>
  </g>
</svg>