<svg width="64" height="64" viewBox="0 0 64 64" fill="none" xmlns="http://www.w3.org/2000/svg">
<rect width="64" height="64" rx="32" fill="#FC6B00"/>
<path d="M32 20.6667V43.3333M26.3333 38.0104L27.9937 39.2552C30.2056 40.9156 33.7926 40.9156 36.0063 39.2552C38.2201 37.5949 38.2201 34.9051 36.0063 33.2448C34.9013 32.4137 33.4507 32 32 32C30.6306 32 29.2611 31.5844 28.2166 30.7552C26.1274 29.0949 26.1274 26.4051 28.2166 24.7448C30.3057 23.0844 33.6943 23.0844 35.7834 24.7448L36.5673 25.3681M49 32C49 34.2325 48.5603 36.4431 47.706 38.5056C46.8516 40.5682 45.5994 42.4422 44.0208 44.0208C42.4422 45.5994 40.5682 46.8516 38.5056 47.706C36.4431 48.5603 34.2325 49 32 49C29.7675 49 27.5569 48.5603 25.4944 47.706C23.4318 46.8516 21.5578 45.5994 19.9792 44.0208C18.4006 42.4422 17.1484 40.5682 16.294 38.5056C15.4397 36.4431 15 34.2325 15 32C15 27.4913 16.7911 23.1673 19.9792 19.9792C23.1673 16.7911 27.4913 15 32 15C36.5087 15 40.8327 16.7911 44.0208 19.9792C47.2089 23.1673 49 27.4913 49 32Z" stroke="#F8FAE5" stroke-width="3.5" stroke-linecap="round" stroke-linejoin="round"/>
</svg>
