<svg width="64" height="64" viewBox="0 0 64 64" fill="none" xmlns="http://www.w3.org/2000/svg">
<rect width="64" height="64" rx="32" fill="#FC6B00"/>
<path d="M32.0003 33.8899C37.2082 33.8899 41.4452 29.6529 41.4452 24.445C41.4452 19.237 37.2082 15 32.0003 15C26.7923 15 22.5553 19.237 22.5553 24.445C22.5553 29.6529 26.7923 33.8899 32.0003 33.8899ZM32.0003 18.778C35.1247 18.778 37.6672 21.3206 37.6672 24.445C37.6672 27.5693 35.1247 30.1119 32.0003 30.1119C28.8759 30.1119 26.3333 27.5693 26.3333 24.445C26.3333 21.3206 28.8759 18.778 32.0003 18.778ZM45.2232 42.2015V43.8373C45.2232 45.5166 44.6093 47.1261 43.4948 48.371C43.1227 48.7884 42.6051 49 42.0875 49C41.6379 49 41.1864 48.8413 40.8275 48.5183C40.0511 47.8213 39.985 46.6274 40.6801 45.8511C41.175 45.2995 41.4452 44.5835 41.4452 43.8373V42.2015C41.4452 40.0594 40.0285 38.2081 38.0016 37.6981C37.7541 37.6395 37.4991 37.6661 37.2951 37.7832C33.9931 39.6212 29.9866 39.6079 26.7281 37.7963C26.5033 37.6679 26.2445 37.6358 26.0046 37.6981C23.972 38.2081 22.5553 40.0594 22.5553 42.2015V43.8373C22.5553 44.5854 22.8274 45.2995 23.3204 45.8511C24.0156 46.6274 23.9494 47.8213 23.1731 48.5183C22.3986 49.2134 21.2065 49.1492 20.5057 48.371C19.3912 47.1261 18.7773 45.5147 18.7773 43.8373V42.2015C18.7773 38.3234 21.369 34.9648 25.0808 34.0354C26.2596 33.7313 27.5384 33.907 28.583 34.5077C30.6779 35.6694 33.298 35.6825 35.4382 34.4943C36.464 33.9049 37.7447 33.7426 38.9253 34.0354C42.6315 34.9648 45.2232 38.3253 45.2232 42.2015ZM41.5548 16.583C41.9004 15.5988 42.9848 15.085 43.9633 15.4326C46.9781 16.4961 49.0012 19.3598 49.0012 22.556C49.0012 24.7037 48.0831 26.757 46.4831 28.187C46.1242 28.51 45.6709 28.6687 45.2232 28.6687C44.7056 28.6687 44.188 28.4571 43.8159 28.0396C43.1208 27.2632 43.1869 26.0675 43.9633 25.3724C44.7642 24.6565 45.2232 23.6289 45.2232 22.556C45.2232 20.9579 44.2107 19.5261 42.7052 18.9915C41.721 18.6458 41.2053 17.5653 41.5548 16.583ZM50.8902 37.3543V38.7182C50.8902 39.7628 50.0458 40.6072 49.0012 40.6072C47.9566 40.6072 47.1122 39.7628 47.1122 38.7182V37.3543C47.1122 35.7146 46.0298 34.2961 44.479 33.907C43.4665 33.652 42.8526 32.6262 43.1057 31.6156C43.3607 30.6012 44.3958 29.9853 45.397 30.2422C48.6328 31.0545 50.8902 33.9787 50.8902 37.3543ZM17.5174 29.0277C15.9174 27.594 14.9993 25.5405 14.9993 23.3965C14.9993 20.2022 17.0243 17.3366 20.0373 16.2731C21.0158 15.9255 22.1001 16.4393 22.4458 17.4235C22.7952 18.4077 22.2795 19.4863 21.2954 19.832C19.7898 20.3647 18.7773 21.7984 18.7773 23.3965C18.7773 24.4694 19.2363 25.4953 20.0373 26.2131C20.8136 26.9102 20.8798 28.104 20.1846 28.8804C19.8106 29.2978 19.295 29.5094 18.7755 29.5094C18.3278 29.5094 17.8763 29.3507 17.5174 29.0277ZM19.5235 34.7456C17.9727 35.1348 16.8883 36.5533 16.8883 38.1929V39.5569C16.8883 40.6015 16.0421 41.4459 14.9993 41.4459C13.9566 41.4459 13.1104 40.6015 13.1104 39.5569V38.1929C13.1104 34.8192 15.3677 31.8931 18.6016 31.0809C19.6084 30.8296 20.6399 31.4399 20.893 32.4524C21.148 33.4649 20.5341 34.4906 19.5235 34.7456Z" fill="#F8FAE5"/>
</svg>
