<svg width="64" height="64" viewBox="0 0 64 64" fill="none" xmlns="http://www.w3.org/2000/svg">
<rect width="64" height="64" rx="32" fill="#FC6B00"/>
<path d="M49 26.9033C49 26.7197 48.9711 26.5361 48.9132 26.3627L47.0635 20.8122C45.904 17.3357 42.6634 15 38.9996 15H25.0003C21.3365 15 18.0943 17.3357 16.9365 20.8122L15.0866 26.3627C15.0288 26.5378 15 26.7197 15 26.9033C15.0034 28.6118 15.658 30.1556 16.7002 31.3507V42.2C16.7002 45.9502 19.7503 49 23.5009 49H30.3474V42.2C30.3474 41.2616 31.1108 40.5 32.0476 40.5C32.9844 40.5 33.7477 41.2616 33.7477 42.2V49H40.4991C44.2497 49 47.2998 45.9502 47.2998 42.2V31.3507C48.342 30.1556 48.9966 28.6118 49 26.9033ZM20.16 21.8884C20.8553 19.8008 22.8004 18.4 24.9987 18.4H38.9979C41.1962 18.4 43.1412 19.8008 43.8366 21.8884L45.5911 27.1499C45.4653 28.9366 44.027 30.3017 42.218 30.3017C40.6929 30.3017 39.1492 29.3073 38.7055 28.0391C38.4658 27.3591 37.823 26.9017 37.1005 26.9017H37.0937C36.3694 26.9051 35.7251 27.3658 35.4921 28.0526C35.062 29.314 33.5267 30.3017 31.9999 30.3017C30.4732 30.3017 28.9397 29.314 28.5079 28.0526C28.2732 27.3675 27.6306 26.9051 26.9063 26.9017H26.8994C26.1769 26.9017 25.5342 27.3591 25.2945 28.0391C24.8508 29.3073 23.3071 30.3017 21.782 30.3017C19.9713 30.3017 18.5329 28.9366 18.4071 27.1499L20.16 21.8884ZM40.4991 45.6H37.1447V42.2C37.1447 39.3882 34.8562 37.1 32.0442 37.1C29.2321 37.1 26.9436 39.3882 26.9436 42.2V45.6H23.4974C21.6221 45.6 20.0971 44.0751 20.0971 42.2V33.462C20.6394 33.6031 21.1954 33.7 21.7802 33.7C23.7031 33.7 25.5665 32.9011 26.8893 31.6244C28.2086 32.9011 30.0686 33.7 31.9966 33.7C33.9246 33.7 35.7863 32.9011 37.1039 31.6244C38.4283 32.9011 40.2917 33.7 42.2146 33.7C42.7994 33.7 43.3555 33.6031 43.8978 33.462V42.2C43.8995 44.0751 42.3744 45.6 40.4991 45.6Z" fill="#F8FAE5"/>
</svg>
