<svg width="64" height="64" viewBox="0 0 64 64" fill="none" xmlns="http://www.w3.org/2000/svg">
<rect width="64" height="64" rx="32" fill="#FC6B00"/>
<path d="M24.9568 23.8915C24.2139 23.1529 24.2139 21.959 24.9568 21.2205L30.6568 15.5539C31.3997 14.8154 32.6003 14.8154 33.3432 15.5539L39.0432 21.2205C39.7861 21.959 39.7861 23.1529 39.0432 23.8915C38.6727 24.2598 38.1864 24.4448 37.7 24.4448C37.2136 24.4448 36.7273 24.2598 36.3568 23.8915L33.9 21.449V30.1114C33.9 31.1559 33.0488 32.0003 32 32.0003C30.9512 32.0003 30.1 31.1559 30.1 30.1114V21.449L27.6432 23.8915C26.9003 24.63 25.6997 24.63 24.9568 23.8915ZM41.5 28.2225C40.4512 28.2225 39.6 29.0669 39.6 30.1114C39.6 31.1559 40.4512 32.0003 41.5 32.0003C44.6426 32.0003 47.2 34.5427 47.2 37.6668V39.5557C47.2 42.6799 44.6426 45.2223 41.5 45.2223H22.5C19.3574 45.2223 16.8 42.6799 16.8 39.5557V37.6668C16.8 34.5427 19.3574 32.0003 22.5 32.0003C23.5488 32.0003 24.4 31.1559 24.4 30.1114C24.4 29.0669 23.5488 28.2225 22.5 28.2225C17.2617 28.2225 13 32.4593 13 37.6668V39.5557C13 44.7633 17.2617 49 22.5 49H41.5C46.7383 49 51 44.7633 51 39.5557V37.6668C51 32.4593 46.7383 28.2225 41.5 28.2225ZM43.4 37.6668C43.4 36.6242 42.5488 35.778 41.5 35.778C40.4512 35.778 39.6 36.6242 39.6 37.6668C39.6 38.7095 40.4512 39.5557 41.5 39.5557C42.5488 39.5557 43.4 38.7095 43.4 37.6668Z" fill="#F8FAE5"/>
</svg>
