<?xml version="1.0" encoding="utf-8"?>
<!-- Generator: Adobe Illustrator 28.3.0, SVG Export Plug-In . SVG Version: 6.00 Build 0)  -->
<svg version="1.1" id="Layer_1" xmlns="http://www.w3.org/2000/svg" xmlns:xlink="http://www.w3.org/1999/xlink" x="0px" y="0px"
	 viewBox="0 0 2577.58 1065.15" style="enable-background:new 0 0 2577.58 1065.15;" xml:space="preserve">
<style type="text/css">
	.st0{fill:#FF4800;}
	.st1{fill:#FF5500;}
	.st2{fill:#FFFFD2;}
</style>
<g>
	<path class="st0" d="M1422.19,387.35c0-0.89-0.3-1.63-0.89-2.23c-9.51-7.42-19.02-11.14-28.53-11.14s-19.02,3.72-28.52,11.14
		c-7.14,5.65-14.57,13.53-22.29,23.63c-2.98,3.86-6.24,8.46-9.81,13.81l-4.46,6.69l-4.45,6.24l-19.17,30.76l-18.72,30.31
		c-16.35,26.45-29.28,46.8-38.78,61.07c-17.54,26.74-36.41,53.04-56.62,78.9l11.15-24.52c21.1-48.73,35.06-92.27,41.9-130.61
		c1.78-10.39,2.67-19.76,2.67-28.08c0-13.66-2.52-24.81-7.57-33.43c-5.65-9.81-15.16-16.79-28.53-20.95
		c-8.92-2.68-19.47-4.01-31.65-4.01h-4.01c-0.3-0.3-0.6-0.45-0.89-0.45c-0.3,0-0.6,0.15-0.9,0.45c-0.89,0.6-1.49,1.33-1.78,2.23
		c0,0.89,0.29,1.78,0.89,2.67c4.46,5.65,6.69,13.97,6.69,24.96c0,5.65-0.6,11.89-1.78,18.72c-1.19,6.84-2.98,15.01-5.35,24.52
		l-1.79,5.8l-1.33,4.9c-0.89,4.16-1.64,7.13-2.23,8.91c-2.85,12.33-6.57,26.67-11.16,43.02c-0.69,0.38-1.27,0.9-1.77,1.56
		c-38.33,54.09-65.16,87.97-80.46,101.63c-15.31,13.68-25.56,22.67-30.76,26.97c-5.2,4.31-8.54,6.46-10.02,6.46
		c-1.2,0-1.79-1.78-1.79-5.34c0-2.97,0.45-6.98,1.34-12.04c1.48-11.59,8.98-28.23,22.51-49.92c13.52-21.69,29.2-44.87,47.03-69.54
		l20.5-28.09c7.43-10.39,13.97-19.75,19.62-28.08l2.67-4.46l3.12-4.45c2.08-3.57,3.71-6.98,4.9-10.26
		c1.79-4.15,2.68-8.02,2.68-11.59c0-3.26-0.75-6.24-2.23-8.91c-6.24-10.1-15.46-18.12-27.64-24.07c-10.4-5.05-20.8-7.58-31.2-7.58
		h-4.46c-1.19,0.3-2.23,0.75-3.12,1.34c-1.49,0.3-2.67,1.04-3.56,2.23c-11.89,16.34-24.97,35.36-39.23,57.05v-1.33
		c0-21.99-6.39-40.12-19.17-54.39c-10.1-11.29-23.78-17.83-41.01-19.61c-3.56-0.59-7.28-0.89-11.14-0.89
		c-12.19,0-23.63,2.83-34.33,8.47c-53.29,26.49-98.26,72.23-134.91,137.23c-18.06,23.39-41.89,57.15-71.47,101.25
		c-31.5,46.96-52.31,70.43-62.41,70.43c-4.16,0-6.24-5.35-6.24-16.05c-0.3-0.59-0.44-1.18-0.44-1.78c0-10.1,1.18-19.02,3.56-26.75
		c2.08-8.31,8.1-24.44,18.06-48.36c9.95-23.92,27.56-51.93,52.82-84.03c5.35-6.53,11.73-13.82,19.17-21.84l10.69-10.25l10.26-10.25
		c18.12-17.83,31.2-32.25,39.22-43.24c4.46-5.94,6.69-12.93,6.69-20.95c0-3.57-0.45-7.43-1.34-11.59
		c-2.67-12.18-8.62-21.85-17.83-28.98c-3.56-2.67-7.88-4.01-12.92-4.01c-5.35,0-11.45,1.64-18.28,4.9l-8.02,4.02l-7.58,4.01
		c-6.24,3.27-11.15,5.65-14.71,7.13c-11.3,5.06-22.44,8.02-33.43,8.91h-4.46c-17.54,0-26.6-8.16-27.19-24.51
		c0-3.27,0.14-7.28,0.44-12.04l0.45-12.92v-5.8c0-7.72-0.89-13.82-2.68-18.27c-3.27-8.32-10.1-13.08-20.5-14.27
		c-1.78-0.29-3.42-0.44-4.9-0.44c-8.03,0-14.87,2.38-20.51,7.13c-14.26,11.89-23.48,28.83-27.64,50.81
		c-1.19,6.54-1.78,12.78-1.78,18.73c0,13.97,2.82,26.89,8.47,38.78c2.38,4.75,3.57,9.21,3.57,13.37c0,2.38-0.45,4.46-1.34,6.24
		c-2.08,5.65-10.41,19.1-24.96,40.34c-14.57,21.25-23.34,34.1-26.3,38.56c-6.01,8.17-9.85,15.08-11.52,20.75
		c-7.18,6.35-13.89,13.4-20.13,21.15c-9.22,11.3-24.6,33.43-46.14,66.42c-21.55,32.98-47.92,62.7-79.12,89.15
		s-59.88,39.67-86.03,39.67c-9.81,0-19.77-1.78-29.87-5.35c-22.58-7.73-37.29-26.9-44.13-57.5c-2.67-11.88-4.16-25.41-4.45-40.56
		v-8.03c0-8.61,0.29-18.27,0.89-28.97c2.67-41.6,11.59-82.17,26.74-121.69c38.34-96.88,89.6-178.15,153.79-243.83l5.35-5.35
		c2.67-2.97,5.35-5.64,8.02-8.03c7.43-6.83,14.41-12.48,20.95-16.93c10.7-7.43,19.62-11.15,26.75-11.15c5.05,0,9.2,2.08,12.48,6.24
		c2.97,4.17,4.46,9.52,4.46,16.05c0,7.43-1.94,16.65-5.8,27.64c-2.38,7.13-5.79,15.15-10.25,24.07c-1.49,2.97-3.12,6.39-4.9,10.25
		l-2.23,4.46l-1.79,3.56c-17.83,35.96-40.41,71.62-67.75,106.99c-1.19,1.19-3.12,3.71-5.8,7.57l-3.12,4.01l-3.12,4.46
		c-5.94,7.43-11.14,13.67-15.6,18.72c-13.67,14.27-25.85,21.7-36.55,22.29c-0.89,0-1.49,0.45-1.78,1.34c-0.6,0.6-0.9,1.19-0.9,1.78
		v5.8c0,16.04,3.13,29.72,9.37,41.01c8.31,13.97,20.95,22.28,37.89,24.96c2.37,0.3,4.6,0.45,6.68,0.45c8.32,0,17.23-1.63,26.75-4.91
		c9.5-3.26,19.76-8.47,30.75-15.6c46.06-28.53,87.82-76.96,125.26-145.32c16.34-29.71,27.93-57.05,34.77-82.02
		c5.64-20.2,8.47-39.07,8.47-56.61c0-10.99-1.04-21.39-3.12-31.2c-5.65-26.45-21.4-45.31-47.25-56.61
		c-15.75-6.83-33.43-10.25-53.05-10.25c-7.43,0-15.15,0.44-23.17,1.33c-38.94,4.76-78.61,21.11-119.02,49.04
		c-31.8,21.99-63.9,51.11-96.29,87.37c-74.29,83.51-120.95,176.52-139.96,279.04c-5.06,27.64-7.58,54.38-7.58,80.24
		c0,18.72,1.34,36.99,4.01,54.82c7.72,50.52,25.85,90.94,54.38,121.25c23.18,24.66,52.45,39.52,87.82,44.58
		c8.61,1.18,17.08,1.78,25.41,1.78c25.25,0,49.03-5.95,71.32-17.83c29.42-15.76,58.46-38.41,87.14-67.98s52.97-64.26,72.88-104.08
		c13.97-27.93,31.05-60.33,51.27-97.18l4.45-12.03l2.25-6.31c0.37-0.15,0.66-0.27,0.87-0.38c0.6,0,1.04-0.29,1.34-0.89h0.45
		c32.68-43.39,53.33-69.46,61.96-78.23c8.61-8.76,16.19-13.45,22.73-14.04c9.81,0,20.21-1.19,31.2-3.57
		c-40.71,37.15-71.47,74.89-92.27,113.22c-17.54,32.4-26.74,64.94-27.63,97.62v4.91c0,37.44,12.92,65.08,38.78,82.91
		c9.8,6.83,19.9,10.25,30.31,10.25c1.48,0.29,3.12,0.45,4.9,0.45c21.02,0,54.15-32.33,99.41-96.99c-0.01,0.23-0.01,0.47-0.01,0.7
		c0,35.96,16.94,57.35,50.82,64.19c4.16,0.89,8.32,1.34,12.48,1.34c17.83,0,35.66-7.58,53.49-22.74
		c20.21-17.23,43.53-41.45,69.99-72.65c-0.6,4.16-0.89,8.32-0.89,12.48c0,13.97,3.56,27.19,10.69,39.67
		c9.81,17.83,23.78,27.78,41.91,29.87c2.96,0.29,5.94,0.44,8.91,0.44c24.36,0,46.95-11.14,67.75-33.43
		c10.1-10.99,21.25-23.77,33.44-38.34l8.14-10.18l-5.91,17.76c-6.84,20.21-12.19,37.15-16.05,50.82l-0.45,1.78l-0.89,2.23l-1.78,4.9
		c-0.59,2.38-0.89,4.46-0.89,6.24c0,1.19,0.15,2.23,0.44,3.12c2.08,5.95,6.99,9.66,14.71,11.15c2.38,0.29,5.06,0.44,8.03,0.44
		c3.86,0,8.32-0.3,13.37-0.89c12.78-0.3,22.88-3.27,30.31-8.91c4.75-3.87,10.1-9.66,16.05-17.39l7.58-9.36l7.13-9.36
		c19.01-23.18,45.61-57.95,79.79-104.31l37.89-52.6l37.89-52.59c30.31-42.2,56.16-76.68,77.56-103.42c0.59-0.59,0.89-1.18,0.89-1.78
		C1422.64,388.39,1422.49,387.95,1422.19,387.35z M972.87,481.4c-1.19,8.03-3.27,17.39-6.24,28.09c-1.19,3.86-2.38,7.57-3.57,11.14
		c-0.3,1.19-0.59,2.38-0.89,3.57c-0.3,0.89-0.6,1.78-0.89,2.67c-7.43,20.81-15.9,41.16-25.41,61.07l-24.96,25.41l-14.71,14.71
		c-5.65,5.95-10.7,11-15.16,15.15c-11.88,11-23.03,19.32-33.43,24.97c-0.89,0.6-1.78,0.89-2.67,0.89c-2.68,0-4.01-2.68-4.01-8.03
		c0-3.56,0.59-8.31,1.78-14.26c0.89-5.94,2.37-12.48,4.46-19.61c0.89-2.68,1.63-5.2,2.23-7.58c0.59-2.08,1.03-3.57,1.33-4.46
		c10.7-27.64,27.79-58.84,51.27-93.61l6.24-8.91l6.24-9.36c5.05-6.84,9.65-12.78,13.82-17.83c10.99-13.08,21.98-23.03,32.98-29.87
		c2.68-1.48,4.9-2.23,6.69-2.23c4.46,0,6.68,4.17,6.68,12.48C974.65,469.97,974.06,475.16,972.87,481.4z"/>
	<path class="st0" d="M1689.65,387.35c0.29,0.6,0.45,1.04,0.45,1.34c0,0.6-0.3,1.19-0.89,1.78c-21.4,26.75-47.25,61.22-77.56,103.42
		l-37.89,52.6l-37.89,52.6c-34.18,46.36-60.78,81.13-79.79,104.31l-7.13,9.36l-7.58,9.36c-5.95,7.72-11.3,13.52-16.05,17.38
		c-7.43,5.64-17.53,8.62-30.31,8.92c-5.05,0.59-9.51,0.89-13.37,0.89c-2.97,0-5.64-0.15-8.02-0.45c-7.72-1.49-12.63-5.2-14.71-11.14
		c-0.29-0.89-0.45-1.94-0.45-3.12c0-1.78,0.3-3.87,0.89-6.24l1.78-4.9l0.89-2.23l0.45-1.78c3.87-13.67,9.21-30.6,16.05-50.82
		l8.47-25.41l8.02-24.96c18.13-56.17,30.76-99.7,37.89-130.61c0.59-1.78,1.34-4.75,2.23-8.92l1.34-4.9l1.78-5.79
		c2.38-9.51,4.16-17.68,5.35-24.52c1.18-6.83,1.78-13.07,1.78-18.72c0-10.99-2.23-19.31-6.69-24.96c-0.6-0.89-0.89-1.78-0.89-2.67
		c0.29-0.89,0.89-1.63,1.78-2.23c0.29-0.29,0.59-0.45,0.89-0.45c0.29,0,0.59,0.15,0.89,0.45h4.01c12.18,0,22.73,1.34,31.65,4.01
		c13.37,4.17,22.88,11.14,28.53,20.95c5.05,8.62,7.58,19.77,7.58,33.43c0,8.32-0.89,17.68-2.67,28.08
		c-6.84,38.34-20.8,81.87-41.9,130.61l-11.14,24.52c20.21-25.85,39.07-52.15,56.61-78.9c9.51-14.26,22.43-34.62,38.78-61.07
		l18.72-30.31l19.17-30.76l4.46-6.24l4.46-6.69c3.57-5.35,6.83-9.95,9.81-13.82c7.72-10.1,15.16-17.98,22.29-23.62
		c9.51-7.42,19.01-11.14,28.53-11.14c9.51,0,19.01,3.72,28.53,11.14C1689.35,385.72,1689.65,386.46,1689.65,387.35z"/>
	<path class="st0" d="M2471.95,354.36c-13.08-21.39-32.24-37.89-57.5-49.48c-0.89-0.29-1.64-0.44-2.23-0.44
		c-1.19,0-2.23,0.3-3.12,0.89c-1.78,1.19-2.83,2.67-3.12,4.46c-1.19,0.89-1.78,1.93-1.78,3.12c0,0.6,0.14,1.19,0.44,1.78
		c5.05,16.65,7.58,33.43,7.58,50.37c0,23.18-4.9,46.51-14.71,69.99c-15.75,38.04-41.61,69.09-77.56,93.16
		c-11.89,8.02-24.52,13.52-37.89,16.49c8.92-21.39,15.3-38.93,19.17-52.6c5.05-18.12,7.58-34.61,7.58-49.48v-4.45
		c-1.49-24.08-12.34-41.46-32.54-52.16c-11-5.64-22.44-8.47-34.33-8.47c-9.21,0-18.72,1.64-28.53,4.91
		c-22.88,8.02-40.41,24.22-52.6,48.58c-9.8,19.62-14.71,41.46-14.71,65.53v5.79c-2.97,0-5.79,0.3-8.46,0.9
		c-10.7,1.78-22.29,7.73-34.77,17.83c-4.76,3.86-9.81,8.32-15.16,13.37c-3.86,3.86-8.32,8.47-13.37,13.82
		c-12.76,13.68-23.27,29.03-31.55,46.03c-2.2,2.7-4.46,5.49-6.79,8.35c-31.2,38.34-54.53,63.01-69.98,74
		c-15.46,10.99-24.37,16.49-26.75,16.49c-4.16,0-6.84-11.44-8.02-34.32v-2.68c0-22.88,12.77-56.76,38.33-101.63
		c17.54-30.31,40.57-64.64,69.1-102.97c9.5-13.08,21.99-29.71,37.44-49.93l37.44-49.03l5.8-7.13
		c79.64-3.86,136.1-28.23,169.39-73.11c12.77-16.94,19.16-35.36,19.16-55.27c0-8.32-1.04-16.79-3.12-25.41
		c-8.02-31.49-27.63-47.99-58.84-49.48h-4.01c-21.1,0-43.54,6.84-67.31,20.51c-21.69,12.48-40.71,28.38-57.05,47.69l-2.68,3.12
		c-15.75,17.24-31.06,35.07-45.91,53.49c-36.85-2.67-79.35-8.61-127.49-17.83c-17.24-3.26-38.33-7.57-63.3-12.92l-31.2-6.69
		l-31.2-7.13l-33.43-7.13l-33.44-7.58c-27.33-5.94-50.21-10.55-68.64-13.82c-46.65-8.32-87.96-12.48-123.92-12.48h-13.38
		c-31.49,1.19-60.47,12.93-86.92,35.21c-26.74,22.89-42.34,49.64-46.8,80.24c-0.59,3.87-0.89,8.32-0.89,13.37
		c0,4.76,0.3,10.11,0.89,16.05c0.3,3.27,2.08,5.06,5.35,5.35c0.89,0.6,1.78,0.89,2.67,0.89c1.49,0,2.68-0.59,3.57-1.78
		c15.75-16.64,38.19-29.57,67.31-38.78c25.26-8.03,50.97-12.04,77.11-12.04c21.4,0,46.96,1.94,76.67,5.8l37.89,6.24l37.89,5.79
		l73.11,12.04l73.55,12.03c57.35,9.22,106.38,15.76,147.1,19.62c-32.1,44.28-64.49,93.16-97.18,146.65l2.23-0.45
		c-0.6,0.6-1.04,1.2-1.34,1.79c-12.78,20.8-23.48,40.12-32.09,57.95c-2.5,5.19-4.86,10.3-7.07,15.33
		c-12.85,17.18-27.88,34.65-45.09,52.42c-21.1,21.7-42.05,39.08-62.85,52.15c-21.99,13.98-40.27,21.11-54.83,21.4h-0.89
		c-9.8,0-20.21-5.35-31.2-16.05c-9.81-9.5-14.71-26.44-14.71-50.81v-8.47c3.27,14.86,13.52,24.67,30.76,29.42
		c4.45,1.19,9.06,1.78,13.82,1.78c9.8,0,20.05-2.52,30.75-7.58c6.24-2.96,12.93-6.98,20.06-12.03l9.36-6.69l8.92-6.69
		c25.25-19.61,46.36-41.74,63.3-66.41c19.9-28.82,31.2-56.91,33.87-84.25c0.3-1.78,0.45-3.57,0.45-5.35
		c0-22.58-11.89-43.24-35.66-61.96c-7.13-5.64-15.31-8.47-24.52-8.47c-3.86,0-7.88,0.45-12.03,1.34
		c-5.35,1.19-11.59,3.27-18.73,6.24l-8.91,4.46l-8.92,4.01c-57.65,27.04-105.35,69.24-143.08,126.59l-0.45,0.89
		c-0.89,0.9-1.49,1.79-1.78,2.68c-7.73,19.02-13.38,33.88-16.94,44.57c-5.64,16.65-9.21,31.65-10.7,45.03
		c-0.59,5.64-0.89,11.29-0.89,16.93c0,26.75,8.32,49.93,24.96,69.54c18.12,21.11,44.42,35.06,78.9,41.9
		c4.16,0.9,8.47,1.34,12.93,1.34c15.74,0,33.13-5.2,52.15-15.6c26.37-14.26,55.05-37.24,86.03-68.96v0.31
		c0,32.99,11,59.14,32.99,78.46c12.48,10.69,25.85,16.04,40.12,16.04c26.62,0,59.92-21.16,99.87-63.5
		c1.91,9.19,5.31,17.88,10.23,26.06c10.4,17.83,25.56,29.27,45.47,34.32c7.13,1.79,14.41,2.68,21.84,2.68
		c16.34,0,32.54-4.91,48.59-14.71c17.23-11,34.91-28.08,53.04-51.26c18.42-24.37,35.81-53.64,52.15-87.82
		c3.27,0.3,6.54,0.45,9.81,0.45c43.39,0,90.04-17.98,139.97-53.94c51.71-37.74,79.79-79.49,84.25-125.26
		c0.29-4.45,0.44-8.76,0.44-12.92C2488.89,393,2483.24,372.79,2471.95,354.36z M2200.93,245.6c1.19-1.19,2.82-2.52,4.91-4.01
		c2.07-1.79,4.3-3.57,6.68-5.35c6.54-4.46,12.33-7.73,17.39-9.81c4.45-2.08,8.02-3.12,10.7-3.12c5.04,0,7.57,3.12,7.57,9.36
		c0,1.78-0.15,3.72-0.44,5.8c-0.89,5.94-5.5,10.99-13.82,15.15c-2.98,1.49-6.54,2.98-10.7,4.46l-4.9,1.34l-4.46,1.33
		c-10.11,2.68-21.4,4.61-33.88,5.8C2186.52,259.42,2193.5,252.44,2200.93,245.6z M1689.65,567.44l4.46-7.14
		c15.74-25.55,36.84-50.07,63.29-73.55c10.4-8.91,21.99-17.75,34.77-26.52c12.78-8.76,25.56-14.63,38.34-17.61
		c-4.17,11.89-13.23,27.49-27.19,46.81c-5.65,7.43-12.34,15.45-20.06,24.07c-5.06,5.65-11.89,12.78-20.51,21.4
		c-26.74,26.74-50.52,40.11-71.32,40.11h-6.24L1689.65,567.44z M2142.54,668.62c-2.98,2.98-6.24,5.65-9.81,8.03
		c-4.16,2.97-7.88,4.9-11.14,5.79c-1.78,0.6-3.42,0.89-4.91,0.89c-5.64,0-8.46-4.6-8.46-13.82c0-11.88,3.12-25.55,9.36-41.01
		c2.67-6.24,5.79-12.92,9.36-20.06c2.67-5.04,5.94-11.14,9.8-18.27c6.84-11.88,15.75-23.03,26.75-33.43
		c9.51,13.97,21.84,25.26,37,33.87C2182.95,621.82,2163.64,647.82,2142.54,668.62z M2247.74,455.1c-0.89,21.4-8.03,48.15-21.4,80.24
		c-3.86-2.97-7.43-6.69-10.7-11.14c-4.75-6.54-7.13-14.56-7.13-24.07c0-2.97,0.29-6.24,0.89-9.81c1.49-11.88,5.5-23.03,12.04-33.43
		c0.59-0.89,1.93-2.52,4.01-4.91c2.38-2.67,4.75-5.05,7.13-7.13c4.75-3.86,8.32-5.79,10.7-5.79c1.18,0,2.08,0.44,2.67,1.33
		c1.19,1.79,1.79,4.17,1.79,7.14V455.1z"/>
</g>
</svg>
