<svg width="451" height="375" viewBox="0 0 451 375" fill="none" xmlns="http://www.w3.org/2000/svg">
<g filter="url(#filter0_d_3124_2229)">
<path d="M79.2909 83.2514C79.2909 53.2239 103.684 28.8818 133.774 28.8818H321.562C351.653 28.8818 376.046 53.2239 376.046 83.2513V189.449C376.046 219.477 351.653 243.819 321.562 243.819H133.774C103.684 243.819 79.2909 219.477 79.2909 189.449V83.2514Z" fill="url(#paint0_linear_3124_2229)"/>
<path d="M79.2909 83.2514C79.2909 53.2239 103.684 28.8818 133.774 28.8818H321.562C351.653 28.8818 376.046 53.2239 376.046 83.2513V189.449C376.046 219.477 351.653 243.819 321.562 243.819H133.774C103.684 243.819 79.2909 219.477 79.2909 189.449V83.2514Z" fill="url(#paint1_linear_3124_2229)"/>
<g filter="url(#filter1_bi_3124_2229)">
<path d="M41 55.4831C41 27.6021 63.6493 5 91.5887 5L169.216 5C187.574 5 204.641 14.4202 214.397 29.9374C224.392 45.8332 241.876 55.4831 260.681 55.4831H373.146C393.5 55.4831 410 71.9487 410 92.26V238.688C410 271.445 383.389 298 350.564 298H100.436C67.6105 298 41 271.445 41 238.688V55.4831Z" fill="#FC6B00" fill-opacity="0.4"/>
<path d="M41.5 55.4831C41.5 27.8792 63.9245 5.5 91.5887 5.5H169.216C187.402 5.5 204.309 14.8321 213.974 30.2036C224.061 46.2451 241.704 55.9831 260.681 55.9831H373.146C393.225 55.9831 409.5 72.2258 409.5 92.26V238.688C409.5 271.168 383.114 297.5 350.564 297.5H100.436C67.8857 297.5 41.5 271.168 41.5 238.688V55.4831Z" stroke="url(#paint2_linear_3124_2229)"/>
</g>
<path d="M41 238.688C41 238.694 41 238.7 41 238.707C41.0055 256.197 48.5973 271.918 60.6702 282.77C82.9336 251.024 130.395 208.018 231.576 168.927C323.941 133.242 370.781 93.6415 394.529 62.3029C388.499 58.0091 381.118 55.4831 373.146 55.4831H260.681C241.876 55.4831 224.392 45.8332 214.397 29.9374C204.641 14.4202 187.574 5 169.216 5H113.299C73.3932 5 41.0389 32.8092 41 67.1265L41 238.688Z" fill="white" fill-opacity="0.09"/>
<g filter="url(#filter2_d_3124_2229)">
<path d="M128.228 97.5762C121.654 97.5762 116.325 102.894 116.325 109.455C116.325 116.015 121.654 121.333 128.228 121.333H261.147C267.721 121.333 273.05 116.015 273.05 109.455C273.05 102.894 267.721 97.5762 261.147 97.5762H128.228Z" fill="url(#paint3_linear_3124_2229)"/>
<path d="M128.228 141.13C121.654 141.13 116.324 146.448 116.324 153.009C116.324 159.569 121.654 164.887 128.228 164.887H213.534C220.108 164.887 225.437 159.569 225.437 153.009C225.437 146.448 220.108 141.13 213.534 141.13H128.228Z" fill="url(#paint4_linear_3124_2229)"/>
<path d="M116.825 109.455C116.825 103.171 121.929 98.0762 128.228 98.0762H261.147C267.446 98.0762 272.55 103.171 272.55 109.455C272.55 115.738 267.446 120.833 261.147 120.833H128.228C121.929 120.833 116.825 115.738 116.825 109.455ZM116.824 153.009C116.824 146.726 121.929 141.63 128.228 141.63H213.534C219.833 141.63 224.937 146.726 224.937 153.009C224.937 159.292 219.833 164.387 213.534 164.387H128.228C121.929 164.387 116.824 159.292 116.824 153.009Z" stroke="white" stroke-opacity="0.14"/>
</g>
</g>
<defs>
<filter id="filter0_d_3124_2229" x="0" y="0" width="451" height="375" filterUnits="userSpaceOnUse" color-interpolation-filters="sRGB">
<feFlood flood-opacity="0" result="BackgroundImageFix"/>
<feColorMatrix in="SourceAlpha" type="matrix" values="0 0 0 0 0 0 0 0 0 0 0 0 0 0 0 0 0 0 127 0" result="hardAlpha"/>
<feOffset dy="36"/>
<feGaussianBlur stdDeviation="20.5"/>
<feComposite in2="hardAlpha" operator="out"/>
<feColorMatrix type="matrix" values="0 0 0 0 0.988235 0 0 0 0 0.419608 0 0 0 0 0 0 0 0 0.17 0"/>
<feBlend mode="normal" in2="BackgroundImageFix" result="effect1_dropShadow_3124_2229"/>
<feBlend mode="normal" in="SourceGraphic" in2="effect1_dropShadow_3124_2229" result="shape"/>
</filter>
<filter id="filter1_bi_3124_2229" x="24" y="-12" width="403" height="327" filterUnits="userSpaceOnUse" color-interpolation-filters="sRGB">
<feFlood flood-opacity="0" result="BackgroundImageFix"/>
<feGaussianBlur in="BackgroundImageFix" stdDeviation="8.5"/>
<feComposite in2="SourceAlpha" operator="in" result="effect1_backgroundBlur_3124_2229"/>
<feBlend mode="normal" in="SourceGraphic" in2="effect1_backgroundBlur_3124_2229" result="shape"/>
<feColorMatrix in="SourceAlpha" type="matrix" values="0 0 0 0 0 0 0 0 0 0 0 0 0 0 0 0 0 0 127 0" result="hardAlpha"/>
<feOffset/>
<feGaussianBlur stdDeviation="2"/>
<feComposite in2="hardAlpha" operator="arithmetic" k2="-1" k3="1"/>
<feColorMatrix type="matrix" values="0 0 0 0 1 0 0 0 0 1 0 0 0 0 1 0 0 0 0.63 0"/>
<feBlend mode="normal" in2="shape" result="effect2_innerShadow_3124_2229"/>
</filter>
<filter id="filter2_d_3124_2229" x="110.324" y="97.5762" width="168.726" height="79.311" filterUnits="userSpaceOnUse" color-interpolation-filters="sRGB">
<feFlood flood-opacity="0" result="BackgroundImageFix"/>
<feColorMatrix in="SourceAlpha" type="matrix" values="0 0 0 0 0 0 0 0 0 0 0 0 0 0 0 0 0 0 127 0" result="hardAlpha"/>
<feOffset dy="6"/>
<feGaussianBlur stdDeviation="3"/>
<feComposite in2="hardAlpha" operator="out"/>
<feColorMatrix type="matrix" values="0 0 0 0 0.635294 0 0 0 0 0.294118 0 0 0 0 0.894118 0 0 0 0.27 0"/>
<feBlend mode="normal" in2="BackgroundImageFix" result="effect1_dropShadow_3124_2229"/>
<feBlend mode="normal" in="SourceGraphic" in2="effect1_dropShadow_3124_2229" result="shape"/>
</filter>
<linearGradient id="paint0_linear_3124_2229" x1="24.1175" y1="140.744" x2="70.3623" y2="-19.0593" gradientUnits="userSpaceOnUse">
<stop stop-color="#844AE3"/>
<stop offset="1" stop-color="#E14AE3"/>
</linearGradient>
<linearGradient id="paint1_linear_3124_2229" x1="79.2909" y1="136.35" x2="611.414" y2="136.35" gradientUnits="userSpaceOnUse">
<stop stop-color="#FC6B00"/>
<stop offset="1" stop-color="#964000"/>
</linearGradient>
<linearGradient id="paint2_linear_3124_2229" x1="116.897" y1="58.5485" x2="253.073" y2="354.687" gradientUnits="userSpaceOnUse">
<stop offset="0.331091" stop-color="white" stop-opacity="0.26"/>
<stop offset="1" stop-color="#AB4BE4" stop-opacity="0.16"/>
</linearGradient>
<linearGradient id="paint3_linear_3124_2229" x1="112.284" y1="146.284" x2="278.981" y2="144.314" gradientUnits="userSpaceOnUse">
<stop stop-color="#E9C7FC"/>
<stop offset="1" stop-color="#FEFCFF"/>
</linearGradient>
<linearGradient id="paint4_linear_3124_2229" x1="112.284" y1="146.284" x2="278.981" y2="144.314" gradientUnits="userSpaceOnUse">
<stop stop-color="#E9C7FC"/>
<stop offset="1" stop-color="#FEFCFF"/>
</linearGradient>
</defs>
</svg>
