<svg width="79" height="79" viewBox="0 0 79 79" fill="none" xmlns="http://www.w3.org/2000/svg">
<g filter="url(#filter0_d_3124_2243)">
<rect x="16.4252" y="13.1504" width="42.2226" height="42.2226" rx="10.9044" transform="rotate(0.118781 16.4252 13.1504)" fill="#FFDEA9"/>
</g>
<path fill-rule="evenodd" clip-rule="evenodd" d="M37.5452 24.4495C35.2001 24.4495 33.2989 26.3507 33.2989 28.6959V37.1885C33.2989 37.9702 32.6652 38.6039 31.8835 38.6039C31.1018 38.6039 30.468 37.9702 30.468 37.1885V28.6959C30.468 24.7872 33.6366 21.6187 37.5452 21.6187C41.4539 21.6187 44.6224 24.7872 44.6224 28.6959V37.1885C44.6224 37.9702 43.9887 38.6039 43.207 38.6039C42.4253 38.6039 41.7916 37.9702 41.7916 37.1885V28.6959C41.7916 26.3507 39.8904 24.4495 37.5452 24.4495Z" fill="url(#paint0_linear_3124_2243)"/>
<g filter="url(#filter1_b_3124_2243)">
<rect x="27.6372" y="30.1113" width="19.8162" height="15.5698" rx="4.24632" fill="#FC6B00" fill-opacity="0.4"/>
<rect x="27.7079" y="30.1821" width="19.6746" height="15.4283" rx="4.17555" stroke="url(#paint1_linear_3124_2243)" stroke-width="0.141544"/>
</g>
<g filter="url(#filter2_b_3124_2243)">
<rect x="40.3761" y="34.3574" width="8.49264" height="5.66176" rx="2.83088" transform="rotate(90 40.3761 34.3574)" fill="url(#paint2_linear_3124_2243)"/>
<rect x="40.3198" y="34.4137" width="8.38005" height="5.54917" rx="2.77458" transform="rotate(90 40.3198 34.4137)" stroke="url(#paint3_linear_3124_2243)" stroke-width="0.112594"/>
</g>
<defs>
<filter id="filter0_d_3124_2243" x="0.330263" y="0.846265" width="78.0283" height="78.0285" filterUnits="userSpaceOnUse" color-interpolation-filters="sRGB">
<feFlood flood-opacity="0" result="BackgroundImageFix"/>
<feColorMatrix in="SourceAlpha" type="matrix" values="0 0 0 0 0 0 0 0 0 0 0 0 0 0 0 0 0 0 127 0" result="hardAlpha"/>
<feMorphology radius="2.67467" operator="erode" in="SourceAlpha" result="effect1_dropShadow_3124_2243"/>
<feOffset dx="1.8517" dy="5.55509"/>
<feGaussianBlur stdDeviation="10.2872"/>
<feComposite in2="hardAlpha" operator="out"/>
<feColorMatrix type="matrix" values="0 0 0 0 0.0846354 0 0 0 0 0.203125 0 0 0 0 0.3125 0 0 0 0.1 0"/>
<feBlend mode="normal" in2="BackgroundImageFix" result="effect1_dropShadow_3124_2243"/>
<feBlend mode="normal" in="SourceGraphic" in2="effect1_dropShadow_3124_2243" result="shape"/>
</filter>
<filter id="filter1_b_3124_2243" x="24.8063" y="27.2804" width="25.4779" height="21.2316" filterUnits="userSpaceOnUse" color-interpolation-filters="sRGB">
<feFlood flood-opacity="0" result="BackgroundImageFix"/>
<feGaussianBlur in="BackgroundImageFix" stdDeviation="1.41544"/>
<feComposite in2="SourceAlpha" operator="in" result="effect1_backgroundBlur_3124_2243"/>
<feBlend mode="normal" in="SourceGraphic" in2="effect1_backgroundBlur_3124_2243" result="shape"/>
</filter>
<filter id="filter2_b_3124_2243" x="29.0526" y="28.6957" width="16.9853" height="19.8162" filterUnits="userSpaceOnUse" color-interpolation-filters="sRGB">
<feFlood flood-opacity="0" result="BackgroundImageFix"/>
<feGaussianBlur in="BackgroundImageFix" stdDeviation="2.83088"/>
<feComposite in2="SourceAlpha" operator="in" result="effect1_backgroundBlur_3124_2243"/>
<feBlend mode="normal" in="SourceGraphic" in2="effect1_backgroundBlur_3124_2243" result="shape"/>
</filter>
<linearGradient id="paint0_linear_3124_2243" x1="30.468" y1="30.1113" x2="55.8489" y2="30.1113" gradientUnits="userSpaceOnUse">
<stop stop-color="#FC6B00"/>
<stop offset="1" stop-color="#964000"/>
</linearGradient>
<linearGradient id="paint1_linear_3124_2243" x1="26.6464" y1="31.2235" x2="36.637" y2="50.6433" gradientUnits="userSpaceOnUse">
<stop stop-color="white"/>
<stop offset="0.765625" stop-color="white" stop-opacity="0"/>
</linearGradient>
<linearGradient id="paint2_linear_3124_2243" x1="48.4429" y1="35.7363" x2="48.0207" y2="41.0845" gradientUnits="userSpaceOnUse">
<stop stop-color="#F9FFFC"/>
<stop offset="1" stop-color="#F7FBFF" stop-opacity="0.28"/>
</linearGradient>
<linearGradient id="paint3_linear_3124_2243" x1="42.2502" y1="41.366" x2="47.5984" y2="33.6252" gradientUnits="userSpaceOnUse">
<stop stop-color="white"/>
<stop offset="1" stop-color="white" stop-opacity="0"/>
</linearGradient>
</defs>
</svg>
