<?xml version="1.0" encoding="UTF-8"?>
<svg xmlns="http://www.w3.org/2000/svg" version="1.1" viewBox="0 0 2577.6 1065.2">
  <defs>
    <style>
      .cls-1 {
        fill: #fff;
        stroke-width: 0px;
      }
    </style>
  </defs>
  <!-- Generator: Adobe Illustrator 28.6.0, SVG Export Plug-In . SVG Version: 1.0.2 Build 54)  -->
  <g>
    <g id="Layer_1">
      <g>
        <path class="cls-1" d="M1422.2,387.4c0-.9-.3-1.6-.9-2.2-9.5-7.4-19-11.1-28.5-11.1s-19,3.7-28.5,11.1c-7.1,5.6-14.6,13.5-22.3,23.6-3,3.9-6.2,8.5-9.8,13.8l-4.5,6.7-4.4,6.2-19.2,30.8-18.7,30.3c-16.3,26.5-29.3,46.8-38.8,61.1-17.5,26.7-36.4,53-56.6,78.9l11.2-24.5c21.1-48.7,35.1-92.3,41.9-130.6,1.8-10.4,2.7-19.8,2.7-28.1,0-13.7-2.5-24.8-7.6-33.4-5.7-9.8-15.2-16.8-28.5-21-8.9-2.7-19.5-4-31.7-4h-4c-.3-.3-.6-.5-.9-.5s-.6.1-.9.5c-.9.6-1.5,1.3-1.8,2.2,0,.9.3,1.8.9,2.7,4.5,5.6,6.7,14,6.7,25s-.6,11.9-1.8,18.7c-1.2,6.8-3,15-5.3,24.5l-1.8,5.8-1.3,4.9c-.9,4.2-1.6,7.1-2.2,8.9-2.8,12.3-6.6,26.7-11.2,43-.7.4-1.3.9-1.8,1.6-38.3,54.1-65.2,88-80.5,101.6-15.3,13.7-25.6,22.7-30.8,27-5.2,4.3-8.5,6.5-10,6.5s-1.8-1.8-1.8-5.3.4-7,1.3-12c1.5-11.6,9-28.2,22.5-49.9,13.5-21.7,29.2-44.9,47-69.5l20.5-28.1c7.4-10.4,14-19.8,19.6-28.1l2.7-4.5,3.1-4.5c2.1-3.6,3.7-7,4.9-10.3,1.8-4.1,2.7-8,2.7-11.6s-.8-6.2-2.2-8.9c-6.2-10.1-15.5-18.1-27.6-24.1-10.4-5-20.8-7.6-31.2-7.6h-4.5c-1.2.3-2.2.8-3.1,1.3-1.5.3-2.7,1-3.6,2.2-11.9,16.3-25,35.4-39.2,57v-1.3c0-22-6.4-40.1-19.2-54.4-10.1-11.3-23.8-17.8-41-19.6-3.6-.6-7.3-.9-11.1-.9-12.2,0-23.6,2.8-34.3,8.5-53.3,26.5-98.3,72.2-134.9,137.2-18.1,23.4-41.9,57.2-71.5,101.2-31.5,47-52.3,70.4-62.4,70.4s-6.2-5.3-6.2-16c-.3-.6-.4-1.2-.4-1.8,0-10.1,1.2-19,3.6-26.8,2.1-8.3,8.1-24.4,18.1-48.4,10-23.9,27.6-51.9,52.8-84,5.3-6.5,11.7-13.8,19.2-21.8l10.7-10.2,10.3-10.2c18.1-17.8,31.2-32.2,39.2-43.2,4.5-5.9,6.7-12.9,6.7-21s-.5-7.4-1.3-11.6c-2.7-12.2-8.6-21.9-17.8-29-3.6-2.7-7.9-4-12.9-4s-11.5,1.6-18.3,4.9l-8,4-7.6,4c-6.2,3.3-11.2,5.6-14.7,7.1-11.3,5.1-22.4,8-33.4,8.9h-4.5c-17.5,0-26.6-8.2-27.2-24.5,0-3.3.1-7.3.4-12l.5-12.9v-5.8c0-7.7-.9-13.8-2.7-18.3-3.3-8.3-10.1-13.1-20.5-14.3-1.8-.3-3.4-.4-4.9-.4-8,0-14.9,2.4-20.5,7.1-14.3,11.9-23.5,28.8-27.6,50.8-1.2,6.5-1.8,12.8-1.8,18.7,0,14,2.8,26.9,8.5,38.8,2.4,4.8,3.6,9.2,3.6,13.4s-.5,4.5-1.3,6.2c-2.1,5.6-10.4,19.1-25,40.3-14.6,21.3-23.3,34.1-26.3,38.6-6,8.2-9.8,15.1-11.5,20.8-7.2,6.3-13.9,13.4-20.1,21.2-9.2,11.3-24.6,33.4-46.1,66.4-21.5,33-47.9,62.7-79.1,89.2s-59.9,39.7-86,39.7-19.8-1.8-29.9-5.3c-22.6-7.7-37.3-26.9-44.1-57.5-2.7-11.9-4.2-25.4-4.4-40.6v-8c0-8.6.3-18.3.9-29,2.7-41.6,11.6-82.2,26.7-121.7,38.3-96.9,89.6-178.1,153.8-243.8l5.4-5.4c2.7-3,5.4-5.6,8-8,7.4-6.8,14.4-12.5,21-16.9,10.7-7.4,19.6-11.1,26.8-11.1s9.2,2.1,12.5,6.2c3,4.2,4.5,9.5,4.5,16.1s-1.9,16.6-5.8,27.6c-2.4,7.1-5.8,15.1-10.2,24.1-1.5,3-3.1,6.4-4.9,10.2l-2.2,4.5-1.8,3.6c-17.8,36-40.4,71.6-67.8,107-1.2,1.2-3.1,3.7-5.8,7.6l-3.1,4-3.1,4.5c-5.9,7.4-11.1,13.7-15.6,18.7-13.7,14.3-25.9,21.7-36.5,22.3-.9,0-1.5.5-1.8,1.3-.6.6-.9,1.2-.9,1.8v5.8c0,16,3.1,29.7,9.4,41,8.3,14,21,22.3,37.9,25,2.4.3,4.6.5,6.7.5,8.3,0,17.2-1.6,26.8-4.9,9.5-3.3,19.8-8.5,30.8-15.6,46.1-28.5,87.8-77,125.3-145.3,16.3-29.7,27.9-57,34.8-82,5.6-20.2,8.5-39.1,8.5-56.6s-1-21.4-3.1-31.2c-5.7-26.4-21.4-45.3-47.2-56.6-15.8-6.8-33.4-10.2-53-10.2s-15.1.4-23.2,1.3c-38.9,4.8-78.6,21.1-119,49-31.8,22-63.9,51.1-96.3,87.4-74.3,83.5-120.9,176.5-140,279-5.1,27.6-7.6,54.4-7.6,80.2s1.3,37,4,54.8c7.7,50.5,25.9,90.9,54.4,121.2,23.2,24.7,52.4,39.5,87.8,44.6,8.6,1.2,17.1,1.8,25.4,1.8,25.2,0,49-6,71.3-17.8,29.4-15.8,58.5-38.4,87.1-68s53-64.3,72.9-104.1c14-27.9,31-60.3,51.3-97.2l4.5-12,2.2-6.3c.4-.2.7-.3.9-.4.6,0,1-.3,1.3-.9h.5c32.7-43.4,53.3-69.5,62-78.2,8.6-8.8,16.2-13.5,22.7-14,9.8,0,20.2-1.2,31.2-3.6-40.7,37.1-71.5,74.9-92.3,113.2-17.5,32.4-26.7,64.9-27.6,97.6v4.9c0,37.4,12.9,65.1,38.8,82.9,9.8,6.8,19.9,10.2,30.3,10.2,1.5.3,3.1.5,4.9.5,21,0,54.2-32.3,99.4-97,0,.2,0,.5,0,.7,0,36,16.9,57.3,50.8,64.2,4.2.9,8.3,1.3,12.5,1.3,17.8,0,35.7-7.6,53.5-22.7,20.2-17.2,43.5-41.5,70-72.7-.6,4.2-.9,8.3-.9,12.5,0,14,3.6,27.2,10.7,39.7,9.8,17.8,23.8,27.8,41.9,29.9,3,.3,5.9.4,8.9.4,24.4,0,46.9-11.1,67.8-33.4,10.1-11,21.2-23.8,33.4-38.3l8.1-10.2-5.9,17.8c-6.8,20.2-12.2,37.2-16.1,50.8l-.4,1.8-.9,2.2-1.8,4.9c-.6,2.4-.9,4.5-.9,6.2s.2,2.2.4,3.1c2.1,6,7,9.7,14.7,11.2,2.4.3,5.1.4,8,.4s8.3-.3,13.4-.9c12.8-.3,22.9-3.3,30.3-8.9,4.8-3.9,10.1-9.7,16.1-17.4l7.6-9.4,7.1-9.4c19-23.2,45.6-58,79.8-104.3l37.9-52.6,37.9-52.6c30.3-42.2,56.2-76.7,77.6-103.4.6-.6.9-1.2.9-1.8,0-.3-.1-.7-.4-1.3ZM972.9,481.4c-1.2,8-3.3,17.4-6.2,28.1-1.2,3.9-2.4,7.6-3.6,11.1-.3,1.2-.6,2.4-.9,3.6-.3.9-.6,1.8-.9,2.7-7.4,20.8-15.9,41.2-25.4,61.1l-25,25.4-14.7,14.7c-5.7,6-10.7,11-15.2,15.2-11.9,11-23,19.3-33.4,25-.9.6-1.8.9-2.7.9-2.7,0-4-2.7-4-8s.6-8.3,1.8-14.3c.9-5.9,2.4-12.5,4.5-19.6.9-2.7,1.6-5.2,2.2-7.6.6-2.1,1-3.6,1.3-4.5,10.7-27.6,27.8-58.8,51.3-93.6l6.2-8.9,6.2-9.4c5-6.8,9.7-12.8,13.8-17.8,11-13.1,22-23,33-29.9,2.7-1.5,4.9-2.2,6.7-2.2,4.5,0,6.7,4.2,6.7,12.5s-.6,9.4-1.8,15.6Z"/>
        <path class="cls-1" d="M1689.7,387.4c.3.6.4,1,.4,1.3,0,.6-.3,1.2-.9,1.8-21.4,26.8-47.2,61.2-77.6,103.4l-37.9,52.6-37.9,52.6c-34.2,46.4-60.8,81.1-79.8,104.3l-7.1,9.4-7.6,9.4c-5.9,7.7-11.3,13.5-16.1,17.4-7.4,5.6-17.5,8.6-30.3,8.9-5.1.6-9.5.9-13.4.9s-5.6-.2-8-.5c-7.7-1.5-12.6-5.2-14.7-11.1-.3-.9-.4-1.9-.4-3.1,0-1.8.3-3.9.9-6.2l1.8-4.9.9-2.2.4-1.8c3.9-13.7,9.2-30.6,16.1-50.8l8.5-25.4,8-25c18.1-56.2,30.8-99.7,37.9-130.6.6-1.8,1.3-4.8,2.2-8.9l1.3-4.9,1.8-5.8c2.4-9.5,4.2-17.7,5.3-24.5,1.2-6.8,1.8-13.1,1.8-18.7,0-11-2.2-19.3-6.7-25-.6-.9-.9-1.8-.9-2.7.3-.9.9-1.6,1.8-2.2.3-.3.6-.5.9-.5s.6.1.9.5h4c12.2,0,22.7,1.3,31.7,4,13.4,4.2,22.9,11.1,28.5,21,5.1,8.6,7.6,19.8,7.6,33.4s-.9,17.7-2.7,28.1c-6.8,38.3-20.8,81.9-41.9,130.6l-11.1,24.5c20.2-25.8,39.1-52.2,56.6-78.9,9.5-14.3,22.4-34.6,38.8-61.1l18.7-30.3,19.2-30.8,4.5-6.2,4.5-6.7c3.6-5.4,6.8-10,9.8-13.8,7.7-10.1,15.2-18,22.3-23.6,9.5-7.4,19-11.1,28.5-11.1s19,3.7,28.5,11.1c.6.6.9,1.3.9,2.2Z"/>
        <path class="cls-1" d="M2471.9,354.4c-13.1-21.4-32.2-37.9-57.5-49.5-.9-.3-1.6-.4-2.2-.4-1.2,0-2.2.3-3.1.9-1.8,1.2-2.8,2.7-3.1,4.5-1.2.9-1.8,1.9-1.8,3.1s.1,1.2.4,1.8c5.1,16.6,7.6,33.4,7.6,50.4s-4.9,46.5-14.7,70c-15.8,38-41.6,69.1-77.6,93.2-11.9,8-24.5,13.5-37.9,16.5,8.9-21.4,15.3-38.9,19.2-52.6,5.1-18.1,7.6-34.6,7.6-49.5v-4.5c-1.5-24.1-12.3-41.5-32.5-52.2-11-5.6-22.4-8.5-34.3-8.5s-18.7,1.6-28.5,4.9c-22.9,8-40.4,24.2-52.6,48.6-9.8,19.6-14.7,41.5-14.7,65.5v5.8c-3,0-5.8.3-8.5.9-10.7,1.8-22.3,7.7-34.8,17.8-4.8,3.9-9.8,8.3-15.2,13.4-3.9,3.9-8.3,8.5-13.4,13.8-12.8,13.7-23.3,29-31.6,46-2.2,2.7-4.5,5.5-6.8,8.3-31.2,38.3-54.5,63-70,74-15.5,11-24.4,16.5-26.8,16.5-4.2,0-6.8-11.4-8-34.3v-2.7c0-22.9,12.8-56.8,38.3-101.6,17.5-30.3,40.6-64.6,69.1-103,9.5-13.1,22-29.7,37.4-49.9l37.4-49,5.8-7.1c79.6-3.9,136.1-28.2,169.4-73.1,12.8-16.9,19.2-35.4,19.2-55.3s-1-16.8-3.1-25.4c-8-31.5-27.6-48-58.8-49.5h-4c-21.1,0-43.5,6.8-67.3,20.5-21.7,12.5-40.7,28.4-57.1,47.7l-2.7,3.1c-15.8,17.2-31.1,35.1-45.9,53.5-36.8-2.7-79.3-8.6-127.5-17.8-17.2-3.3-38.3-7.6-63.3-12.9l-31.2-6.7-31.2-7.1-33.4-7.1-33.4-7.6c-27.3-5.9-50.2-10.6-68.6-13.8-46.7-8.3-88-12.5-123.9-12.5h-13.4c-31.5,1.2-60.5,12.9-86.9,35.2-26.7,22.9-42.3,49.6-46.8,80.2-.6,3.9-.9,8.3-.9,13.4s.3,10.1.9,16c.3,3.3,2.1,5.1,5.3,5.4.9.6,1.8.9,2.7.9,1.5,0,2.7-.6,3.6-1.8,15.8-16.6,38.2-29.6,67.3-38.8,25.3-8,51-12,77.1-12s47,1.9,76.7,5.8l37.9,6.2,37.9,5.8,73.1,12,73.6,12c57.3,9.2,106.4,15.8,147.1,19.6-32.1,44.3-64.5,93.2-97.2,146.6l2.2-.5c-.6.6-1,1.2-1.3,1.8-12.8,20.8-23.5,40.1-32.1,58-2.5,5.2-4.9,10.3-7.1,15.3-12.8,17.2-27.9,34.7-45.1,52.4-21.1,21.7-42.1,39.1-62.8,52.2-22,14-40.3,21.1-54.8,21.4h-.9c-9.8,0-20.2-5.3-31.2-16-9.8-9.5-14.7-26.4-14.7-50.8v-8.5c3.3,14.9,13.5,24.7,30.8,29.4,4.4,1.2,9.1,1.8,13.8,1.8,9.8,0,20.1-2.5,30.8-7.6,6.2-3,12.9-7,20.1-12l9.4-6.7,8.9-6.7c25.2-19.6,46.4-41.7,63.3-66.4,19.9-28.8,31.2-56.9,33.9-84.2.3-1.8.4-3.6.4-5.4,0-22.6-11.9-43.2-35.7-62-7.1-5.6-15.3-8.5-24.5-8.5s-7.9.5-12,1.3c-5.3,1.2-11.6,3.3-18.7,6.2l-8.9,4.5-8.9,4c-57.7,27-105.3,69.2-143.1,126.6l-.4.9c-.9.9-1.5,1.8-1.8,2.7-7.7,19-13.4,33.9-16.9,44.6-5.6,16.7-9.2,31.7-10.7,45-.6,5.6-.9,11.3-.9,16.9,0,26.8,8.3,49.9,25,69.5,18.1,21.1,44.4,35.1,78.9,41.9,4.2.9,8.5,1.3,12.9,1.3,15.7,0,33.1-5.2,52.2-15.6,26.4-14.3,55.1-37.2,86-69v.3c0,33,11,59.1,33,78.5,12.5,10.7,25.8,16,40.1,16,26.6,0,59.9-21.2,99.9-63.5,1.9,9.2,5.3,17.9,10.2,26.1,10.4,17.8,25.6,29.3,45.5,34.3,7.1,1.8,14.4,2.7,21.8,2.7,16.3,0,32.5-4.9,48.6-14.7,17.2-11,34.9-28.1,53-51.3,18.4-24.4,35.8-53.6,52.1-87.8,3.3.3,6.5.5,9.8.5,43.4,0,90-18,140-53.9,51.7-37.7,79.8-79.5,84.2-125.3.3-4.5.4-8.8.4-12.9,0-22-5.6-42.2-16.9-60.6ZM2200.9,245.6c1.2-1.2,2.8-2.5,4.9-4,2.1-1.8,4.3-3.6,6.7-5.4,6.5-4.5,12.3-7.7,17.4-9.8,4.4-2.1,8-3.1,10.7-3.1,5,0,7.6,3.1,7.6,9.4s-.1,3.7-.4,5.8c-.9,5.9-5.5,11-13.8,15.1-3,1.5-6.5,3-10.7,4.5l-4.9,1.3-4.5,1.3c-10.1,2.7-21.4,4.6-33.9,5.8,6.5-7.1,13.5-14.1,20.9-20.9ZM1689.7,567.4l4.5-7.1c15.7-25.5,36.8-50.1,63.3-73.5,10.4-8.9,22-17.8,34.8-26.5,12.8-8.8,25.6-14.6,38.3-17.6-4.2,11.9-13.2,27.5-27.2,46.8-5.7,7.4-12.3,15.5-20.1,24.1-5.1,5.7-11.9,12.8-20.5,21.4-26.7,26.7-50.5,40.1-71.3,40.1h-6.2l4.5-7.6ZM2142.5,668.6c-3,3-6.2,5.7-9.8,8-4.2,3-7.9,4.9-11.1,5.8-1.8.6-3.4.9-4.9.9-5.6,0-8.5-4.6-8.5-13.8s3.1-25.5,9.4-41c2.7-6.2,5.8-12.9,9.4-20.1,2.7-5,5.9-11.1,9.8-18.3,6.8-11.9,15.8-23,26.8-33.4,9.5,14,21.8,25.3,37,33.9-17.5,31.2-36.9,57.2-58,78ZM2247.7,455.1c-.9,21.4-8,48.1-21.4,80.2-3.9-3-7.4-6.7-10.7-11.1-4.8-6.5-7.1-14.6-7.1-24.1s.3-6.2.9-9.8c1.5-11.9,5.5-23,12-33.4.6-.9,1.9-2.5,4-4.9,2.4-2.7,4.8-5,7.1-7.1,4.8-3.9,8.3-5.8,10.7-5.8s2.1.4,2.7,1.3c1.2,1.8,1.8,4.2,1.8,7.1v7.6Z"/>
      </g>
    </g>
  </g>
</svg>