<svg width="94" height="22" viewBox="0 0 94 22" fill="none" xmlns="http://www.w3.org/2000/svg">
<g filter="url(#filter0_i_3377_4881)">
<path fill-rule="evenodd" clip-rule="evenodd" d="M10.8462 21.8461C16.8363 21.8461 21.6923 16.9901 21.6923 11C21.6923 5.0098 16.8363 0.153809 10.8462 0.153809C4.85599 0.153809 0 5.0098 0 11C0 16.9901 4.85599 21.8461 10.8462 21.8461Z" fill="#FF1500"/>
</g>
<g filter="url(#filter1_i_3377_4881)">
<path fill-rule="evenodd" clip-rule="evenodd" d="M47 21.8461C52.9902 21.8461 57.8461 16.9901 57.8461 11C57.8461 5.0098 52.9902 0.153809 47 0.153809C41.0098 0.153809 36.1538 5.0098 36.1538 11C36.1538 16.9901 41.0098 21.8461 47 21.8461Z" fill="#FFA900"/>
</g>
<g filter="url(#filter2_i_3377_4881)">
<path fill-rule="evenodd" clip-rule="evenodd" d="M83.1538 21.8461C89.144 21.8461 94 16.9901 94 11C94 5.0098 89.144 0.153809 83.1538 0.153809C77.1637 0.153809 72.3077 5.0098 72.3077 11C72.3077 16.9901 77.1637 21.8461 83.1538 21.8461Z" fill="#2EEB13"/>
</g>
<defs>
<filter id="filter0_i_3377_4881" x="0" y="0.153809" width="21.6923" height="21.6923" filterUnits="userSpaceOnUse" color-interpolation-filters="sRGB">
<feFlood flood-opacity="0" result="BackgroundImageFix"/>
<feBlend mode="normal" in="SourceGraphic" in2="BackgroundImageFix" result="shape"/>
<feColorMatrix in="SourceAlpha" type="matrix" values="0 0 0 0 0 0 0 0 0 0 0 0 0 0 0 0 0 0 127 0" result="hardAlpha"/>
<feOffset/>
<feGaussianBlur stdDeviation="5.42308"/>
<feComposite in2="hardAlpha" operator="arithmetic" k2="-1" k3="1"/>
<feColorMatrix type="matrix" values="0 0 0 0 0.92549 0 0 0 0 0.427451 0 0 0 0 0.384314 0 0 0 1 0"/>
<feBlend mode="normal" in2="shape" result="effect1_innerShadow_3377_4881"/>
</filter>
<filter id="filter1_i_3377_4881" x="36.1538" y="0.153809" width="21.6923" height="21.6923" filterUnits="userSpaceOnUse" color-interpolation-filters="sRGB">
<feFlood flood-opacity="0" result="BackgroundImageFix"/>
<feBlend mode="normal" in="SourceGraphic" in2="BackgroundImageFix" result="shape"/>
<feColorMatrix in="SourceAlpha" type="matrix" values="0 0 0 0 0 0 0 0 0 0 0 0 0 0 0 0 0 0 127 0" result="hardAlpha"/>
<feOffset/>
<feGaussianBlur stdDeviation="5.42308"/>
<feComposite in2="hardAlpha" operator="arithmetic" k2="-1" k3="1"/>
<feColorMatrix type="matrix" values="0 0 0 0 0.960784 0 0 0 0 0.768627 0 0 0 0 0.317647 0 0 0 1 0"/>
<feBlend mode="normal" in2="shape" result="effect1_innerShadow_3377_4881"/>
</filter>
<filter id="filter2_i_3377_4881" x="72.3077" y="0.153809" width="21.6923" height="21.6923" filterUnits="userSpaceOnUse" color-interpolation-filters="sRGB">
<feFlood flood-opacity="0" result="BackgroundImageFix"/>
<feBlend mode="normal" in="SourceGraphic" in2="BackgroundImageFix" result="shape"/>
<feColorMatrix in="SourceAlpha" type="matrix" values="0 0 0 0 0 0 0 0 0 0 0 0 0 0 0 0 0 0 127 0" result="hardAlpha"/>
<feOffset/>
<feGaussianBlur stdDeviation="5.42308"/>
<feComposite in2="hardAlpha" operator="arithmetic" k2="-1" k3="1"/>
<feColorMatrix type="matrix" values="0 0 0 0 0.407843 0 0 0 0 0.8 0 0 0 0 0.345098 0 0 0 1 0"/>
<feBlend mode="normal" in2="shape" result="effect1_innerShadow_3377_4881"/>
</filter>
</defs>
</svg>
